G04*
G04 #@! TF.GenerationSoftware,Altium Limited,Altium Designer,20.2.6 (244)*
G04*
G04 Layer_Color=65535*
%FSLAX24Y24*%
%MOIN*%
G70*
G04*
G04 #@! TF.SameCoordinates,10DCDC14-C833-4712-9BA6-5F063841230D*
G04*
G04*
G04 #@! TF.FilePolarity,Positive*
G04*
G01*
G75*
%ADD10C,0.0098*%
%ADD11C,0.0039*%
%ADD12C,0.0040*%
%ADD13C,0.0236*%
%ADD14C,0.0200*%
%ADD15C,0.0079*%
%ADD16C,0.0050*%
%ADD17C,0.0100*%
%ADD18C,0.0070*%
%ADD19R,0.0240X0.2550*%
%ADD20R,0.2550X0.0240*%
%ADD21R,0.0120X0.1310*%
%ADD22R,0.1000X0.0500*%
G36*
X18192Y1444D02*
X18205D01*
Y1437D01*
Y1431D01*
Y1424D01*
Y1418D01*
Y1411D01*
Y1405D01*
Y1398D01*
Y1392D01*
Y1385D01*
Y1379D01*
Y1372D01*
Y1366D01*
Y1359D01*
Y1353D01*
Y1346D01*
Y1340D01*
Y1334D01*
Y1327D01*
Y1321D01*
Y1314D01*
Y1308D01*
Y1301D01*
Y1295D01*
Y1288D01*
Y1282D01*
Y1275D01*
Y1269D01*
Y1262D01*
Y1256D01*
Y1249D01*
Y1243D01*
Y1236D01*
Y1230D01*
Y1224D01*
Y1217D01*
Y1211D01*
Y1204D01*
Y1198D01*
Y1191D01*
Y1185D01*
Y1178D01*
Y1172D01*
Y1165D01*
Y1159D01*
Y1152D01*
Y1146D01*
Y1139D01*
Y1133D01*
Y1126D01*
Y1120D01*
X18198D01*
Y1114D01*
X18140D01*
Y1120D01*
Y1126D01*
Y1133D01*
Y1139D01*
Y1146D01*
Y1152D01*
Y1159D01*
Y1165D01*
Y1172D01*
Y1178D01*
Y1185D01*
Y1191D01*
Y1198D01*
Y1204D01*
Y1211D01*
Y1217D01*
Y1224D01*
Y1230D01*
Y1236D01*
Y1243D01*
Y1249D01*
Y1256D01*
X18011D01*
Y1249D01*
Y1243D01*
Y1236D01*
Y1230D01*
Y1224D01*
Y1217D01*
Y1211D01*
Y1204D01*
Y1198D01*
Y1191D01*
Y1185D01*
Y1178D01*
Y1172D01*
Y1165D01*
Y1159D01*
Y1152D01*
Y1146D01*
Y1139D01*
Y1133D01*
Y1126D01*
Y1120D01*
X18004D01*
Y1114D01*
X17946D01*
Y1120D01*
Y1126D01*
Y1133D01*
Y1139D01*
Y1146D01*
Y1152D01*
Y1159D01*
Y1165D01*
Y1172D01*
Y1178D01*
Y1185D01*
Y1191D01*
Y1198D01*
Y1204D01*
Y1211D01*
Y1217D01*
Y1224D01*
Y1230D01*
Y1236D01*
Y1243D01*
Y1249D01*
Y1256D01*
Y1262D01*
Y1269D01*
Y1275D01*
Y1282D01*
Y1288D01*
Y1295D01*
Y1301D01*
Y1308D01*
Y1314D01*
Y1321D01*
Y1327D01*
Y1334D01*
Y1340D01*
Y1346D01*
Y1353D01*
Y1359D01*
Y1366D01*
Y1372D01*
Y1379D01*
Y1385D01*
Y1392D01*
Y1398D01*
Y1405D01*
Y1411D01*
Y1418D01*
Y1424D01*
Y1431D01*
Y1437D01*
Y1444D01*
X17959D01*
Y1450D01*
X17998D01*
Y1444D01*
X18011D01*
Y1437D01*
Y1431D01*
Y1424D01*
Y1418D01*
Y1411D01*
Y1405D01*
Y1398D01*
Y1392D01*
Y1385D01*
Y1379D01*
Y1372D01*
Y1366D01*
Y1359D01*
Y1353D01*
Y1346D01*
Y1340D01*
Y1334D01*
Y1327D01*
Y1321D01*
Y1314D01*
X18134D01*
Y1321D01*
X18140D01*
Y1327D01*
Y1334D01*
Y1340D01*
Y1346D01*
Y1353D01*
Y1359D01*
Y1366D01*
Y1372D01*
Y1379D01*
Y1385D01*
Y1392D01*
Y1398D01*
Y1405D01*
Y1411D01*
Y1418D01*
Y1424D01*
Y1431D01*
Y1437D01*
Y1444D01*
X18153D01*
Y1450D01*
X18192D01*
Y1444D01*
D02*
G37*
G36*
X15545D02*
X15558D01*
Y1437D01*
Y1431D01*
Y1424D01*
Y1418D01*
Y1411D01*
Y1405D01*
Y1398D01*
Y1392D01*
Y1385D01*
Y1379D01*
Y1372D01*
Y1366D01*
Y1359D01*
Y1353D01*
Y1346D01*
Y1340D01*
Y1334D01*
Y1327D01*
Y1321D01*
Y1314D01*
Y1308D01*
Y1301D01*
Y1295D01*
Y1288D01*
Y1282D01*
Y1275D01*
Y1269D01*
Y1262D01*
Y1256D01*
Y1249D01*
Y1243D01*
Y1236D01*
Y1230D01*
Y1224D01*
Y1217D01*
Y1211D01*
Y1204D01*
Y1198D01*
Y1191D01*
Y1185D01*
Y1178D01*
Y1172D01*
Y1165D01*
Y1159D01*
Y1152D01*
Y1146D01*
Y1139D01*
Y1133D01*
Y1126D01*
Y1120D01*
Y1114D01*
X15493D01*
Y1120D01*
Y1126D01*
Y1133D01*
Y1139D01*
Y1146D01*
Y1152D01*
Y1159D01*
Y1165D01*
Y1172D01*
Y1178D01*
Y1185D01*
Y1191D01*
Y1198D01*
Y1204D01*
Y1211D01*
Y1217D01*
Y1224D01*
Y1230D01*
Y1236D01*
Y1243D01*
Y1249D01*
Y1256D01*
X15364D01*
Y1249D01*
Y1243D01*
Y1236D01*
Y1230D01*
Y1224D01*
Y1217D01*
Y1211D01*
Y1204D01*
Y1198D01*
Y1191D01*
Y1185D01*
Y1178D01*
Y1172D01*
Y1165D01*
Y1159D01*
Y1152D01*
Y1146D01*
Y1139D01*
Y1133D01*
Y1126D01*
Y1120D01*
Y1114D01*
X15299D01*
Y1120D01*
Y1126D01*
Y1133D01*
Y1139D01*
Y1146D01*
Y1152D01*
Y1159D01*
Y1165D01*
Y1172D01*
Y1178D01*
Y1185D01*
Y1191D01*
Y1198D01*
Y1204D01*
Y1211D01*
Y1217D01*
Y1224D01*
Y1230D01*
Y1236D01*
Y1243D01*
Y1249D01*
Y1256D01*
Y1262D01*
Y1269D01*
Y1275D01*
Y1282D01*
Y1288D01*
Y1295D01*
Y1301D01*
Y1308D01*
Y1314D01*
Y1321D01*
Y1327D01*
Y1334D01*
Y1340D01*
Y1346D01*
Y1353D01*
Y1359D01*
Y1366D01*
Y1372D01*
Y1379D01*
Y1385D01*
Y1392D01*
Y1398D01*
Y1405D01*
Y1411D01*
Y1418D01*
Y1424D01*
Y1431D01*
Y1437D01*
Y1444D01*
X15312D01*
Y1450D01*
X15351D01*
Y1444D01*
X15364D01*
Y1437D01*
Y1431D01*
Y1424D01*
Y1418D01*
Y1411D01*
Y1405D01*
Y1398D01*
Y1392D01*
Y1385D01*
Y1379D01*
Y1372D01*
Y1366D01*
Y1359D01*
Y1353D01*
Y1346D01*
Y1340D01*
Y1334D01*
Y1327D01*
Y1321D01*
Y1314D01*
X15493D01*
Y1321D01*
Y1327D01*
Y1334D01*
Y1340D01*
Y1346D01*
Y1353D01*
Y1359D01*
Y1366D01*
Y1372D01*
Y1379D01*
Y1385D01*
Y1392D01*
Y1398D01*
Y1405D01*
Y1411D01*
Y1418D01*
Y1424D01*
Y1431D01*
Y1437D01*
Y1444D01*
X15506D01*
Y1450D01*
X15545D01*
Y1444D01*
D02*
G37*
G36*
X16652D02*
X16665D01*
Y1437D01*
Y1431D01*
Y1424D01*
Y1418D01*
X16658D01*
Y1411D01*
X16652D01*
Y1405D01*
X16645D01*
Y1398D01*
Y1392D01*
X16639D01*
Y1385D01*
X16632D01*
Y1379D01*
X16626D01*
Y1372D01*
Y1366D01*
X16619D01*
Y1359D01*
X16613D01*
Y1353D01*
X16606D01*
Y1346D01*
X16600D01*
Y1340D01*
Y1334D01*
X16593D01*
Y1327D01*
X16587D01*
Y1321D01*
X16580D01*
Y1314D01*
Y1308D01*
X16574D01*
Y1301D01*
X16568D01*
Y1295D01*
Y1288D01*
Y1282D01*
X16574D01*
Y1275D01*
X16580D01*
Y1269D01*
Y1262D01*
X16587D01*
Y1256D01*
X16593D01*
Y1249D01*
Y1243D01*
X16600D01*
Y1236D01*
X16606D01*
Y1230D01*
Y1224D01*
X16613D01*
Y1217D01*
X16619D01*
Y1211D01*
Y1204D01*
X16626D01*
Y1198D01*
X16632D01*
Y1191D01*
Y1185D01*
X16639D01*
Y1178D01*
X16645D01*
Y1172D01*
Y1165D01*
X16652D01*
Y1159D01*
X16658D01*
Y1152D01*
Y1146D01*
X16665D01*
Y1139D01*
X16671D01*
Y1133D01*
Y1126D01*
Y1120D01*
Y1114D01*
X16606D01*
Y1120D01*
X16600D01*
Y1126D01*
X16593D01*
Y1133D01*
X16587D01*
Y1139D01*
Y1146D01*
X16580D01*
Y1152D01*
Y1159D01*
X16574D01*
Y1165D01*
X16568D01*
Y1172D01*
Y1178D01*
X16561D01*
Y1185D01*
X16555D01*
Y1191D01*
Y1198D01*
X16548D01*
Y1204D01*
X16542D01*
Y1211D01*
Y1217D01*
X16535D01*
Y1224D01*
X16529D01*
Y1230D01*
Y1236D01*
X16522D01*
Y1243D01*
Y1249D01*
X16516D01*
Y1256D01*
X16509D01*
Y1262D01*
Y1269D01*
X16503D01*
Y1275D01*
X16496D01*
Y1269D01*
Y1262D01*
Y1256D01*
Y1249D01*
Y1243D01*
Y1236D01*
Y1230D01*
Y1224D01*
Y1217D01*
Y1211D01*
Y1204D01*
Y1198D01*
Y1191D01*
Y1185D01*
Y1178D01*
Y1172D01*
Y1165D01*
Y1159D01*
Y1152D01*
Y1146D01*
Y1139D01*
Y1133D01*
Y1126D01*
Y1120D01*
X16490D01*
Y1114D01*
X16432D01*
Y1120D01*
Y1126D01*
Y1133D01*
Y1139D01*
Y1146D01*
Y1152D01*
Y1159D01*
Y1165D01*
Y1172D01*
Y1178D01*
Y1185D01*
Y1191D01*
Y1198D01*
Y1204D01*
Y1211D01*
Y1217D01*
Y1224D01*
Y1230D01*
Y1236D01*
Y1243D01*
Y1249D01*
Y1256D01*
Y1262D01*
Y1269D01*
Y1275D01*
Y1282D01*
Y1288D01*
Y1295D01*
Y1301D01*
Y1308D01*
Y1314D01*
Y1321D01*
Y1327D01*
Y1334D01*
Y1340D01*
Y1346D01*
Y1353D01*
Y1359D01*
Y1366D01*
Y1372D01*
Y1379D01*
Y1385D01*
Y1392D01*
Y1398D01*
Y1405D01*
Y1411D01*
Y1418D01*
Y1424D01*
Y1431D01*
Y1437D01*
Y1444D01*
X16445D01*
Y1450D01*
X16483D01*
Y1444D01*
X16496D01*
Y1437D01*
Y1431D01*
Y1424D01*
Y1418D01*
Y1411D01*
Y1405D01*
Y1398D01*
Y1392D01*
Y1385D01*
Y1379D01*
Y1372D01*
Y1366D01*
Y1359D01*
Y1353D01*
Y1346D01*
Y1340D01*
Y1334D01*
Y1327D01*
Y1321D01*
Y1314D01*
Y1308D01*
Y1301D01*
X16503D01*
Y1308D01*
X16509D01*
Y1314D01*
Y1321D01*
X16516D01*
Y1327D01*
X16522D01*
Y1334D01*
Y1340D01*
X16529D01*
Y1346D01*
X16535D01*
Y1353D01*
X16542D01*
Y1359D01*
Y1366D01*
X16548D01*
Y1372D01*
X16555D01*
Y1379D01*
Y1385D01*
X16561D01*
Y1392D01*
X16568D01*
Y1398D01*
Y1405D01*
X16574D01*
Y1411D01*
X16580D01*
Y1418D01*
X16587D01*
Y1424D01*
Y1431D01*
X16593D01*
Y1437D01*
X16600D01*
Y1444D01*
X16613D01*
Y1450D01*
X16652D01*
Y1444D01*
D02*
G37*
G36*
X14445Y1819D02*
X14451D01*
Y1812D01*
X14458D01*
Y1806D01*
X14464D01*
Y1799D01*
X14471D01*
Y1793D01*
X14477D01*
Y1787D01*
X14484D01*
Y1780D01*
X14490D01*
Y1774D01*
X14497D01*
Y1767D01*
X14503D01*
Y1761D01*
X14510D01*
Y1754D01*
X14516D01*
Y1748D01*
X14523D01*
Y1741D01*
X14529D01*
Y1735D01*
X14536D01*
Y1728D01*
X14542D01*
Y1722D01*
X14548D01*
Y1715D01*
X14555D01*
Y1709D01*
X14561D01*
Y1702D01*
X14568D01*
Y1696D01*
X14574D01*
Y1689D01*
X14581D01*
Y1683D01*
X14587D01*
Y1677D01*
X14594D01*
Y1670D01*
Y1664D01*
Y1657D01*
Y1651D01*
Y1644D01*
Y1638D01*
Y1631D01*
Y1625D01*
Y1618D01*
Y1612D01*
Y1605D01*
Y1599D01*
Y1592D01*
Y1586D01*
Y1579D01*
Y1573D01*
Y1567D01*
Y1560D01*
Y1554D01*
Y1547D01*
Y1541D01*
Y1534D01*
Y1528D01*
Y1521D01*
Y1515D01*
Y1508D01*
Y1502D01*
Y1495D01*
Y1489D01*
Y1482D01*
Y1476D01*
Y1469D01*
Y1463D01*
Y1456D01*
Y1450D01*
Y1444D01*
Y1437D01*
Y1431D01*
Y1424D01*
Y1418D01*
Y1411D01*
Y1405D01*
Y1398D01*
Y1392D01*
Y1385D01*
Y1379D01*
Y1372D01*
Y1366D01*
Y1359D01*
Y1353D01*
Y1346D01*
Y1340D01*
Y1334D01*
Y1327D01*
Y1321D01*
Y1314D01*
Y1308D01*
Y1301D01*
Y1295D01*
Y1288D01*
Y1282D01*
Y1275D01*
Y1269D01*
Y1262D01*
Y1256D01*
Y1249D01*
Y1243D01*
Y1236D01*
Y1230D01*
Y1224D01*
X14270D01*
Y1230D01*
Y1236D01*
Y1243D01*
Y1249D01*
Y1256D01*
Y1262D01*
Y1269D01*
Y1275D01*
Y1282D01*
Y1288D01*
Y1295D01*
Y1301D01*
Y1308D01*
Y1314D01*
Y1321D01*
Y1327D01*
Y1334D01*
Y1340D01*
Y1346D01*
Y1353D01*
Y1359D01*
Y1366D01*
Y1372D01*
Y1379D01*
Y1385D01*
Y1392D01*
Y1398D01*
Y1405D01*
Y1411D01*
Y1418D01*
Y1424D01*
Y1431D01*
Y1437D01*
Y1444D01*
Y1450D01*
Y1456D01*
Y1463D01*
Y1469D01*
Y1476D01*
Y1482D01*
Y1489D01*
Y1495D01*
Y1502D01*
Y1508D01*
Y1515D01*
Y1521D01*
Y1528D01*
Y1534D01*
Y1541D01*
Y1547D01*
Y1554D01*
Y1560D01*
Y1567D01*
Y1573D01*
Y1579D01*
Y1586D01*
Y1592D01*
Y1599D01*
Y1605D01*
Y1612D01*
Y1618D01*
Y1625D01*
Y1631D01*
Y1638D01*
Y1644D01*
Y1651D01*
Y1657D01*
Y1664D01*
X14277D01*
Y1670D01*
X14283D01*
Y1677D01*
X14290D01*
Y1683D01*
X14296D01*
Y1689D01*
X14303D01*
Y1696D01*
X14309D01*
Y1702D01*
X14316D01*
Y1709D01*
X14322D01*
Y1715D01*
X14328D01*
Y1722D01*
X14335D01*
Y1728D01*
X14341D01*
Y1735D01*
X14348D01*
Y1741D01*
X14354D01*
Y1748D01*
X14361D01*
Y1754D01*
X14367D01*
Y1761D01*
X14374D01*
Y1767D01*
X14380D01*
Y1774D01*
X14387D01*
Y1780D01*
X14393D01*
Y1787D01*
X14400D01*
Y1793D01*
X14406D01*
Y1799D01*
X14413D01*
Y1806D01*
X14419D01*
Y1812D01*
X14426D01*
Y1819D01*
X14432D01*
Y1825D01*
X14445D01*
Y1819D01*
D02*
G37*
G36*
X18858Y1444D02*
X18878D01*
Y1437D01*
Y1431D01*
Y1424D01*
Y1418D01*
Y1411D01*
Y1405D01*
Y1398D01*
Y1392D01*
Y1385D01*
Y1379D01*
Y1372D01*
Y1366D01*
Y1359D01*
Y1353D01*
Y1346D01*
Y1340D01*
Y1334D01*
Y1327D01*
Y1321D01*
Y1314D01*
Y1308D01*
Y1301D01*
Y1295D01*
Y1288D01*
Y1282D01*
Y1275D01*
Y1269D01*
Y1262D01*
Y1256D01*
Y1249D01*
Y1243D01*
Y1236D01*
Y1230D01*
Y1224D01*
Y1217D01*
Y1211D01*
Y1204D01*
Y1198D01*
Y1191D01*
Y1185D01*
Y1178D01*
Y1172D01*
Y1165D01*
Y1159D01*
Y1152D01*
Y1146D01*
Y1139D01*
Y1133D01*
Y1126D01*
X18871D01*
Y1120D01*
X18865D01*
Y1114D01*
X18800D01*
Y1120D01*
X18794D01*
Y1126D01*
X18787D01*
Y1133D01*
X18781D01*
Y1139D01*
Y1146D01*
X18774D01*
Y1152D01*
Y1159D01*
X18768D01*
Y1165D01*
Y1172D01*
X18761D01*
Y1178D01*
Y1185D01*
X18755D01*
Y1191D01*
Y1198D01*
X18748D01*
Y1204D01*
X18742D01*
Y1211D01*
Y1217D01*
X18735D01*
Y1224D01*
Y1230D01*
X18729D01*
Y1236D01*
Y1243D01*
X18722D01*
Y1249D01*
Y1256D01*
X18716D01*
Y1262D01*
Y1269D01*
X18710D01*
Y1275D01*
Y1282D01*
X18703D01*
Y1288D01*
X18697D01*
Y1295D01*
Y1301D01*
X18690D01*
Y1308D01*
Y1314D01*
X18684D01*
Y1321D01*
Y1327D01*
X18677D01*
Y1334D01*
Y1340D01*
X18671D01*
Y1346D01*
Y1353D01*
Y1359D01*
X18664D01*
Y1366D01*
X18658D01*
Y1359D01*
Y1353D01*
Y1346D01*
Y1340D01*
Y1334D01*
X18664D01*
Y1327D01*
Y1321D01*
Y1314D01*
Y1308D01*
Y1301D01*
Y1295D01*
Y1288D01*
Y1282D01*
Y1275D01*
Y1269D01*
Y1262D01*
Y1256D01*
Y1249D01*
Y1243D01*
Y1236D01*
Y1230D01*
Y1224D01*
Y1217D01*
Y1211D01*
Y1204D01*
Y1198D01*
Y1191D01*
Y1185D01*
Y1178D01*
Y1172D01*
Y1165D01*
Y1159D01*
Y1152D01*
Y1146D01*
Y1139D01*
Y1133D01*
Y1126D01*
Y1120D01*
X18658D01*
Y1114D01*
X18606D01*
Y1120D01*
X18600D01*
Y1126D01*
Y1133D01*
Y1139D01*
Y1146D01*
Y1152D01*
Y1159D01*
Y1165D01*
Y1172D01*
Y1178D01*
Y1185D01*
Y1191D01*
Y1198D01*
Y1204D01*
Y1211D01*
Y1217D01*
Y1224D01*
Y1230D01*
Y1236D01*
Y1243D01*
Y1249D01*
Y1256D01*
Y1262D01*
Y1269D01*
Y1275D01*
Y1282D01*
Y1288D01*
Y1295D01*
Y1301D01*
Y1308D01*
Y1314D01*
Y1321D01*
Y1327D01*
Y1334D01*
Y1340D01*
Y1346D01*
Y1353D01*
Y1359D01*
Y1366D01*
Y1372D01*
Y1379D01*
Y1385D01*
Y1392D01*
Y1398D01*
Y1405D01*
Y1411D01*
Y1418D01*
Y1424D01*
Y1431D01*
X18606D01*
Y1437D01*
Y1444D01*
X18690D01*
Y1437D01*
X18697D01*
Y1431D01*
X18703D01*
Y1424D01*
Y1418D01*
X18710D01*
Y1411D01*
Y1405D01*
X18716D01*
Y1398D01*
Y1392D01*
X18722D01*
Y1385D01*
X18729D01*
Y1379D01*
Y1372D01*
X18735D01*
Y1366D01*
Y1359D01*
X18742D01*
Y1353D01*
Y1346D01*
X18748D01*
Y1340D01*
Y1334D01*
X18755D01*
Y1327D01*
Y1321D01*
X18761D01*
Y1314D01*
Y1308D01*
X18768D01*
Y1301D01*
X18774D01*
Y1295D01*
Y1288D01*
X18781D01*
Y1282D01*
Y1275D01*
X18787D01*
Y1269D01*
Y1262D01*
X18794D01*
Y1256D01*
Y1249D01*
X18800D01*
Y1243D01*
Y1236D01*
X18807D01*
Y1230D01*
Y1224D01*
X18813D01*
Y1217D01*
Y1211D01*
X18820D01*
Y1217D01*
Y1224D01*
Y1230D01*
Y1236D01*
Y1243D01*
Y1249D01*
Y1256D01*
Y1262D01*
Y1269D01*
Y1275D01*
Y1282D01*
Y1288D01*
Y1295D01*
Y1301D01*
Y1308D01*
Y1314D01*
Y1321D01*
Y1327D01*
Y1334D01*
Y1340D01*
Y1346D01*
Y1353D01*
Y1359D01*
Y1366D01*
Y1372D01*
Y1379D01*
Y1385D01*
Y1392D01*
Y1398D01*
Y1405D01*
Y1411D01*
Y1418D01*
Y1424D01*
Y1431D01*
Y1437D01*
Y1444D01*
X18839D01*
Y1450D01*
X18858D01*
Y1444D01*
D02*
G37*
G36*
X17849D02*
X17868D01*
Y1437D01*
Y1431D01*
Y1424D01*
Y1418D01*
Y1411D01*
Y1405D01*
Y1398D01*
Y1392D01*
Y1385D01*
Y1379D01*
Y1372D01*
Y1366D01*
Y1359D01*
Y1353D01*
Y1346D01*
Y1340D01*
Y1334D01*
Y1327D01*
Y1321D01*
Y1314D01*
Y1308D01*
Y1301D01*
Y1295D01*
Y1288D01*
Y1282D01*
Y1275D01*
Y1269D01*
Y1262D01*
Y1256D01*
Y1249D01*
Y1243D01*
Y1236D01*
Y1230D01*
Y1224D01*
Y1217D01*
Y1211D01*
Y1204D01*
Y1198D01*
Y1191D01*
Y1185D01*
Y1178D01*
Y1172D01*
Y1165D01*
Y1159D01*
Y1152D01*
Y1146D01*
Y1139D01*
Y1133D01*
Y1126D01*
X17862D01*
Y1120D01*
X17855D01*
Y1114D01*
X17791D01*
Y1120D01*
X17784D01*
Y1126D01*
X17778D01*
Y1133D01*
X17771D01*
Y1139D01*
Y1146D01*
X17765D01*
Y1152D01*
Y1159D01*
X17758D01*
Y1165D01*
Y1172D01*
X17752D01*
Y1178D01*
Y1185D01*
X17745D01*
Y1191D01*
Y1198D01*
X17739D01*
Y1204D01*
X17732D01*
Y1211D01*
Y1217D01*
X17726D01*
Y1224D01*
Y1230D01*
X17719D01*
Y1236D01*
Y1243D01*
X17713D01*
Y1249D01*
Y1256D01*
X17706D01*
Y1262D01*
Y1269D01*
X17700D01*
Y1275D01*
Y1282D01*
X17694D01*
Y1288D01*
X17687D01*
Y1295D01*
Y1301D01*
X17681D01*
Y1308D01*
Y1314D01*
X17674D01*
Y1321D01*
Y1327D01*
X17668D01*
Y1334D01*
Y1340D01*
X17661D01*
Y1346D01*
Y1353D01*
Y1359D01*
X17655D01*
Y1366D01*
X17648D01*
Y1359D01*
Y1353D01*
Y1346D01*
Y1340D01*
Y1334D01*
X17655D01*
Y1327D01*
Y1321D01*
Y1314D01*
Y1308D01*
Y1301D01*
Y1295D01*
Y1288D01*
Y1282D01*
Y1275D01*
Y1269D01*
Y1262D01*
Y1256D01*
Y1249D01*
Y1243D01*
Y1236D01*
Y1230D01*
Y1224D01*
Y1217D01*
Y1211D01*
Y1204D01*
Y1198D01*
Y1191D01*
Y1185D01*
Y1178D01*
Y1172D01*
Y1165D01*
Y1159D01*
Y1152D01*
Y1146D01*
Y1139D01*
Y1133D01*
Y1126D01*
Y1120D01*
X17648D01*
Y1114D01*
X17596D01*
Y1120D01*
X17590D01*
Y1126D01*
Y1133D01*
Y1139D01*
Y1146D01*
Y1152D01*
Y1159D01*
Y1165D01*
Y1172D01*
Y1178D01*
Y1185D01*
Y1191D01*
Y1198D01*
Y1204D01*
Y1211D01*
Y1217D01*
Y1224D01*
Y1230D01*
Y1236D01*
Y1243D01*
Y1249D01*
Y1256D01*
Y1262D01*
Y1269D01*
Y1275D01*
Y1282D01*
Y1288D01*
Y1295D01*
Y1301D01*
Y1308D01*
Y1314D01*
Y1321D01*
Y1327D01*
Y1334D01*
Y1340D01*
Y1346D01*
Y1353D01*
Y1359D01*
Y1366D01*
Y1372D01*
Y1379D01*
Y1385D01*
Y1392D01*
Y1398D01*
Y1405D01*
Y1411D01*
Y1418D01*
Y1424D01*
Y1431D01*
X17596D01*
Y1437D01*
Y1444D01*
X17681D01*
Y1437D01*
X17687D01*
Y1431D01*
X17694D01*
Y1424D01*
Y1418D01*
X17700D01*
Y1411D01*
Y1405D01*
X17706D01*
Y1398D01*
Y1392D01*
X17713D01*
Y1385D01*
X17719D01*
Y1379D01*
Y1372D01*
X17726D01*
Y1366D01*
Y1359D01*
X17732D01*
Y1353D01*
Y1346D01*
X17739D01*
Y1340D01*
Y1334D01*
X17745D01*
Y1327D01*
Y1321D01*
X17752D01*
Y1314D01*
Y1308D01*
X17758D01*
Y1301D01*
X17765D01*
Y1295D01*
Y1288D01*
X17771D01*
Y1282D01*
Y1275D01*
X17778D01*
Y1269D01*
Y1262D01*
X17784D01*
Y1256D01*
Y1249D01*
X17791D01*
Y1243D01*
Y1236D01*
X17797D01*
Y1230D01*
Y1224D01*
X17804D01*
Y1217D01*
Y1211D01*
X17810D01*
Y1217D01*
Y1224D01*
Y1230D01*
Y1236D01*
Y1243D01*
Y1249D01*
Y1256D01*
Y1262D01*
Y1269D01*
Y1275D01*
Y1282D01*
Y1288D01*
Y1295D01*
Y1301D01*
Y1308D01*
Y1314D01*
Y1321D01*
Y1327D01*
Y1334D01*
Y1340D01*
Y1346D01*
Y1353D01*
Y1359D01*
Y1366D01*
Y1372D01*
Y1379D01*
Y1385D01*
Y1392D01*
Y1398D01*
Y1405D01*
Y1411D01*
Y1418D01*
Y1424D01*
Y1431D01*
Y1437D01*
Y1444D01*
X17829D01*
Y1450D01*
X17849D01*
Y1444D01*
D02*
G37*
G36*
X17376D02*
X17396D01*
Y1437D01*
Y1431D01*
Y1424D01*
Y1418D01*
Y1411D01*
Y1405D01*
Y1398D01*
Y1392D01*
Y1385D01*
Y1379D01*
Y1372D01*
Y1366D01*
Y1359D01*
Y1353D01*
Y1346D01*
Y1340D01*
Y1334D01*
Y1327D01*
Y1321D01*
Y1314D01*
Y1308D01*
Y1301D01*
Y1295D01*
Y1288D01*
Y1282D01*
Y1275D01*
Y1269D01*
Y1262D01*
Y1256D01*
Y1249D01*
Y1243D01*
Y1236D01*
Y1230D01*
Y1224D01*
Y1217D01*
Y1211D01*
Y1204D01*
Y1198D01*
Y1191D01*
Y1185D01*
Y1178D01*
Y1172D01*
Y1165D01*
Y1159D01*
Y1152D01*
Y1146D01*
Y1139D01*
Y1133D01*
Y1126D01*
Y1120D01*
X17389D01*
Y1114D01*
X17325D01*
Y1120D01*
X17312D01*
Y1126D01*
X17305D01*
Y1133D01*
Y1139D01*
X17299D01*
Y1146D01*
Y1152D01*
X17292D01*
Y1159D01*
X17286D01*
Y1165D01*
Y1172D01*
X17279D01*
Y1178D01*
Y1185D01*
X17273D01*
Y1191D01*
Y1198D01*
X17266D01*
Y1204D01*
Y1211D01*
X17260D01*
Y1217D01*
Y1224D01*
X17253D01*
Y1230D01*
Y1236D01*
X17247D01*
Y1243D01*
Y1249D01*
X17241D01*
Y1256D01*
X17234D01*
Y1262D01*
Y1269D01*
X17228D01*
Y1275D01*
Y1282D01*
X17221D01*
Y1288D01*
Y1295D01*
X17215D01*
Y1301D01*
Y1308D01*
X17208D01*
Y1314D01*
Y1321D01*
X17202D01*
Y1327D01*
Y1334D01*
X17195D01*
Y1340D01*
Y1346D01*
X17189D01*
Y1353D01*
Y1359D01*
X17182D01*
Y1353D01*
Y1346D01*
Y1340D01*
Y1334D01*
Y1327D01*
Y1321D01*
Y1314D01*
Y1308D01*
Y1301D01*
Y1295D01*
Y1288D01*
Y1282D01*
Y1275D01*
Y1269D01*
Y1262D01*
Y1256D01*
Y1249D01*
Y1243D01*
Y1236D01*
Y1230D01*
Y1224D01*
Y1217D01*
Y1211D01*
Y1204D01*
Y1198D01*
Y1191D01*
Y1185D01*
Y1178D01*
Y1172D01*
Y1165D01*
Y1159D01*
Y1152D01*
Y1146D01*
Y1139D01*
Y1133D01*
Y1126D01*
Y1120D01*
X17176D01*
Y1114D01*
X17124D01*
Y1120D01*
Y1126D01*
Y1133D01*
Y1139D01*
Y1146D01*
Y1152D01*
Y1159D01*
Y1165D01*
Y1172D01*
Y1178D01*
Y1185D01*
Y1191D01*
Y1198D01*
Y1204D01*
Y1211D01*
Y1217D01*
Y1224D01*
Y1230D01*
Y1236D01*
Y1243D01*
Y1249D01*
Y1256D01*
Y1262D01*
Y1269D01*
Y1275D01*
Y1282D01*
Y1288D01*
Y1295D01*
Y1301D01*
Y1308D01*
Y1314D01*
Y1321D01*
Y1327D01*
Y1334D01*
Y1340D01*
Y1346D01*
Y1353D01*
Y1359D01*
Y1366D01*
Y1372D01*
Y1379D01*
Y1385D01*
Y1392D01*
Y1398D01*
Y1405D01*
Y1411D01*
Y1418D01*
Y1424D01*
Y1431D01*
Y1437D01*
Y1444D01*
X17208D01*
Y1437D01*
X17215D01*
Y1431D01*
X17221D01*
Y1424D01*
X17228D01*
Y1418D01*
Y1411D01*
X17234D01*
Y1405D01*
Y1398D01*
X17241D01*
Y1392D01*
Y1385D01*
X17247D01*
Y1379D01*
Y1372D01*
X17253D01*
Y1366D01*
Y1359D01*
X17260D01*
Y1353D01*
Y1346D01*
X17266D01*
Y1340D01*
X17273D01*
Y1334D01*
Y1327D01*
X17279D01*
Y1321D01*
Y1314D01*
X17286D01*
Y1308D01*
Y1301D01*
X17292D01*
Y1295D01*
Y1288D01*
X17299D01*
Y1282D01*
Y1275D01*
X17305D01*
Y1269D01*
Y1262D01*
X17312D01*
Y1256D01*
Y1249D01*
X17318D01*
Y1243D01*
Y1236D01*
X17325D01*
Y1230D01*
Y1224D01*
X17331D01*
Y1217D01*
Y1211D01*
X17338D01*
Y1217D01*
Y1224D01*
Y1230D01*
Y1236D01*
Y1243D01*
Y1249D01*
Y1256D01*
Y1262D01*
Y1269D01*
Y1275D01*
Y1282D01*
Y1288D01*
Y1295D01*
Y1301D01*
Y1308D01*
Y1314D01*
Y1321D01*
Y1327D01*
Y1334D01*
Y1340D01*
Y1346D01*
Y1353D01*
Y1359D01*
Y1366D01*
Y1372D01*
Y1379D01*
Y1385D01*
Y1392D01*
Y1398D01*
Y1405D01*
Y1411D01*
Y1418D01*
Y1424D01*
Y1431D01*
Y1437D01*
Y1444D01*
X17357D01*
Y1450D01*
X17376D01*
Y1444D01*
D02*
G37*
G36*
X18431D02*
X18444D01*
Y1437D01*
X18451D01*
Y1431D01*
Y1424D01*
Y1418D01*
X18457D01*
Y1411D01*
Y1405D01*
Y1398D01*
X18464D01*
Y1392D01*
Y1385D01*
Y1379D01*
X18470D01*
Y1372D01*
Y1366D01*
X18477D01*
Y1359D01*
Y1353D01*
Y1346D01*
X18483D01*
Y1340D01*
Y1334D01*
Y1327D01*
X18490D01*
Y1321D01*
Y1314D01*
Y1308D01*
X18496D01*
Y1301D01*
Y1295D01*
Y1288D01*
X18502D01*
Y1282D01*
Y1275D01*
Y1269D01*
X18509D01*
Y1262D01*
Y1256D01*
X18515D01*
Y1249D01*
Y1243D01*
Y1236D01*
X18522D01*
Y1230D01*
Y1224D01*
Y1217D01*
X18528D01*
Y1211D01*
Y1204D01*
Y1198D01*
X18535D01*
Y1191D01*
Y1185D01*
Y1178D01*
X18541D01*
Y1172D01*
Y1165D01*
Y1159D01*
X18548D01*
Y1152D01*
Y1146D01*
X18554D01*
Y1139D01*
Y1133D01*
Y1126D01*
Y1120D01*
Y1114D01*
X18490D01*
Y1120D01*
X18483D01*
Y1126D01*
Y1133D01*
X18477D01*
Y1139D01*
Y1146D01*
Y1152D01*
X18470D01*
Y1159D01*
Y1165D01*
Y1172D01*
X18464D01*
Y1178D01*
Y1185D01*
Y1191D01*
X18334D01*
Y1185D01*
Y1178D01*
X18328D01*
Y1172D01*
Y1165D01*
Y1159D01*
X18321D01*
Y1152D01*
Y1146D01*
Y1139D01*
X18315D01*
Y1133D01*
Y1126D01*
Y1120D01*
X18308D01*
Y1114D01*
X18250D01*
Y1120D01*
Y1126D01*
Y1133D01*
Y1139D01*
Y1146D01*
X18257D01*
Y1152D01*
Y1159D01*
Y1165D01*
X18263D01*
Y1172D01*
Y1178D01*
Y1185D01*
X18269D01*
Y1191D01*
Y1198D01*
Y1204D01*
X18276D01*
Y1211D01*
Y1217D01*
X18282D01*
Y1224D01*
Y1230D01*
Y1236D01*
X18289D01*
Y1243D01*
Y1249D01*
Y1256D01*
X18295D01*
Y1262D01*
Y1269D01*
Y1275D01*
X18302D01*
Y1282D01*
Y1288D01*
Y1295D01*
X18308D01*
Y1301D01*
Y1308D01*
Y1314D01*
X18315D01*
Y1321D01*
Y1327D01*
X18321D01*
Y1334D01*
Y1340D01*
Y1346D01*
X18328D01*
Y1353D01*
Y1359D01*
Y1366D01*
X18334D01*
Y1372D01*
Y1379D01*
Y1385D01*
X18341D01*
Y1392D01*
Y1398D01*
Y1405D01*
X18347D01*
Y1411D01*
Y1418D01*
Y1424D01*
X18354D01*
Y1431D01*
Y1437D01*
X18360D01*
Y1444D01*
X18373D01*
Y1450D01*
X18431D01*
Y1444D01*
D02*
G37*
G36*
X17059Y1437D02*
Y1431D01*
Y1424D01*
Y1418D01*
Y1411D01*
Y1405D01*
Y1398D01*
X17053D01*
Y1392D01*
X16930D01*
Y1385D01*
Y1379D01*
Y1372D01*
Y1366D01*
Y1359D01*
Y1353D01*
Y1346D01*
Y1340D01*
Y1334D01*
Y1327D01*
Y1321D01*
Y1314D01*
X17033D01*
Y1308D01*
X17040D01*
Y1301D01*
Y1295D01*
Y1288D01*
Y1282D01*
Y1275D01*
Y1269D01*
Y1262D01*
X16930D01*
Y1256D01*
Y1249D01*
Y1243D01*
Y1236D01*
Y1230D01*
Y1224D01*
Y1217D01*
Y1211D01*
Y1204D01*
Y1198D01*
Y1191D01*
Y1185D01*
Y1178D01*
Y1172D01*
Y1165D01*
X17059D01*
Y1159D01*
Y1152D01*
Y1146D01*
Y1139D01*
Y1133D01*
Y1126D01*
Y1120D01*
Y1114D01*
X16872D01*
Y1120D01*
X16865D01*
Y1126D01*
Y1133D01*
Y1139D01*
Y1146D01*
Y1152D01*
Y1159D01*
Y1165D01*
Y1172D01*
Y1178D01*
Y1185D01*
Y1191D01*
Y1198D01*
Y1204D01*
Y1211D01*
Y1217D01*
Y1224D01*
Y1230D01*
Y1236D01*
Y1243D01*
Y1249D01*
Y1256D01*
Y1262D01*
Y1269D01*
Y1275D01*
Y1282D01*
Y1288D01*
Y1295D01*
Y1301D01*
Y1308D01*
Y1314D01*
Y1321D01*
Y1327D01*
Y1334D01*
Y1340D01*
Y1346D01*
Y1353D01*
Y1359D01*
Y1366D01*
Y1372D01*
Y1379D01*
Y1385D01*
Y1392D01*
Y1398D01*
Y1405D01*
Y1411D01*
Y1418D01*
Y1424D01*
Y1431D01*
Y1437D01*
Y1444D01*
X17059D01*
Y1437D01*
D02*
G37*
G36*
X16775Y1444D02*
X16788D01*
Y1437D01*
Y1431D01*
Y1424D01*
Y1418D01*
Y1411D01*
Y1405D01*
Y1398D01*
Y1392D01*
Y1385D01*
Y1379D01*
Y1372D01*
Y1366D01*
Y1359D01*
Y1353D01*
Y1346D01*
Y1340D01*
Y1334D01*
Y1327D01*
Y1321D01*
Y1314D01*
Y1308D01*
Y1301D01*
Y1295D01*
Y1288D01*
Y1282D01*
Y1275D01*
Y1269D01*
Y1262D01*
Y1256D01*
Y1249D01*
Y1243D01*
Y1236D01*
Y1230D01*
Y1224D01*
Y1217D01*
Y1211D01*
Y1204D01*
Y1198D01*
Y1191D01*
Y1185D01*
Y1178D01*
Y1172D01*
Y1165D01*
Y1159D01*
Y1152D01*
Y1146D01*
Y1139D01*
Y1133D01*
Y1126D01*
Y1120D01*
X16781D01*
Y1114D01*
X16723D01*
Y1120D01*
Y1126D01*
Y1133D01*
Y1139D01*
Y1146D01*
Y1152D01*
Y1159D01*
Y1165D01*
Y1172D01*
Y1178D01*
Y1185D01*
Y1191D01*
Y1198D01*
Y1204D01*
Y1211D01*
Y1217D01*
Y1224D01*
Y1230D01*
Y1236D01*
Y1243D01*
Y1249D01*
Y1256D01*
Y1262D01*
Y1269D01*
Y1275D01*
Y1282D01*
Y1288D01*
Y1295D01*
Y1301D01*
Y1308D01*
Y1314D01*
Y1321D01*
Y1327D01*
Y1334D01*
Y1340D01*
Y1346D01*
Y1353D01*
Y1359D01*
Y1366D01*
Y1372D01*
Y1379D01*
Y1385D01*
Y1392D01*
Y1398D01*
Y1405D01*
Y1411D01*
Y1418D01*
Y1424D01*
Y1431D01*
Y1437D01*
Y1444D01*
X16736D01*
Y1450D01*
X16775D01*
Y1444D01*
D02*
G37*
G36*
X16140D02*
X16153D01*
Y1437D01*
Y1431D01*
X16160D01*
Y1424D01*
Y1418D01*
Y1411D01*
X16166D01*
Y1405D01*
Y1398D01*
X16173D01*
Y1392D01*
Y1385D01*
Y1379D01*
X16179D01*
Y1372D01*
Y1366D01*
Y1359D01*
X16186D01*
Y1353D01*
Y1346D01*
Y1340D01*
X16192D01*
Y1334D01*
Y1327D01*
Y1321D01*
X16199D01*
Y1314D01*
Y1308D01*
Y1301D01*
X16205D01*
Y1295D01*
Y1288D01*
X16212D01*
Y1282D01*
Y1275D01*
Y1269D01*
X16218D01*
Y1262D01*
Y1256D01*
Y1249D01*
X16225D01*
Y1243D01*
Y1236D01*
Y1230D01*
X16231D01*
Y1224D01*
Y1217D01*
Y1211D01*
X16237D01*
Y1204D01*
Y1198D01*
Y1191D01*
X16244D01*
Y1185D01*
Y1178D01*
X16250D01*
Y1172D01*
Y1165D01*
Y1159D01*
X16257D01*
Y1152D01*
Y1146D01*
Y1139D01*
X16263D01*
Y1133D01*
Y1126D01*
Y1120D01*
Y1114D01*
X16199D01*
Y1120D01*
X16192D01*
Y1126D01*
Y1133D01*
X16186D01*
Y1139D01*
Y1146D01*
Y1152D01*
X16179D01*
Y1159D01*
Y1165D01*
Y1172D01*
X16173D01*
Y1178D01*
Y1185D01*
X16166D01*
Y1191D01*
X16043D01*
Y1185D01*
Y1178D01*
X16037D01*
Y1172D01*
Y1165D01*
Y1159D01*
X16030D01*
Y1152D01*
Y1146D01*
Y1139D01*
X16024D01*
Y1133D01*
Y1126D01*
Y1120D01*
X16017D01*
Y1114D01*
X15959D01*
Y1120D01*
X15953D01*
Y1126D01*
Y1133D01*
X15959D01*
Y1139D01*
Y1146D01*
Y1152D01*
X15966D01*
Y1159D01*
Y1165D01*
Y1172D01*
X15972D01*
Y1178D01*
Y1185D01*
X15979D01*
Y1191D01*
Y1198D01*
Y1204D01*
X15985D01*
Y1211D01*
Y1217D01*
Y1224D01*
X15992D01*
Y1230D01*
Y1236D01*
Y1243D01*
X15998D01*
Y1249D01*
Y1256D01*
Y1262D01*
X16005D01*
Y1269D01*
Y1275D01*
Y1282D01*
X16011D01*
Y1288D01*
Y1295D01*
X16017D01*
Y1301D01*
Y1308D01*
Y1314D01*
X16024D01*
Y1321D01*
Y1327D01*
Y1334D01*
X16030D01*
Y1340D01*
Y1346D01*
Y1353D01*
X16037D01*
Y1359D01*
Y1366D01*
Y1372D01*
X16043D01*
Y1379D01*
Y1385D01*
Y1392D01*
X16050D01*
Y1398D01*
Y1405D01*
Y1411D01*
X16056D01*
Y1418D01*
Y1424D01*
X16063D01*
Y1431D01*
Y1437D01*
Y1444D01*
X16076D01*
Y1450D01*
X16140D01*
Y1444D01*
D02*
G37*
G36*
X15830D02*
X15849D01*
Y1437D01*
X15862D01*
Y1431D01*
X15875D01*
Y1424D01*
X15888D01*
Y1418D01*
X15895D01*
Y1411D01*
X15901D01*
Y1405D01*
Y1398D01*
X15907D01*
Y1392D01*
X15914D01*
Y1385D01*
Y1379D01*
X15920D01*
Y1372D01*
Y1366D01*
Y1359D01*
X15927D01*
Y1353D01*
Y1346D01*
Y1340D01*
Y1334D01*
X15933D01*
Y1327D01*
Y1321D01*
Y1314D01*
Y1308D01*
Y1301D01*
Y1295D01*
Y1288D01*
Y1282D01*
Y1275D01*
Y1269D01*
Y1262D01*
Y1256D01*
Y1249D01*
Y1243D01*
Y1236D01*
X15927D01*
Y1230D01*
Y1224D01*
Y1217D01*
Y1211D01*
X15920D01*
Y1204D01*
Y1198D01*
Y1191D01*
X15914D01*
Y1185D01*
Y1178D01*
X15907D01*
Y1172D01*
X15901D01*
Y1165D01*
Y1159D01*
X15895D01*
Y1152D01*
X15888D01*
Y1146D01*
X15882D01*
Y1139D01*
X15875D01*
Y1133D01*
X15862D01*
Y1126D01*
X15849D01*
Y1120D01*
X15836D01*
Y1114D01*
X15804D01*
Y1107D01*
X15739D01*
Y1114D01*
X15707D01*
Y1120D01*
X15694D01*
Y1126D01*
X15681D01*
Y1133D01*
X15668D01*
Y1139D01*
X15662D01*
Y1146D01*
X15655D01*
Y1152D01*
X15649D01*
Y1159D01*
X15642D01*
Y1165D01*
Y1172D01*
X15636D01*
Y1178D01*
Y1185D01*
X15629D01*
Y1191D01*
Y1198D01*
Y1204D01*
X15623D01*
Y1211D01*
Y1217D01*
Y1224D01*
Y1230D01*
X15616D01*
Y1236D01*
Y1243D01*
Y1249D01*
Y1256D01*
Y1262D01*
Y1269D01*
Y1275D01*
Y1282D01*
Y1288D01*
Y1295D01*
Y1301D01*
Y1308D01*
Y1314D01*
Y1321D01*
X15623D01*
Y1327D01*
Y1334D01*
Y1340D01*
Y1346D01*
X15629D01*
Y1353D01*
Y1359D01*
Y1366D01*
X15636D01*
Y1372D01*
Y1379D01*
X15642D01*
Y1385D01*
Y1392D01*
X15649D01*
Y1398D01*
X15655D01*
Y1405D01*
X15662D01*
Y1411D01*
X15668D01*
Y1418D01*
X15675D01*
Y1424D01*
X15681D01*
Y1431D01*
X15694D01*
Y1437D01*
X15707D01*
Y1444D01*
X15726D01*
Y1450D01*
X15830D01*
Y1444D01*
D02*
G37*
G36*
X15416Y1036D02*
X15435D01*
Y1029D01*
X15448D01*
Y1023D01*
Y1016D01*
Y1010D01*
Y1003D01*
Y997D01*
Y991D01*
Y984D01*
X15442D01*
Y991D01*
X15435D01*
Y997D01*
X15422D01*
Y1003D01*
X15377D01*
Y997D01*
X15370D01*
Y991D01*
X15364D01*
Y984D01*
X15357D01*
Y978D01*
X15351D01*
Y971D01*
Y965D01*
Y958D01*
X15344D01*
Y952D01*
Y945D01*
Y939D01*
Y932D01*
Y926D01*
Y919D01*
Y913D01*
Y906D01*
Y900D01*
X15351D01*
Y893D01*
Y887D01*
Y881D01*
X15357D01*
Y874D01*
X15364D01*
Y868D01*
X15370D01*
Y861D01*
X15383D01*
Y855D01*
X15416D01*
Y861D01*
X15429D01*
Y868D01*
X15442D01*
Y874D01*
X15448D01*
Y868D01*
X15454D01*
Y861D01*
Y855D01*
Y848D01*
Y842D01*
X15448D01*
Y835D01*
X15442D01*
Y829D01*
X15429D01*
Y822D01*
X15357D01*
Y829D01*
X15344D01*
Y835D01*
X15332D01*
Y842D01*
X15325D01*
Y848D01*
X15319D01*
Y855D01*
Y861D01*
X15312D01*
Y868D01*
Y874D01*
X15306D01*
Y881D01*
Y887D01*
Y893D01*
Y900D01*
X15299D01*
Y906D01*
Y913D01*
Y919D01*
Y926D01*
Y932D01*
Y939D01*
Y945D01*
Y952D01*
X15306D01*
Y958D01*
Y965D01*
Y971D01*
Y978D01*
X15312D01*
Y984D01*
Y991D01*
Y997D01*
X15319D01*
Y1003D01*
X15325D01*
Y1010D01*
Y1016D01*
X15332D01*
Y1023D01*
X15344D01*
Y1029D01*
X15357D01*
Y1036D01*
X15377D01*
Y1042D01*
X15416D01*
Y1036D01*
D02*
G37*
G36*
X16690Y1029D02*
Y1023D01*
X16684D01*
Y1016D01*
Y1010D01*
X16678D01*
Y1003D01*
Y997D01*
X16671D01*
Y991D01*
Y984D01*
X16665D01*
Y978D01*
Y971D01*
X16658D01*
Y965D01*
Y958D01*
X16652D01*
Y952D01*
Y945D01*
Y939D01*
X16645D01*
Y932D01*
Y926D01*
X16639D01*
Y919D01*
Y913D01*
X16632D01*
Y906D01*
Y900D01*
Y893D01*
Y887D01*
Y881D01*
Y874D01*
Y868D01*
Y861D01*
Y855D01*
Y848D01*
Y842D01*
Y835D01*
Y829D01*
X16626D01*
Y822D01*
X16593D01*
Y829D01*
X16587D01*
Y835D01*
Y842D01*
Y848D01*
Y855D01*
Y861D01*
Y868D01*
Y874D01*
Y881D01*
Y887D01*
Y893D01*
Y900D01*
Y906D01*
Y913D01*
X16580D01*
Y919D01*
Y926D01*
Y932D01*
X16574D01*
Y939D01*
Y945D01*
X16568D01*
Y952D01*
Y958D01*
X16561D01*
Y965D01*
Y971D01*
X16555D01*
Y978D01*
Y984D01*
X16548D01*
Y991D01*
Y997D01*
X16542D01*
Y1003D01*
Y1010D01*
X16535D01*
Y1016D01*
Y1023D01*
X16529D01*
Y1029D01*
Y1036D01*
X16574D01*
Y1029D01*
Y1023D01*
X16580D01*
Y1016D01*
Y1010D01*
X16587D01*
Y1003D01*
Y997D01*
X16593D01*
Y991D01*
Y984D01*
Y978D01*
X16600D01*
Y971D01*
Y965D01*
X16606D01*
Y958D01*
Y952D01*
Y945D01*
X16613D01*
Y952D01*
Y958D01*
X16619D01*
Y965D01*
Y971D01*
Y978D01*
X16626D01*
Y984D01*
Y991D01*
X16632D01*
Y997D01*
Y1003D01*
X16639D01*
Y1010D01*
Y1016D01*
Y1023D01*
X16645D01*
Y1029D01*
Y1036D01*
X16690D01*
Y1029D01*
D02*
G37*
G36*
X16503D02*
Y1023D01*
Y1016D01*
Y1010D01*
Y1003D01*
Y997D01*
Y991D01*
Y984D01*
Y978D01*
Y971D01*
Y965D01*
Y958D01*
Y952D01*
Y945D01*
Y939D01*
Y932D01*
Y926D01*
Y919D01*
Y913D01*
Y906D01*
Y900D01*
Y893D01*
Y887D01*
Y881D01*
Y874D01*
Y868D01*
Y861D01*
Y855D01*
Y848D01*
Y842D01*
Y835D01*
Y829D01*
X16496D01*
Y822D01*
X16458D01*
Y829D01*
X16445D01*
Y835D01*
Y842D01*
X16438D01*
Y848D01*
Y855D01*
X16432D01*
Y861D01*
Y868D01*
X16425D01*
Y874D01*
Y881D01*
X16419D01*
Y887D01*
Y893D01*
X16412D01*
Y900D01*
Y906D01*
X16406D01*
Y913D01*
Y919D01*
X16399D01*
Y926D01*
Y932D01*
X16393D01*
Y939D01*
Y945D01*
X16386D01*
Y952D01*
Y958D01*
X16380D01*
Y965D01*
Y971D01*
X16373D01*
Y978D01*
X16367D01*
Y971D01*
Y965D01*
Y958D01*
Y952D01*
Y945D01*
Y939D01*
Y932D01*
Y926D01*
Y919D01*
Y913D01*
Y906D01*
Y900D01*
Y893D01*
Y887D01*
Y881D01*
Y874D01*
Y868D01*
Y861D01*
Y855D01*
Y848D01*
Y842D01*
Y835D01*
Y829D01*
Y822D01*
X16335D01*
Y829D01*
Y835D01*
Y842D01*
Y848D01*
Y855D01*
Y861D01*
Y868D01*
Y874D01*
Y881D01*
Y887D01*
Y893D01*
Y900D01*
Y906D01*
Y913D01*
Y919D01*
Y926D01*
Y932D01*
Y939D01*
Y945D01*
Y952D01*
Y958D01*
Y965D01*
Y971D01*
Y978D01*
Y984D01*
Y991D01*
Y997D01*
Y1003D01*
Y1010D01*
Y1016D01*
Y1023D01*
Y1029D01*
Y1036D01*
X16386D01*
Y1029D01*
X16393D01*
Y1023D01*
X16399D01*
Y1016D01*
Y1010D01*
X16406D01*
Y1003D01*
Y997D01*
X16412D01*
Y991D01*
Y984D01*
X16419D01*
Y978D01*
Y971D01*
X16425D01*
Y965D01*
Y958D01*
X16432D01*
Y952D01*
Y945D01*
X16438D01*
Y939D01*
Y932D01*
X16445D01*
Y926D01*
Y919D01*
X16451D01*
Y913D01*
Y906D01*
X16458D01*
Y900D01*
Y893D01*
X16464D01*
Y900D01*
Y906D01*
Y913D01*
Y919D01*
Y926D01*
Y932D01*
Y939D01*
Y945D01*
Y952D01*
Y958D01*
Y965D01*
Y971D01*
Y978D01*
Y984D01*
Y991D01*
Y997D01*
Y1003D01*
Y1010D01*
Y1016D01*
Y1023D01*
Y1029D01*
Y1036D01*
X16503D01*
Y1029D01*
D02*
G37*
G36*
X17247D02*
X17253D01*
Y1023D01*
Y1016D01*
Y1010D01*
Y1003D01*
Y997D01*
Y991D01*
Y984D01*
Y978D01*
Y971D01*
Y965D01*
Y958D01*
Y952D01*
Y945D01*
Y939D01*
Y932D01*
Y926D01*
Y919D01*
Y913D01*
Y906D01*
Y900D01*
Y893D01*
Y887D01*
Y881D01*
Y874D01*
Y868D01*
Y861D01*
Y855D01*
Y848D01*
Y842D01*
Y835D01*
Y829D01*
Y822D01*
X17215D01*
Y829D01*
Y835D01*
Y842D01*
Y848D01*
Y855D01*
Y861D01*
Y868D01*
Y874D01*
Y881D01*
Y887D01*
Y893D01*
Y900D01*
Y906D01*
Y913D01*
Y919D01*
Y926D01*
Y932D01*
Y939D01*
Y945D01*
Y952D01*
Y958D01*
Y965D01*
Y971D01*
Y978D01*
Y984D01*
Y991D01*
Y997D01*
X17208D01*
Y991D01*
Y984D01*
Y978D01*
X17202D01*
Y971D01*
Y965D01*
Y958D01*
X17195D01*
Y952D01*
Y945D01*
Y939D01*
X17189D01*
Y932D01*
Y926D01*
Y919D01*
X17182D01*
Y913D01*
Y906D01*
Y900D01*
X17176D01*
Y893D01*
Y887D01*
Y881D01*
X17169D01*
Y874D01*
Y868D01*
X17163D01*
Y861D01*
Y855D01*
Y848D01*
X17156D01*
Y842D01*
Y835D01*
Y829D01*
X17150D01*
Y822D01*
X17111D01*
Y829D01*
Y835D01*
X17105D01*
Y842D01*
Y848D01*
Y855D01*
Y861D01*
X17098D01*
Y868D01*
Y874D01*
Y881D01*
X17092D01*
Y887D01*
Y893D01*
Y900D01*
X17085D01*
Y906D01*
Y913D01*
Y919D01*
X17079D01*
Y926D01*
Y932D01*
Y939D01*
X17072D01*
Y945D01*
Y952D01*
Y958D01*
X17066D01*
Y965D01*
Y971D01*
Y978D01*
X17059D01*
Y984D01*
Y991D01*
Y997D01*
X17053D01*
Y991D01*
Y984D01*
Y978D01*
Y971D01*
Y965D01*
Y958D01*
Y952D01*
Y945D01*
Y939D01*
Y932D01*
Y926D01*
Y919D01*
Y913D01*
Y906D01*
Y900D01*
Y893D01*
Y887D01*
Y881D01*
Y874D01*
Y868D01*
Y861D01*
Y855D01*
Y848D01*
Y842D01*
Y835D01*
Y829D01*
Y822D01*
X17014D01*
Y829D01*
Y835D01*
Y842D01*
Y848D01*
Y855D01*
Y861D01*
Y868D01*
Y874D01*
Y881D01*
Y887D01*
Y893D01*
Y900D01*
Y906D01*
Y913D01*
Y919D01*
Y926D01*
Y932D01*
Y939D01*
Y945D01*
Y952D01*
Y958D01*
Y965D01*
Y971D01*
Y978D01*
Y984D01*
Y991D01*
Y997D01*
Y1003D01*
Y1010D01*
Y1016D01*
Y1023D01*
Y1029D01*
X17021D01*
Y1036D01*
X17079D01*
Y1029D01*
X17085D01*
Y1023D01*
Y1016D01*
X17092D01*
Y1010D01*
Y1003D01*
Y997D01*
X17098D01*
Y991D01*
Y984D01*
Y978D01*
X17105D01*
Y971D01*
Y965D01*
Y958D01*
X17111D01*
Y952D01*
Y945D01*
Y939D01*
X17118D01*
Y932D01*
Y926D01*
Y919D01*
X17124D01*
Y913D01*
Y906D01*
Y900D01*
X17131D01*
Y893D01*
Y887D01*
X17137D01*
Y893D01*
Y900D01*
X17143D01*
Y906D01*
Y913D01*
Y919D01*
X17150D01*
Y926D01*
Y932D01*
Y939D01*
X17156D01*
Y945D01*
Y952D01*
Y958D01*
X17163D01*
Y965D01*
Y971D01*
X17169D01*
Y978D01*
Y984D01*
Y991D01*
X17176D01*
Y997D01*
Y1003D01*
Y1010D01*
X17182D01*
Y1016D01*
Y1023D01*
X17189D01*
Y1029D01*
Y1036D01*
X17247D01*
Y1029D01*
D02*
G37*
G36*
X15933D02*
X15940D01*
Y1023D01*
Y1016D01*
Y1010D01*
Y1003D01*
Y997D01*
Y991D01*
Y984D01*
Y978D01*
Y971D01*
Y965D01*
Y958D01*
Y952D01*
Y945D01*
Y939D01*
Y932D01*
Y926D01*
Y919D01*
Y913D01*
Y906D01*
Y900D01*
Y893D01*
Y887D01*
Y881D01*
Y874D01*
Y868D01*
Y861D01*
Y855D01*
Y848D01*
Y842D01*
Y835D01*
Y829D01*
Y822D01*
X15901D01*
Y829D01*
Y835D01*
Y842D01*
Y848D01*
Y855D01*
Y861D01*
Y868D01*
Y874D01*
Y881D01*
Y887D01*
Y893D01*
Y900D01*
Y906D01*
Y913D01*
Y919D01*
Y926D01*
Y932D01*
Y939D01*
Y945D01*
Y952D01*
Y958D01*
Y965D01*
Y971D01*
Y978D01*
Y984D01*
Y991D01*
Y997D01*
X15895D01*
Y991D01*
Y984D01*
Y978D01*
X15888D01*
Y971D01*
Y965D01*
Y958D01*
X15882D01*
Y952D01*
Y945D01*
Y939D01*
X15875D01*
Y932D01*
Y926D01*
Y919D01*
X15869D01*
Y913D01*
Y906D01*
Y900D01*
X15862D01*
Y893D01*
Y887D01*
Y881D01*
X15856D01*
Y874D01*
Y868D01*
X15849D01*
Y861D01*
Y855D01*
Y848D01*
X15843D01*
Y842D01*
Y835D01*
Y829D01*
X15836D01*
Y822D01*
X15797D01*
Y829D01*
Y835D01*
X15791D01*
Y842D01*
Y848D01*
Y855D01*
Y861D01*
X15785D01*
Y868D01*
Y874D01*
Y881D01*
X15778D01*
Y887D01*
Y893D01*
Y900D01*
X15772D01*
Y906D01*
Y913D01*
Y919D01*
X15765D01*
Y926D01*
Y932D01*
Y939D01*
X15759D01*
Y945D01*
Y952D01*
Y958D01*
X15752D01*
Y965D01*
Y971D01*
Y978D01*
X15746D01*
Y984D01*
Y991D01*
Y997D01*
X15739D01*
Y991D01*
Y984D01*
Y978D01*
Y971D01*
Y965D01*
Y958D01*
Y952D01*
Y945D01*
Y939D01*
Y932D01*
Y926D01*
Y919D01*
Y913D01*
Y906D01*
Y900D01*
Y893D01*
Y887D01*
Y881D01*
Y874D01*
Y868D01*
Y861D01*
Y855D01*
Y848D01*
Y842D01*
Y835D01*
Y829D01*
Y822D01*
X15700D01*
Y829D01*
Y835D01*
Y842D01*
Y848D01*
Y855D01*
Y861D01*
Y868D01*
Y874D01*
Y881D01*
Y887D01*
Y893D01*
Y900D01*
Y906D01*
Y913D01*
Y919D01*
Y926D01*
Y932D01*
Y939D01*
Y945D01*
Y952D01*
Y958D01*
Y965D01*
Y971D01*
Y978D01*
Y984D01*
Y991D01*
Y997D01*
Y1003D01*
Y1010D01*
Y1016D01*
Y1023D01*
Y1029D01*
X15707D01*
Y1036D01*
X15765D01*
Y1029D01*
X15772D01*
Y1023D01*
Y1016D01*
X15778D01*
Y1010D01*
Y1003D01*
Y997D01*
X15785D01*
Y991D01*
Y984D01*
Y978D01*
X15791D01*
Y971D01*
Y965D01*
Y958D01*
X15797D01*
Y952D01*
Y945D01*
Y939D01*
X15804D01*
Y932D01*
Y926D01*
Y919D01*
X15810D01*
Y913D01*
Y906D01*
Y900D01*
X15817D01*
Y893D01*
Y887D01*
X15823D01*
Y893D01*
Y900D01*
X15830D01*
Y906D01*
Y913D01*
Y919D01*
X15836D01*
Y926D01*
Y932D01*
Y939D01*
X15843D01*
Y945D01*
Y952D01*
Y958D01*
X15849D01*
Y965D01*
Y971D01*
X15856D01*
Y978D01*
Y984D01*
Y991D01*
X15862D01*
Y997D01*
Y1003D01*
Y1010D01*
X15869D01*
Y1016D01*
Y1023D01*
X15875D01*
Y1029D01*
Y1036D01*
X15933D01*
Y1029D01*
D02*
G37*
G36*
X17810D02*
X17829D01*
Y1023D01*
X17842D01*
Y1016D01*
X17849D01*
Y1010D01*
X17855D01*
Y1003D01*
X17862D01*
Y997D01*
Y991D01*
X17868D01*
Y984D01*
Y978D01*
Y971D01*
X17875D01*
Y965D01*
Y958D01*
Y952D01*
Y945D01*
Y939D01*
Y932D01*
Y926D01*
Y919D01*
Y913D01*
Y906D01*
Y900D01*
Y893D01*
Y887D01*
X17868D01*
Y881D01*
Y874D01*
X17862D01*
Y868D01*
Y861D01*
X17855D01*
Y855D01*
X17849D01*
Y848D01*
X17842D01*
Y842D01*
X17836D01*
Y835D01*
X17823D01*
Y829D01*
X17804D01*
Y822D01*
X17713D01*
Y829D01*
X17706D01*
Y835D01*
Y842D01*
Y848D01*
Y855D01*
Y861D01*
Y868D01*
Y874D01*
Y881D01*
Y887D01*
Y893D01*
Y900D01*
Y906D01*
Y913D01*
Y919D01*
Y926D01*
Y932D01*
Y939D01*
Y945D01*
Y952D01*
Y958D01*
Y965D01*
Y971D01*
Y978D01*
Y984D01*
Y991D01*
Y997D01*
Y1003D01*
Y1010D01*
Y1016D01*
Y1023D01*
Y1029D01*
Y1036D01*
X17810D01*
Y1029D01*
D02*
G37*
G36*
X17668D02*
Y1023D01*
Y1016D01*
Y1010D01*
Y1003D01*
X17590D01*
Y997D01*
Y991D01*
Y984D01*
Y978D01*
Y971D01*
Y965D01*
Y958D01*
Y952D01*
X17655D01*
Y945D01*
Y939D01*
Y932D01*
Y926D01*
Y919D01*
X17590D01*
Y913D01*
Y906D01*
Y900D01*
Y893D01*
Y887D01*
Y881D01*
Y874D01*
Y868D01*
Y861D01*
Y855D01*
X17668D01*
Y848D01*
Y842D01*
Y835D01*
Y829D01*
Y822D01*
X17551D01*
Y829D01*
X17545D01*
Y835D01*
Y842D01*
Y848D01*
Y855D01*
Y861D01*
Y868D01*
Y874D01*
Y881D01*
Y887D01*
Y893D01*
Y900D01*
Y906D01*
Y913D01*
Y919D01*
Y926D01*
Y932D01*
Y939D01*
Y945D01*
Y952D01*
Y958D01*
Y965D01*
Y971D01*
Y978D01*
Y984D01*
Y991D01*
Y997D01*
Y1003D01*
Y1010D01*
Y1016D01*
Y1023D01*
Y1029D01*
X17551D01*
Y1036D01*
X17668D01*
Y1029D01*
D02*
G37*
G36*
X17519D02*
Y1023D01*
Y1016D01*
Y1010D01*
Y1003D01*
X17467D01*
Y997D01*
Y991D01*
Y984D01*
Y978D01*
Y971D01*
Y965D01*
Y958D01*
Y952D01*
Y945D01*
Y939D01*
Y932D01*
Y926D01*
Y919D01*
Y913D01*
Y906D01*
Y900D01*
Y893D01*
Y887D01*
Y881D01*
Y874D01*
Y868D01*
Y861D01*
Y855D01*
Y848D01*
Y842D01*
Y835D01*
Y829D01*
X17461D01*
Y822D01*
X17428D01*
Y829D01*
X17422D01*
Y835D01*
Y842D01*
Y848D01*
Y855D01*
Y861D01*
Y868D01*
Y874D01*
Y881D01*
Y887D01*
Y893D01*
Y900D01*
Y906D01*
Y913D01*
Y919D01*
Y926D01*
Y932D01*
Y939D01*
Y945D01*
Y952D01*
Y958D01*
Y965D01*
Y971D01*
Y978D01*
Y984D01*
Y991D01*
Y997D01*
Y1003D01*
X17370D01*
Y1010D01*
X17364D01*
Y1016D01*
Y1023D01*
Y1029D01*
X17370D01*
Y1036D01*
X17519D01*
Y1029D01*
D02*
G37*
G36*
X17338D02*
Y1023D01*
Y1016D01*
Y1010D01*
Y1003D01*
Y997D01*
Y991D01*
Y984D01*
Y978D01*
Y971D01*
Y965D01*
Y958D01*
Y952D01*
Y945D01*
Y939D01*
Y932D01*
Y926D01*
Y919D01*
Y913D01*
Y906D01*
Y900D01*
Y893D01*
Y887D01*
Y881D01*
Y874D01*
Y868D01*
Y861D01*
Y855D01*
Y848D01*
Y842D01*
Y835D01*
Y829D01*
Y822D01*
X17299D01*
Y829D01*
Y835D01*
Y842D01*
Y848D01*
Y855D01*
Y861D01*
Y868D01*
Y874D01*
Y881D01*
Y887D01*
Y893D01*
Y900D01*
Y906D01*
Y913D01*
Y919D01*
Y926D01*
Y932D01*
Y939D01*
Y945D01*
Y952D01*
Y958D01*
Y965D01*
Y971D01*
Y978D01*
Y984D01*
Y991D01*
Y997D01*
Y1003D01*
Y1010D01*
Y1016D01*
Y1023D01*
Y1029D01*
Y1036D01*
X17338D01*
Y1029D01*
D02*
G37*
G36*
X16969D02*
Y1023D01*
Y1016D01*
Y1010D01*
Y1003D01*
Y997D01*
Y991D01*
Y984D01*
Y978D01*
Y971D01*
Y965D01*
Y958D01*
Y952D01*
Y945D01*
Y939D01*
Y932D01*
Y926D01*
Y919D01*
Y913D01*
Y906D01*
Y900D01*
Y893D01*
Y887D01*
Y881D01*
Y874D01*
Y868D01*
Y861D01*
Y855D01*
Y848D01*
Y842D01*
Y835D01*
Y829D01*
Y822D01*
X16930D01*
Y829D01*
Y835D01*
Y842D01*
Y848D01*
Y855D01*
Y861D01*
Y868D01*
Y874D01*
Y881D01*
Y887D01*
Y893D01*
Y900D01*
Y906D01*
Y913D01*
Y919D01*
Y926D01*
Y932D01*
Y939D01*
Y945D01*
Y952D01*
Y958D01*
Y965D01*
Y971D01*
Y978D01*
Y984D01*
Y991D01*
Y997D01*
Y1003D01*
Y1010D01*
Y1016D01*
Y1023D01*
Y1029D01*
Y1036D01*
X16969D01*
Y1029D01*
D02*
G37*
G36*
X16833D02*
Y1023D01*
Y1016D01*
Y1010D01*
Y1003D01*
Y997D01*
Y991D01*
Y984D01*
Y978D01*
Y971D01*
Y965D01*
Y958D01*
Y952D01*
Y945D01*
Y939D01*
Y932D01*
Y926D01*
Y919D01*
Y913D01*
Y906D01*
Y900D01*
Y893D01*
Y887D01*
Y881D01*
Y874D01*
Y868D01*
Y861D01*
Y855D01*
X16904D01*
Y848D01*
Y842D01*
Y835D01*
Y829D01*
Y822D01*
X16794D01*
Y829D01*
Y835D01*
Y842D01*
Y848D01*
Y855D01*
Y861D01*
Y868D01*
Y874D01*
Y881D01*
Y887D01*
Y893D01*
Y900D01*
Y906D01*
Y913D01*
Y919D01*
Y926D01*
Y932D01*
Y939D01*
Y945D01*
Y952D01*
Y958D01*
Y965D01*
Y971D01*
Y978D01*
Y984D01*
Y991D01*
Y997D01*
Y1003D01*
Y1010D01*
Y1016D01*
Y1023D01*
Y1029D01*
Y1036D01*
X16833D01*
Y1029D01*
D02*
G37*
G36*
X16237D02*
X16244D01*
Y1023D01*
Y1016D01*
Y1010D01*
X16250D01*
Y1003D01*
Y997D01*
Y991D01*
X16257D01*
Y984D01*
Y978D01*
Y971D01*
X16263D01*
Y965D01*
Y958D01*
Y952D01*
X16270D01*
Y945D01*
Y939D01*
Y932D01*
X16276D01*
Y926D01*
Y919D01*
Y913D01*
X16283D01*
Y906D01*
Y900D01*
Y893D01*
X16289D01*
Y887D01*
Y881D01*
Y874D01*
X16296D01*
Y868D01*
Y861D01*
Y855D01*
X16302D01*
Y848D01*
Y842D01*
Y835D01*
Y829D01*
Y822D01*
X16263D01*
Y829D01*
Y835D01*
X16257D01*
Y842D01*
Y848D01*
Y855D01*
X16250D01*
Y861D01*
Y868D01*
X16244D01*
Y874D01*
X16173D01*
Y868D01*
X16166D01*
Y861D01*
Y855D01*
Y848D01*
X16160D01*
Y842D01*
Y835D01*
Y829D01*
X16153D01*
Y822D01*
X16121D01*
Y829D01*
Y835D01*
Y842D01*
Y848D01*
Y855D01*
X16127D01*
Y861D01*
Y868D01*
Y874D01*
X16134D01*
Y881D01*
Y887D01*
Y893D01*
X16140D01*
Y900D01*
Y906D01*
Y913D01*
X16147D01*
Y919D01*
Y926D01*
Y932D01*
X16153D01*
Y939D01*
Y945D01*
Y952D01*
X16160D01*
Y958D01*
Y965D01*
Y971D01*
X16166D01*
Y978D01*
Y984D01*
Y991D01*
X16173D01*
Y997D01*
Y1003D01*
Y1010D01*
X16179D01*
Y1016D01*
Y1023D01*
Y1029D01*
X16186D01*
Y1036D01*
X16237D01*
Y1029D01*
D02*
G37*
G36*
X16082D02*
X16095D01*
Y1023D01*
X16108D01*
Y1016D01*
X16115D01*
Y1010D01*
Y1003D01*
X16121D01*
Y997D01*
Y991D01*
Y984D01*
X16127D01*
Y978D01*
Y971D01*
Y965D01*
Y958D01*
X16121D01*
Y952D01*
Y945D01*
Y939D01*
X16115D01*
Y932D01*
Y926D01*
X16108D01*
Y919D01*
X16102D01*
Y913D01*
X16095D01*
Y906D01*
X16082D01*
Y900D01*
X16030D01*
Y893D01*
X16024D01*
Y887D01*
Y881D01*
Y874D01*
Y868D01*
Y861D01*
Y855D01*
Y848D01*
Y842D01*
Y835D01*
Y829D01*
Y822D01*
X15985D01*
Y829D01*
Y835D01*
Y842D01*
Y848D01*
Y855D01*
Y861D01*
Y868D01*
Y874D01*
Y881D01*
Y887D01*
Y893D01*
Y900D01*
Y906D01*
Y913D01*
Y919D01*
Y926D01*
Y932D01*
Y939D01*
Y945D01*
Y952D01*
Y958D01*
Y965D01*
Y971D01*
Y978D01*
Y984D01*
Y991D01*
Y997D01*
Y1003D01*
Y1010D01*
Y1016D01*
Y1023D01*
Y1029D01*
Y1036D01*
X16082D01*
Y1029D01*
D02*
G37*
G36*
X15597Y1036D02*
X15616D01*
Y1029D01*
X15629D01*
Y1023D01*
X15636D01*
Y1016D01*
X15642D01*
Y1010D01*
X15649D01*
Y1003D01*
Y997D01*
X15655D01*
Y991D01*
Y984D01*
X15662D01*
Y978D01*
Y971D01*
Y965D01*
Y958D01*
Y952D01*
Y945D01*
Y939D01*
Y932D01*
Y926D01*
Y919D01*
Y913D01*
Y906D01*
Y900D01*
Y893D01*
Y887D01*
X15655D01*
Y881D01*
Y874D01*
Y868D01*
X15649D01*
Y861D01*
Y855D01*
X15642D01*
Y848D01*
X15636D01*
Y842D01*
X15629D01*
Y835D01*
X15623D01*
Y829D01*
X15610D01*
Y822D01*
X15526D01*
Y829D01*
X15513D01*
Y835D01*
X15500D01*
Y842D01*
X15493D01*
Y848D01*
X15487D01*
Y855D01*
Y861D01*
X15480D01*
Y868D01*
Y874D01*
Y881D01*
X15474D01*
Y887D01*
Y893D01*
Y900D01*
Y906D01*
Y913D01*
Y919D01*
Y926D01*
Y932D01*
Y939D01*
Y945D01*
Y952D01*
Y958D01*
Y965D01*
Y971D01*
Y978D01*
X15480D01*
Y984D01*
Y991D01*
X15487D01*
Y997D01*
Y1003D01*
X15493D01*
Y1010D01*
X15500D01*
Y1016D01*
X15506D01*
Y1023D01*
X15513D01*
Y1029D01*
X15526D01*
Y1036D01*
X15545D01*
Y1042D01*
X15597D01*
Y1036D01*
D02*
G37*
G36*
X14186Y1567D02*
Y1560D01*
Y1554D01*
Y1547D01*
Y1541D01*
Y1534D01*
Y1528D01*
Y1521D01*
Y1515D01*
Y1508D01*
Y1502D01*
Y1495D01*
Y1489D01*
Y1482D01*
Y1476D01*
Y1469D01*
Y1463D01*
Y1456D01*
Y1450D01*
Y1444D01*
Y1437D01*
Y1431D01*
Y1424D01*
Y1418D01*
Y1411D01*
Y1405D01*
Y1398D01*
Y1392D01*
Y1385D01*
Y1379D01*
Y1372D01*
Y1366D01*
Y1359D01*
Y1353D01*
Y1346D01*
Y1340D01*
Y1334D01*
Y1327D01*
Y1321D01*
Y1314D01*
Y1308D01*
Y1301D01*
Y1295D01*
Y1288D01*
Y1282D01*
Y1275D01*
Y1269D01*
Y1262D01*
Y1256D01*
Y1249D01*
Y1243D01*
Y1236D01*
Y1230D01*
Y1224D01*
Y1217D01*
Y1211D01*
Y1204D01*
Y1198D01*
Y1191D01*
Y1185D01*
Y1178D01*
Y1172D01*
Y1165D01*
Y1159D01*
Y1152D01*
Y1146D01*
Y1139D01*
Y1133D01*
Y1126D01*
Y1120D01*
Y1114D01*
Y1107D01*
Y1101D01*
Y1094D01*
Y1088D01*
Y1081D01*
Y1075D01*
Y1068D01*
Y1062D01*
Y1055D01*
Y1049D01*
Y1042D01*
Y1036D01*
Y1029D01*
Y1023D01*
Y1016D01*
Y1010D01*
Y1003D01*
Y997D01*
Y991D01*
Y984D01*
Y978D01*
Y971D01*
Y965D01*
Y958D01*
Y952D01*
Y945D01*
Y939D01*
Y932D01*
Y926D01*
Y919D01*
Y913D01*
Y906D01*
Y900D01*
Y893D01*
Y887D01*
Y881D01*
Y874D01*
Y868D01*
Y861D01*
Y855D01*
Y848D01*
Y842D01*
Y835D01*
Y829D01*
Y822D01*
Y816D01*
Y809D01*
Y803D01*
Y796D01*
Y790D01*
Y783D01*
Y777D01*
Y771D01*
Y764D01*
Y758D01*
Y751D01*
Y745D01*
Y738D01*
Y732D01*
Y725D01*
Y719D01*
Y712D01*
Y706D01*
Y699D01*
Y693D01*
Y686D01*
Y680D01*
Y673D01*
Y667D01*
Y661D01*
Y654D01*
Y648D01*
Y641D01*
Y635D01*
X14180D01*
Y641D01*
X14173D01*
Y648D01*
X14167D01*
Y654D01*
X14160D01*
Y661D01*
X14154D01*
Y667D01*
X14147D01*
Y673D01*
X14141D01*
Y680D01*
X14134D01*
Y686D01*
X14128D01*
Y693D01*
X14121D01*
Y699D01*
X14115D01*
Y706D01*
X14108D01*
Y712D01*
X14102D01*
Y719D01*
X14095D01*
Y725D01*
X14089D01*
Y732D01*
X14083D01*
Y738D01*
X14076D01*
Y745D01*
X14070D01*
Y751D01*
X14063D01*
Y758D01*
X14057D01*
Y764D01*
X14050D01*
Y771D01*
X14044D01*
Y777D01*
X14037D01*
Y783D01*
X14031D01*
Y790D01*
X14024D01*
Y796D01*
X14018D01*
Y803D01*
X14011D01*
Y809D01*
X14005D01*
Y816D01*
X13998D01*
Y822D01*
X13992D01*
Y829D01*
X13985D01*
Y835D01*
X13979D01*
Y842D01*
X13973D01*
Y848D01*
X13966D01*
Y855D01*
X13960D01*
Y861D01*
X13953D01*
Y868D01*
X13947D01*
Y874D01*
X13940D01*
Y881D01*
X13934D01*
Y887D01*
X13927D01*
Y893D01*
X13921D01*
Y900D01*
X13914D01*
Y906D01*
X13908D01*
Y913D01*
X13901D01*
Y919D01*
X13895D01*
Y926D01*
X13888D01*
Y932D01*
X13882D01*
Y939D01*
X13875D01*
Y945D01*
X13869D01*
Y952D01*
X13863D01*
Y958D01*
X13856D01*
Y965D01*
X13850D01*
Y971D01*
X13843D01*
Y978D01*
X13837D01*
Y984D01*
X13830D01*
Y991D01*
X13824D01*
Y997D01*
X13817D01*
Y1003D01*
X13811D01*
Y1010D01*
X13804D01*
Y1016D01*
X13798D01*
Y1023D01*
X13791D01*
Y1029D01*
X13785D01*
Y1036D01*
X13778D01*
Y1042D01*
X13772D01*
Y1049D01*
X13765D01*
Y1055D01*
X13759D01*
Y1062D01*
X13753D01*
Y1068D01*
X13746D01*
Y1075D01*
X13740D01*
Y1081D01*
X13733D01*
Y1088D01*
X13727D01*
Y1094D01*
X13720D01*
Y1101D01*
X13714D01*
Y1107D01*
X13720D01*
Y1114D01*
X13727D01*
Y1120D01*
X13733D01*
Y1126D01*
X13740D01*
Y1133D01*
X13746D01*
Y1139D01*
X13753D01*
Y1146D01*
X13759D01*
Y1152D01*
X13765D01*
Y1159D01*
X13772D01*
Y1165D01*
X13778D01*
Y1172D01*
X13785D01*
Y1178D01*
X13791D01*
Y1185D01*
X13798D01*
Y1191D01*
X13804D01*
Y1198D01*
X13811D01*
Y1204D01*
X13817D01*
Y1211D01*
X13824D01*
Y1217D01*
X13830D01*
Y1224D01*
X13837D01*
Y1230D01*
X13843D01*
Y1236D01*
X13850D01*
Y1243D01*
X13856D01*
Y1249D01*
X13863D01*
Y1256D01*
X13869D01*
Y1262D01*
X13875D01*
Y1269D01*
X13882D01*
Y1275D01*
X13888D01*
Y1282D01*
X13895D01*
Y1288D01*
X13901D01*
Y1295D01*
X13908D01*
Y1301D01*
X13914D01*
Y1308D01*
X13921D01*
Y1314D01*
X13927D01*
Y1321D01*
X13934D01*
Y1327D01*
X13940D01*
Y1334D01*
X13947D01*
Y1340D01*
X13953D01*
Y1346D01*
X13960D01*
Y1353D01*
X13966D01*
Y1359D01*
X13973D01*
Y1366D01*
X13979D01*
Y1372D01*
X13985D01*
Y1379D01*
X13992D01*
Y1385D01*
X13998D01*
Y1392D01*
X14005D01*
Y1398D01*
X14011D01*
Y1405D01*
X14018D01*
Y1411D01*
X14024D01*
Y1418D01*
X14031D01*
Y1424D01*
X14037D01*
Y1431D01*
X14044D01*
Y1437D01*
X14050D01*
Y1444D01*
X14057D01*
Y1450D01*
X14063D01*
Y1456D01*
X14070D01*
Y1463D01*
X14076D01*
Y1469D01*
X14083D01*
Y1476D01*
X14089D01*
Y1482D01*
X14095D01*
Y1489D01*
X14102D01*
Y1495D01*
X14108D01*
Y1502D01*
X14115D01*
Y1508D01*
X14121D01*
Y1515D01*
X14128D01*
Y1521D01*
X14134D01*
Y1528D01*
X14141D01*
Y1534D01*
X14147D01*
Y1541D01*
X14154D01*
Y1547D01*
X14160D01*
Y1554D01*
X14167D01*
Y1560D01*
X14173D01*
Y1567D01*
X14180D01*
Y1573D01*
X14186D01*
Y1567D01*
D02*
G37*
G36*
X14684Y1579D02*
X14691D01*
Y1573D01*
X14697D01*
Y1567D01*
X14704D01*
Y1560D01*
X14710D01*
Y1554D01*
X14717D01*
Y1547D01*
X14723D01*
Y1541D01*
X14730D01*
Y1534D01*
X14736D01*
Y1528D01*
X14743D01*
Y1521D01*
X14749D01*
Y1515D01*
X14756D01*
Y1508D01*
X14762D01*
Y1502D01*
X14769D01*
Y1495D01*
X14775D01*
Y1489D01*
X14781D01*
Y1482D01*
X14788D01*
Y1476D01*
X14794D01*
Y1469D01*
X14801D01*
Y1463D01*
X14807D01*
Y1456D01*
X14814D01*
Y1450D01*
X14820D01*
Y1444D01*
X14827D01*
Y1437D01*
X14833D01*
Y1431D01*
X14840D01*
Y1424D01*
X14846D01*
Y1418D01*
X14853D01*
Y1411D01*
X14859D01*
Y1405D01*
X14866D01*
Y1398D01*
X14872D01*
Y1392D01*
X14879D01*
Y1385D01*
X14885D01*
Y1379D01*
X14891D01*
Y1372D01*
X14898D01*
Y1366D01*
X14904D01*
Y1359D01*
X14911D01*
Y1353D01*
X14917D01*
Y1346D01*
X14924D01*
Y1340D01*
X14930D01*
Y1334D01*
X14937D01*
Y1327D01*
X14943D01*
Y1321D01*
X14950D01*
Y1314D01*
X14956D01*
Y1308D01*
X14963D01*
Y1301D01*
X14969D01*
Y1295D01*
X14976D01*
Y1288D01*
X14982D01*
Y1282D01*
X14989D01*
Y1275D01*
X14995D01*
Y1269D01*
X15001D01*
Y1262D01*
X15008D01*
Y1256D01*
X15014D01*
Y1249D01*
X15021D01*
Y1243D01*
X15027D01*
Y1236D01*
X15034D01*
Y1230D01*
X15040D01*
Y1224D01*
X15047D01*
Y1217D01*
X15053D01*
Y1211D01*
X15060D01*
Y1204D01*
X15066D01*
Y1198D01*
X15073D01*
Y1191D01*
X15079D01*
Y1185D01*
X15086D01*
Y1178D01*
X15092D01*
Y1172D01*
X15099D01*
Y1165D01*
X15105D01*
Y1159D01*
X15112D01*
Y1152D01*
X15118D01*
Y1146D01*
X15124D01*
Y1139D01*
X15131D01*
Y1133D01*
X15137D01*
Y1126D01*
X15144D01*
Y1120D01*
X15150D01*
Y1114D01*
X15157D01*
Y1107D01*
X15163D01*
Y1101D01*
X15157D01*
Y1094D01*
X15150D01*
Y1088D01*
X15144D01*
Y1081D01*
X15137D01*
Y1075D01*
X15131D01*
Y1068D01*
X15124D01*
Y1062D01*
X15118D01*
Y1055D01*
X15112D01*
Y1049D01*
X15105D01*
Y1042D01*
X15099D01*
Y1036D01*
X15092D01*
Y1029D01*
X15086D01*
Y1023D01*
X15079D01*
Y1016D01*
X15073D01*
Y1010D01*
X15066D01*
Y1003D01*
X15060D01*
Y997D01*
X15053D01*
Y991D01*
X15047D01*
Y984D01*
X15040D01*
Y978D01*
X15034D01*
Y971D01*
X15027D01*
Y965D01*
X15021D01*
Y958D01*
X15014D01*
Y952D01*
X15008D01*
Y945D01*
X15001D01*
Y939D01*
X14995D01*
Y932D01*
X14989D01*
Y926D01*
X14982D01*
Y919D01*
X14976D01*
Y913D01*
X14969D01*
Y906D01*
X14963D01*
Y900D01*
X14956D01*
Y893D01*
X14950D01*
Y887D01*
X14943D01*
Y881D01*
X14937D01*
Y874D01*
X14930D01*
Y868D01*
X14924D01*
Y861D01*
X14917D01*
Y855D01*
X14911D01*
Y848D01*
X14904D01*
Y842D01*
X14898D01*
Y835D01*
X14891D01*
Y829D01*
X14885D01*
Y822D01*
X14879D01*
Y816D01*
X14872D01*
Y809D01*
X14866D01*
Y803D01*
X14859D01*
Y796D01*
X14853D01*
Y790D01*
X14846D01*
Y783D01*
X14840D01*
Y777D01*
X14833D01*
Y771D01*
X14827D01*
Y764D01*
X14820D01*
Y758D01*
X14814D01*
Y751D01*
X14807D01*
Y745D01*
X14801D01*
Y738D01*
X14794D01*
Y732D01*
X14788D01*
Y725D01*
X14781D01*
Y719D01*
X14775D01*
Y712D01*
X14769D01*
Y706D01*
X14762D01*
Y699D01*
X14756D01*
Y693D01*
X14749D01*
Y686D01*
X14743D01*
Y680D01*
X14736D01*
Y673D01*
X14730D01*
Y667D01*
X14723D01*
Y661D01*
X14717D01*
Y654D01*
X14710D01*
Y648D01*
X14704D01*
Y641D01*
X14697D01*
Y635D01*
X14691D01*
Y628D01*
X14684D01*
Y622D01*
X14678D01*
Y628D01*
Y635D01*
Y641D01*
Y648D01*
Y654D01*
Y661D01*
Y667D01*
Y673D01*
Y680D01*
Y686D01*
Y693D01*
Y699D01*
Y706D01*
Y712D01*
Y719D01*
Y725D01*
Y732D01*
Y738D01*
Y745D01*
Y751D01*
Y758D01*
Y764D01*
Y771D01*
Y777D01*
Y783D01*
Y790D01*
Y796D01*
Y803D01*
Y809D01*
Y816D01*
Y822D01*
Y829D01*
Y835D01*
Y842D01*
Y848D01*
Y855D01*
Y861D01*
Y868D01*
Y874D01*
Y881D01*
Y887D01*
Y893D01*
Y900D01*
Y906D01*
Y913D01*
Y919D01*
Y926D01*
Y932D01*
Y939D01*
Y945D01*
Y952D01*
Y958D01*
Y965D01*
Y971D01*
Y978D01*
Y984D01*
Y991D01*
Y997D01*
Y1003D01*
Y1010D01*
Y1016D01*
Y1023D01*
Y1029D01*
Y1036D01*
Y1042D01*
Y1049D01*
Y1055D01*
Y1062D01*
Y1068D01*
Y1075D01*
Y1081D01*
Y1088D01*
Y1094D01*
Y1101D01*
Y1107D01*
Y1114D01*
Y1120D01*
Y1126D01*
Y1133D01*
Y1139D01*
Y1146D01*
Y1152D01*
Y1159D01*
Y1165D01*
Y1172D01*
Y1178D01*
Y1185D01*
Y1191D01*
Y1198D01*
Y1204D01*
Y1211D01*
Y1217D01*
Y1224D01*
Y1230D01*
Y1236D01*
Y1243D01*
Y1249D01*
Y1256D01*
Y1262D01*
Y1269D01*
Y1275D01*
Y1282D01*
Y1288D01*
Y1295D01*
Y1301D01*
Y1308D01*
Y1314D01*
Y1321D01*
Y1327D01*
Y1334D01*
Y1340D01*
Y1346D01*
Y1353D01*
Y1359D01*
Y1366D01*
Y1372D01*
Y1379D01*
Y1385D01*
Y1392D01*
Y1398D01*
Y1405D01*
Y1411D01*
Y1418D01*
Y1424D01*
Y1431D01*
Y1437D01*
Y1444D01*
Y1450D01*
Y1456D01*
Y1463D01*
Y1469D01*
Y1476D01*
Y1482D01*
Y1489D01*
Y1495D01*
Y1502D01*
Y1508D01*
Y1515D01*
Y1521D01*
Y1528D01*
Y1534D01*
Y1541D01*
Y1547D01*
Y1554D01*
Y1560D01*
Y1567D01*
Y1573D01*
Y1579D01*
Y1586D01*
X14684D01*
Y1579D01*
D02*
G37*
G36*
X14594Y1049D02*
Y1042D01*
Y1036D01*
Y1029D01*
Y1023D01*
Y1016D01*
Y1010D01*
Y1003D01*
Y997D01*
Y991D01*
Y984D01*
Y978D01*
Y971D01*
Y965D01*
Y958D01*
Y952D01*
Y945D01*
Y939D01*
Y932D01*
Y926D01*
Y919D01*
Y913D01*
Y906D01*
Y900D01*
Y893D01*
Y887D01*
Y881D01*
Y874D01*
Y868D01*
Y861D01*
Y855D01*
Y848D01*
Y842D01*
Y835D01*
Y829D01*
Y822D01*
Y816D01*
Y809D01*
Y803D01*
Y796D01*
Y790D01*
Y783D01*
Y777D01*
Y771D01*
Y764D01*
Y758D01*
Y751D01*
Y745D01*
Y738D01*
Y732D01*
Y725D01*
Y719D01*
Y712D01*
Y706D01*
Y699D01*
Y693D01*
Y686D01*
Y680D01*
Y673D01*
Y667D01*
Y661D01*
Y654D01*
Y648D01*
Y641D01*
Y635D01*
Y628D01*
Y622D01*
Y615D01*
Y609D01*
Y602D01*
Y596D01*
Y589D01*
Y583D01*
Y576D01*
Y570D01*
Y563D01*
Y557D01*
X14270D01*
Y563D01*
Y570D01*
Y576D01*
Y583D01*
Y589D01*
Y596D01*
Y602D01*
Y609D01*
Y615D01*
Y622D01*
Y628D01*
Y635D01*
Y641D01*
Y648D01*
Y654D01*
Y661D01*
Y667D01*
Y673D01*
Y680D01*
Y686D01*
Y693D01*
Y699D01*
Y706D01*
Y712D01*
Y719D01*
Y725D01*
Y732D01*
Y738D01*
Y745D01*
Y751D01*
Y758D01*
Y764D01*
Y771D01*
Y777D01*
Y783D01*
Y790D01*
Y796D01*
Y803D01*
Y809D01*
Y816D01*
Y822D01*
Y829D01*
Y835D01*
Y842D01*
Y848D01*
Y855D01*
Y861D01*
Y868D01*
Y874D01*
Y881D01*
Y887D01*
Y893D01*
Y900D01*
Y906D01*
Y913D01*
Y919D01*
Y926D01*
Y932D01*
Y939D01*
Y945D01*
Y952D01*
Y958D01*
Y965D01*
Y971D01*
Y978D01*
Y984D01*
Y991D01*
Y997D01*
Y1003D01*
Y1010D01*
Y1016D01*
Y1023D01*
Y1029D01*
Y1036D01*
Y1042D01*
Y1049D01*
Y1055D01*
X14594D01*
Y1049D01*
D02*
G37*
%LPC*%
G36*
X18399Y1379D02*
X18392D01*
Y1372D01*
Y1366D01*
Y1359D01*
X18386D01*
Y1353D01*
Y1346D01*
Y1340D01*
X18379D01*
Y1334D01*
Y1327D01*
Y1321D01*
X18373D01*
Y1314D01*
Y1308D01*
Y1301D01*
X18367D01*
Y1295D01*
Y1288D01*
Y1282D01*
X18360D01*
Y1275D01*
Y1269D01*
Y1262D01*
X18354D01*
Y1256D01*
Y1249D01*
Y1243D01*
X18444D01*
Y1249D01*
Y1256D01*
X18438D01*
Y1262D01*
Y1269D01*
Y1275D01*
X18431D01*
Y1282D01*
Y1288D01*
Y1295D01*
X18425D01*
Y1301D01*
Y1308D01*
Y1314D01*
X18418D01*
Y1321D01*
Y1327D01*
Y1334D01*
X18412D01*
Y1340D01*
Y1346D01*
Y1353D01*
X18405D01*
Y1359D01*
Y1366D01*
Y1372D01*
X18399D01*
Y1379D01*
D02*
G37*
G36*
X16108D02*
X16102D01*
Y1372D01*
Y1366D01*
X16095D01*
Y1359D01*
Y1353D01*
Y1346D01*
X16089D01*
Y1340D01*
Y1334D01*
Y1327D01*
X16082D01*
Y1321D01*
Y1314D01*
Y1308D01*
X16076D01*
Y1301D01*
Y1295D01*
Y1288D01*
X16069D01*
Y1282D01*
Y1275D01*
Y1269D01*
X16063D01*
Y1262D01*
Y1256D01*
Y1249D01*
X16056D01*
Y1243D01*
X16153D01*
Y1249D01*
X16147D01*
Y1256D01*
Y1262D01*
Y1269D01*
X16140D01*
Y1275D01*
Y1282D01*
Y1288D01*
X16134D01*
Y1295D01*
Y1301D01*
Y1308D01*
X16127D01*
Y1314D01*
Y1321D01*
Y1327D01*
X16121D01*
Y1334D01*
Y1340D01*
Y1346D01*
X16115D01*
Y1353D01*
Y1359D01*
Y1366D01*
X16108D01*
Y1372D01*
Y1379D01*
D02*
G37*
G36*
X15804Y1398D02*
X15752D01*
Y1392D01*
X15733D01*
Y1385D01*
X15726D01*
Y1379D01*
X15713D01*
Y1372D01*
Y1366D01*
X15707D01*
Y1359D01*
X15700D01*
Y1353D01*
Y1346D01*
X15694D01*
Y1340D01*
Y1334D01*
Y1327D01*
Y1321D01*
X15687D01*
Y1314D01*
Y1308D01*
Y1301D01*
Y1295D01*
Y1288D01*
Y1282D01*
Y1275D01*
Y1269D01*
Y1262D01*
Y1256D01*
Y1249D01*
Y1243D01*
Y1236D01*
X15694D01*
Y1230D01*
Y1224D01*
Y1217D01*
Y1211D01*
X15700D01*
Y1204D01*
Y1198D01*
X15707D01*
Y1191D01*
X15713D01*
Y1185D01*
X15720D01*
Y1178D01*
X15726D01*
Y1172D01*
X15739D01*
Y1165D01*
X15810D01*
Y1172D01*
X15823D01*
Y1178D01*
X15830D01*
Y1185D01*
X15836D01*
Y1191D01*
X15843D01*
Y1198D01*
X15849D01*
Y1204D01*
Y1211D01*
X15856D01*
Y1217D01*
Y1224D01*
Y1230D01*
Y1236D01*
X15862D01*
Y1243D01*
Y1249D01*
Y1256D01*
Y1262D01*
Y1269D01*
Y1275D01*
Y1282D01*
Y1288D01*
Y1295D01*
Y1301D01*
Y1308D01*
Y1314D01*
Y1321D01*
Y1327D01*
X15856D01*
Y1334D01*
Y1340D01*
Y1346D01*
Y1353D01*
X15849D01*
Y1359D01*
Y1366D01*
X15843D01*
Y1372D01*
X15836D01*
Y1379D01*
X15830D01*
Y1385D01*
X15817D01*
Y1392D01*
X15804D01*
Y1398D01*
D02*
G37*
G36*
X17797Y1003D02*
X17745D01*
Y997D01*
Y991D01*
Y984D01*
Y978D01*
Y971D01*
Y965D01*
Y958D01*
Y952D01*
Y945D01*
Y939D01*
Y932D01*
Y926D01*
Y919D01*
Y913D01*
Y906D01*
Y900D01*
Y893D01*
Y887D01*
Y881D01*
Y874D01*
Y868D01*
Y861D01*
X17752D01*
Y855D01*
X17791D01*
Y861D01*
X17804D01*
Y868D01*
X17816D01*
Y874D01*
X17823D01*
Y881D01*
Y887D01*
X17829D01*
Y893D01*
Y900D01*
Y906D01*
X17836D01*
Y913D01*
Y919D01*
Y926D01*
Y932D01*
Y939D01*
Y945D01*
Y952D01*
X17829D01*
Y958D01*
Y965D01*
Y971D01*
X17823D01*
Y978D01*
Y984D01*
X17816D01*
Y991D01*
X17810D01*
Y997D01*
X17797D01*
Y1003D01*
D02*
G37*
G36*
X16212Y991D02*
X16205D01*
Y984D01*
Y978D01*
X16199D01*
Y971D01*
Y965D01*
Y958D01*
X16192D01*
Y952D01*
Y945D01*
Y939D01*
Y932D01*
X16186D01*
Y926D01*
Y919D01*
Y913D01*
X16179D01*
Y906D01*
X16237D01*
Y913D01*
Y919D01*
X16231D01*
Y926D01*
Y932D01*
Y939D01*
X16225D01*
Y945D01*
Y952D01*
Y958D01*
X16218D01*
Y965D01*
Y971D01*
Y978D01*
Y984D01*
X16212D01*
Y991D01*
D02*
G37*
G36*
X16069Y1003D02*
X16024D01*
Y997D01*
Y991D01*
Y984D01*
Y978D01*
Y971D01*
Y965D01*
Y958D01*
Y952D01*
Y945D01*
Y939D01*
Y932D01*
X16069D01*
Y939D01*
X16076D01*
Y945D01*
Y952D01*
X16082D01*
Y958D01*
Y965D01*
Y971D01*
Y978D01*
Y984D01*
X16076D01*
Y991D01*
Y997D01*
X16069D01*
Y1003D01*
D02*
G37*
G36*
X15597D02*
X15545D01*
Y997D01*
X15532D01*
Y991D01*
X15526D01*
Y984D01*
Y978D01*
X15519D01*
Y971D01*
Y965D01*
Y958D01*
X15513D01*
Y952D01*
Y945D01*
Y939D01*
Y932D01*
Y926D01*
Y919D01*
Y913D01*
Y906D01*
Y900D01*
X15519D01*
Y893D01*
Y887D01*
Y881D01*
X15526D01*
Y874D01*
Y868D01*
X15532D01*
Y861D01*
X15545D01*
Y855D01*
X15590D01*
Y861D01*
X15597D01*
Y868D01*
X15603D01*
Y874D01*
X15610D01*
Y881D01*
X15616D01*
Y887D01*
Y893D01*
Y900D01*
X15623D01*
Y906D01*
Y913D01*
Y919D01*
Y926D01*
Y932D01*
Y939D01*
Y945D01*
Y952D01*
Y958D01*
X15616D01*
Y965D01*
Y971D01*
Y978D01*
X15610D01*
Y984D01*
Y991D01*
X15603D01*
Y997D01*
X15597D01*
Y1003D01*
D02*
G37*
%LPD*%
D10*
X17553Y2824D02*
G03*
X17553Y2824I-49J0D01*
G01*
X23069Y10854D02*
G03*
X23069Y10854I-49J0D01*
G01*
X16764Y18590D02*
G03*
X16764Y18590I-49J0D01*
G01*
X6389Y19181D02*
G03*
X6389Y19181I-49J0D01*
G01*
X9956Y10028D02*
G03*
X9956Y10028I-49J0D01*
G01*
X14375Y13050D02*
Y13970D01*
Y13050D02*
X19325D01*
Y13980D01*
Y16910D02*
Y17900D01*
X14375D02*
X19325D01*
X14375Y16910D02*
Y17900D01*
X5783Y21940D02*
X9033D01*
X5783Y19390D02*
X9033D01*
Y19700D01*
X5783Y19390D02*
Y19720D01*
X9033Y21620D02*
Y21940D01*
X5783Y21630D02*
Y21940D01*
X11000Y14303D02*
X11310D01*
X11000Y17553D02*
X11320D01*
X13220Y14303D02*
X13550D01*
X13240Y17553D02*
X13550D01*
Y14303D02*
Y17553D01*
X11000Y14303D02*
Y17553D01*
D11*
X23138Y11719D02*
G03*
X23138Y11719I-118J0D01*
G01*
X22922Y11720D02*
X23118D01*
X23020Y11622D02*
Y11818D01*
D12*
X23301Y14630D02*
G03*
X23301Y14630I-591J0D01*
G01*
X23341Y16330D02*
G03*
X23341Y16330I-591J0D01*
G01*
Y18060D02*
G03*
X23341Y18060I-591J0D01*
G01*
X12520Y5915D02*
Y5995D01*
X12840Y5915D02*
Y5995D01*
X12910Y5415D02*
Y6485D01*
X12450Y5415D02*
X12910D01*
X12450D02*
Y6485D01*
X12910D01*
X14040Y10540D02*
Y10620D01*
X13720Y10540D02*
Y10620D01*
X13650Y10050D02*
Y11120D01*
X14110D01*
Y10050D02*
Y11120D01*
X13650Y10050D02*
X14110D01*
X20190Y11180D02*
X20270D01*
X20190Y10860D02*
X20270D01*
X19690Y10790D02*
X20760D01*
X19690D02*
Y11250D01*
X20760D01*
Y10790D02*
Y11250D01*
X20190Y11750D02*
X20270D01*
X20190Y11430D02*
X20270D01*
X19690Y11360D02*
X20760D01*
X19690D02*
Y11820D01*
X20760D01*
Y11360D02*
Y11820D01*
X22910Y14630D02*
Y15130D01*
X22510D02*
X22910Y14630D01*
Y14130D02*
Y14630D01*
X22510Y14130D02*
X22910Y14630D01*
X22510Y14130D02*
Y15130D01*
X22950Y16330D02*
Y16830D01*
X22550D02*
X22950Y16330D01*
Y15830D02*
Y16330D01*
X22550Y15830D02*
X22950Y16330D01*
X22550Y15830D02*
Y16830D01*
X22950Y18060D02*
Y18560D01*
X22550D02*
X22950Y18060D01*
Y17560D02*
Y18060D01*
X22550Y17560D02*
X22950Y18060D01*
X22550Y17560D02*
Y18560D01*
X18170Y18410D02*
Y18870D01*
X17100D02*
X18170D01*
X17100Y18410D02*
Y18870D01*
Y18410D02*
X18170D01*
X17600Y18480D02*
X17680D01*
X17600Y18800D02*
X17680D01*
X11300Y13260D02*
X11380D01*
X11300Y13580D02*
X11380D01*
X10810Y13650D02*
X11880D01*
Y13190D02*
Y13650D01*
X10810Y13190D02*
X11880D01*
X10810D02*
Y13650D01*
X11050Y12220D02*
X11510D01*
X11050Y11150D02*
Y12220D01*
Y11150D02*
X11510D01*
Y12220D01*
X11440Y11650D02*
Y11730D01*
X11120Y11650D02*
Y11730D01*
X10630Y11640D02*
Y11720D01*
X10310Y11640D02*
Y11720D01*
X10240Y11150D02*
Y12220D01*
X10700D01*
Y11150D02*
Y12220D01*
X10240Y11150D02*
X10700D01*
X7390Y11720D02*
X7850D01*
Y12790D01*
X7390D02*
X7850D01*
X7390Y11720D02*
Y12790D01*
X7460Y12210D02*
Y12290D01*
X7780Y12210D02*
Y12290D01*
X7590Y10370D02*
X7670D01*
X7590Y10050D02*
X7670D01*
X7090Y9980D02*
X8160D01*
X7090D02*
Y10440D01*
X8160D01*
Y9980D02*
Y10440D01*
X7300Y7610D02*
X7380D01*
X7300Y7290D02*
X7380D01*
X6800Y7220D02*
X7870D01*
X6800D02*
Y7680D01*
X7870D01*
Y7220D02*
Y7680D01*
X7280Y7990D02*
X7360D01*
X7280Y8310D02*
X7360D01*
X6790Y8380D02*
X7860D01*
Y7920D02*
Y8380D01*
X6790Y7920D02*
X7860D01*
X6790D02*
Y8380D01*
D13*
X10861Y9497D02*
G03*
X10861Y9497I-118J0D01*
G01*
D14*
X23734Y20599D02*
G03*
X22120Y22213I-1614J0D01*
G01*
Y87D02*
G03*
X23734Y1701I0J1614D01*
G01*
X1720Y22213D02*
G03*
X106Y20599I0J-1614D01*
G01*
Y1701D02*
G03*
X1720Y87I1614J0D01*
G01*
X23734Y1701D02*
Y20599D01*
X1720Y22213D02*
X22130D01*
X106Y1701D02*
Y20599D01*
X1720Y87D02*
X22190Y90D01*
D15*
X3751Y4526D02*
Y5278D01*
Y9041D02*
Y9494D01*
X129Y4526D02*
X3751D01*
X129D02*
Y9494D01*
X3751D01*
Y7242D02*
Y7978D01*
Y5742D02*
Y6778D01*
X3821Y9666D02*
Y10418D01*
Y14181D02*
Y14634D01*
X199Y9666D02*
X3821D01*
X199D02*
Y14634D01*
X3821D01*
Y12382D02*
Y13118D01*
Y10882D02*
Y11918D01*
X14940Y4000D02*
Y5000D01*
X15940Y4000D02*
Y5000D01*
X11940Y4000D02*
X15940D01*
X11940Y5000D02*
X15940D01*
X11940Y4000D02*
Y5000D01*
X12654Y20101D02*
Y20656D01*
X11346Y20101D02*
Y20656D01*
Y20101D02*
X12654D01*
X11346Y22077D02*
X12654D01*
X11346Y21522D02*
Y22077D01*
X12654Y21522D02*
Y22077D01*
X11214Y21522D02*
Y22077D01*
X9906Y21522D02*
Y22077D01*
X11214D01*
X9906Y20101D02*
X11214D01*
X9906D02*
Y20656D01*
X11214Y20101D02*
Y20656D01*
X15890Y8430D02*
Y11430D01*
X14890D02*
X15890D01*
X14890Y8430D02*
Y11430D01*
Y8430D02*
X15890D01*
X14890Y9430D02*
X15890D01*
X17110Y3650D02*
Y9950D01*
X23360D02*
X23410D01*
X22573D02*
X22671D01*
X21786D02*
X21884D01*
X20998D02*
X21097D01*
X20211D02*
X20309D01*
X19423D02*
X19522D01*
X18636D02*
X18734D01*
X17849D02*
X17947D01*
X17110D02*
X17160D01*
X23410Y3650D02*
Y9950D01*
X23360Y3650D02*
X23410D01*
X22573D02*
X22671D01*
X21786D02*
X21884D01*
X20998D02*
X21097D01*
X20211D02*
X20309D01*
X19423D02*
X19522D01*
X18636D02*
X18734D01*
X17849D02*
X17947D01*
X17110D02*
X17160D01*
X17894Y12787D02*
X19398D01*
X17894Y11953D02*
X19398D01*
Y12787D01*
X17894Y11953D02*
Y12787D01*
X12830Y11540D02*
X15830D01*
Y12540D01*
X12830D02*
X15830D01*
X12830Y11540D02*
Y12540D01*
X13830Y11540D02*
Y12540D01*
X20706Y19885D02*
Y20413D01*
X19996D02*
X20706D01*
X19996Y19885D02*
Y20413D01*
Y19035D02*
Y19580D01*
X20706Y19035D02*
Y19580D01*
X19996Y19035D02*
X20706D01*
X19210Y19039D02*
X19910D01*
X19210Y20419D02*
X19910D01*
X19210Y19039D02*
Y19568D01*
Y19873D02*
Y20419D01*
X19910Y19873D02*
Y20419D01*
Y19039D02*
Y19568D01*
X20590Y20590D02*
Y21290D01*
X19210Y20590D02*
Y21290D01*
X20061Y20590D02*
X20590D01*
X19210D02*
X19756D01*
X19210Y21290D02*
X19756D01*
X20061D02*
X20590D01*
X19090Y19891D02*
Y20419D01*
X18380D02*
X19090D01*
X18380Y19891D02*
Y20419D01*
Y19041D02*
Y19586D01*
X19090Y19041D02*
Y19586D01*
X18380Y19041D02*
X19090D01*
X18260Y19891D02*
Y20419D01*
X17550D02*
X18260D01*
X17550Y19891D02*
Y20419D01*
Y19041D02*
Y19586D01*
X18260Y19041D02*
Y19586D01*
X17550Y19041D02*
X18260D01*
X16720Y19039D02*
X17420D01*
X16720Y20419D02*
X17420D01*
X16720Y19039D02*
Y19568D01*
Y19873D02*
Y20419D01*
X17420Y19873D02*
Y20419D01*
Y19039D02*
Y19568D01*
X14333Y20472D02*
X15907D01*
X14333Y18228D02*
X15907D01*
X12819Y21512D02*
X13519D01*
X12819Y20132D02*
X13519D01*
Y20983D02*
Y21512D01*
Y20132D02*
Y20678D01*
X12819Y20132D02*
Y20678D01*
Y20983D02*
Y21512D01*
X9026Y17013D02*
Y17568D01*
X10334Y17013D02*
Y17568D01*
X9026Y17013D02*
X10334D01*
X9026Y18989D02*
X10334D01*
Y18434D02*
Y18989D01*
X9026Y18434D02*
Y18989D01*
X5789Y17114D02*
X5897D01*
X5789Y18886D02*
X5897D01*
X6783Y17114D02*
X6891D01*
X6783Y18886D02*
X6891D01*
X5789Y17114D02*
Y18886D01*
X6891Y17114D02*
Y18886D01*
X4510Y14360D02*
Y14570D01*
Y14360D02*
X6500D01*
Y14570D01*
Y15460D02*
Y15650D01*
X4510D02*
X6500D01*
X4510Y15470D02*
Y15650D01*
X10350Y7450D02*
X12790D01*
X10350Y9890D02*
X12790D01*
Y7450D02*
Y9890D01*
X10350Y7450D02*
Y9890D01*
X3801Y16076D02*
Y16828D01*
Y19091D02*
Y19544D01*
X179Y16076D02*
X3801D01*
X179D02*
Y19544D01*
X3801D01*
Y17292D02*
Y18028D01*
X9032Y3972D02*
X9784D01*
X3316D02*
X3769D01*
X9784Y350D02*
Y3972D01*
X3316Y350D02*
X9784D01*
X3316D02*
Y3972D01*
X4832D02*
X5568D01*
X6032D02*
X7068D01*
X7532D02*
X8568D01*
D16*
X4279Y19950D02*
Y21643D01*
X2842Y19899D02*
Y21694D01*
X6620Y9870D02*
X8320D01*
Y8470D02*
Y9870D01*
X6620Y8470D02*
Y9870D01*
Y8470D02*
X8320D01*
D17*
X20530Y16300D02*
X21550D01*
Y16950D01*
X20530D02*
X21550D01*
X20530Y16300D02*
Y16950D01*
X20341Y14440D02*
Y18750D01*
X21719D01*
Y14440D02*
Y18750D01*
X20341Y14510D02*
X21719D01*
X20341Y14420D02*
X21719D01*
X20341Y14320D02*
X21719D01*
X20340D02*
Y14440D01*
X21720Y14320D02*
Y14470D01*
X7030Y17641D02*
Y18991D01*
Y16971D02*
X7900D01*
Y18991D01*
X7030Y16971D02*
Y17641D01*
Y18991D02*
X7880D01*
X10040Y12690D02*
Y13140D01*
Y13700D02*
Y14150D01*
X8430Y13170D02*
Y13670D01*
Y13170D02*
X9430D01*
Y13670D01*
X8430D02*
X9430D01*
X7820Y14150D02*
X10040D01*
X7820Y12690D02*
X10040D01*
X7820D02*
Y13140D01*
Y13700D02*
Y14150D01*
X8620Y4620D02*
X8420D01*
Y4470D01*
X8520D01*
X8420D01*
Y4320D01*
X8720Y4620D02*
X8920D01*
X8820D01*
Y4320D01*
X9020Y4620D02*
X9220Y4320D01*
Y4620D02*
X9020Y4320D01*
X7220Y4620D02*
X7020D01*
Y4470D01*
X7120D01*
X7020D01*
Y4320D01*
X7320D02*
Y4620D01*
X7470D01*
X7520Y4570D01*
Y4470D01*
X7470Y4420D01*
X7320D01*
X7420D02*
X7520Y4320D01*
X7620Y4620D02*
X7820Y4320D01*
Y4620D02*
X7620Y4320D01*
X15230Y3827D02*
X15263Y3860D01*
X15330D01*
X15363Y3827D01*
Y3793D01*
X15330Y3760D01*
X15297D01*
X15330D01*
X15363Y3727D01*
Y3693D01*
X15330Y3660D01*
X15263D01*
X15230Y3693D01*
X15430Y3860D02*
Y3727D01*
X15497Y3660D01*
X15563Y3727D01*
Y3860D01*
X15630Y3827D02*
X15663Y3860D01*
X15730D01*
X15763Y3827D01*
Y3793D01*
X15730Y3760D01*
X15697D01*
X15730D01*
X15763Y3727D01*
Y3693D01*
X15730Y3660D01*
X15663D01*
X15630Y3693D01*
X14333Y3827D02*
X14300Y3860D01*
X14233D01*
X14200Y3827D01*
Y3693D01*
X14233Y3660D01*
X14300D01*
X14333Y3693D01*
Y3760D01*
X14267D01*
X14400Y3660D02*
Y3860D01*
X14533Y3660D01*
Y3860D01*
X14600D02*
Y3660D01*
X14700D01*
X14733Y3693D01*
Y3827D01*
X14700Y3860D01*
X14600D01*
X12170Y3660D02*
Y3860D01*
X12270D01*
X12303Y3827D01*
Y3760D01*
X12270Y3727D01*
X12170D01*
X12237D02*
X12303Y3660D01*
X12370Y3860D02*
X12503Y3660D01*
Y3860D02*
X12370Y3660D01*
X13180Y3860D02*
X13313D01*
X13247D01*
Y3660D01*
X13380Y3860D02*
X13513Y3660D01*
Y3860D02*
X13380Y3660D01*
X19290Y540D02*
Y840D01*
X19490Y540D01*
Y840D01*
X19740D02*
X19640D01*
X19590Y790D01*
Y590D01*
X19640Y540D01*
X19740D01*
X19790Y590D01*
Y790D01*
X19740Y840D01*
X19890D02*
Y540D01*
X20040D01*
X20090Y590D01*
Y790D01*
X20040Y840D01*
X19890D01*
X20390D02*
X20190D01*
Y540D01*
X20390D01*
X20190Y690D02*
X20290D01*
X20490Y540D02*
X20590D01*
X20540D01*
Y840D01*
X20490Y790D01*
X16270Y9730D02*
X16070D01*
Y9830D01*
X16103Y9863D01*
X16170D01*
X16203Y9830D01*
Y9730D01*
Y9797D02*
X16270Y9863D01*
X16070Y9930D02*
X16270Y10063D01*
X16070D02*
X16270Y9930D01*
X15163Y12857D02*
X15130Y12890D01*
X15063D01*
X15030Y12857D01*
Y12723D01*
X15063Y12690D01*
X15130D01*
X15163Y12723D01*
Y12790D01*
X15097D01*
X15230Y12690D02*
Y12890D01*
X15363Y12690D01*
Y12890D01*
X15430D02*
Y12690D01*
X15530D01*
X15563Y12723D01*
Y12857D01*
X15530Y12890D01*
X15430D01*
X13213Y12877D02*
X13180Y12910D01*
X13113D01*
X13080Y12877D01*
Y12743D01*
X13113Y12710D01*
X13180D01*
X13213Y12743D01*
X13280Y12910D02*
Y12710D01*
X13413D01*
X13480Y12910D02*
Y12710D01*
Y12777D01*
X13613Y12910D01*
X13513Y12810D01*
X13613Y12710D01*
X14130Y12900D02*
Y12700D01*
X14230D01*
X14263Y12733D01*
Y12867D01*
X14230Y12900D01*
X14130D01*
X14330D02*
X14397D01*
X14363D01*
Y12700D01*
X14330D01*
X14397D01*
X14597Y12900D02*
X14530D01*
X14497Y12867D01*
Y12733D01*
X14530Y12700D01*
X14597D01*
X14630Y12733D01*
Y12867D01*
X14597Y12900D01*
X16103Y10813D02*
X16070Y10780D01*
Y10713D01*
X16103Y10680D01*
X16237D01*
X16270Y10713D01*
Y10780D01*
X16237Y10813D01*
X16170D01*
Y10747D01*
X16270Y10880D02*
X16070D01*
X16270Y11013D01*
X16070D01*
Y11080D02*
X16270D01*
Y11180D01*
X16237Y11213D01*
X16103D01*
X16070Y11180D01*
Y11080D01*
Y8660D02*
Y8793D01*
Y8727D01*
X16270D01*
X16070Y8860D02*
X16270Y8993D01*
X16070D02*
X16270Y8860D01*
X4320Y18490D02*
Y18690D01*
X4220Y18590D02*
X4420D01*
X4250Y16780D02*
X4200Y16730D01*
Y16630D01*
X4250Y16580D01*
X4450D01*
X4500Y16630D01*
Y16730D01*
X4450Y16780D01*
X4350D01*
Y16680D01*
X4500Y16880D02*
X4200D01*
X4500Y17080D01*
X4200D01*
Y17180D02*
X4500D01*
Y17330D01*
X4450Y17380D01*
X4250D01*
X4200Y17330D01*
Y17180D01*
X4040Y10520D02*
Y10420D01*
X4090Y10370D01*
X4290D01*
X4340Y10420D01*
Y10520D01*
X4290Y10570D01*
X4090D01*
X4040Y10520D01*
Y10670D02*
X4290D01*
X4340Y10720D01*
Y10820D01*
X4290Y10870D01*
X4040D01*
Y10970D02*
Y11170D01*
Y11070D01*
X4340D01*
Y11270D02*
Y11370D01*
Y11320D01*
X4040D01*
X4090Y11270D01*
X4050Y11980D02*
X4000Y11930D01*
Y11830D01*
X4050Y11780D01*
X4250D01*
X4300Y11830D01*
Y11930D01*
X4250Y11980D01*
X4150D01*
Y11880D01*
X4300Y12080D02*
X4000D01*
X4300Y12280D01*
X4000D01*
Y12380D02*
X4300D01*
Y12530D01*
X4250Y12580D01*
X4050D01*
X4000Y12530D01*
Y12380D01*
X4120Y13550D02*
Y13750D01*
X4020Y13650D02*
X4220D01*
X4297Y8210D02*
Y8410D01*
X4197Y8310D02*
X4397D01*
X4280Y6600D02*
X4230Y6550D01*
Y6450D01*
X4280Y6400D01*
X4480D01*
X4530Y6450D01*
Y6550D01*
X4480Y6600D01*
X4380D01*
Y6500D01*
X4530Y6700D02*
X4230D01*
X4530Y6900D01*
X4230D01*
Y7000D02*
X4530D01*
Y7150D01*
X4480Y7200D01*
X4280D01*
X4230Y7150D01*
Y7000D01*
Y4990D02*
Y4890D01*
X4280Y4840D01*
X4480D01*
X4530Y4890D01*
Y4990D01*
X4480Y5040D01*
X4280D01*
X4230Y4990D01*
Y5140D02*
X4480D01*
X4530Y5190D01*
Y5290D01*
X4480Y5340D01*
X4230D01*
Y5440D02*
Y5640D01*
Y5540D01*
X4530D01*
Y5940D02*
Y5740D01*
X4330Y5940D01*
X4280D01*
X4230Y5890D01*
Y5790D01*
X4280Y5740D01*
X15250Y5470D02*
X15150D01*
X15200D01*
Y5220D01*
X15150Y5170D01*
X15100D01*
X15050Y5220D01*
X15350Y5170D02*
Y5470D01*
X15500D01*
X15550Y5420D01*
Y5320D01*
X15500Y5270D01*
X15350D01*
X15650Y5420D02*
X15700Y5470D01*
X15800D01*
X15850Y5420D01*
Y5370D01*
X15800Y5320D01*
X15750D01*
X15800D01*
X15850Y5270D01*
Y5220D01*
X15800Y5170D01*
X15700D01*
X15650Y5220D01*
X5730Y9840D02*
X5930Y9540D01*
Y9840D02*
X5730Y9540D01*
X6030Y9840D02*
X6230D01*
X6130D01*
Y9540D01*
X6330D02*
X6430D01*
X6380D01*
Y9840D01*
X6330Y9790D01*
X14330Y20980D02*
Y20730D01*
X14380Y20680D01*
X14480D01*
X14530Y20730D01*
Y20980D01*
X14830Y20680D02*
X14630D01*
X14830Y20880D01*
Y20930D01*
X14780Y20980D01*
X14680D01*
X14630Y20930D01*
X13040Y7220D02*
Y6970D01*
X13090Y6920D01*
X13190D01*
X13240Y6970D01*
Y7220D01*
X13340Y6920D02*
X13440D01*
X13390D01*
Y7220D01*
X13340Y7170D01*
X8000Y14580D02*
X7950Y14630D01*
X7850D01*
X7800Y14580D01*
Y14530D01*
X7850Y14480D01*
X7950D01*
X8000Y14430D01*
Y14380D01*
X7950Y14330D01*
X7850D01*
X7800Y14380D01*
X8100Y14630D02*
Y14330D01*
X8200Y14430D01*
X8300Y14330D01*
Y14630D01*
X8400Y14330D02*
X8500D01*
X8450D01*
Y14630D01*
X8400Y14580D01*
X21170Y19055D02*
X20870D01*
Y19205D01*
X20920Y19255D01*
X21020D01*
X21070Y19205D01*
Y19055D01*
Y19155D02*
X21170Y19255D01*
Y19355D02*
Y19455D01*
Y19405D01*
X20870D01*
X20920Y19355D01*
X21170Y19805D02*
Y19605D01*
X20970Y19805D01*
X20920D01*
X20870Y19755D01*
Y19655D01*
X20920Y19605D01*
X17840Y20625D02*
X17540D01*
Y20775D01*
X17590Y20825D01*
X17690D01*
X17740Y20775D01*
Y20625D01*
Y20725D02*
X17840Y20825D01*
Y20925D02*
Y21025D01*
Y20975D01*
X17540D01*
X17590Y20925D01*
X17840Y21175D02*
Y21275D01*
Y21225D01*
X17540D01*
X17590Y21175D01*
X18660Y20595D02*
X18360D01*
Y20745D01*
X18410Y20795D01*
X18510D01*
X18560Y20745D01*
Y20595D01*
Y20695D02*
X18660Y20795D01*
Y20895D02*
Y20995D01*
Y20945D01*
X18360D01*
X18410Y20895D01*
Y21145D02*
X18360Y21195D01*
Y21295D01*
X18410Y21345D01*
X18610D01*
X18660Y21295D01*
Y21195D01*
X18610Y21145D01*
X18410D01*
X11470Y12400D02*
X11170D01*
Y12550D01*
X11220Y12600D01*
X11320D01*
X11370Y12550D01*
Y12400D01*
Y12500D02*
X11470Y12600D01*
Y12900D02*
Y12700D01*
X11270Y12900D01*
X11220D01*
X11170Y12850D01*
Y12750D01*
X11220Y12700D01*
X12020Y13220D02*
Y13520D01*
X12170D01*
X12220Y13470D01*
Y13370D01*
X12170Y13320D01*
X12020D01*
X12120D02*
X12220Y13220D01*
X12320D02*
X12420D01*
X12370D01*
Y13520D01*
X12320Y13470D01*
X17840Y2460D02*
Y2760D01*
X17940Y2660D01*
X18040Y2760D01*
Y2460D01*
X18140Y2760D02*
Y2460D01*
X18290D01*
X18340Y2510D01*
Y2710D01*
X18290Y2760D01*
X18140D01*
X18440Y2460D02*
X18540D01*
X18490D01*
Y2760D01*
X18440Y2710D01*
X19570Y12770D02*
Y12470D01*
X19770D01*
X20070Y12770D02*
X19870D01*
Y12620D01*
X19970Y12670D01*
X20020D01*
X20070Y12620D01*
Y12520D01*
X20020Y12470D01*
X19920D01*
X19870Y12520D01*
X13670Y18000D02*
Y17700D01*
X13870D01*
X13970Y17950D02*
X14020Y18000D01*
X14120D01*
X14170Y17950D01*
Y17900D01*
X14120Y17850D01*
X14070D01*
X14120D01*
X14170Y17800D01*
Y17750D01*
X14120Y17700D01*
X14020D01*
X13970Y17750D01*
X22543Y17300D02*
Y17100D01*
X22677D01*
X22877D02*
X22743D01*
X22877Y17233D01*
Y17267D01*
X22843Y17300D01*
X22777D01*
X22743Y17267D01*
X22607Y15570D02*
Y15370D01*
X22740D01*
X22807D02*
X22873D01*
X22840D01*
Y15570D01*
X22807Y15537D01*
X4650Y21840D02*
X4450D01*
Y21690D01*
X4550D01*
X4450D01*
Y21540D01*
X4750D02*
X4850D01*
X4800D01*
Y21840D01*
X4750Y21790D01*
X5770Y16780D02*
Y16480D01*
X5920D01*
X5970Y16530D01*
Y16730D01*
X5920Y16780D01*
X5770D01*
X6070Y16730D02*
X6120Y16780D01*
X6220D01*
X6270Y16730D01*
Y16680D01*
X6220Y16630D01*
X6270Y16580D01*
Y16530D01*
X6220Y16480D01*
X6120D01*
X6070Y16530D01*
Y16580D01*
X6120Y16630D01*
X6070Y16680D01*
Y16730D01*
X6120Y16630D02*
X6220D01*
X7020Y16790D02*
Y16490D01*
X7170D01*
X7220Y16540D01*
Y16740D01*
X7170Y16790D01*
X7020D01*
X7320D02*
X7520D01*
Y16740D01*
X7320Y16540D01*
Y16490D01*
X11050Y17790D02*
X11350D01*
Y17940D01*
X11300Y17990D01*
X11100D01*
X11050Y17940D01*
Y17790D01*
Y18290D02*
X11100Y18190D01*
X11200Y18090D01*
X11300D01*
X11350Y18140D01*
Y18240D01*
X11300Y18290D01*
X11250D01*
X11200Y18240D01*
Y18090D01*
X5080Y19690D02*
Y19390D01*
X5230D01*
X5280Y19440D01*
Y19640D01*
X5230Y19690D01*
X5080D01*
X5580D02*
X5380D01*
Y19540D01*
X5480Y19590D01*
X5530D01*
X5580Y19540D01*
Y19440D01*
X5530Y19390D01*
X5430D01*
X5380Y19440D01*
X4540Y14200D02*
Y13900D01*
X4690D01*
X4740Y13950D01*
Y14150D01*
X4690Y14200D01*
X4540D01*
X4840Y13900D02*
X4940D01*
X4890D01*
Y14200D01*
X4840Y14150D01*
X16760Y20785D02*
X16710Y20735D01*
Y20635D01*
X16760Y20585D01*
X16960D01*
X17010Y20635D01*
Y20735D01*
X16960Y20785D01*
X17010Y20885D02*
Y20985D01*
Y20935D01*
X16710D01*
X16760Y20885D01*
Y21135D02*
X16710Y21185D01*
Y21285D01*
X16760Y21335D01*
X16810D01*
X16860Y21285D01*
X16910Y21335D01*
X16960D01*
X17010Y21285D01*
Y21185D01*
X16960Y21135D01*
X16910D01*
X16860Y21185D01*
X16810Y21135D01*
X16760D01*
X16860Y21185D02*
Y21285D01*
X19790Y18685D02*
X19840Y18735D01*
Y18835D01*
X19790Y18885D01*
X19590D01*
X19540Y18835D01*
Y18735D01*
X19590Y18685D01*
X19540Y18585D02*
Y18485D01*
Y18535D01*
X19840D01*
X19790Y18585D01*
X19840Y18335D02*
Y18135D01*
X19790D01*
X19590Y18335D01*
X19540D01*
X19385Y21720D02*
X19335Y21770D01*
X19235D01*
X19185Y21720D01*
Y21520D01*
X19235Y21470D01*
X19335D01*
X19385Y21520D01*
X19485Y21470D02*
X19585D01*
X19535D01*
Y21770D01*
X19485Y21720D01*
X19935Y21770D02*
X19835Y21720D01*
X19735Y21620D01*
Y21520D01*
X19785Y21470D01*
X19885D01*
X19935Y21520D01*
Y21570D01*
X19885Y21620D01*
X19735D01*
X20545Y14060D02*
X20495Y14110D01*
X20395D01*
X20345Y14060D01*
Y13860D01*
X20395Y13810D01*
X20495D01*
X20545Y13860D01*
X20645Y13810D02*
X20745D01*
X20695D01*
Y14110D01*
X20645Y14060D01*
X21095Y14110D02*
X20895D01*
Y13960D01*
X20995Y14010D01*
X21045D01*
X21095Y13960D01*
Y13860D01*
X21045Y13810D01*
X20945D01*
X20895Y13860D01*
X10095Y19880D02*
X10045Y19930D01*
X9945D01*
X9895Y19880D01*
Y19680D01*
X9945Y19630D01*
X10045D01*
X10095Y19680D01*
X10195Y19630D02*
X10295D01*
X10245D01*
Y19930D01*
X10195Y19880D01*
X10595Y19630D02*
Y19930D01*
X10445Y19780D01*
X10645D01*
X9140Y16295D02*
X9090Y16245D01*
Y16145D01*
X9140Y16095D01*
X9340D01*
X9390Y16145D01*
Y16245D01*
X9340Y16295D01*
X9390Y16395D02*
Y16495D01*
Y16445D01*
X9090D01*
X9140Y16395D01*
Y16645D02*
X9090Y16695D01*
Y16795D01*
X9140Y16845D01*
X9190D01*
X9240Y16795D01*
Y16745D01*
Y16795D01*
X9290Y16845D01*
X9340D01*
X9390Y16795D01*
Y16695D01*
X9340Y16645D01*
X11565Y19890D02*
X11515Y19940D01*
X11415D01*
X11365Y19890D01*
Y19690D01*
X11415Y19640D01*
X11515D01*
X11565Y19690D01*
X11665Y19640D02*
X11765D01*
X11715D01*
Y19940D01*
X11665Y19890D01*
X12115Y19640D02*
X11915D01*
X12115Y19840D01*
Y19890D01*
X12065Y19940D01*
X11965D01*
X11915Y19890D01*
X13025Y19910D02*
X12975Y19960D01*
X12875D01*
X12825Y19910D01*
Y19710D01*
X12875Y19660D01*
X12975D01*
X13025Y19710D01*
X13125Y19660D02*
X13225D01*
X13175D01*
Y19960D01*
X13125Y19910D01*
X13375Y19660D02*
X13475D01*
X13425D01*
Y19960D01*
X13375Y19910D01*
X18535Y18690D02*
X18485Y18740D01*
X18385D01*
X18335Y18690D01*
Y18490D01*
X18385Y18440D01*
X18485D01*
X18535Y18490D01*
X18635Y18440D02*
X18735D01*
X18685D01*
Y18740D01*
X18635Y18690D01*
X18885D02*
X18935Y18740D01*
X19035D01*
X19085Y18690D01*
Y18490D01*
X19035Y18440D01*
X18935D01*
X18885Y18490D01*
Y18690D01*
X7560Y11260D02*
X7510Y11210D01*
Y11110D01*
X7560Y11060D01*
X7760D01*
X7810Y11110D01*
Y11210D01*
X7760Y11260D01*
Y11360D02*
X7810Y11410D01*
Y11510D01*
X7760Y11560D01*
X7560D01*
X7510Y11510D01*
Y11410D01*
X7560Y11360D01*
X7610D01*
X7660Y11410D01*
Y11560D01*
X21130Y11740D02*
X21080Y11790D01*
X20980D01*
X20930Y11740D01*
Y11540D01*
X20980Y11490D01*
X21080D01*
X21130Y11540D01*
X21230Y11740D02*
X21280Y11790D01*
X21380D01*
X21430Y11740D01*
Y11690D01*
X21380Y11640D01*
X21430Y11590D01*
Y11540D01*
X21380Y11490D01*
X21280D01*
X21230Y11540D01*
Y11590D01*
X21280Y11640D01*
X21230Y11690D01*
Y11740D01*
X21280Y11640D02*
X21380D01*
X21130Y11160D02*
X21080Y11210D01*
X20980D01*
X20930Y11160D01*
Y10960D01*
X20980Y10910D01*
X21080D01*
X21130Y10960D01*
X21230Y11210D02*
X21430D01*
Y11160D01*
X21230Y10960D01*
Y10910D01*
X6330Y8180D02*
X6280Y8230D01*
X6180D01*
X6130Y8180D01*
Y7980D01*
X6180Y7930D01*
X6280D01*
X6330Y7980D01*
X6630Y8230D02*
X6530Y8180D01*
X6430Y8080D01*
Y7980D01*
X6480Y7930D01*
X6580D01*
X6630Y7980D01*
Y8030D01*
X6580Y8080D01*
X6430D01*
X14040Y9700D02*
X14090Y9750D01*
Y9850D01*
X14040Y9900D01*
X13840D01*
X13790Y9850D01*
Y9750D01*
X13840Y9700D01*
X14090Y9400D02*
Y9600D01*
X13940D01*
X13990Y9500D01*
Y9450D01*
X13940Y9400D01*
X13840D01*
X13790Y9450D01*
Y9550D01*
X13840Y9600D01*
X6340Y7470D02*
X6290Y7520D01*
X6190D01*
X6140Y7470D01*
Y7270D01*
X6190Y7220D01*
X6290D01*
X6340Y7270D01*
X6590Y7220D02*
Y7520D01*
X6440Y7370D01*
X6640D01*
X10410Y12590D02*
X10360Y12540D01*
Y12440D01*
X10410Y12390D01*
X10610D01*
X10660Y12440D01*
Y12540D01*
X10610Y12590D01*
X10410Y12690D02*
X10360Y12740D01*
Y12840D01*
X10410Y12890D01*
X10460D01*
X10510Y12840D01*
Y12790D01*
Y12840D01*
X10560Y12890D01*
X10610D01*
X10660Y12840D01*
Y12740D01*
X10610Y12690D01*
X13280Y5730D02*
X13330Y5780D01*
Y5880D01*
X13280Y5930D01*
X13080D01*
X13030Y5880D01*
Y5780D01*
X13080Y5730D01*
X13030Y5430D02*
Y5630D01*
X13230Y5430D01*
X13280D01*
X13330Y5480D01*
Y5580D01*
X13280Y5630D01*
X6740Y10370D02*
X6690Y10420D01*
X6590D01*
X6540Y10370D01*
Y10170D01*
X6590Y10120D01*
X6690D01*
X6740Y10170D01*
X6840Y10120D02*
X6940D01*
X6890D01*
Y10420D01*
X6840Y10370D01*
D18*
X20620Y19636D02*
Y19816D01*
X20080Y19636D02*
Y19816D01*
X19289Y19637D02*
Y19817D01*
X19829Y19637D02*
Y19817D01*
X19812Y20669D02*
X19992D01*
X19812Y21209D02*
X19992D01*
X19004Y19642D02*
Y19822D01*
X18464Y19642D02*
Y19822D01*
X18174Y19642D02*
Y19822D01*
X17634Y19642D02*
Y19822D01*
X16799Y19637D02*
Y19817D01*
X17339Y19637D02*
Y19817D01*
X13440Y20734D02*
Y20914D01*
X12900Y20734D02*
Y20914D01*
D19*
X8098Y20665D02*
D03*
D20*
X12275Y16618D02*
D03*
D21*
X5310Y14995D02*
D03*
D22*
X8930Y13420D02*
D03*
M02*
