G04*
G04 #@! TF.GenerationSoftware,Altium Limited,Altium Designer,20.2.6 (244)*
G04*
G04 Layer_Color=255*
%FSLAX24Y24*%
%MOIN*%
G70*
G04*
G04 #@! TF.SameCoordinates,10DCDC14-C833-4712-9BA6-5F063841230D*
G04*
G04*
G04 #@! TF.FilePolarity,Positive*
G04*
G01*
G75*
%ADD24R,0.1063X0.0630*%
%ADD25R,0.1772X0.2165*%
G04:AMPARAMS|DCode=26|XSize=52.8mil|YSize=129.5mil|CornerRadius=6.6mil|HoleSize=0mil|Usage=FLASHONLY|Rotation=270.000|XOffset=0mil|YOffset=0mil|HoleType=Round|Shape=RoundedRectangle|*
%AMROUNDEDRECTD26*
21,1,0.0528,0.1163,0,0,270.0*
21,1,0.0396,0.1295,0,0,270.0*
1,1,0.0132,-0.0582,-0.0198*
1,1,0.0132,-0.0582,0.0198*
1,1,0.0132,0.0582,0.0198*
1,1,0.0132,0.0582,-0.0198*
%
%ADD26ROUNDEDRECTD26*%
%ADD27R,0.0374X0.0394*%
%ADD28R,0.0394X0.1378*%
%ADD29R,0.0197X0.0394*%
%ADD30R,0.0236X0.0591*%
%ADD31R,0.0197X0.0217*%
%ADD32R,0.0394X0.0374*%
%ADD33R,0.0512X0.0591*%
%ADD34R,0.1102X0.1575*%
%ADD35R,0.0551X0.0472*%
%ADD36R,0.0472X0.0551*%
%ADD37R,0.0610X0.0236*%
%ADD38R,0.0984X0.1299*%
%ADD39R,0.1299X0.0984*%
%ADD40R,0.0709X0.0531*%
%ADD41R,0.0571X0.0807*%
%ADD42R,0.0984X0.0669*%
%ADD43R,0.0787X0.0551*%
%ADD44O,0.0118X0.0571*%
%ADD45O,0.0571X0.0118*%
G04:AMPARAMS|DCode=46|XSize=55.1mil|YSize=47.2mil|CornerRadius=5.9mil|HoleSize=0mil|Usage=FLASHONLY|Rotation=0.000|XOffset=0mil|YOffset=0mil|HoleType=Round|Shape=RoundedRectangle|*
%AMROUNDEDRECTD46*
21,1,0.0551,0.0354,0,0,0.0*
21,1,0.0433,0.0472,0,0,0.0*
1,1,0.0118,0.0217,-0.0177*
1,1,0.0118,-0.0217,-0.0177*
1,1,0.0118,-0.0217,0.0177*
1,1,0.0118,0.0217,0.0177*
%
%ADD46ROUNDEDRECTD46*%
%ADD81R,0.1161X0.1929*%
G04:AMPARAMS|DCode=84|XSize=82.7mil|YSize=82.7mil|CornerRadius=20.7mil|HoleSize=0mil|Usage=FLASHONLY|Rotation=270.000|XOffset=0mil|YOffset=0mil|HoleType=Round|Shape=RoundedRectangle|*
%AMROUNDEDRECTD84*
21,1,0.0827,0.0413,0,0,270.0*
21,1,0.0413,0.0827,0,0,270.0*
1,1,0.0413,-0.0207,-0.0207*
1,1,0.0413,-0.0207,0.0207*
1,1,0.0413,0.0207,0.0207*
1,1,0.0413,0.0207,-0.0207*
%
%ADD84ROUNDEDRECTD84*%
%ADD85C,0.0827*%
%ADD86C,0.0630*%
%ADD87R,0.0630X0.0630*%
%ADD88R,0.0630X0.0630*%
%ADD89P,0.0704X8X22.5*%
%ADD90C,0.0650*%
%ADD91O,0.1100X0.0827*%
%ADD92R,0.1100X0.0827*%
%ADD93R,0.0827X0.1100*%
%ADD94O,0.0827X0.1100*%
%ADD95C,0.0394*%
%ADD96C,0.1575*%
D24*
X12000Y20538D02*
D03*
Y21640D02*
D03*
X10560D02*
D03*
Y20538D02*
D03*
X9680Y17450D02*
D03*
Y18552D02*
D03*
D25*
X14725Y15450D02*
D03*
X19055Y15450D02*
D03*
D26*
X3560Y21643D02*
D03*
Y19950D02*
D03*
D27*
X12680Y5660D02*
D03*
Y6251D02*
D03*
X13880Y10875D02*
D03*
Y10285D02*
D03*
X11280Y11985D02*
D03*
Y11395D02*
D03*
X10470Y11975D02*
D03*
Y11385D02*
D03*
X7620Y11955D02*
D03*
Y12545D02*
D03*
D28*
X17504Y3749D02*
D03*
X18291D02*
D03*
X19079D02*
D03*
X19866D02*
D03*
X20654D02*
D03*
X21441D02*
D03*
X22229D02*
D03*
X23016D02*
D03*
Y9851D02*
D03*
X22229D02*
D03*
X21441D02*
D03*
X20654D02*
D03*
X19866D02*
D03*
X19079D02*
D03*
X18291D02*
D03*
X17504D02*
D03*
D29*
X23020Y11267D02*
D03*
D30*
X22626Y11720D02*
D03*
X23414D02*
D03*
D31*
X23020Y12124D02*
D03*
D32*
X19935Y11020D02*
D03*
X20525D02*
D03*
X19935Y11590D02*
D03*
X20525D02*
D03*
X17935Y18640D02*
D03*
X17345D02*
D03*
X11635Y13420D02*
D03*
X11045D02*
D03*
X7335Y10210D02*
D03*
X7925D02*
D03*
X7045Y7450D02*
D03*
X7635D02*
D03*
X7615Y8150D02*
D03*
X7025D02*
D03*
D33*
X18272Y12370D02*
D03*
X19020D02*
D03*
D34*
X21030Y15390D02*
D03*
Y17870D02*
D03*
D35*
X20350Y20100D02*
D03*
Y19352D02*
D03*
X19559Y20101D02*
D03*
Y19353D02*
D03*
X18734Y20106D02*
D03*
Y19358D02*
D03*
X17904Y20106D02*
D03*
Y19358D02*
D03*
X17069Y20101D02*
D03*
Y19353D02*
D03*
X13170Y20450D02*
D03*
Y21198D02*
D03*
D36*
X19528Y20939D02*
D03*
X20276D02*
D03*
D37*
X14057Y18600D02*
D03*
Y19100D02*
D03*
Y19600D02*
D03*
Y20100D02*
D03*
X16183D02*
D03*
Y19600D02*
D03*
Y19100D02*
D03*
Y18600D02*
D03*
D38*
X8800Y20690D02*
D03*
X6056D02*
D03*
D39*
X12250Y14576D02*
D03*
Y17320D02*
D03*
D40*
X7460Y18650D02*
D03*
Y17331D02*
D03*
D41*
X6340Y17439D02*
D03*
Y18561D02*
D03*
D42*
X4680Y15010D02*
D03*
X6280D02*
D03*
D43*
X10190Y13420D02*
D03*
X7670D02*
D03*
D44*
X10487Y10333D02*
D03*
X10684D02*
D03*
X10881D02*
D03*
X11078D02*
D03*
X11275D02*
D03*
X11472D02*
D03*
X11668D02*
D03*
X11865D02*
D03*
X12062D02*
D03*
X12259D02*
D03*
X12456D02*
D03*
X12653D02*
D03*
Y7007D02*
D03*
X12456D02*
D03*
X12259D02*
D03*
X12062D02*
D03*
X11865D02*
D03*
X11668D02*
D03*
X11472D02*
D03*
X11275D02*
D03*
X11078D02*
D03*
X10881D02*
D03*
X10684D02*
D03*
X10487D02*
D03*
D45*
X13233Y9753D02*
D03*
Y9556D02*
D03*
Y9359D02*
D03*
Y9162D02*
D03*
Y8965D02*
D03*
Y8768D02*
D03*
Y8572D02*
D03*
Y8375D02*
D03*
Y8178D02*
D03*
Y7981D02*
D03*
Y7784D02*
D03*
Y7587D02*
D03*
X9907D02*
D03*
Y7784D02*
D03*
Y7981D02*
D03*
Y8178D02*
D03*
Y8375D02*
D03*
Y8572D02*
D03*
Y8768D02*
D03*
Y8965D02*
D03*
Y9162D02*
D03*
Y9359D02*
D03*
Y9556D02*
D03*
Y9753D02*
D03*
D46*
X7037Y8835D02*
D03*
X7903D02*
D03*
Y9505D02*
D03*
X7037D02*
D03*
D81*
X15120Y19350D02*
D03*
D84*
X3279Y8510D02*
D03*
X3349Y13650D02*
D03*
D85*
X3279Y7010D02*
D03*
Y5510D02*
D03*
X3349Y12150D02*
D03*
Y10650D02*
D03*
D86*
X12440Y4500D02*
D03*
X13440D02*
D03*
X14440D02*
D03*
X15390Y9930D02*
D03*
Y10930D02*
D03*
X14330Y12040D02*
D03*
X15330D02*
D03*
D87*
X15440Y4500D02*
D03*
X13330Y12040D02*
D03*
D88*
X15390Y8930D02*
D03*
D89*
X22210Y14630D02*
D03*
X22250Y16330D02*
D03*
Y18060D02*
D03*
D90*
X23210Y14630D02*
D03*
X23250Y16330D02*
D03*
Y18060D02*
D03*
D91*
X3329Y17060D02*
D03*
D92*
Y18560D02*
D03*
D93*
X4300Y3500D02*
D03*
D94*
X5800D02*
D03*
X7300D02*
D03*
X8800D02*
D03*
D95*
X21340Y1550D02*
D03*
X22090Y1200D02*
D03*
X21643Y1220D02*
D03*
X21360Y1997D02*
D03*
X21690Y2300D02*
D03*
X22440Y1950D02*
D03*
X22137Y2280D02*
D03*
X2090Y20850D02*
D03*
X1787Y21180D02*
D03*
X1340Y21200D02*
D03*
X1010Y20897D02*
D03*
X990Y20450D02*
D03*
X1293Y20120D02*
D03*
X1740Y20100D02*
D03*
X2070Y20403D02*
D03*
X22390Y20850D02*
D03*
X22087Y21180D02*
D03*
X21640Y21200D02*
D03*
X21310Y20897D02*
D03*
X21290Y20450D02*
D03*
X21593Y20120D02*
D03*
X22040Y20100D02*
D03*
X22370Y20403D02*
D03*
X22420Y1503D02*
D03*
X2070Y1403D02*
D03*
X1740Y1100D02*
D03*
X1293Y1120D02*
D03*
X990Y1450D02*
D03*
X1010Y1897D02*
D03*
X1340Y2200D02*
D03*
X1787Y2180D02*
D03*
X2090Y1850D02*
D03*
D96*
X21890Y1750D02*
D03*
X21840Y20650D02*
D03*
X1540D02*
D03*
Y1650D02*
D03*
M02*
