G04*
G04 #@! TF.GenerationSoftware,Altium Limited,Altium Designer,20.2.6 (244)*
G04*
G04 Layer_Physical_Order=2*
G04 Layer_Color=16711680*
%FSLAX24Y24*%
%MOIN*%
G70*
G04*
G04 #@! TF.SameCoordinates,10DCDC14-C833-4712-9BA6-5F063841230D*
G04*
G04*
G04 #@! TF.FilePolarity,Positive*
G04*
G01*
G75*
%ADD14C,0.0200*%
%ADD17C,0.0100*%
%ADD27R,0.0374X0.0394*%
%ADD35R,0.0551X0.0472*%
%ADD36R,0.0472X0.0551*%
%ADD40R,0.0709X0.0531*%
%ADD82C,0.0300*%
%ADD83C,0.0400*%
G04:AMPARAMS|DCode=84|XSize=82.7mil|YSize=82.7mil|CornerRadius=20.7mil|HoleSize=0mil|Usage=FLASHONLY|Rotation=270.000|XOffset=0mil|YOffset=0mil|HoleType=Round|Shape=RoundedRectangle|*
%AMROUNDEDRECTD84*
21,1,0.0827,0.0413,0,0,270.0*
21,1,0.0413,0.0827,0,0,270.0*
1,1,0.0413,-0.0207,-0.0207*
1,1,0.0413,-0.0207,0.0207*
1,1,0.0413,0.0207,0.0207*
1,1,0.0413,0.0207,-0.0207*
%
%ADD84ROUNDEDRECTD84*%
%ADD85C,0.0827*%
%ADD86C,0.0630*%
%ADD87R,0.0630X0.0630*%
%ADD88R,0.0630X0.0630*%
%ADD89P,0.0704X8X22.5*%
%ADD90C,0.0650*%
%ADD91O,0.1100X0.0827*%
%ADD92R,0.1100X0.0827*%
%ADD93R,0.0827X0.1100*%
%ADD94O,0.0827X0.1100*%
%ADD95C,0.0394*%
%ADD96C,0.1575*%
%ADD97C,0.0200*%
%ADD98C,0.0250*%
%ADD99C,0.0197*%
%ADD100C,0.0400*%
%ADD101C,0.0150*%
G36*
X10380Y22200D02*
Y18300D01*
X10190Y18110D01*
X5580Y18110D01*
X5440Y18250D01*
Y20940D01*
Y22200D01*
X10380Y22200D01*
D02*
G37*
G36*
X22436Y22185D02*
X22640Y22131D01*
X22836Y22050D01*
X23019Y21944D01*
X23187Y21815D01*
X23336Y21665D01*
X23465Y21498D01*
X23571Y21314D01*
X23652Y21119D01*
X23707Y20914D01*
X23734Y20705D01*
Y20599D01*
Y1701D01*
Y1595D01*
X23707Y1386D01*
X23652Y1181D01*
X23571Y986D01*
X23465Y802D01*
X23336Y635D01*
X23187Y485D01*
X23019Y356D01*
X22836Y250D01*
X22640Y169D01*
X22436Y115D01*
X22239Y89D01*
X22190Y90D01*
X22190Y90D01*
X1720Y87D01*
X1614D01*
X1404Y115D01*
X1200Y169D01*
X1004Y250D01*
X821Y356D01*
X653Y485D01*
X504Y635D01*
X375Y802D01*
X269Y986D01*
X188Y1181D01*
X133Y1386D01*
X106Y1595D01*
Y1701D01*
Y2734D01*
X156Y2761D01*
X6180Y2758D01*
X6180Y2757D01*
X6180D01*
X6180Y2754D01*
X6228Y2755D01*
X6230Y2755D01*
X6500Y2764D01*
X6500Y5498D01*
X6535Y5534D01*
X6847D01*
Y6127D01*
X6569D01*
X6533Y6142D01*
X6500Y6147D01*
X6500Y13059D01*
X6535Y13094D01*
X6744D01*
Y13223D01*
X7056D01*
X7132Y13233D01*
X7347D01*
Y13439D01*
X7352Y13452D01*
X7363Y13530D01*
X7352Y13608D01*
X7347Y13621D01*
Y13827D01*
X7104D01*
X7060Y13833D01*
X7028Y13828D01*
X6500D01*
X6500Y16150D01*
X6180D01*
Y16160D01*
X156D01*
X112Y16160D01*
X107Y16202D01*
X106Y16210D01*
Y17666D01*
X120Y17678D01*
X156D01*
X5130Y17678D01*
X5140Y17680D01*
X5150Y17680D01*
X5159Y17682D01*
X5168Y17686D01*
X5169Y17686D01*
X5169Y17686D01*
X5186Y17693D01*
X5186Y17693D01*
X5187Y17693D01*
X5196Y17697D01*
X5204Y17702D01*
X5211Y17709D01*
X5219Y17715D01*
X5315Y17811D01*
X5321Y17819D01*
X5328Y17826D01*
X5333Y17834D01*
X5333Y17834D01*
X5337Y17843D01*
X5337Y17844D01*
X5337Y17844D01*
X5344Y17861D01*
X5344Y17861D01*
X5344Y17862D01*
X5348Y17871D01*
X5350Y17880D01*
Y17890D01*
X5352Y17900D01*
Y18123D01*
X5402Y18144D01*
X5508Y18038D01*
X5541Y18016D01*
X5580Y18008D01*
X10190Y18008D01*
X10229Y18016D01*
X10262Y18038D01*
X10452Y18228D01*
X10474Y18261D01*
X10482Y18300D01*
Y22200D01*
X10493Y22213D01*
X22226D01*
X22436Y22185D01*
D02*
G37*
G36*
X5250Y22040D02*
Y18123D01*
Y17900D01*
X5248Y17891D01*
X5243Y17883D01*
X5196Y17836D01*
X5147Y17787D01*
X5139Y17782D01*
X5130Y17780D01*
X156Y17780D01*
D01*
X120D01*
X110Y17790D01*
Y19540D01*
X2530D01*
X2790Y19800D01*
X2790Y22080D01*
X2923Y22213D01*
X5077D01*
X5250Y22040D01*
D02*
G37*
G36*
X6178Y13861D02*
X6143Y13826D01*
X5836D01*
Y13780D01*
X5632D01*
Y13870D01*
X4960D01*
Y13118D01*
X4991D01*
Y12362D01*
X4956D01*
Y11610D01*
X4990D01*
Y11227D01*
X4987Y11210D01*
X4998Y11132D01*
X5028Y11059D01*
X5076Y10996D01*
X5139Y10948D01*
X5212Y10918D01*
X5290Y10907D01*
X5368Y10918D01*
X5441Y10948D01*
X5504Y10996D01*
X5506Y10998D01*
X5506Y10998D01*
X5554Y11061D01*
X5585Y11134D01*
X5595Y11212D01*
X5595Y11212D01*
Y11610D01*
X5628D01*
Y12362D01*
X5597D01*
Y13118D01*
X5632D01*
Y13174D01*
X5836D01*
Y13094D01*
X6178D01*
X6179Y6251D01*
X6144Y6216D01*
X5873D01*
X5862Y6241D01*
X5814Y6304D01*
X5751Y6352D01*
X5678Y6382D01*
X5600Y6393D01*
X4900D01*
Y6428D01*
X4820D01*
Y6486D01*
X4886D01*
Y7158D01*
X4134D01*
Y6486D01*
X4214D01*
Y6428D01*
X4148D01*
Y5756D01*
X4900D01*
Y5787D01*
X5276D01*
Y5484D01*
X6179D01*
X6179Y4056D01*
X6129Y4031D01*
X6059Y4085D01*
X6000Y4109D01*
Y3500D01*
X5800D01*
Y3300D01*
X5291D01*
X5300Y3229D01*
X5352Y3104D01*
X5367Y3085D01*
X5345Y3040D01*
X4813D01*
Y4150D01*
X3787D01*
Y3040D01*
X156D01*
X145Y3040D01*
X106Y3066D01*
Y15830D01*
X110Y15878D01*
X156Y15878D01*
X6178D01*
X6178Y13861D01*
D02*
G37*
%LPC*%
G36*
X21840Y21542D02*
X21666Y21525D01*
X21499Y21474D01*
X21345Y21391D01*
X21209Y21281D01*
X21099Y21145D01*
X21016Y20991D01*
X20965Y20824D01*
X20948Y20650D01*
X20965Y20476D01*
X21016Y20309D01*
X21099Y20155D01*
X21209Y20019D01*
X21345Y19909D01*
X21499Y19826D01*
X21666Y19775D01*
X21840Y19758D01*
X22014Y19775D01*
X22181Y19826D01*
X22335Y19909D01*
X22471Y20019D01*
X22581Y20155D01*
X22664Y20309D01*
X22715Y20476D01*
X22732Y20650D01*
X22715Y20824D01*
X22664Y20991D01*
X22581Y21145D01*
X22471Y21281D01*
X22335Y21391D01*
X22181Y21474D01*
X22014Y21525D01*
X21840Y21542D01*
D02*
G37*
G36*
X22462Y18485D02*
X22037D01*
X21828Y18276D01*
X21779Y18281D01*
Y18382D01*
X21106D01*
Y17630D01*
X21779D01*
Y17829D01*
X21843D01*
X22037Y17635D01*
X22462D01*
X22675Y17847D01*
Y18273D01*
X22462Y18485D01*
D02*
G37*
G36*
X23450Y18437D02*
Y18260D01*
X23627D01*
X23621Y18274D01*
X23553Y18363D01*
X23464Y18431D01*
X23450Y18437D01*
D02*
G37*
G36*
X23050D02*
X23036Y18431D01*
X22947Y18363D01*
X22879Y18274D01*
X22873Y18260D01*
X23050D01*
Y18437D01*
D02*
G37*
G36*
X21030Y18382D02*
X20358D01*
Y18158D01*
X20188D01*
X20138Y18192D01*
X20050Y18209D01*
X19962Y18192D01*
X19888Y18142D01*
X19838Y18068D01*
X19821Y17980D01*
X19838Y17892D01*
X19888Y17818D01*
X19962Y17768D01*
X20050Y17751D01*
X20138Y17768D01*
X20188Y17802D01*
X20358D01*
Y17630D01*
X21030D01*
Y18382D01*
D02*
G37*
G36*
X23627Y17860D02*
X23450D01*
Y17683D01*
X23464Y17689D01*
X23553Y17757D01*
X23621Y17846D01*
X23627Y17860D01*
D02*
G37*
G36*
X23050D02*
X22873D01*
X22879Y17846D01*
X22947Y17757D01*
X23036Y17689D01*
X23050Y17683D01*
Y17860D01*
D02*
G37*
G36*
X3529Y17569D02*
Y17260D01*
X3938D01*
X3914Y17319D01*
X3831Y17426D01*
X3724Y17508D01*
X3599Y17560D01*
X3529Y17569D01*
D02*
G37*
G36*
X3129D02*
X3058Y17560D01*
X2933Y17508D01*
X2826Y17426D01*
X2744Y17319D01*
X2719Y17260D01*
X3129D01*
Y17569D01*
D02*
G37*
G36*
X3938Y16860D02*
X3529D01*
Y16551D01*
X3599Y16560D01*
X3724Y16612D01*
X3831Y16694D01*
X3914Y16801D01*
X3938Y16860D01*
D02*
G37*
G36*
X3129D02*
X2719D01*
X2744Y16801D01*
X2826Y16694D01*
X2933Y16612D01*
X3058Y16560D01*
X3129Y16551D01*
Y16860D01*
D02*
G37*
G36*
X22462Y16755D02*
X22037D01*
X21828Y16546D01*
X21779Y16551D01*
Y16652D01*
X21106D01*
Y15900D01*
X21779D01*
Y16099D01*
X21843D01*
X22037Y15905D01*
X22462D01*
X22675Y16118D01*
Y16543D01*
X22462Y16755D01*
D02*
G37*
G36*
X23450Y16707D02*
Y16530D01*
X23627D01*
X23621Y16544D01*
X23553Y16633D01*
X23464Y16701D01*
X23450Y16707D01*
D02*
G37*
G36*
X23050D02*
X23036Y16701D01*
X22947Y16633D01*
X22879Y16544D01*
X22873Y16530D01*
X23050D01*
Y16707D01*
D02*
G37*
G36*
X23627Y16130D02*
X23450D01*
Y15953D01*
X23464Y15959D01*
X23553Y16027D01*
X23621Y16116D01*
X23627Y16130D01*
D02*
G37*
G36*
X23050D02*
X22873D01*
X22879Y16116D01*
X22947Y16027D01*
X23036Y15959D01*
X23050Y15953D01*
Y16130D01*
D02*
G37*
G36*
X19570Y18020D02*
X13720D01*
Y12830D01*
X18915D01*
Y8486D01*
X17564Y7135D01*
X14450D01*
X14352Y7115D01*
X14270Y7060D01*
X14215Y6978D01*
X14195Y6880D01*
X14215Y6782D01*
X14270Y6700D01*
X14352Y6645D01*
X14450Y6625D01*
X17670D01*
X17768Y6645D01*
X17850Y6700D01*
X19350Y8200D01*
X19405Y8282D01*
X19425Y8380D01*
Y12830D01*
X19570D01*
Y15840D01*
X19752Y16021D01*
X20358D01*
Y15900D01*
X21030D01*
Y16652D01*
X20358D01*
Y16531D01*
X19646D01*
X19609Y16524D01*
X19570Y16555D01*
Y18020D01*
D02*
G37*
G36*
X22422Y15055D02*
X21997D01*
X21828Y14886D01*
X21779Y14907D01*
Y14922D01*
X21106D01*
Y14170D01*
X21779D01*
Y14360D01*
X21828Y14374D01*
X21997Y14205D01*
X22422D01*
X22635Y14418D01*
Y14842D01*
X22422Y15055D01*
D02*
G37*
G36*
X23410Y15007D02*
Y14830D01*
X23587D01*
X23581Y14844D01*
X23513Y14933D01*
X23424Y15001D01*
X23410Y15007D01*
D02*
G37*
G36*
X23010D02*
X22996Y15001D01*
X22907Y14933D01*
X22839Y14844D01*
X22833Y14830D01*
X23010D01*
Y15007D01*
D02*
G37*
G36*
X23587Y14430D02*
X23410D01*
Y14253D01*
X23424Y14259D01*
X23513Y14327D01*
X23581Y14416D01*
X23587Y14430D01*
D02*
G37*
G36*
X23010D02*
X22833D01*
X22839Y14416D01*
X22907Y14327D01*
X22996Y14259D01*
X23010Y14253D01*
Y14430D01*
D02*
G37*
G36*
X15530Y12406D02*
Y12240D01*
X15696D01*
X15692Y12249D01*
X15626Y12336D01*
X15539Y12402D01*
X15530Y12406D01*
D02*
G37*
G36*
X15130D02*
X15121Y12402D01*
X15034Y12336D01*
X14968Y12249D01*
X14964Y12240D01*
X15130D01*
Y12406D01*
D02*
G37*
G36*
X15696Y11840D02*
X15530D01*
Y11674D01*
X15539Y11678D01*
X15626Y11744D01*
X15692Y11831D01*
X15696Y11840D01*
D02*
G37*
G36*
X15130D02*
X14964D01*
X14968Y11831D01*
X15034Y11744D01*
X15121Y11678D01*
X15130Y11674D01*
Y11840D01*
D02*
G37*
G36*
X13745Y12455D02*
X12915D01*
Y11625D01*
X13745D01*
Y12455D01*
D02*
G37*
G36*
X14330Y12459D02*
X14222Y12444D01*
X14121Y12402D01*
X14034Y12336D01*
X13968Y12249D01*
X13926Y12148D01*
X13911Y12040D01*
X13926Y11932D01*
X13968Y11831D01*
X14034Y11744D01*
X14121Y11678D01*
X14222Y11636D01*
X14330Y11621D01*
X14438Y11636D01*
X14539Y11678D01*
X14626Y11744D01*
X14692Y11831D01*
X14734Y11932D01*
X14749Y12040D01*
X14734Y12148D01*
X14692Y12249D01*
X14626Y12336D01*
X14539Y12402D01*
X14438Y12444D01*
X14330Y12459D01*
D02*
G37*
G36*
X15590Y11296D02*
Y11130D01*
X15756D01*
X15752Y11139D01*
X15686Y11226D01*
X15599Y11292D01*
X15590Y11296D01*
D02*
G37*
G36*
X15190D02*
X15181Y11292D01*
X15094Y11226D01*
X15028Y11139D01*
X15024Y11130D01*
X15190D01*
Y11296D01*
D02*
G37*
G36*
X15756Y10730D02*
X15590D01*
Y10564D01*
X15599Y10568D01*
X15686Y10634D01*
X15752Y10721D01*
X15756Y10730D01*
D02*
G37*
G36*
X15190D02*
X15024D01*
X15028Y10721D01*
X15094Y10634D01*
X15181Y10568D01*
X15190Y10564D01*
Y10730D01*
D02*
G37*
G36*
X15390Y10349D02*
X15282Y10334D01*
X15181Y10292D01*
X15094Y10226D01*
X15028Y10139D01*
X14986Y10038D01*
X14971Y9930D01*
X14986Y9822D01*
X15028Y9721D01*
X15094Y9634D01*
X15181Y9568D01*
X15282Y9526D01*
X15390Y9511D01*
X15498Y9526D01*
X15599Y9568D01*
X15686Y9634D01*
X15752Y9721D01*
X15794Y9822D01*
X15809Y9930D01*
X15794Y10038D01*
X15752Y10139D01*
X15686Y10226D01*
X15599Y10292D01*
X15498Y10334D01*
X15390Y10349D01*
D02*
G37*
G36*
X15805Y9345D02*
X14975D01*
Y8515D01*
X15805D01*
Y9345D01*
D02*
G37*
G36*
X9000Y12189D02*
X8912Y12172D01*
X8838Y12122D01*
X8788Y12048D01*
X8771Y11960D01*
X8788Y11872D01*
X8822Y11822D01*
Y8598D01*
X8788Y8548D01*
X8771Y8460D01*
X8788Y8372D01*
X8838Y8298D01*
X8912Y8248D01*
X9000Y8231D01*
X9088Y8248D01*
X9162Y8298D01*
X9212Y8372D01*
X9229Y8460D01*
X9212Y8548D01*
X9178Y8598D01*
Y11822D01*
X9212Y11872D01*
X9229Y11960D01*
X9212Y12048D01*
X9162Y12122D01*
X9088Y12172D01*
X9000Y12189D01*
D02*
G37*
G36*
X21030Y14922D02*
X20358D01*
Y14170D01*
X20439D01*
Y8600D01*
X18324Y6485D01*
X15220D01*
X15122Y6465D01*
X15040Y6410D01*
X14985Y6328D01*
X14965Y6230D01*
X14985Y6132D01*
X15040Y6050D01*
X15122Y5995D01*
X15220Y5975D01*
X18430D01*
X18528Y5995D01*
X18610Y6050D01*
X20874Y8314D01*
X20930Y8397D01*
X20949Y8494D01*
Y14170D01*
X21030D01*
Y14922D01*
D02*
G37*
G36*
X14640Y4866D02*
Y4700D01*
X14806D01*
X14802Y4709D01*
X14736Y4796D01*
X14649Y4862D01*
X14640Y4866D01*
D02*
G37*
G36*
X14240D02*
X14231Y4862D01*
X14144Y4796D01*
X14078Y4709D01*
X14074Y4700D01*
X14240D01*
Y4866D01*
D02*
G37*
G36*
X14806Y4300D02*
X14640D01*
Y4134D01*
X14649Y4138D01*
X14736Y4204D01*
X14802Y4291D01*
X14806Y4300D01*
D02*
G37*
G36*
X14240D02*
X14074D01*
X14078Y4291D01*
X14144Y4204D01*
X14231Y4138D01*
X14240Y4134D01*
Y4300D01*
D02*
G37*
G36*
X15855Y4915D02*
X15025D01*
Y4085D01*
X15855D01*
Y4915D01*
D02*
G37*
G36*
X13440Y4919D02*
X13332Y4904D01*
X13231Y4862D01*
X13144Y4796D01*
X13078Y4709D01*
X13036Y4608D01*
X13021Y4500D01*
X13036Y4392D01*
X13078Y4291D01*
X13144Y4204D01*
X13231Y4138D01*
X13332Y4096D01*
X13440Y4081D01*
X13548Y4096D01*
X13649Y4138D01*
X13736Y4204D01*
X13802Y4291D01*
X13844Y4392D01*
X13859Y4500D01*
X13844Y4608D01*
X13802Y4709D01*
X13736Y4796D01*
X13649Y4862D01*
X13548Y4904D01*
X13440Y4919D01*
D02*
G37*
G36*
X12440D02*
X12332Y4904D01*
X12231Y4862D01*
X12144Y4796D01*
X12078Y4709D01*
X12036Y4608D01*
X12021Y4500D01*
X12036Y4392D01*
X12078Y4291D01*
X12144Y4204D01*
X12231Y4138D01*
X12332Y4096D01*
X12440Y4081D01*
X12548Y4096D01*
X12649Y4138D01*
X12736Y4204D01*
X12802Y4291D01*
X12844Y4392D01*
X12859Y4500D01*
X12844Y4608D01*
X12802Y4709D01*
X12736Y4796D01*
X12649Y4862D01*
X12548Y4904D01*
X12440Y4919D01*
D02*
G37*
G36*
X8800Y4154D02*
X8666Y4137D01*
X8541Y4085D01*
X8434Y4003D01*
X8352Y3896D01*
X8300Y3771D01*
X8282Y3637D01*
Y3363D01*
X8300Y3229D01*
X8352Y3104D01*
X8434Y2997D01*
X8541Y2915D01*
X8666Y2863D01*
X8800Y2846D01*
X8934Y2863D01*
X9059Y2915D01*
X9166Y2997D01*
X9248Y3104D01*
X9300Y3229D01*
X9318Y3363D01*
Y3637D01*
X9300Y3771D01*
X9248Y3896D01*
X9166Y4003D01*
X9059Y4085D01*
X8934Y4137D01*
X8800Y4154D01*
D02*
G37*
G36*
X7300D02*
X7166Y4137D01*
X7041Y4085D01*
X6934Y4003D01*
X6852Y3896D01*
X6800Y3771D01*
X6782Y3637D01*
Y3363D01*
X6800Y3229D01*
X6852Y3104D01*
X6934Y2997D01*
X7041Y2915D01*
X7166Y2863D01*
X7300Y2846D01*
X7434Y2863D01*
X7559Y2915D01*
X7666Y2997D01*
X7748Y3104D01*
X7800Y3229D01*
X7818Y3363D01*
Y3637D01*
X7800Y3771D01*
X7748Y3896D01*
X7666Y4003D01*
X7559Y4085D01*
X7434Y4137D01*
X7300Y4154D01*
D02*
G37*
G36*
X21890Y2642D02*
X21716Y2625D01*
X21549Y2574D01*
X21395Y2491D01*
X21259Y2381D01*
X21149Y2245D01*
X21066Y2091D01*
X21015Y1924D01*
X20998Y1750D01*
X21015Y1576D01*
X21066Y1409D01*
X21149Y1255D01*
X21259Y1119D01*
X21395Y1009D01*
X21549Y926D01*
X21716Y875D01*
X21890Y858D01*
X22064Y875D01*
X22231Y926D01*
X22385Y1009D01*
X22521Y1119D01*
X22631Y1255D01*
X22714Y1409D01*
X22765Y1576D01*
X22782Y1750D01*
X22765Y1924D01*
X22714Y2091D01*
X22631Y2245D01*
X22521Y2381D01*
X22385Y2491D01*
X22231Y2574D01*
X22064Y2625D01*
X21890Y2642D01*
D02*
G37*
G36*
X1540Y2542D02*
X1366Y2525D01*
X1199Y2474D01*
X1045Y2391D01*
X909Y2281D01*
X799Y2145D01*
X716Y1991D01*
X665Y1824D01*
X648Y1650D01*
X665Y1476D01*
X716Y1309D01*
X799Y1155D01*
X909Y1019D01*
X1045Y909D01*
X1199Y826D01*
X1366Y775D01*
X1540Y758D01*
X1714Y775D01*
X1881Y826D01*
X2035Y909D01*
X2171Y1019D01*
X2281Y1155D01*
X2364Y1309D01*
X2415Y1476D01*
X2432Y1650D01*
X2415Y1824D01*
X2364Y1991D01*
X2281Y2145D01*
X2171Y2281D01*
X2035Y2391D01*
X1881Y2474D01*
X1714Y2525D01*
X1540Y2542D01*
D02*
G37*
G36*
X3979Y19073D02*
X3529D01*
Y18760D01*
X3979D01*
Y19073D01*
D02*
G37*
G36*
X3129D02*
X2679D01*
Y18760D01*
X3129D01*
Y19073D01*
D02*
G37*
G36*
X3979Y18360D02*
X3529D01*
Y18047D01*
X3979D01*
Y18360D01*
D02*
G37*
G36*
X3129D02*
X2679D01*
Y18047D01*
X3129D01*
Y18360D01*
D02*
G37*
G36*
X3555Y14166D02*
X3142D01*
X3062Y14155D01*
X2987Y14125D01*
X2923Y14075D01*
X2874Y14011D01*
X2843Y13937D01*
X2833Y13857D01*
Y13443D01*
X2843Y13363D01*
X2874Y13289D01*
X2923Y13225D01*
X2987Y13175D01*
X3062Y13144D01*
X3142Y13134D01*
X3555D01*
X3635Y13144D01*
X3710Y13175D01*
X3774Y13225D01*
X3823Y13289D01*
X3854Y13363D01*
X3865Y13443D01*
Y13857D01*
X3854Y13937D01*
X3823Y14011D01*
X3774Y14075D01*
X3710Y14125D01*
X3635Y14155D01*
X3555Y14166D01*
D02*
G37*
G36*
X3549Y12623D02*
Y12350D01*
X3821D01*
X3797Y12409D01*
X3715Y12516D01*
X3607Y12598D01*
X3549Y12623D01*
D02*
G37*
G36*
X3149D02*
X3090Y12598D01*
X2982Y12516D01*
X2900Y12409D01*
X2876Y12350D01*
X3149D01*
Y12623D01*
D02*
G37*
G36*
X3821Y11950D02*
X3549D01*
Y11677D01*
X3607Y11702D01*
X3715Y11784D01*
X3797Y11891D01*
X3821Y11950D01*
D02*
G37*
G36*
X3149D02*
X2876D01*
X2900Y11891D01*
X2982Y11784D01*
X3090Y11702D01*
X3149Y11677D01*
Y11950D01*
D02*
G37*
G36*
X4880Y12362D02*
X4208D01*
Y11610D01*
X4239D01*
Y11091D01*
X4182Y11034D01*
X3691D01*
X3607Y11098D01*
X3483Y11150D01*
X3349Y11168D01*
X3215Y11150D01*
X3090Y11098D01*
X2982Y11016D01*
X2900Y10909D01*
X2848Y10784D01*
X2831Y10650D01*
X2848Y10516D01*
X2900Y10391D01*
X2982Y10284D01*
X3090Y10202D01*
X3215Y10150D01*
X3349Y10132D01*
X3483Y10150D01*
X3607Y10202D01*
X3715Y10284D01*
X3797Y10391D01*
X3813Y10429D01*
X4307D01*
X4385Y10439D01*
X4458Y10470D01*
X4521Y10518D01*
X4755Y10752D01*
X4755Y10752D01*
X4803Y10815D01*
X4833Y10888D01*
X4844Y10966D01*
Y11610D01*
X4880D01*
Y12362D01*
D02*
G37*
G36*
X3485Y9026D02*
X3072D01*
X2992Y9015D01*
X2917Y8985D01*
X2853Y8935D01*
X2804Y8871D01*
X2773Y8797D01*
X2763Y8717D01*
Y8303D01*
X2773Y8223D01*
X2804Y8149D01*
X2853Y8085D01*
X2917Y8035D01*
X2992Y8004D01*
X3072Y7994D01*
X3485D01*
X3565Y8004D01*
X3640Y8035D01*
X3704Y8085D01*
X3753Y8149D01*
X3784Y8223D01*
X3795Y8303D01*
Y8717D01*
X3784Y8797D01*
X3753Y8871D01*
X3704Y8935D01*
X3640Y8985D01*
X3565Y9015D01*
X3485Y9026D01*
D02*
G37*
G36*
X3479Y7483D02*
Y7210D01*
X3751D01*
X3727Y7269D01*
X3645Y7376D01*
X3537Y7458D01*
X3479Y7483D01*
D02*
G37*
G36*
X3079D02*
X3020Y7458D01*
X2912Y7376D01*
X2830Y7269D01*
X2806Y7210D01*
X3079D01*
Y7483D01*
D02*
G37*
G36*
X3751Y6810D02*
X3479D01*
Y6537D01*
X3537Y6562D01*
X3645Y6644D01*
X3727Y6751D01*
X3751Y6810D01*
D02*
G37*
G36*
X3079D02*
X2806D01*
X2830Y6751D01*
X2912Y6644D01*
X3020Y6562D01*
X3079Y6537D01*
Y6810D01*
D02*
G37*
G36*
X3279Y6028D02*
X3145Y6010D01*
X3020Y5958D01*
X2912Y5876D01*
X2830Y5769D01*
X2778Y5644D01*
X2761Y5510D01*
X2778Y5376D01*
X2830Y5251D01*
X2912Y5144D01*
X3020Y5062D01*
X3145Y5010D01*
X3279Y4992D01*
X3413Y5010D01*
X3506Y5049D01*
X3560Y5042D01*
X4148D01*
Y5008D01*
X4900D01*
Y5680D01*
X4148D01*
Y5647D01*
X3778D01*
X3727Y5769D01*
X3645Y5876D01*
X3537Y5958D01*
X3413Y6010D01*
X3279Y6028D01*
D02*
G37*
G36*
X5600Y4109D02*
X5541Y4085D01*
X5434Y4003D01*
X5352Y3896D01*
X5300Y3771D01*
X5291Y3700D01*
X5600D01*
Y4109D01*
D02*
G37*
%LPD*%
D14*
X6290Y12141D02*
X7038D01*
X7056Y12160D01*
X7070D01*
X23230Y16310D02*
X23250Y16330D01*
X23230Y14650D02*
Y16310D01*
X23210Y14630D02*
X23230Y14650D01*
X23250Y16330D02*
Y18060D01*
X21442Y14546D02*
X21484Y14588D01*
X22168D01*
X22210Y14630D01*
X21442Y16276D02*
X21469Y16303D01*
X22223D01*
X22250Y16330D01*
X21442Y18006D02*
X21469Y18033D01*
X22223D01*
X22250Y18060D01*
D17*
X20668Y17980D02*
X20694Y18006D01*
D27*
X6560Y5831D02*
D03*
Y5240D02*
D03*
X7060Y13530D02*
D03*
Y12939D02*
D03*
D35*
X4524Y6092D02*
D03*
Y5344D02*
D03*
X4510Y7570D02*
D03*
Y6822D02*
D03*
D36*
X4544Y11986D02*
D03*
X5292D02*
D03*
X5296Y13494D02*
D03*
X4548D02*
D03*
X21442Y14546D02*
D03*
X20694D02*
D03*
X21442Y16276D02*
D03*
X20694D02*
D03*
X21442Y18006D02*
D03*
X20694D02*
D03*
D40*
X5730Y4531D02*
D03*
Y5850D02*
D03*
X6290Y13460D02*
D03*
Y12141D02*
D03*
D82*
X17670Y6880D02*
X19170Y8380D01*
X14450Y6880D02*
X17670D01*
X19170Y8380D02*
Y15800D01*
X15220Y6230D02*
X18430D01*
X20694Y8494D01*
X19646Y16276D02*
X20694D01*
X19170Y15800D02*
X19646Y16276D01*
X20694Y8494D02*
Y14546D01*
D83*
X6290Y13460D02*
X6356Y13526D01*
X7056D01*
X7060Y13530D01*
X5490Y6090D02*
X5730Y5850D01*
X5490Y6090D02*
X5600D01*
X4600D02*
X5490D01*
X5730Y5850D02*
X6455D01*
X4524Y6092D02*
X4597D01*
X4600Y6090D01*
X4517Y6099D02*
X4524Y6092D01*
X3430Y10732D02*
X4307D01*
X4541Y10966D02*
Y11983D01*
X4307Y10732D02*
X4541Y10966D01*
X3349Y10650D02*
X3430Y10732D01*
X3560Y5344D02*
X4524D01*
X3394Y5510D02*
X3560Y5344D01*
X3279Y5510D02*
X3394D01*
X4510Y6822D02*
X4517Y6815D01*
Y6099D02*
Y6815D01*
X3350Y11711D02*
Y12136D01*
X3574Y7570D02*
X4510D01*
X3340Y7336D02*
X3574Y7570D01*
X3339Y11700D02*
X3350Y11711D01*
X5296Y13494D02*
X5313Y13477D01*
X6273D01*
X6290Y13460D01*
X5292Y11212D02*
Y11986D01*
X5290Y11210D02*
X5292Y11212D01*
X5294Y11988D02*
Y13492D01*
X5296Y13494D01*
X5292Y11986D02*
X5294Y11988D01*
X4541Y13487D02*
X4548Y13494D01*
D84*
X3279Y8510D02*
D03*
X3349Y13650D02*
D03*
D85*
X3279Y7010D02*
D03*
Y5510D02*
D03*
X3349Y12150D02*
D03*
Y10650D02*
D03*
D86*
X12440Y4500D02*
D03*
X13440D02*
D03*
X14440D02*
D03*
X15390Y9930D02*
D03*
Y10930D02*
D03*
X14330Y12040D02*
D03*
X15330D02*
D03*
D87*
X15440Y4500D02*
D03*
X13330Y12040D02*
D03*
D88*
X15390Y8930D02*
D03*
D89*
X22210Y14630D02*
D03*
X22250Y16330D02*
D03*
Y18060D02*
D03*
D90*
X23210Y14630D02*
D03*
X23250Y16330D02*
D03*
Y18060D02*
D03*
D91*
X3329Y17060D02*
D03*
D92*
Y18560D02*
D03*
D93*
X4300Y3500D02*
D03*
D94*
X5800D02*
D03*
X7300D02*
D03*
X8800D02*
D03*
D95*
X21340Y1550D02*
D03*
X22090Y1200D02*
D03*
X21643Y1220D02*
D03*
X21360Y1997D02*
D03*
X21690Y2300D02*
D03*
X22440Y1950D02*
D03*
X22137Y2280D02*
D03*
X2090Y20850D02*
D03*
X1787Y21180D02*
D03*
X1340Y21200D02*
D03*
X1010Y20897D02*
D03*
X990Y20450D02*
D03*
X1293Y20120D02*
D03*
X1740Y20100D02*
D03*
X2070Y20403D02*
D03*
X22390Y20850D02*
D03*
X22087Y21180D02*
D03*
X21640Y21200D02*
D03*
X21310Y20897D02*
D03*
X21290Y20450D02*
D03*
X21593Y20120D02*
D03*
X22040Y20100D02*
D03*
X22370Y20403D02*
D03*
X22420Y1503D02*
D03*
X2070Y1403D02*
D03*
X1740Y1100D02*
D03*
X1293Y1120D02*
D03*
X990Y1450D02*
D03*
X1010Y1897D02*
D03*
X1340Y2200D02*
D03*
X1787Y2180D02*
D03*
X2090Y1850D02*
D03*
D96*
X21890Y1750D02*
D03*
X21840Y20650D02*
D03*
X1540D02*
D03*
Y1650D02*
D03*
D97*
X22440Y19270D02*
D03*
Y13270D02*
D03*
Y8770D02*
D03*
Y7270D02*
D03*
Y5770D02*
D03*
Y2770D02*
D03*
X20940Y19270D02*
D03*
Y7270D02*
D03*
Y1270D02*
D03*
X19440Y5770D02*
D03*
Y2770D02*
D03*
X17940Y20770D02*
D03*
Y11770D02*
D03*
Y8770D02*
D03*
Y5770D02*
D03*
X16440Y20770D02*
D03*
Y11770D02*
D03*
Y10270D02*
D03*
Y8770D02*
D03*
Y7270D02*
D03*
Y5770D02*
D03*
Y2770D02*
D03*
X14940Y20770D02*
D03*
Y10270D02*
D03*
Y7270D02*
D03*
Y2770D02*
D03*
X13440Y10270D02*
D03*
Y7270D02*
D03*
Y5770D02*
D03*
Y2770D02*
D03*
X11940Y11770D02*
D03*
Y8770D02*
D03*
Y4270D02*
D03*
X10440Y17770D02*
D03*
Y16270D02*
D03*
Y14770D02*
D03*
Y8770D02*
D03*
Y1270D02*
D03*
X8940Y14770D02*
D03*
Y1270D02*
D03*
X7440Y17770D02*
D03*
Y16270D02*
D03*
Y5770D02*
D03*
Y1270D02*
D03*
X5940Y16270D02*
D03*
Y10270D02*
D03*
Y8770D02*
D03*
Y1270D02*
D03*
X4440Y16270D02*
D03*
Y10270D02*
D03*
Y8770D02*
D03*
Y4270D02*
D03*
Y1270D02*
D03*
X2940Y16270D02*
D03*
Y4270D02*
D03*
Y1270D02*
D03*
X1440Y16270D02*
D03*
X1840Y18000D02*
D03*
X1590D02*
D03*
X1340D02*
D03*
X1090D02*
D03*
X840D02*
D03*
X590D02*
D03*
X340D02*
D03*
X6840Y19500D02*
D03*
Y19250D02*
D03*
X6590Y19500D02*
D03*
Y19250D02*
D03*
X6340Y19500D02*
D03*
Y19250D02*
D03*
X6090Y19500D02*
D03*
Y19250D02*
D03*
D98*
X7070Y12160D02*
D03*
X20050Y17980D02*
D03*
X9000Y11960D02*
D03*
Y8460D02*
D03*
X15220Y6230D02*
D03*
X14450Y6880D02*
D03*
X5600Y6090D02*
D03*
D99*
X14864Y20118D02*
D03*
X15376D02*
D03*
X14864Y19606D02*
D03*
X15376D02*
D03*
X14864Y19094D02*
D03*
X15376D02*
D03*
X14864Y18582D02*
D03*
X15376D02*
D03*
D100*
X5290Y11210D02*
D03*
D101*
X20050Y17980D02*
X20668D01*
X9000Y8460D02*
Y11960D01*
M02*
