G04*
G04 #@! TF.GenerationSoftware,Altium Limited,Altium Designer,20.2.6 (244)*
G04*
G04 Layer_Color=16711935*
%FSLAX24Y24*%
%MOIN*%
G70*
G04*
G04 #@! TF.SameCoordinates,10DCDC14-C833-4712-9BA6-5F063841230D*
G04*
G04*
G04 #@! TF.FilePolarity,Negative*
G04*
G01*
G75*
%ADD50R,0.0434X0.0454*%
%ADD57R,0.0631X0.0552*%
%ADD58R,0.0552X0.0631*%
%ADD61R,0.0789X0.0611*%
G04:AMPARAMS|DCode=68|XSize=90.7mil|YSize=90.7mil|CornerRadius=24.7mil|HoleSize=0mil|Usage=FLASHONLY|Rotation=270.000|XOffset=0mil|YOffset=0mil|HoleType=Round|Shape=RoundedRectangle|*
%AMROUNDEDRECTD68*
21,1,0.0907,0.0413,0,0,270.0*
21,1,0.0413,0.0907,0,0,270.0*
1,1,0.0493,-0.0207,-0.0207*
1,1,0.0493,-0.0207,0.0207*
1,1,0.0493,0.0207,0.0207*
1,1,0.0493,0.0207,-0.0207*
%
%ADD68ROUNDEDRECTD68*%
%ADD69C,0.0907*%
%ADD70C,0.0710*%
%ADD71R,0.0710X0.0710*%
%ADD72R,0.0710X0.0710*%
%ADD73P,0.0790X8X22.5*%
%ADD74C,0.0730*%
%ADD75O,0.1180X0.0907*%
%ADD76R,0.1180X0.0907*%
%ADD77R,0.0907X0.1180*%
%ADD78O,0.0907X0.1180*%
%ADD79C,0.0474*%
%ADD80C,0.1655*%
D50*
X6560Y5831D02*
D03*
Y5240D02*
D03*
X7060Y13530D02*
D03*
Y12939D02*
D03*
D57*
X4524Y6092D02*
D03*
Y5344D02*
D03*
X4510Y7570D02*
D03*
Y6822D02*
D03*
D58*
X4544Y11986D02*
D03*
X5292D02*
D03*
X5296Y13494D02*
D03*
X4548D02*
D03*
X21442Y14546D02*
D03*
X20694D02*
D03*
X21442Y16276D02*
D03*
X20694D02*
D03*
X21442Y18006D02*
D03*
X20694D02*
D03*
D61*
X5730Y4531D02*
D03*
Y5850D02*
D03*
X6290Y13460D02*
D03*
Y12141D02*
D03*
D68*
X3279Y8510D02*
D03*
X3349Y13650D02*
D03*
D69*
X3279Y7010D02*
D03*
Y5510D02*
D03*
X3349Y12150D02*
D03*
Y10650D02*
D03*
D70*
X12440Y4500D02*
D03*
X13440D02*
D03*
X14440D02*
D03*
X15390Y9930D02*
D03*
Y10930D02*
D03*
X14330Y12040D02*
D03*
X15330D02*
D03*
D71*
X15440Y4500D02*
D03*
X13330Y12040D02*
D03*
D72*
X15390Y8930D02*
D03*
D73*
X22210Y14630D02*
D03*
X22250Y16330D02*
D03*
Y18060D02*
D03*
D74*
X23210Y14630D02*
D03*
X23250Y16330D02*
D03*
Y18060D02*
D03*
D75*
X3329Y17060D02*
D03*
D76*
Y18560D02*
D03*
D77*
X4300Y3500D02*
D03*
D78*
X5800D02*
D03*
X7300D02*
D03*
X8800D02*
D03*
D79*
X21340Y1550D02*
D03*
X22090Y1200D02*
D03*
X21643Y1220D02*
D03*
X21360Y1997D02*
D03*
X21690Y2300D02*
D03*
X22440Y1950D02*
D03*
X22137Y2280D02*
D03*
X2090Y20850D02*
D03*
X1787Y21180D02*
D03*
X1340Y21200D02*
D03*
X1010Y20897D02*
D03*
X990Y20450D02*
D03*
X1293Y20120D02*
D03*
X1740Y20100D02*
D03*
X2070Y20403D02*
D03*
X22390Y20850D02*
D03*
X22087Y21180D02*
D03*
X21640Y21200D02*
D03*
X21310Y20897D02*
D03*
X21290Y20450D02*
D03*
X21593Y20120D02*
D03*
X22040Y20100D02*
D03*
X22370Y20403D02*
D03*
X22420Y1503D02*
D03*
X2070Y1403D02*
D03*
X1740Y1100D02*
D03*
X1293Y1120D02*
D03*
X990Y1450D02*
D03*
X1010Y1897D02*
D03*
X1340Y2200D02*
D03*
X1787Y2180D02*
D03*
X2090Y1850D02*
D03*
D80*
X21890Y1750D02*
D03*
X21840Y20650D02*
D03*
X1540D02*
D03*
Y1650D02*
D03*
M02*
