G04*
G04 #@! TF.GenerationSoftware,Altium Limited,Altium Designer,20.2.6 (244)*
G04*
G04 Layer_Color=16711935*
%FSLAX24Y24*%
%MOIN*%
G70*
G04*
G04 #@! TF.SameCoordinates,10DCDC14-C833-4712-9BA6-5F063841230D*
G04*
G04*
G04 #@! TF.FilePolarity,Positive*
G04*
G01*
G75*
%ADD11C,0.0039*%
%ADD103C,0.0020*%
%ADD105R,0.1098X0.0238*%
D11*
X10743Y9694D02*
G03*
X10743Y9694I-197J0D01*
G01*
X6403Y5850D02*
X6717D01*
X6403Y5220D02*
X6717D01*
X6403D02*
Y5850D01*
X6717Y5220D02*
Y5850D01*
X6903Y13550D02*
X7217D01*
X6903Y12920D02*
X7217D01*
X6903D02*
Y13550D01*
X7217Y12920D02*
Y13550D01*
X12523Y5640D02*
Y6270D01*
X12837Y5640D02*
Y6270D01*
X12523Y5640D02*
X12837D01*
X12523Y6270D02*
X12837D01*
X14037Y10265D02*
Y10895D01*
X13723Y10265D02*
Y10895D01*
X14037D01*
X13723Y10265D02*
X14037D01*
X23355Y11385D02*
Y12055D01*
X22685Y11385D02*
X23355D01*
X22685D02*
Y12055D01*
X23355D01*
X19915Y11177D02*
X20545D01*
X19915Y10863D02*
X20545D01*
X19915D02*
Y11177D01*
X20545Y10863D02*
Y11177D01*
X19915Y11747D02*
X20545D01*
X19915Y11433D02*
X20545D01*
X19915D02*
Y11747D01*
X20545Y11433D02*
Y11747D01*
X17955Y18483D02*
Y18797D01*
X17325Y18483D02*
Y18797D01*
Y18483D02*
X17955D01*
X17325Y18797D02*
X17955D01*
X5791Y17114D02*
Y18886D01*
X6889Y17114D02*
Y18886D01*
X5791Y17114D02*
X6889D01*
X5791Y18886D02*
X6889D01*
X11025Y13263D02*
X11655D01*
X11025Y13577D02*
X11655D01*
Y13263D02*
Y13577D01*
X11025Y13263D02*
Y13577D01*
X10192Y7292D02*
X12948D01*
X10192Y10048D02*
X12948D01*
Y7292D02*
Y10048D01*
X10192Y7292D02*
Y10048D01*
X11123Y12005D02*
X11437D01*
X11123Y11375D02*
X11437D01*
Y12005D01*
X11123Y11375D02*
Y12005D01*
X10627Y11365D02*
Y11995D01*
X10313Y11365D02*
Y11995D01*
X10627D01*
X10313Y11365D02*
X10627D01*
X7463Y11935D02*
X7777D01*
X7463Y12565D02*
X7777D01*
X7463Y11935D02*
Y12565D01*
X7777Y11935D02*
Y12565D01*
X7315Y10367D02*
X7945D01*
X7315Y10053D02*
X7945D01*
X7315D02*
Y10367D01*
X7945Y10053D02*
Y10367D01*
X7025Y7607D02*
X7655D01*
X7025Y7293D02*
X7655D01*
X7025D02*
Y7607D01*
X7655Y7293D02*
Y7607D01*
X7005Y7993D02*
X7635D01*
X7005Y8307D02*
X7635D01*
Y7993D02*
Y8307D01*
X7005Y7993D02*
Y8307D01*
X179Y19544D02*
X3801D01*
X179Y16076D02*
Y19544D01*
Y16076D02*
X3801D01*
Y19544D01*
X3316Y350D02*
Y3972D01*
Y350D02*
X9784D01*
Y3972D01*
X3316D02*
X9784D01*
D103*
X6882Y8658D02*
X8058D01*
X6820Y8720D02*
X6882Y8658D01*
X6820Y8720D02*
Y9620D01*
X8058Y8658D02*
X8120Y8720D01*
Y9620D01*
X6882Y9682D02*
X8058D01*
X8120Y9620D01*
X6820Y9620D02*
X6882Y9682D01*
D105*
X6340Y18767D02*
D03*
M02*
