G04*
G04 #@! TF.GenerationSoftware,Altium Limited,Altium Designer,20.2.6 (244)*
G04*
G04 Layer_Physical_Order=1*
G04 Layer_Color=255*
%FSLAX24Y24*%
%MOIN*%
G70*
G04*
G04 #@! TF.SameCoordinates,10DCDC14-C833-4712-9BA6-5F063841230D*
G04*
G04*
G04 #@! TF.FilePolarity,Positive*
G04*
G01*
G75*
%ADD14C,0.0200*%
%ADD17C,0.0100*%
%ADD24R,0.1063X0.0630*%
%ADD25R,0.1772X0.2165*%
G04:AMPARAMS|DCode=26|XSize=52.8mil|YSize=129.5mil|CornerRadius=6.6mil|HoleSize=0mil|Usage=FLASHONLY|Rotation=270.000|XOffset=0mil|YOffset=0mil|HoleType=Round|Shape=RoundedRectangle|*
%AMROUNDEDRECTD26*
21,1,0.0528,0.1163,0,0,270.0*
21,1,0.0396,0.1295,0,0,270.0*
1,1,0.0132,-0.0582,-0.0198*
1,1,0.0132,-0.0582,0.0198*
1,1,0.0132,0.0582,0.0198*
1,1,0.0132,0.0582,-0.0198*
%
%ADD26ROUNDEDRECTD26*%
%ADD27R,0.0374X0.0394*%
%ADD28R,0.0394X0.1378*%
%ADD29R,0.0197X0.0394*%
%ADD30R,0.0236X0.0591*%
%ADD31R,0.0197X0.0217*%
%ADD32R,0.0394X0.0374*%
%ADD33R,0.0512X0.0591*%
%ADD34R,0.1102X0.1575*%
%ADD35R,0.0551X0.0472*%
%ADD36R,0.0472X0.0551*%
%ADD37R,0.0610X0.0236*%
%ADD38R,0.0984X0.1299*%
%ADD39R,0.1299X0.0984*%
%ADD40R,0.0709X0.0531*%
%ADD41R,0.0571X0.0807*%
%ADD42R,0.0984X0.0669*%
%ADD43R,0.0787X0.0551*%
%ADD44O,0.0118X0.0571*%
%ADD45O,0.0571X0.0118*%
G04:AMPARAMS|DCode=46|XSize=55.1mil|YSize=47.2mil|CornerRadius=5.9mil|HoleSize=0mil|Usage=FLASHONLY|Rotation=0.000|XOffset=0mil|YOffset=0mil|HoleType=Round|Shape=RoundedRectangle|*
%AMROUNDEDRECTD46*
21,1,0.0551,0.0354,0,0,0.0*
21,1,0.0433,0.0472,0,0,0.0*
1,1,0.0118,0.0217,-0.0177*
1,1,0.0118,-0.0217,-0.0177*
1,1,0.0118,-0.0217,0.0177*
1,1,0.0118,0.0217,0.0177*
%
%ADD46ROUNDEDRECTD46*%
%ADD81R,0.1161X0.1929*%
%ADD82C,0.0300*%
%ADD83C,0.0400*%
G04:AMPARAMS|DCode=84|XSize=82.7mil|YSize=82.7mil|CornerRadius=20.7mil|HoleSize=0mil|Usage=FLASHONLY|Rotation=270.000|XOffset=0mil|YOffset=0mil|HoleType=Round|Shape=RoundedRectangle|*
%AMROUNDEDRECTD84*
21,1,0.0827,0.0413,0,0,270.0*
21,1,0.0413,0.0827,0,0,270.0*
1,1,0.0413,-0.0207,-0.0207*
1,1,0.0413,-0.0207,0.0207*
1,1,0.0413,0.0207,0.0207*
1,1,0.0413,0.0207,-0.0207*
%
%ADD84ROUNDEDRECTD84*%
%ADD85C,0.0827*%
%ADD86C,0.0630*%
%ADD87R,0.0630X0.0630*%
%ADD88R,0.0630X0.0630*%
%ADD89P,0.0704X8X22.5*%
%ADD90C,0.0650*%
%ADD91O,0.1100X0.0827*%
%ADD92R,0.1100X0.0827*%
%ADD93R,0.0827X0.1100*%
%ADD94O,0.0827X0.1100*%
%ADD95C,0.0394*%
%ADD96C,0.1575*%
%ADD97C,0.0200*%
%ADD98C,0.0250*%
%ADD99C,0.0197*%
%ADD100C,0.0400*%
G36*
X22436Y22185D02*
X22640Y22131D01*
X22836Y22050D01*
X23019Y21944D01*
X23187Y21815D01*
X23336Y21665D01*
X23465Y21498D01*
X23571Y21314D01*
X23652Y21119D01*
X23707Y20914D01*
X23734Y20705D01*
Y20599D01*
Y1701D01*
Y1595D01*
X23707Y1386D01*
X23652Y1181D01*
X23571Y986D01*
X23465Y802D01*
X23336Y635D01*
X23187Y485D01*
X23019Y356D01*
X22836Y250D01*
X22640Y169D01*
X22436Y115D01*
X22239Y89D01*
X22190Y90D01*
X22190Y90D01*
X1720Y87D01*
X1614D01*
X1404Y115D01*
X1200Y169D01*
X1004Y250D01*
X821Y356D01*
X653Y485D01*
X504Y635D01*
X375Y802D01*
X269Y986D01*
X188Y1181D01*
X133Y1386D01*
X106Y1595D01*
Y1701D01*
Y2729D01*
X156Y2757D01*
X6180Y2754D01*
X6180Y2765D01*
X6502Y2775D01*
X6502Y5592D01*
X6182D01*
X6180Y5320D01*
X6180Y4055D01*
X6130Y4030D01*
X6059Y4085D01*
X6000Y4109D01*
Y3500D01*
X5800D01*
Y3300D01*
X5291D01*
X5300Y3229D01*
X5352Y3104D01*
X5370Y3080D01*
X5348Y3036D01*
X4813D01*
Y4150D01*
X3787D01*
Y3593D01*
X2565D01*
X2073Y4085D01*
Y8097D01*
X2843D01*
X2853Y8085D01*
X2917Y8035D01*
X2992Y8004D01*
X3072Y7994D01*
X3485D01*
X3565Y8004D01*
X3640Y8035D01*
X3704Y8085D01*
X3753Y8149D01*
X3784Y8223D01*
X3795Y8303D01*
Y8717D01*
X3784Y8797D01*
X3753Y8871D01*
X3704Y8935D01*
X3640Y8985D01*
X3565Y9015D01*
X3485Y9026D01*
X3072D01*
X2992Y9015D01*
X2917Y8985D01*
X2853Y8935D01*
X2804Y8871D01*
X2773Y8797D01*
X2763Y8717D01*
Y8703D01*
X2180D01*
X2063Y8820D01*
Y13287D01*
X2875D01*
X2923Y13225D01*
X2987Y13175D01*
X3062Y13144D01*
X3142Y13134D01*
X3555D01*
X3635Y13144D01*
X3710Y13175D01*
X3774Y13225D01*
X3823Y13289D01*
X3854Y13363D01*
X3865Y13443D01*
Y13857D01*
X3854Y13937D01*
X3823Y14011D01*
X3774Y14075D01*
X3710Y14125D01*
X3635Y14155D01*
X3555Y14166D01*
X3142D01*
X3062Y14155D01*
X2987Y14125D01*
X2923Y14075D01*
X2874Y14011D01*
X2843Y13937D01*
X2837Y13893D01*
X2063D01*
Y14620D01*
X2120Y14677D01*
X3329D01*
X3407Y14688D01*
X3418Y14692D01*
X4088D01*
Y14575D01*
X5272D01*
Y15445D01*
X4088D01*
Y15298D01*
X3344D01*
X3265Y15287D01*
X3254Y15283D01*
X1994D01*
X1916Y15272D01*
X1843Y15242D01*
X1780Y15194D01*
X1780Y15194D01*
X1546Y14960D01*
X1498Y14897D01*
X1468Y14824D01*
X1457Y14746D01*
Y13590D01*
Y8694D01*
X1467Y8618D01*
Y3960D01*
X1478Y3882D01*
X1508Y3809D01*
X1556Y3746D01*
X2216Y3086D01*
X2203Y3036D01*
X156D01*
X145Y3036D01*
X106Y3062D01*
Y15830D01*
X106Y15830D01*
X156Y15878D01*
X7960Y15878D01*
X7962Y16160D01*
X156Y16160D01*
X112Y16160D01*
X106Y16207D01*
Y17634D01*
X156Y17678D01*
X5140Y17678D01*
X5179Y17686D01*
X5212Y17708D01*
X5322Y17818D01*
X5344Y17851D01*
X5352Y17890D01*
Y18123D01*
X5402Y18144D01*
X5508Y18038D01*
X5541Y18016D01*
X5580Y18008D01*
X8000Y18008D01*
X8039Y18016D01*
X8072Y18038D01*
X8205Y18171D01*
X8252Y18147D01*
X8247Y18110D01*
Y15415D01*
X8145Y15313D01*
X6872D01*
Y15445D01*
X5688D01*
Y14575D01*
X6872D01*
Y14707D01*
X8270D01*
X8348Y14718D01*
X8421Y14748D01*
X8484Y14796D01*
X8764Y15076D01*
X8812Y15139D01*
X8842Y15212D01*
X8847Y15251D01*
X8853Y15290D01*
X8853Y15290D01*
Y17982D01*
X8889Y18018D01*
X10873Y18018D01*
X10894Y17968D01*
X10828Y17902D01*
X10806Y17869D01*
X10798Y17830D01*
Y16620D01*
X10806Y16581D01*
X10828Y16548D01*
X11018Y16358D01*
X11051Y16336D01*
X11090Y16328D01*
X13448D01*
Y14390D01*
X13456Y14351D01*
X13478Y14318D01*
X13665Y14131D01*
X13644Y14081D01*
X6790Y14075D01*
Y13870D01*
X18136D01*
X18618Y13388D01*
Y12765D01*
X18527D01*
Y13088D01*
X18507Y13186D01*
X18452Y13268D01*
X18120Y13600D01*
X18038Y13656D01*
X17940Y13675D01*
X11932D01*
Y13707D01*
X10748D01*
Y13624D01*
X10684D01*
Y13796D01*
X9696D01*
Y13624D01*
X9490D01*
X9490Y13624D01*
X9412Y13608D01*
X9346Y13564D01*
X8856Y13074D01*
X8812Y13008D01*
X8796Y12930D01*
Y12159D01*
X7907D01*
Y12252D01*
X7333D01*
Y11658D01*
X7907D01*
Y11751D01*
X8908D01*
X8912Y11748D01*
X9000Y11731D01*
X9088Y11748D01*
X9162Y11798D01*
X9212Y11872D01*
X9229Y11960D01*
X9212Y12048D01*
X9204Y12060D01*
Y12846D01*
X9574Y13216D01*
X9696D01*
Y13044D01*
X10684D01*
Y13216D01*
X10748D01*
Y13133D01*
X11431D01*
Y12869D01*
X11376Y12814D01*
X10030D01*
X9952Y12798D01*
X9886Y12754D01*
X9756Y12624D01*
X9712Y12558D01*
X9696Y12480D01*
Y11500D01*
X9712Y11422D01*
X9756Y11356D01*
X9871Y11241D01*
X9937Y11196D01*
X10015Y11181D01*
X10183D01*
Y11088D01*
X10334D01*
Y10606D01*
X10325Y10560D01*
Y10107D01*
X10338Y10045D01*
X10338Y10044D01*
Y10019D01*
X10349Y9961D01*
X10383Y9911D01*
X10644Y9650D01*
X10632Y9592D01*
X10600Y9570D01*
X10567Y9521D01*
X10555Y9462D01*
Y8401D01*
X10485Y8331D01*
X10179D01*
X10133Y8340D01*
X9680D01*
X9634Y8331D01*
X9247D01*
X9221Y8373D01*
X9240Y8419D01*
X9634D01*
X9680Y8409D01*
X10133D01*
X10195Y8422D01*
X10248Y8457D01*
X10283Y8510D01*
X10295Y8572D01*
X10283Y8634D01*
X10259Y8670D01*
X10283Y8706D01*
X10295Y8768D01*
X10283Y8830D01*
X10259Y8867D01*
X10283Y8903D01*
X10295Y8965D01*
X10283Y9027D01*
X10259Y9064D01*
X10283Y9100D01*
X10295Y9162D01*
X10283Y9224D01*
X10259Y9261D01*
X10283Y9297D01*
X10295Y9359D01*
X10283Y9421D01*
X10259Y9457D01*
X10283Y9494D01*
X10295Y9556D01*
X10283Y9618D01*
X10259Y9654D01*
X10283Y9691D01*
X10295Y9753D01*
X10283Y9815D01*
X10248Y9867D01*
X10195Y9902D01*
X10133Y9915D01*
X9680D01*
X9618Y9902D01*
X9566Y9867D01*
X9530Y9815D01*
X9518Y9753D01*
X9530Y9691D01*
X9555Y9654D01*
X9530Y9618D01*
X9518Y9556D01*
X9530Y9494D01*
X9555Y9457D01*
X9530Y9421D01*
X9518Y9359D01*
X9530Y9297D01*
X9555Y9261D01*
X9530Y9224D01*
X9518Y9162D01*
X9519Y9157D01*
X9487Y9118D01*
X9378D01*
X8968Y9528D01*
X8919Y9561D01*
X8860Y9573D01*
X8282D01*
Y9682D01*
X8269Y9744D01*
X8234Y9796D01*
X8182Y9832D01*
X8120Y9844D01*
X8113D01*
Y9923D01*
X8222D01*
Y10497D01*
X7628D01*
Y9923D01*
X7705D01*
Y9844D01*
X7687D01*
X7624Y9832D01*
X7572Y9796D01*
X7537Y9744D01*
X7524Y9682D01*
Y9327D01*
X7537Y9265D01*
X7572Y9213D01*
X7624Y9178D01*
X7687Y9165D01*
X8120D01*
X8182Y9178D01*
X8234Y9213D01*
X8269Y9265D01*
X8270Y9267D01*
X8797D01*
X9096Y8968D01*
X9077Y8921D01*
X8728D01*
X8670Y8910D01*
X8620Y8877D01*
X8389Y8646D01*
X7426D01*
X7416Y8658D01*
Y9013D01*
X7403Y9075D01*
X7368Y9127D01*
X7316Y9162D01*
X7253Y9175D01*
X6820D01*
X6758Y9162D01*
X6706Y9127D01*
X6671Y9075D01*
X6658Y9013D01*
Y8658D01*
X6671Y8596D01*
X6706Y8544D01*
X6758Y8508D01*
X6820Y8496D01*
X6827D01*
Y8437D01*
X6728D01*
Y7863D01*
X7322D01*
Y8340D01*
X8100D01*
X8115Y8290D01*
X8110Y8286D01*
X8042Y8218D01*
X8009Y8169D01*
X7997Y8110D01*
Y7756D01*
X7979Y7744D01*
X7932Y7737D01*
Y7737D01*
X7338D01*
Y7163D01*
X7932D01*
Y7377D01*
X8020D01*
X8079Y7389D01*
X8128Y7422D01*
X8247Y7541D01*
X8291Y7527D01*
X8297Y7522D01*
Y7263D01*
X8057Y7023D01*
X7321D01*
X7268Y7058D01*
X7190Y7074D01*
X7052D01*
X7044Y7084D01*
X6981Y7132D01*
X6908Y7162D01*
X6830Y7173D01*
X5650D01*
X5593Y7230D01*
Y11210D01*
X5582Y11288D01*
X5552Y11361D01*
X5504Y11424D01*
X5441Y11472D01*
X5368Y11502D01*
X5290Y11513D01*
X5212Y11502D01*
X5139Y11472D01*
X5076Y11424D01*
X5028Y11361D01*
X4998Y11288D01*
X4987Y11210D01*
Y7104D01*
X4998Y7026D01*
X5028Y6953D01*
X5076Y6890D01*
X5310Y6656D01*
X5310Y6656D01*
X5373Y6608D01*
X5446Y6578D01*
X5524Y6567D01*
X6830D01*
X6908Y6578D01*
X6981Y6608D01*
X7044Y6656D01*
X7052Y6666D01*
X7190D01*
X7268Y6682D01*
X7321Y6717D01*
X8120D01*
X8179Y6729D01*
X8228Y6762D01*
X8558Y7092D01*
X8591Y7141D01*
X8603Y7200D01*
Y7727D01*
X8704Y7828D01*
X8886D01*
X8906Y7782D01*
X8762Y7638D01*
X8729Y7589D01*
X8717Y7530D01*
Y6523D01*
X8488Y6294D01*
X7352D01*
X7344Y6304D01*
X7281Y6352D01*
X7208Y6382D01*
X7130Y6393D01*
X5600D01*
X5522Y6382D01*
X5449Y6352D01*
X5386Y6304D01*
X5338Y6241D01*
X5308Y6168D01*
X5297Y6090D01*
X5308Y6012D01*
X5338Y5939D01*
X5386Y5876D01*
X5449Y5828D01*
X5522Y5798D01*
X5600Y5787D01*
X7130D01*
X7208Y5798D01*
X7281Y5828D01*
X7344Y5876D01*
X7352Y5886D01*
X8500D01*
X8578Y5902D01*
X8644Y5946D01*
X8688Y6012D01*
X8701Y6075D01*
X8978Y6352D01*
X8997Y6380D01*
X9047Y6365D01*
Y5732D01*
X9036Y5724D01*
X8606Y5294D01*
X7417D01*
X7339Y5278D01*
X7273Y5234D01*
X7273Y5234D01*
X7156Y5117D01*
X7112Y5051D01*
X7096Y4973D01*
Y4108D01*
X7041Y4085D01*
X6934Y4003D01*
X6852Y3896D01*
X6800Y3771D01*
X6782Y3637D01*
Y3363D01*
X6800Y3229D01*
X6852Y3104D01*
X6934Y2997D01*
X7041Y2915D01*
X7166Y2863D01*
X7300Y2846D01*
X7434Y2863D01*
X7559Y2915D01*
X7666Y2997D01*
X7748Y3104D01*
X7800Y3229D01*
X7818Y3363D01*
Y3637D01*
X7800Y3771D01*
X7748Y3896D01*
X7666Y4003D01*
X7559Y4085D01*
X7504Y4108D01*
Y4886D01*
X8690D01*
X8768Y4902D01*
X8834Y4946D01*
X9324Y5436D01*
X9368Y5502D01*
X9384Y5580D01*
X9368Y5658D01*
X9353Y5681D01*
Y7347D01*
X9441Y7434D01*
X9634D01*
X9680Y7425D01*
X10133D01*
X10195Y7437D01*
X10248Y7473D01*
X10283Y7525D01*
X10295Y7587D01*
X10283Y7649D01*
X10259Y7686D01*
X10283Y7722D01*
X10295Y7784D01*
X10283Y7846D01*
X10259Y7883D01*
X10283Y7919D01*
X10295Y7981D01*
X10294Y7986D01*
X10326Y8025D01*
X10548D01*
X10606Y8037D01*
X10656Y8070D01*
X10816Y8230D01*
X10849Y8279D01*
X10861Y8338D01*
Y9309D01*
X12177D01*
Y8190D01*
X12189Y8131D01*
X12222Y8082D01*
X12507Y7797D01*
Y7587D01*
X12500Y7550D01*
Y7279D01*
X12491Y7233D01*
Y6780D01*
X12500Y6734D01*
Y6547D01*
X12412D01*
Y6734D01*
X12421Y6780D01*
Y7233D01*
X12409Y7295D01*
X12374Y7348D01*
X12321Y7383D01*
X12259Y7395D01*
X12197Y7383D01*
X12161Y7359D01*
X12124Y7383D01*
X12062Y7395D01*
X12000Y7383D01*
X11964Y7359D01*
X11927Y7383D01*
X11865Y7395D01*
X11803Y7383D01*
X11767Y7359D01*
X11730Y7383D01*
X11668Y7395D01*
X11606Y7383D01*
X11570Y7359D01*
X11534Y7383D01*
X11472Y7395D01*
X11410Y7383D01*
X11373Y7359D01*
X11337Y7383D01*
X11275Y7395D01*
X11213Y7383D01*
X11176Y7359D01*
X11140Y7383D01*
X11078Y7395D01*
X11016Y7383D01*
X10979Y7359D01*
X10943Y7383D01*
X10881Y7395D01*
X10819Y7383D01*
X10783Y7359D01*
X10746Y7383D01*
X10684Y7395D01*
X10622Y7383D01*
X10586Y7359D01*
X10549Y7383D01*
X10487Y7395D01*
X10425Y7383D01*
X10373Y7348D01*
X10338Y7295D01*
X10325Y7233D01*
Y6780D01*
X10334Y6734D01*
Y5901D01*
X9828Y5394D01*
X9470D01*
X9392Y5378D01*
X9326Y5334D01*
X8606Y4614D01*
X8562Y4548D01*
X8546Y4470D01*
Y4087D01*
X8541Y4085D01*
X8434Y4003D01*
X8352Y3896D01*
X8300Y3771D01*
X8282Y3637D01*
Y3363D01*
X8300Y3229D01*
X8352Y3104D01*
X8434Y2997D01*
X8541Y2915D01*
X8666Y2863D01*
X8800Y2846D01*
X8934Y2863D01*
X9059Y2915D01*
X9166Y2997D01*
X9248Y3104D01*
X9300Y3229D01*
X9318Y3363D01*
Y3637D01*
X9300Y3771D01*
X9248Y3896D01*
X9166Y4003D01*
X9059Y4085D01*
X8954Y4129D01*
Y4386D01*
X9554Y4986D01*
X9840D01*
X9918Y5002D01*
X9984Y5046D01*
X10028Y5112D01*
X10041Y5175D01*
X10485Y5619D01*
X10531Y5600D01*
Y2646D01*
X10543Y2587D01*
X10576Y2538D01*
X10864Y2250D01*
X10877Y2187D01*
X10921Y2121D01*
X11863Y1178D01*
X11875Y1122D01*
X11930Y1040D01*
X12012Y985D01*
X12110Y965D01*
X19930D01*
X20028Y985D01*
X20110Y1040D01*
X20834Y1763D01*
X20889Y1846D01*
X20909Y1944D01*
Y2960D01*
X20951D01*
Y4538D01*
X20357D01*
Y2960D01*
X20399D01*
Y2049D01*
X19824Y1475D01*
X12143D01*
X11209Y2409D01*
X11143Y2453D01*
X11080Y2466D01*
X10837Y2709D01*
Y3131D01*
X10883Y3150D01*
X11209Y2825D01*
X11222Y2762D01*
X11266Y2696D01*
X12223Y1738D01*
X12234Y1682D01*
X12290Y1600D01*
X12372Y1545D01*
X12470Y1525D01*
X19691D01*
X19788Y1545D01*
X19871Y1600D01*
X20047Y1776D01*
X20102Y1858D01*
X20121Y1956D01*
Y2960D01*
X20163D01*
Y4538D01*
X19569D01*
Y2960D01*
X19611D01*
Y2061D01*
X19585Y2035D01*
X18288D01*
X18273Y2085D01*
X18340Y2130D01*
X18472Y2261D01*
X18527Y2344D01*
X18546Y2441D01*
Y2960D01*
X18588D01*
Y4538D01*
X17995D01*
Y2960D01*
X18037D01*
Y2565D01*
X12763D01*
X12209Y3120D01*
X12234Y3165D01*
X15870D01*
X15968Y3185D01*
X16050Y3240D01*
X17516Y4705D01*
X18798D01*
X18824Y4679D01*
Y4538D01*
X18782D01*
Y2960D01*
X19376D01*
Y4538D01*
X19334D01*
Y4784D01*
X19314Y4882D01*
X19259Y4965D01*
X19083Y5140D01*
X19001Y5195D01*
X18903Y5215D01*
X17410D01*
X17312Y5195D01*
X17230Y5140D01*
X15764Y3675D01*
X12253D01*
X11798Y4131D01*
X11732Y4175D01*
X11669Y4187D01*
X11423Y4433D01*
Y6588D01*
X11462Y6620D01*
X11472Y6618D01*
X11534Y6630D01*
X11570Y6655D01*
X11606Y6630D01*
X11668Y6618D01*
X11730Y6630D01*
X11767Y6655D01*
X11803Y6630D01*
X11865Y6618D01*
X11871Y6619D01*
X11909Y6587D01*
Y4878D01*
X11921Y4819D01*
X11954Y4770D01*
X12059Y4665D01*
X12036Y4608D01*
X12021Y4500D01*
X12036Y4392D01*
X12078Y4291D01*
X12144Y4204D01*
X12231Y4138D01*
X12332Y4096D01*
X12440Y4081D01*
X12548Y4096D01*
X12649Y4138D01*
X12736Y4204D01*
X12802Y4291D01*
X12844Y4392D01*
X12859Y4500D01*
X12844Y4608D01*
X12802Y4709D01*
X12736Y4796D01*
X12649Y4862D01*
X12590Y4887D01*
X12600Y4937D01*
X13280D01*
X13290Y4887D01*
X13231Y4862D01*
X13144Y4796D01*
X13078Y4709D01*
X13036Y4608D01*
X13021Y4500D01*
X13036Y4392D01*
X13078Y4291D01*
X13144Y4204D01*
X13231Y4138D01*
X13332Y4096D01*
X13440Y4081D01*
X13548Y4096D01*
X13649Y4138D01*
X13736Y4204D01*
X13802Y4291D01*
X13844Y4392D01*
X13859Y4500D01*
X13844Y4608D01*
X13802Y4709D01*
X13736Y4796D01*
X13649Y4862D01*
X13643Y4865D01*
Y5031D01*
X13631Y5090D01*
X13598Y5140D01*
X13539Y5198D01*
X13490Y5231D01*
X13431Y5243D01*
X12523D01*
X12412Y5354D01*
Y5954D01*
X12967D01*
Y5976D01*
X14306D01*
X15236Y5046D01*
Y4915D01*
X15025D01*
Y4085D01*
X15855D01*
Y4915D01*
X15644D01*
Y5130D01*
X15628Y5208D01*
X15584Y5274D01*
X14534Y6324D01*
X14468Y6368D01*
X14390Y6384D01*
X12967D01*
Y6547D01*
X12806D01*
Y6734D01*
X12815Y6780D01*
Y7233D01*
X12806Y7279D01*
Y7521D01*
X12806Y7524D01*
X12856Y7525D01*
X12857Y7525D01*
X12892Y7473D01*
X12945Y7437D01*
X13007Y7425D01*
X13460D01*
X13506Y7434D01*
X13679D01*
X14223Y6891D01*
X14221Y6880D01*
X14238Y6792D01*
X14288Y6718D01*
X14362Y6668D01*
X14450Y6651D01*
X14538Y6668D01*
X14612Y6718D01*
X14653Y6779D01*
X14709Y6793D01*
X15059Y6444D01*
X15058Y6392D01*
X15008Y6318D01*
X14991Y6230D01*
X15008Y6142D01*
X15058Y6068D01*
X15132Y6018D01*
X15220Y6001D01*
X15308Y6018D01*
X15382Y6068D01*
X15432Y6142D01*
X15449Y6230D01*
X15432Y6318D01*
X15382Y6392D01*
X15373Y6398D01*
Y6499D01*
X15361Y6557D01*
X15328Y6607D01*
X14153Y7782D01*
X14172Y7828D01*
X16596D01*
X17469Y6955D01*
X17482Y6892D01*
X17526Y6826D01*
X17592Y6782D01*
X17670Y6766D01*
X19746D01*
X20923Y5588D01*
X20935Y5532D01*
X20990Y5450D01*
X21186Y5253D01*
Y4538D01*
X21144D01*
Y2960D01*
X21738D01*
Y4538D01*
X21696D01*
Y5359D01*
X21677Y5456D01*
X21621Y5539D01*
X21350Y5810D01*
X21268Y5865D01*
X21212Y5877D01*
X19974Y7114D01*
X19908Y7158D01*
X19830Y7174D01*
X17682D01*
X16878Y7979D01*
X16897Y8025D01*
X17051D01*
X17104Y7989D01*
X17182Y7974D01*
X18647D01*
X18725Y7989D01*
X18791Y8034D01*
X19121Y8363D01*
X19176Y8375D01*
X19259Y8430D01*
X19314Y8512D01*
X19334Y8610D01*
Y9062D01*
X19376D01*
Y10640D01*
X18782D01*
Y9062D01*
X18824D01*
Y8643D01*
X18562Y8382D01*
X17182D01*
X17104Y8366D01*
X17051Y8331D01*
X13653D01*
X13621Y8369D01*
X13622Y8375D01*
X13621Y8380D01*
X13653Y8419D01*
X14224D01*
X14227Y8419D01*
X14625D01*
X14684Y8431D01*
X14734Y8464D01*
X14929Y8659D01*
X14975Y8640D01*
Y8515D01*
X15805D01*
Y9345D01*
X15049D01*
X15016Y9395D01*
X15023Y9430D01*
Y9593D01*
X15048Y9617D01*
X15094Y9634D01*
X15181Y9568D01*
X15282Y9526D01*
X15390Y9511D01*
X15498Y9526D01*
X15599Y9568D01*
X15686Y9634D01*
X15752Y9721D01*
X15794Y9822D01*
X15809Y9930D01*
X15794Y10038D01*
X15752Y10139D01*
X15686Y10226D01*
X15599Y10292D01*
X15498Y10334D01*
X15390Y10349D01*
X15282Y10334D01*
X15181Y10292D01*
X15094Y10226D01*
X15028Y10139D01*
X14986Y10038D01*
X14978Y9979D01*
X14934Y9970D01*
X14885Y9937D01*
X14762Y9814D01*
X14729Y9764D01*
X14717Y9706D01*
Y9493D01*
X14627Y9403D01*
X14580Y9427D01*
X14583Y9440D01*
Y10972D01*
X14610Y10990D01*
X14665Y11072D01*
X14685Y11170D01*
Y11707D01*
X14667Y11797D01*
X14692Y11831D01*
X14734Y11932D01*
X14749Y12040D01*
X14734Y12148D01*
X14692Y12249D01*
X14626Y12336D01*
X14539Y12402D01*
X14438Y12444D01*
X14330Y12459D01*
X14222Y12444D01*
X14121Y12402D01*
X14034Y12336D01*
X13968Y12249D01*
X13926Y12148D01*
X13911Y12040D01*
X13926Y11932D01*
X13968Y11831D01*
X14034Y11744D01*
X14121Y11678D01*
X14154Y11664D01*
X14158Y11646D01*
X14175Y11620D01*
Y11170D01*
X14195Y11072D01*
X14250Y10990D01*
X14277Y10972D01*
Y9512D01*
X13506D01*
X13460Y9521D01*
X13007D01*
X12945Y9509D01*
X12892Y9474D01*
X12857Y9421D01*
X12845Y9359D01*
X12857Y9297D01*
X12881Y9261D01*
X12857Y9224D01*
X12845Y9162D01*
X12857Y9100D01*
X12881Y9064D01*
X12857Y9027D01*
X12845Y8965D01*
X12857Y8903D01*
X12881Y8867D01*
X12857Y8830D01*
X12845Y8768D01*
X12857Y8706D01*
X12881Y8670D01*
X12857Y8634D01*
X12845Y8572D01*
X12857Y8510D01*
X12881Y8473D01*
X12857Y8437D01*
X12845Y8375D01*
X12857Y8313D01*
X12881Y8276D01*
X12857Y8240D01*
X12845Y8178D01*
X12857Y8116D01*
X12881Y8079D01*
X12857Y8043D01*
X12845Y7981D01*
X12857Y7919D01*
X12867Y7905D01*
X12858Y7890D01*
X12805Y7899D01*
X12801Y7919D01*
X12768Y7968D01*
X12483Y8253D01*
Y9377D01*
X12706Y9600D01*
X12961D01*
X13007Y9591D01*
X13460D01*
X13522Y9603D01*
X13550Y9622D01*
X13821D01*
X13880Y9633D01*
X13930Y9667D01*
X13988Y9725D01*
X14021Y9775D01*
X14033Y9833D01*
Y9988D01*
X14167D01*
Y10582D01*
X13593D01*
Y9988D01*
X13727D01*
Y9928D01*
X13487D01*
X13428Y9916D01*
X13426Y9915D01*
X13007D01*
X12961Y9906D01*
X12712D01*
X12707Y9956D01*
X12715Y9957D01*
X12767Y9992D01*
X12802Y10045D01*
X12815Y10107D01*
Y10560D01*
X12806Y10606D01*
Y11797D01*
X12834Y11816D01*
X12854Y11836D01*
X12915D01*
Y11625D01*
X13745D01*
Y12455D01*
X12915D01*
Y12244D01*
X12770D01*
X12692Y12228D01*
X12626Y12184D01*
X12546Y12104D01*
X12502Y12038D01*
X12486Y11960D01*
X12500Y11891D01*
Y10753D01*
X12461Y10721D01*
X12456Y10722D01*
X12394Y10710D01*
X12357Y10685D01*
X12321Y10710D01*
X12259Y10722D01*
X12197Y10710D01*
X12161Y10685D01*
X12124Y10710D01*
X12062Y10722D01*
X12000Y10710D01*
X11964Y10685D01*
X11927Y10710D01*
X11865Y10722D01*
X11803Y10710D01*
X11767Y10685D01*
X11730Y10710D01*
X11668Y10722D01*
X11606Y10710D01*
X11570Y10685D01*
X11534Y10710D01*
X11472Y10722D01*
X11466Y10721D01*
X11428Y10753D01*
Y11098D01*
X11567D01*
Y11692D01*
X10993D01*
Y11098D01*
X11122D01*
Y10753D01*
X11083Y10721D01*
X11078Y10722D01*
X11016Y10710D01*
X10979Y10685D01*
X10943Y10710D01*
X10881Y10722D01*
X10819Y10710D01*
X10766Y10674D01*
X10731Y10622D01*
X10719Y10560D01*
Y10107D01*
X10726Y10071D01*
X10680Y10046D01*
X10644Y10082D01*
X10649Y10107D01*
Y10560D01*
X10640Y10606D01*
Y11088D01*
X10757D01*
Y11682D01*
X10183D01*
Y11589D01*
X10104D01*
Y12396D01*
X10114Y12406D01*
X11461D01*
X11539Y12422D01*
X11605Y12466D01*
X11779Y12641D01*
X11824Y12707D01*
X11839Y12785D01*
Y13133D01*
X11932D01*
Y13165D01*
X17834D01*
X18017Y12982D01*
Y12765D01*
X17916D01*
Y11975D01*
X18628D01*
X18628Y11975D01*
Y11975D01*
X18641Y11958D01*
X18648Y11948D01*
X18660Y11940D01*
X18681Y11926D01*
X18720Y11918D01*
X18773D01*
Y11674D01*
X18784Y11596D01*
X18814Y11523D01*
X18862Y11460D01*
X18886Y11436D01*
X18949Y11388D01*
X19022Y11358D01*
X19094Y11348D01*
X19160Y11335D01*
X19638D01*
Y11070D01*
X19631Y11059D01*
X19611Y10961D01*
Y10640D01*
X19569D01*
Y9062D01*
X20163D01*
Y10640D01*
X20121D01*
Y10733D01*
X20232D01*
Y11303D01*
Y11877D01*
X19638D01*
Y11845D01*
X19378D01*
Y11918D01*
X19440D01*
X19479Y11926D01*
X19512Y11948D01*
X21852Y14288D01*
X21913Y14289D01*
X21997Y14205D01*
X22422D01*
X22635Y14418D01*
Y14842D01*
X22422Y15055D01*
X21997D01*
X21928Y14986D01*
X21882Y15005D01*
Y15995D01*
X21928Y16014D01*
X22037Y15905D01*
X22462D01*
X22675Y16118D01*
Y16543D01*
X22462Y16755D01*
X22037D01*
X21916Y16634D01*
X21853Y16641D01*
X21852Y16642D01*
X21819Y16664D01*
X21780Y16672D01*
X20352Y16672D01*
X19992Y17032D01*
Y17723D01*
X20031Y17754D01*
X20050Y17751D01*
X20138Y17768D01*
X20212Y17818D01*
X20262Y17892D01*
X20279Y17980D01*
X20262Y18068D01*
X20212Y18142D01*
X20138Y18192D01*
X20050Y18209D01*
X20031Y18206D01*
X19992Y18237D01*
Y19610D01*
X19984Y19649D01*
X19962Y19682D01*
X19942Y19702D01*
X19923Y19715D01*
X19934Y19765D01*
X19974Y19764D01*
X19984Y19764D01*
X20726D01*
Y20436D01*
X20484D01*
Y20563D01*
X20612D01*
Y21314D01*
X19940D01*
Y20563D01*
X20076D01*
Y20436D01*
X19984D01*
X19934Y20437D01*
X19925Y20437D01*
X19747D01*
Y20563D01*
X19864D01*
Y21314D01*
X19191D01*
Y20563D01*
X19339D01*
Y20437D01*
X19183D01*
Y20307D01*
X19110D01*
Y20442D01*
X18358D01*
Y20310D01*
X18280D01*
Y20442D01*
X17528D01*
Y20307D01*
X17444D01*
Y20437D01*
X16693D01*
Y20305D01*
X16588D01*
Y20318D01*
X15778D01*
Y19882D01*
X16588D01*
Y19897D01*
X16693D01*
Y19765D01*
X17444D01*
Y19900D01*
X17528D01*
Y19770D01*
X18280D01*
Y19902D01*
X18358D01*
X18358Y19777D01*
X18356Y19766D01*
X18335Y19729D01*
X18311Y19724D01*
X18278Y19702D01*
X18256Y19669D01*
X18248Y19630D01*
Y18980D01*
X18198Y18948D01*
X18180Y18952D01*
X17720D01*
X17681Y18944D01*
X17655Y18927D01*
X17048D01*
Y18814D01*
X16588D01*
Y18818D01*
X15778D01*
Y18382D01*
X16588D01*
Y18406D01*
X17048D01*
Y18353D01*
X17608D01*
Y18292D01*
X16050Y16735D01*
X15530D01*
X14482Y17782D01*
Y18710D01*
X14474Y18749D01*
X14462Y18767D01*
Y18818D01*
X14453D01*
X14430Y18862D01*
X14445Y18882D01*
X14462D01*
Y18928D01*
X14464Y18931D01*
X14472Y18970D01*
Y19240D01*
X14464Y19279D01*
X14462Y19282D01*
Y19318D01*
X14433D01*
X14409Y19334D01*
X14370Y19342D01*
X13692D01*
X13582Y19452D01*
Y20710D01*
X13574Y20749D01*
X13552Y20782D01*
X13519Y20804D01*
X13480Y20812D01*
X12832D01*
X12642Y21002D01*
X12609Y21024D01*
X12570Y21032D01*
X10002D01*
X9762Y21272D01*
Y22213D01*
X22226D01*
X22436Y22185D01*
D02*
G37*
G36*
X9660Y21230D02*
X9960Y20930D01*
X12570D01*
X12790Y20710D01*
X13480D01*
Y19410D01*
X13650Y19240D01*
X14370D01*
Y18970D01*
X14360Y18960D01*
X13030Y18960D01*
X12190Y18120D01*
X8650Y18120D01*
X8470Y18300D01*
Y19200D01*
X7870Y19800D01*
Y22190D01*
X7880Y22200D01*
X7870Y22210D01*
X7880Y22220D01*
X9660D01*
Y21230D01*
D02*
G37*
G36*
X2820Y22200D02*
X7500D01*
X7500Y19980D01*
X8250Y19230D01*
X8250Y18360D01*
X8000Y18110D01*
X5580Y18110D01*
X5440Y18250D01*
Y20940D01*
X5360Y21020D01*
X2890D01*
X2800Y21110D01*
Y22220D01*
X2820Y22200D01*
D02*
G37*
G36*
X5250Y20650D02*
X5250Y17890D01*
X5140Y17780D01*
X120Y17780D01*
X110Y17790D01*
Y19540D01*
X2530D01*
X2790Y19800D01*
Y20730D01*
X2840Y20780D01*
X5120D01*
X5250Y20650D01*
D02*
G37*
G36*
X18180Y18240D02*
X16450Y16510D01*
Y15190D01*
X15750Y14490D01*
Y14360D01*
X15580Y14190D01*
X13770D01*
X13760Y14180D01*
X13550Y14390D01*
Y16430D01*
X11090D01*
X10900Y16620D01*
Y17830D01*
X11010Y17940D01*
X12910D01*
X13160Y18190D01*
Y18630D01*
X13250Y18720D01*
X14370D01*
X14380Y18710D01*
Y17740D01*
X15487Y16633D01*
X16093D01*
X17710Y18250D01*
Y18840D01*
X17720Y18850D01*
X18180D01*
Y18240D01*
D02*
G37*
G36*
X19877Y19623D02*
X19883Y19617D01*
X19888Y19609D01*
X19890Y19600D01*
Y18237D01*
Y17723D01*
Y17032D01*
Y16990D01*
X19920Y16960D01*
X20280Y16600D01*
X20310Y16570D01*
X21770Y16570D01*
X21779Y16568D01*
X21780Y16568D01*
Y15995D01*
Y15005D01*
Y14360D01*
X20851Y13431D01*
X20826Y13414D01*
X20809Y13389D01*
X19447Y12027D01*
X19439Y12022D01*
X19430Y12020D01*
X18730D01*
X18721Y12022D01*
X18720Y12022D01*
Y13430D01*
X17870Y14280D01*
Y16330D01*
X18350Y16810D01*
Y19620D01*
X18352Y19628D01*
X18355Y19629D01*
X18358Y19630D01*
X19866D01*
X19877Y19623D01*
D02*
G37*
%LPC*%
G36*
X14462Y20318D02*
X13652D01*
Y19882D01*
X14462D01*
Y20318D01*
D02*
G37*
G36*
X21840Y21542D02*
X21666Y21525D01*
X21499Y21474D01*
X21345Y21391D01*
X21209Y21281D01*
X21099Y21145D01*
X21016Y20991D01*
X20965Y20824D01*
X20948Y20650D01*
X20965Y20476D01*
X21016Y20309D01*
X21099Y20155D01*
X21209Y20019D01*
X21345Y19909D01*
X21499Y19826D01*
X21666Y19775D01*
X21840Y19758D01*
X22014Y19775D01*
X22181Y19826D01*
X22335Y19909D01*
X22471Y20019D01*
X22581Y20155D01*
X22664Y20309D01*
X22715Y20476D01*
X22732Y20650D01*
X22715Y20824D01*
X22664Y20991D01*
X22581Y21145D01*
X22471Y21281D01*
X22335Y21391D01*
X22181Y21474D01*
X22014Y21525D01*
X21840Y21542D01*
D02*
G37*
G36*
X16588Y19818D02*
X15778D01*
Y19382D01*
X16588D01*
Y19818D01*
D02*
G37*
G36*
Y19318D02*
X15778D01*
Y18882D01*
X16588D01*
Y19318D01*
D02*
G37*
G36*
X23450Y18437D02*
Y18260D01*
X23627D01*
X23621Y18274D01*
X23553Y18363D01*
X23464Y18431D01*
X23450Y18437D01*
D02*
G37*
G36*
X23050D02*
X23036Y18431D01*
X22947Y18363D01*
X22879Y18274D01*
X22873Y18260D01*
X23050D01*
Y18437D01*
D02*
G37*
G36*
X23627Y17860D02*
X23450D01*
Y17683D01*
X23464Y17689D01*
X23553Y17757D01*
X23621Y17846D01*
X23627Y17860D01*
D02*
G37*
G36*
X23050D02*
X22873D01*
X22879Y17846D01*
X22947Y17757D01*
X23036Y17689D01*
X23050Y17683D01*
Y17860D01*
D02*
G37*
G36*
X22462Y18485D02*
X22037D01*
X21825Y18273D01*
Y17847D01*
X22037Y17635D01*
X22462D01*
X22675Y17847D01*
Y18273D01*
X22462Y18485D01*
D02*
G37*
G36*
X3529Y17569D02*
Y17260D01*
X3938D01*
X3914Y17319D01*
X3831Y17426D01*
X3724Y17508D01*
X3599Y17560D01*
X3529Y17569D01*
D02*
G37*
G36*
X3129D02*
X3058Y17560D01*
X2933Y17508D01*
X2826Y17426D01*
X2744Y17319D01*
X2719Y17260D01*
X3129D01*
Y17569D01*
D02*
G37*
G36*
X3938Y16860D02*
X3529D01*
Y16551D01*
X3599Y16560D01*
X3724Y16612D01*
X3831Y16694D01*
X3914Y16801D01*
X3938Y16860D01*
D02*
G37*
G36*
X3129D02*
X2719D01*
X2744Y16801D01*
X2826Y16694D01*
X2933Y16612D01*
X3058Y16560D01*
X3129Y16551D01*
Y16860D01*
D02*
G37*
G36*
X23450Y16707D02*
Y16530D01*
X23627D01*
X23621Y16544D01*
X23553Y16633D01*
X23464Y16701D01*
X23450Y16707D01*
D02*
G37*
G36*
X23050D02*
X23036Y16701D01*
X22947Y16633D01*
X22879Y16544D01*
X22873Y16530D01*
X23050D01*
Y16707D01*
D02*
G37*
G36*
X23627Y16130D02*
X23450D01*
Y15953D01*
X23464Y15959D01*
X23553Y16027D01*
X23621Y16116D01*
X23627Y16130D01*
D02*
G37*
G36*
X23050D02*
X22873D01*
X22879Y16116D01*
X22947Y16027D01*
X23036Y15959D01*
X23050Y15953D01*
Y16130D01*
D02*
G37*
G36*
X23410Y15007D02*
Y14830D01*
X23587D01*
X23581Y14844D01*
X23513Y14933D01*
X23424Y15001D01*
X23410Y15007D01*
D02*
G37*
G36*
X23010D02*
X22996Y15001D01*
X22907Y14933D01*
X22839Y14844D01*
X22833Y14830D01*
X23010D01*
Y15007D01*
D02*
G37*
G36*
X23587Y14430D02*
X23410D01*
Y14253D01*
X23424Y14259D01*
X23513Y14327D01*
X23581Y14416D01*
X23587Y14430D01*
D02*
G37*
G36*
X23010D02*
X22833D01*
X22839Y14416D01*
X22907Y14327D01*
X22996Y14259D01*
X23010Y14253D01*
Y14430D01*
D02*
G37*
G36*
X3549Y12623D02*
Y12350D01*
X3821D01*
X3797Y12409D01*
X3715Y12516D01*
X3607Y12598D01*
X3549Y12623D01*
D02*
G37*
G36*
X3149D02*
X3090Y12598D01*
X2982Y12516D01*
X2900Y12409D01*
X2876Y12350D01*
X3149D01*
Y12623D01*
D02*
G37*
G36*
X15530Y12406D02*
Y12240D01*
X15696D01*
X15692Y12249D01*
X15626Y12336D01*
X15539Y12402D01*
X15530Y12406D01*
D02*
G37*
G36*
X15130D02*
X15121Y12402D01*
X15034Y12336D01*
X14968Y12249D01*
X14964Y12240D01*
X15130D01*
Y12406D01*
D02*
G37*
G36*
X23218Y12332D02*
X22822D01*
Y11915D01*
X23218D01*
Y12332D01*
D02*
G37*
G36*
X3821Y11950D02*
X3549D01*
Y11677D01*
X3607Y11702D01*
X3715Y11784D01*
X3797Y11891D01*
X3821Y11950D01*
D02*
G37*
G36*
X3149D02*
X2876D01*
X2900Y11891D01*
X2982Y11784D01*
X3090Y11702D01*
X3149Y11677D01*
Y11950D01*
D02*
G37*
G36*
X15696Y11840D02*
X15530D01*
Y11674D01*
X15539Y11678D01*
X15626Y11744D01*
X15692Y11831D01*
X15696Y11840D01*
D02*
G37*
G36*
X15130D02*
X14964D01*
X14968Y11831D01*
X15034Y11744D01*
X15121Y11678D01*
X15130Y11674D01*
Y11840D01*
D02*
G37*
G36*
X15590Y11296D02*
Y11130D01*
X15756D01*
X15752Y11139D01*
X15686Y11226D01*
X15599Y11292D01*
X15590Y11296D01*
D02*
G37*
G36*
X15190D02*
X15181Y11292D01*
X15094Y11226D01*
X15028Y11139D01*
X15024Y11130D01*
X15190D01*
Y11296D01*
D02*
G37*
G36*
X15756Y10730D02*
X15590D01*
Y10564D01*
X15599Y10568D01*
X15686Y10634D01*
X15752Y10721D01*
X15756Y10730D01*
D02*
G37*
G36*
X15190D02*
X15024D01*
X15028Y10721D01*
X15094Y10634D01*
X15181Y10568D01*
X15190Y10564D01*
Y10730D01*
D02*
G37*
G36*
X3349Y11168D02*
X3215Y11150D01*
X3090Y11098D01*
X2982Y11016D01*
X2900Y10909D01*
X2848Y10784D01*
X2831Y10650D01*
X2848Y10516D01*
X2900Y10391D01*
X2982Y10284D01*
X3090Y10202D01*
X3215Y10150D01*
X3349Y10132D01*
X3483Y10150D01*
X3607Y10202D01*
X3715Y10284D01*
X3797Y10391D01*
X3849Y10516D01*
X3866Y10650D01*
X3849Y10784D01*
X3797Y10909D01*
X3715Y11016D01*
X3607Y11098D01*
X3483Y11150D01*
X3349Y11168D01*
D02*
G37*
G36*
X23218Y11564D02*
X22822D01*
Y11295D01*
X22816Y11267D01*
Y11188D01*
X22812Y11168D01*
Y10640D01*
X22719D01*
Y9062D01*
X23313D01*
Y10640D01*
X23220D01*
Y11151D01*
X23224Y11172D01*
Y11267D01*
X23218Y11295D01*
Y11564D01*
D02*
G37*
G36*
X21738Y10640D02*
X21144D01*
Y9062D01*
X21738D01*
Y10640D01*
D02*
G37*
G36*
X20951D02*
X20357D01*
Y9062D01*
X20951D01*
Y10640D01*
D02*
G37*
G36*
X18588D02*
X17995D01*
Y9062D01*
X18588D01*
Y10640D01*
D02*
G37*
G36*
X17801D02*
X17207D01*
Y9062D01*
X17801D01*
Y10640D01*
D02*
G37*
G36*
X6500Y14380D02*
X6178D01*
X6179Y7545D01*
X6500Y7555D01*
X6500Y14380D01*
D02*
G37*
G36*
X3479Y7483D02*
Y7210D01*
X3751D01*
X3727Y7269D01*
X3645Y7376D01*
X3537Y7458D01*
X3479Y7483D01*
D02*
G37*
G36*
X3079D02*
X3020Y7458D01*
X2912Y7376D01*
X2830Y7269D01*
X2806Y7210D01*
X3079D01*
Y7483D01*
D02*
G37*
G36*
X3751Y6810D02*
X3479D01*
Y6537D01*
X3537Y6562D01*
X3645Y6644D01*
X3727Y6751D01*
X3751Y6810D01*
D02*
G37*
G36*
X3079D02*
X2806D01*
X2830Y6751D01*
X2912Y6644D01*
X3020Y6562D01*
X3079Y6537D01*
Y6810D01*
D02*
G37*
G36*
X3279Y6028D02*
X3145Y6010D01*
X3020Y5958D01*
X2912Y5876D01*
X2830Y5769D01*
X2778Y5644D01*
X2761Y5510D01*
X2778Y5376D01*
X2830Y5251D01*
X2912Y5144D01*
X3020Y5062D01*
X3145Y5010D01*
X3279Y4992D01*
X3413Y5010D01*
X3537Y5062D01*
X3645Y5144D01*
X3727Y5251D01*
X3779Y5376D01*
X3796Y5510D01*
X3779Y5644D01*
X3727Y5769D01*
X3645Y5876D01*
X3537Y5958D01*
X3413Y6010D01*
X3279Y6028D01*
D02*
G37*
G36*
X14640Y4866D02*
Y4700D01*
X14806D01*
X14802Y4709D01*
X14736Y4796D01*
X14649Y4862D01*
X14640Y4866D01*
D02*
G37*
G36*
X14240D02*
X14231Y4862D01*
X14144Y4796D01*
X14078Y4709D01*
X14074Y4700D01*
X14240D01*
Y4866D01*
D02*
G37*
G36*
X14806Y4300D02*
X14640D01*
Y4134D01*
X14649Y4138D01*
X14736Y4204D01*
X14802Y4291D01*
X14806Y4300D01*
D02*
G37*
G36*
X14240D02*
X14074D01*
X14078Y4291D01*
X14144Y4204D01*
X14231Y4138D01*
X14240Y4134D01*
Y4300D01*
D02*
G37*
G36*
X5600Y4109D02*
X5541Y4085D01*
X5434Y4003D01*
X5352Y3896D01*
X5300Y3771D01*
X5291Y3700D01*
X5600D01*
Y4109D01*
D02*
G37*
G36*
X22525Y4538D02*
X21932D01*
Y2960D01*
X22525D01*
Y4538D01*
D02*
G37*
G36*
X21890Y2642D02*
X21716Y2625D01*
X21549Y2574D01*
X21395Y2491D01*
X21259Y2381D01*
X21149Y2245D01*
X21066Y2091D01*
X21015Y1924D01*
X20998Y1750D01*
X21015Y1576D01*
X21066Y1409D01*
X21149Y1255D01*
X21259Y1119D01*
X21395Y1009D01*
X21549Y926D01*
X21716Y875D01*
X21890Y858D01*
X22064Y875D01*
X22231Y926D01*
X22385Y1009D01*
X22521Y1119D01*
X22631Y1255D01*
X22714Y1409D01*
X22765Y1576D01*
X22782Y1750D01*
X22765Y1924D01*
X22714Y2091D01*
X22631Y2245D01*
X22521Y2381D01*
X22385Y2491D01*
X22231Y2574D01*
X22064Y2625D01*
X21890Y2642D01*
D02*
G37*
G36*
X1540Y2542D02*
X1366Y2525D01*
X1199Y2474D01*
X1045Y2391D01*
X909Y2281D01*
X799Y2145D01*
X716Y1991D01*
X665Y1824D01*
X648Y1650D01*
X665Y1476D01*
X716Y1309D01*
X799Y1155D01*
X909Y1019D01*
X1045Y909D01*
X1199Y826D01*
X1366Y775D01*
X1540Y758D01*
X1714Y775D01*
X1881Y826D01*
X2035Y909D01*
X2171Y1019D01*
X2281Y1155D01*
X2364Y1309D01*
X2415Y1476D01*
X2432Y1650D01*
X2415Y1824D01*
X2364Y1991D01*
X2281Y2145D01*
X2171Y2281D01*
X2035Y2391D01*
X1881Y2474D01*
X1714Y2525D01*
X1540Y2542D01*
D02*
G37*
G36*
X3979Y19073D02*
X3529D01*
Y18760D01*
X3979D01*
Y19073D01*
D02*
G37*
G36*
X3129D02*
X2679D01*
Y18760D01*
X3129D01*
Y19073D01*
D02*
G37*
G36*
X3979Y18360D02*
X3529D01*
Y18047D01*
X3979D01*
Y18360D01*
D02*
G37*
G36*
X3129D02*
X2679D01*
Y18047D01*
X3129D01*
Y18360D01*
D02*
G37*
%LPD*%
D14*
X15440Y4500D02*
Y5130D01*
X14390Y6180D02*
X15440Y5130D01*
X12680Y6251D02*
X12751Y6180D01*
X14390D01*
X19830Y6970D02*
X21170Y5630D01*
X17670Y6970D02*
X19830D01*
X17182Y8178D02*
X18647D01*
X19079Y8610D01*
X8750Y4470D02*
X9470Y5190D01*
X9840D01*
X8750Y3550D02*
X8800Y3500D01*
X8750Y3550D02*
Y4470D01*
X7417Y5090D02*
X8690D01*
X7300Y3500D02*
Y4973D01*
X7417Y5090D01*
X8690D02*
X9180Y5580D01*
X4570Y10250D02*
Y13450D01*
Y8750D02*
Y10250D01*
X7080Y12170D02*
Y12428D01*
X7197Y12545D02*
X7620D01*
X7080Y12428D02*
X7197Y12545D01*
X7070Y12160D02*
X7080Y12170D01*
X4080Y6900D02*
X4570Y7390D01*
Y8750D01*
X3329Y6900D02*
X4080D01*
X7620Y13370D02*
X7670Y13420D01*
X7620Y12545D02*
Y13370D01*
X9900Y11500D02*
X9961Y11439D01*
X10015Y11385D02*
X10470D01*
X9961Y11439D02*
X10015Y11385D01*
X9900Y11500D02*
Y12480D01*
X10030Y12610D01*
X11461D01*
X11635Y12785D01*
Y13420D01*
X9000Y11960D02*
Y12930D01*
X9490Y13420D01*
X10190D02*
X11045D01*
X10072D02*
X10190D01*
X9490D02*
X10072D01*
X7620Y11955D02*
X9000D01*
X20280Y20170D02*
X20350Y20100D01*
X20276Y20939D02*
X20280Y20934D01*
Y20170D02*
Y20934D01*
X19556Y20103D02*
X19559Y20101D01*
X19543Y20117D02*
X19556Y20103D01*
X19543Y20117D02*
Y20923D01*
X19528Y20939D02*
X19543Y20923D01*
X18734Y20106D02*
X18736Y20103D01*
X19556D01*
X17904Y20106D02*
X18734D01*
X17069Y20101D02*
X17071Y20103D01*
X17902D01*
X17904Y20106D01*
X16183Y20100D02*
X16184Y20101D01*
X17068D01*
X17069Y20101D01*
X11654Y3986D02*
X12220Y3420D01*
X11065Y2265D02*
X12110Y1220D01*
X11410Y2840D02*
X12470Y1780D01*
X11720Y3320D02*
X12730Y2310D01*
X12770Y12040D02*
X13330D01*
X12690Y11960D02*
X12770Y12040D01*
X7130Y6090D02*
X8500D01*
X6830Y6870D02*
X7190D01*
X21930Y11560D02*
Y12460D01*
X22100Y12630D01*
X21930Y11020D02*
Y11560D01*
X22090Y11720D01*
X22100Y12630D02*
X23297D01*
X23414Y11720D02*
Y12513D01*
X23297Y12630D02*
X23414Y12513D01*
X21930Y11020D02*
X22050D01*
X20525D02*
X21930D01*
X22090Y11720D02*
X22626D01*
X23016Y9851D02*
Y11168D01*
X23020Y11172D01*
Y11267D01*
X22229Y9851D02*
Y10841D01*
X22050Y11020D02*
X22229Y10841D01*
X20525Y11020D02*
Y11590D01*
X17295Y18610D02*
X17335Y18650D01*
X16553Y18610D02*
X17295D01*
X7628Y7442D02*
X7635Y7450D01*
X18734Y19358D02*
X18736Y19355D01*
X19556D01*
X19559Y19353D01*
X17069D02*
X17071Y19355D01*
X17902D01*
X17904Y19358D01*
X7909Y9511D02*
Y10210D01*
X7031Y8493D02*
Y8829D01*
Y8156D02*
Y8493D01*
X7025Y8150D02*
X7031Y8156D01*
X7903Y9505D02*
X7909Y9511D01*
X7031Y8829D02*
X7037Y8835D01*
D17*
X12259Y5291D02*
X12460Y5090D01*
X13490Y4550D02*
Y5031D01*
X13431Y5090D02*
X13490Y5031D01*
X12460Y5090D02*
X13431D01*
X12062Y4878D02*
Y7007D01*
Y4878D02*
X12440Y4500D01*
X13440D02*
X13490Y4550D01*
X12259Y5291D02*
Y7007D01*
X12653Y6251D02*
Y7007D01*
X7625Y7530D02*
X8020D01*
X13233Y9753D02*
X13465D01*
X12643D02*
X13233D01*
X16659Y7981D02*
X17670Y6970D01*
X13233Y7981D02*
X16659D01*
X13233Y8178D02*
X17182D01*
X14208Y8768D02*
X14870Y9430D01*
Y9706D02*
X14993Y9829D01*
X14870Y9430D02*
Y9706D01*
X14983Y8930D02*
X15390D01*
X14625Y8572D02*
X14983Y8930D01*
X15289Y9829D02*
X15390Y9930D01*
X14993Y9829D02*
X15289D01*
X9840Y5190D02*
X10487Y5837D01*
Y7007D01*
X9200Y5600D02*
Y7410D01*
X9180Y5580D02*
X9200Y5600D01*
X9377Y7587D02*
X9907D01*
X9200Y7410D02*
X9377Y7587D01*
X19400Y17980D02*
X20050D01*
X19360Y18020D02*
X19400Y17980D01*
X10708Y9462D02*
X11048D01*
X12330D01*
X10487Y10333D02*
X10491Y10330D01*
Y10019D02*
Y10330D01*
Y10019D02*
X11048Y9462D01*
X10487Y10333D02*
Y11367D01*
X13487Y9775D02*
X13821D01*
X13880Y9833D02*
Y10285D01*
X13821Y9775D02*
X13880Y9833D01*
X13465Y9753D02*
X13487Y9775D01*
X7037Y9505D02*
X7903Y8835D01*
X9000Y8460D02*
X9041D01*
X9152Y8572D01*
X9907D01*
X8453Y8493D02*
X8728Y8768D01*
X7031Y8493D02*
X8453D01*
X8728Y8768D02*
X9907D01*
X15220Y6230D02*
Y6499D01*
X13935Y7784D02*
X15220Y6499D01*
X13233Y7784D02*
X13935D01*
X13743Y7587D02*
X14450Y6880D01*
X13233Y7587D02*
X13743D01*
X14430Y9440D02*
Y11170D01*
X14349Y9359D02*
X14430Y9440D01*
X11270Y4370D02*
X11654Y3986D01*
X10684Y2646D02*
X11065Y2265D01*
X10890Y3360D02*
X11410Y2840D01*
X11078Y3962D02*
X11720Y3320D01*
X11271Y7003D02*
X11275Y7007D01*
X11271Y6764D02*
Y7003D01*
X11270Y6763D02*
X11271Y6764D01*
X11270Y4370D02*
Y6763D01*
X10890Y3360D02*
Y6902D01*
X11078Y3962D02*
Y7007D01*
X10684Y2646D02*
Y7007D01*
X14224Y8572D02*
X14625D01*
X14224Y8572D02*
X14224Y8572D01*
X13233Y8572D02*
X13233Y8572D01*
X14224D01*
X13233Y8768D02*
X14208D01*
X13233Y9359D02*
X14349D01*
X12653Y11923D02*
X12690Y11960D01*
X12653Y10333D02*
Y11923D01*
X8870Y6460D02*
Y7530D01*
X8500Y6090D02*
X8870Y6460D01*
Y7530D02*
X9124Y7784D01*
X8120Y6870D02*
X8450Y7200D01*
Y7790D01*
X8641Y7981D01*
X7190Y6870D02*
X8120D01*
X9124Y7784D02*
X9907D01*
X8641Y7981D02*
X9907D01*
X7988Y9420D02*
X8860D01*
X8150Y8110D02*
X8218Y8178D01*
X8150Y7660D02*
Y8110D01*
X8020Y7530D02*
X8150Y7660D01*
X8218Y8178D02*
X9907D01*
X10548D01*
X12330Y9462D02*
X12352D01*
X10548Y8178D02*
X10708Y8338D01*
Y9462D01*
X12660Y7558D02*
Y7860D01*
X12330Y8190D02*
X12660Y7860D01*
X12330Y8190D02*
Y9462D01*
X12653Y7550D02*
X12660Y7558D01*
X12653Y7007D02*
Y7550D01*
X12352Y9462D02*
X12643Y9753D01*
X9315Y8965D02*
X9907D01*
X7903Y9505D02*
X7988Y9420D01*
X8860D02*
X9315Y8965D01*
X11275Y10333D02*
Y11389D01*
X11280Y11395D01*
X10470Y11385D02*
X10487Y11367D01*
D24*
X12000Y20538D02*
D03*
Y21640D02*
D03*
X10560D02*
D03*
Y20538D02*
D03*
X9680Y17450D02*
D03*
Y18552D02*
D03*
D25*
X14725Y15450D02*
D03*
X19055Y15450D02*
D03*
D26*
X3560Y21643D02*
D03*
Y19950D02*
D03*
D27*
X12680Y5660D02*
D03*
Y6251D02*
D03*
X13880Y10875D02*
D03*
Y10285D02*
D03*
X11280Y11985D02*
D03*
Y11395D02*
D03*
X10470Y11975D02*
D03*
Y11385D02*
D03*
X7620Y11955D02*
D03*
Y12545D02*
D03*
D28*
X17504Y3749D02*
D03*
X18291D02*
D03*
X19079D02*
D03*
X19866D02*
D03*
X20654D02*
D03*
X21441D02*
D03*
X22229D02*
D03*
X23016D02*
D03*
Y9851D02*
D03*
X22229D02*
D03*
X21441D02*
D03*
X20654D02*
D03*
X19866D02*
D03*
X19079D02*
D03*
X18291D02*
D03*
X17504D02*
D03*
D29*
X23020Y11267D02*
D03*
D30*
X22626Y11720D02*
D03*
X23414D02*
D03*
D31*
X23020Y12124D02*
D03*
D32*
X19935Y11020D02*
D03*
X20525D02*
D03*
X19935Y11590D02*
D03*
X20525D02*
D03*
X17935Y18640D02*
D03*
X17345D02*
D03*
X11635Y13420D02*
D03*
X11045D02*
D03*
X7335Y10210D02*
D03*
X7925D02*
D03*
X7045Y7450D02*
D03*
X7635D02*
D03*
X7615Y8150D02*
D03*
X7025D02*
D03*
D33*
X18272Y12370D02*
D03*
X19020D02*
D03*
D34*
X21030Y15390D02*
D03*
Y17870D02*
D03*
D35*
X20350Y20100D02*
D03*
Y19352D02*
D03*
X19559Y20101D02*
D03*
Y19353D02*
D03*
X18734Y20106D02*
D03*
Y19358D02*
D03*
X17904Y20106D02*
D03*
Y19358D02*
D03*
X17069Y20101D02*
D03*
Y19353D02*
D03*
X13170Y20450D02*
D03*
Y21198D02*
D03*
D36*
X19528Y20939D02*
D03*
X20276D02*
D03*
D37*
X14057Y18600D02*
D03*
Y19100D02*
D03*
Y19600D02*
D03*
Y20100D02*
D03*
X16183D02*
D03*
Y19600D02*
D03*
Y19100D02*
D03*
Y18600D02*
D03*
D38*
X8800Y20690D02*
D03*
X6056D02*
D03*
D39*
X12250Y14576D02*
D03*
Y17320D02*
D03*
D40*
X7460Y18650D02*
D03*
Y17331D02*
D03*
D41*
X6340Y17439D02*
D03*
Y18561D02*
D03*
D42*
X4680Y15010D02*
D03*
X6280D02*
D03*
D43*
X10190Y13420D02*
D03*
X7670D02*
D03*
D44*
X10487Y10333D02*
D03*
X10684D02*
D03*
X10881D02*
D03*
X11078D02*
D03*
X11275D02*
D03*
X11472D02*
D03*
X11668D02*
D03*
X11865D02*
D03*
X12062D02*
D03*
X12259D02*
D03*
X12456D02*
D03*
X12653D02*
D03*
Y7007D02*
D03*
X12456D02*
D03*
X12259D02*
D03*
X12062D02*
D03*
X11865D02*
D03*
X11668D02*
D03*
X11472D02*
D03*
X11275D02*
D03*
X11078D02*
D03*
X10881D02*
D03*
X10684D02*
D03*
X10487D02*
D03*
D45*
X13233Y9753D02*
D03*
Y9556D02*
D03*
Y9359D02*
D03*
Y9162D02*
D03*
Y8965D02*
D03*
Y8768D02*
D03*
Y8572D02*
D03*
Y8375D02*
D03*
Y8178D02*
D03*
Y7981D02*
D03*
Y7784D02*
D03*
Y7587D02*
D03*
X9907D02*
D03*
Y7784D02*
D03*
Y7981D02*
D03*
Y8178D02*
D03*
Y8375D02*
D03*
Y8572D02*
D03*
Y8768D02*
D03*
Y8965D02*
D03*
Y9162D02*
D03*
Y9359D02*
D03*
Y9556D02*
D03*
Y9753D02*
D03*
D46*
X7037Y8835D02*
D03*
X7903D02*
D03*
Y9505D02*
D03*
X7037D02*
D03*
D81*
X15120Y19350D02*
D03*
D82*
X17410Y4960D02*
X18903D01*
X12220Y3420D02*
X15870D01*
X17410Y4960D01*
X19079Y8610D02*
Y9851D01*
X18272Y12370D02*
Y13088D01*
X11635Y13420D02*
X17940D01*
X18272Y13088D01*
X14393Y11744D02*
Y11977D01*
Y11744D02*
X14430Y11707D01*
X14330Y12040D02*
X14393Y11977D01*
X14430Y11170D02*
Y11707D01*
X19866Y1956D02*
Y3749D01*
X12470Y1780D02*
X19691D01*
X19866Y1956D01*
X12110Y1220D02*
X19930D01*
X20654Y1944D01*
X19079Y3749D02*
Y4784D01*
X18903Y4960D02*
X19079Y4784D01*
X21170Y5630D02*
X21441Y5359D01*
Y3749D02*
Y5359D01*
X18291Y2441D02*
Y3749D01*
X12730Y2310D02*
X18160D01*
X18291Y2441D01*
X20654Y1944D02*
Y3749D01*
X19866Y9851D02*
Y10961D01*
X19930Y11025D01*
Y11585D01*
X19925Y11590D02*
X19930Y11585D01*
X19160Y11590D02*
X19925D01*
X19100Y11650D02*
X19160Y11590D01*
D83*
X2054Y8400D02*
X3329D01*
X1770Y8684D02*
X2054Y8400D01*
X1770Y3960D02*
Y8684D01*
X1760Y8694D02*
X1770Y8684D01*
X2440Y3290D02*
X4340D01*
X1770Y3960D02*
X2440Y3290D01*
X1760Y13590D02*
Y14746D01*
Y8694D02*
Y13590D01*
X3289D01*
X6280Y15010D02*
X8270D01*
X8550Y15290D01*
X9565Y18437D02*
X9680Y18552D01*
X8550Y18110D02*
X8877Y18437D01*
X9565D01*
X8550Y15290D02*
Y18110D01*
X4570Y13450D02*
X7640D01*
X7670Y13420D01*
X3329Y14980D02*
X3344Y14995D01*
X4665D01*
X4680Y15010D01*
X5600Y6090D02*
X7130D01*
X5524Y6870D02*
X6830D01*
X5290Y7104D02*
X5524Y6870D01*
X5290Y7104D02*
Y11210D01*
X1994Y14980D02*
X3329D01*
X1760Y14746D02*
X1994Y14980D01*
X19076Y11674D02*
Y12314D01*
Y11674D02*
X19100Y11650D01*
X19020Y12370D02*
X19076Y12314D01*
X19020Y15415D02*
X19055Y15450D01*
X19020Y12370D02*
Y15415D01*
X7399Y17270D02*
X7460Y17331D01*
X6425Y17270D02*
X7399D01*
X6340Y17355D02*
Y17439D01*
Y17355D02*
X6425Y17270D01*
D84*
X3279Y8510D02*
D03*
X3349Y13650D02*
D03*
D85*
X3279Y7010D02*
D03*
Y5510D02*
D03*
X3349Y12150D02*
D03*
Y10650D02*
D03*
D86*
X12440Y4500D02*
D03*
X13440D02*
D03*
X14440D02*
D03*
X15390Y9930D02*
D03*
Y10930D02*
D03*
X14330Y12040D02*
D03*
X15330D02*
D03*
D87*
X15440Y4500D02*
D03*
X13330Y12040D02*
D03*
D88*
X15390Y8930D02*
D03*
D89*
X22210Y14630D02*
D03*
X22250Y16330D02*
D03*
Y18060D02*
D03*
D90*
X23210Y14630D02*
D03*
X23250Y16330D02*
D03*
Y18060D02*
D03*
D91*
X3329Y17060D02*
D03*
D92*
Y18560D02*
D03*
D93*
X4300Y3500D02*
D03*
D94*
X5800D02*
D03*
X7300D02*
D03*
X8800D02*
D03*
D95*
X21340Y1550D02*
D03*
X22090Y1200D02*
D03*
X21643Y1220D02*
D03*
X21360Y1997D02*
D03*
X21690Y2300D02*
D03*
X22440Y1950D02*
D03*
X22137Y2280D02*
D03*
X2090Y20850D02*
D03*
X1787Y21180D02*
D03*
X1340Y21200D02*
D03*
X1010Y20897D02*
D03*
X990Y20450D02*
D03*
X1293Y20120D02*
D03*
X1740Y20100D02*
D03*
X2070Y20403D02*
D03*
X22390Y20850D02*
D03*
X22087Y21180D02*
D03*
X21640Y21200D02*
D03*
X21310Y20897D02*
D03*
X21290Y20450D02*
D03*
X21593Y20120D02*
D03*
X22040Y20100D02*
D03*
X22370Y20403D02*
D03*
X22420Y1503D02*
D03*
X2070Y1403D02*
D03*
X1740Y1100D02*
D03*
X1293Y1120D02*
D03*
X990Y1450D02*
D03*
X1010Y1897D02*
D03*
X1340Y2200D02*
D03*
X1787Y2180D02*
D03*
X2090Y1850D02*
D03*
D96*
X21890Y1750D02*
D03*
X21840Y20650D02*
D03*
X1540D02*
D03*
Y1650D02*
D03*
D97*
X22440Y19270D02*
D03*
Y13270D02*
D03*
Y8770D02*
D03*
Y7270D02*
D03*
Y5770D02*
D03*
Y2770D02*
D03*
X20940Y19270D02*
D03*
Y7270D02*
D03*
Y1270D02*
D03*
X19440Y5770D02*
D03*
Y2770D02*
D03*
X17940Y20770D02*
D03*
Y11770D02*
D03*
Y8770D02*
D03*
Y5770D02*
D03*
X16440Y20770D02*
D03*
Y11770D02*
D03*
Y10270D02*
D03*
Y8770D02*
D03*
Y7270D02*
D03*
Y5770D02*
D03*
Y2770D02*
D03*
X14940Y20770D02*
D03*
Y10270D02*
D03*
Y7270D02*
D03*
Y2770D02*
D03*
X13440Y10270D02*
D03*
Y7270D02*
D03*
Y5770D02*
D03*
Y2770D02*
D03*
X11940Y11770D02*
D03*
Y8770D02*
D03*
Y4270D02*
D03*
X10440Y17770D02*
D03*
Y16270D02*
D03*
Y14770D02*
D03*
Y8770D02*
D03*
Y1270D02*
D03*
X8940Y14770D02*
D03*
Y1270D02*
D03*
X7440Y17770D02*
D03*
Y16270D02*
D03*
Y5770D02*
D03*
Y1270D02*
D03*
X5940Y16270D02*
D03*
Y10270D02*
D03*
Y8770D02*
D03*
Y1270D02*
D03*
X4440Y16270D02*
D03*
Y10270D02*
D03*
Y8770D02*
D03*
Y4270D02*
D03*
Y1270D02*
D03*
X2940Y16270D02*
D03*
Y4270D02*
D03*
Y1270D02*
D03*
X1440Y16270D02*
D03*
X1840Y18000D02*
D03*
X1590D02*
D03*
X1340D02*
D03*
X1090D02*
D03*
X840D02*
D03*
X590D02*
D03*
X340D02*
D03*
X6840Y19500D02*
D03*
Y19250D02*
D03*
X6590Y19500D02*
D03*
Y19250D02*
D03*
X6340Y19500D02*
D03*
Y19250D02*
D03*
X6090Y19500D02*
D03*
Y19250D02*
D03*
D98*
X7070Y12160D02*
D03*
X20050Y17980D02*
D03*
X9000Y11960D02*
D03*
Y8460D02*
D03*
X15220Y6230D02*
D03*
X14450Y6880D02*
D03*
X5600Y6090D02*
D03*
D99*
X14864Y20118D02*
D03*
X15376D02*
D03*
X14864Y19606D02*
D03*
X15376D02*
D03*
X14864Y19094D02*
D03*
X15376D02*
D03*
X14864Y18582D02*
D03*
X15376D02*
D03*
D100*
X5290Y11210D02*
D03*
M02*
