M48
;Layer_Color=9474304
;FILE_FORMAT=2:4
INCH,TZ
;TYPE=PLATED
T1F00S00C0.0079
T2F00S00C0.0150
T3F00S00C0.0197
T4F00S00C0.0400
T5F00S00C0.0433
T6F00S00C0.0551
T7F00S00C0.0787
%
T01
X14864Y18582
Y19094
Y19606
Y20118
X15376
Y19606
Y19094
Y18582
T02
X2940Y1270
X4440
Y4270
X2940
X5940Y1270
X7440
X8940
X10440
X13440Y2770
X14940
X16440
X19440
X11940Y4270
X22440Y2770
X20940Y1270
X22440Y5770
Y7270
Y8770
X20940Y7270
X22440Y13270
Y19270
X20940
X20050Y17980
X17940Y11770
X16440
Y10270
Y8770
X17940
Y5770
X19440
X16440
Y7270
X14940
X14450Y6880
X13440Y7270
Y5770
X15220Y6230
X14940Y10270
X13440
X11940Y11770
Y8770
X10440
X9000Y8460
X5940Y8770
Y10270
X5290Y11210
X7070Y12160
X9000Y11960
X8940Y14770
X10440
Y16270
Y17770
X7440
Y16270
X5940
X6090Y19250
X6340
X6590
X6840
Y19500
X6590
X6340
X6090
X5600Y6090
X7440Y5770
X4440Y8770
Y10270
Y16270
X2940
X1440
X1340Y18000
X1590
X1840
X1090
X840
X590
X340
X14940Y20770
X16440
X17940
T03
X1293Y1120
X1740Y1100
X2070Y1403
X2090Y1850
X1787Y2180
X1340Y2200
X1010Y1897
X990Y1450
X21340Y1550
X21360Y1997
X21690Y2300
X22137Y2280
X22440Y1950
X22420Y1503
X22090Y1200
X21643Y1220
X21593Y20120
X22040Y20100
X22370Y20403
X21290Y20450
X2070Y20403
X1740Y20100
X1293Y20120
X990Y20450
X1010Y20897
X1340Y21200
X1787Y21180
X2090Y20850
X21310Y20897
X21640Y21200
X22087Y21180
X22390Y20850
T04
X22210Y14630
X23210
X23250Y16330
X22250
Y18060
X23250
T05
X12440Y4500
X13440
X14440
X15440
X15390Y8930
Y9930
Y10930
X15330Y12040
X14330
X13330
T06
X4300Y3500
X5800
X7300
X8800
X3279Y5510
Y7010
Y8510
X3349Y10650
Y12150
Y13650
X3329Y17060
Y18560
T07
X1540Y1650
X21890Y1750
X1540Y20650
X21840
M30
