G04*
G04 #@! TF.GenerationSoftware,Altium Limited,Altium Designer,20.2.6 (244)*
G04*
G04 Layer_Color=128*
%FSLAX24Y24*%
%MOIN*%
G70*
G04*
G04 #@! TF.SameCoordinates,10DCDC14-C833-4712-9BA6-5F063841230D*
G04*
G04*
G04 #@! TF.FilePolarity,Positive*
G04*
G01*
G75*
%ADD106C,0.0020*%
D106*
X3003Y8510D02*
X3554D01*
X3279Y8234D02*
Y8786D01*
X3003Y7010D02*
X3554D01*
X3279Y6734D02*
Y7286D01*
X3003Y5510D02*
X3554D01*
X3279Y5234D02*
Y5786D01*
X3073Y13650D02*
X3624D01*
X3349Y13374D02*
Y13926D01*
X3073Y12150D02*
X3624D01*
X3349Y11874D02*
Y12426D01*
X3073Y10650D02*
X3624D01*
X3349Y10374D02*
Y10926D01*
X12223Y4500D02*
X12657D01*
X12440Y4283D02*
Y4717D01*
X13223Y4500D02*
X13657D01*
X13440Y4283D02*
Y4717D01*
X14223Y4500D02*
X14657D01*
X14440Y4283D02*
Y4717D01*
X15223Y4500D02*
X15657D01*
X15440Y4283D02*
Y4717D01*
X15173Y8930D02*
X15607D01*
X15390Y8713D02*
Y9147D01*
X15173Y9930D02*
X15607D01*
X15390Y9713D02*
Y10147D01*
X15173Y10930D02*
X15607D01*
X15390Y10713D02*
Y11147D01*
X13113Y12040D02*
X13547D01*
X13330Y11823D02*
Y12257D01*
X14113Y12040D02*
X14547D01*
X14330Y11823D02*
Y12257D01*
X15113Y12040D02*
X15547D01*
X15330Y11823D02*
Y12257D01*
X22010Y14630D02*
X22410D01*
X22210Y14430D02*
Y14830D01*
X23010Y14630D02*
X23410D01*
X23210Y14430D02*
Y14830D01*
X22050Y16330D02*
X22450D01*
X22250Y16130D02*
Y16530D01*
X23050Y16330D02*
X23450D01*
X23250Y16130D02*
Y16530D01*
X22050Y18060D02*
X22450D01*
X22250Y17860D02*
Y18260D01*
X23050Y18060D02*
X23450D01*
X23250Y17860D02*
Y18260D01*
X3053Y17060D02*
X3604D01*
X3329Y16784D02*
Y17336D01*
X3053Y18560D02*
X3604D01*
X3329Y18284D02*
Y18836D01*
X4024Y3500D02*
X4576D01*
X4300Y3224D02*
Y3776D01*
X5524Y3500D02*
X6076D01*
X5800Y3224D02*
Y3776D01*
X7024Y3500D02*
X7576D01*
X7300Y3224D02*
Y3776D01*
X8524Y3500D02*
X9076D01*
X8800Y3224D02*
Y3776D01*
X21242Y1550D02*
X21438D01*
X21340Y1452D02*
Y1648D01*
X21992Y1200D02*
X22188D01*
X22090Y1102D02*
Y1298D01*
X21544Y1220D02*
X21741D01*
X21643Y1121D02*
Y1318D01*
X21261Y1997D02*
X21458D01*
X21360Y1899D02*
Y2096D01*
X21592Y2300D02*
X21788D01*
X21690Y2202D02*
Y2398D01*
X22342Y1950D02*
X22538D01*
X22440Y1852D02*
Y2048D01*
X22039Y2280D02*
X22236D01*
X22137Y2182D02*
Y2379D01*
X21496Y1750D02*
X22284D01*
X21890Y1356D02*
Y2144D01*
X21446Y20650D02*
X22234D01*
X21840Y20256D02*
Y21044D01*
X1146Y20650D02*
X1934D01*
X1540Y20256D02*
Y21044D01*
X1992Y20850D02*
X2188D01*
X2090Y20752D02*
Y20948D01*
X1689Y21180D02*
X1886D01*
X1787Y21082D02*
Y21279D01*
X1242Y21200D02*
X1438D01*
X1340Y21102D02*
Y21298D01*
X911Y20897D02*
X1108D01*
X1010Y20799D02*
Y20996D01*
X892Y20450D02*
X1088D01*
X990Y20352D02*
Y20548D01*
X1194Y20120D02*
X1391D01*
X1293Y20021D02*
Y20218D01*
X1642Y20100D02*
X1838D01*
X1740Y20002D02*
Y20198D01*
X1972Y20403D02*
X2169D01*
X2070Y20304D02*
Y20501D01*
X22292Y20850D02*
X22488D01*
X22390Y20752D02*
Y20948D01*
X21989Y21180D02*
X22186D01*
X22087Y21082D02*
Y21279D01*
X21542Y21200D02*
X21738D01*
X21640Y21102D02*
Y21298D01*
X21211Y20897D02*
X21408D01*
X21310Y20799D02*
Y20996D01*
X21192Y20450D02*
X21388D01*
X21290Y20352D02*
Y20548D01*
X21494Y20120D02*
X21691D01*
X21593Y20021D02*
Y20218D01*
X21942Y20100D02*
X22138D01*
X22040Y20002D02*
Y20198D01*
X22272Y20403D02*
X22469D01*
X22370Y20304D02*
Y20501D01*
X22322Y1503D02*
X22519D01*
X22420Y1404D02*
Y1601D01*
X1972Y1403D02*
X2169D01*
X2070Y1304D02*
Y1501D01*
X1642Y1100D02*
X1838D01*
X1740Y1002D02*
Y1198D01*
X1194Y1120D02*
X1391D01*
X1293Y1021D02*
Y1218D01*
X892Y1450D02*
X1088D01*
X990Y1352D02*
Y1548D01*
X911Y1897D02*
X1108D01*
X1010Y1799D02*
Y1996D01*
X1242Y2200D02*
X1438D01*
X1340Y2102D02*
Y2298D01*
X1689Y2180D02*
X1886D01*
X1787Y2082D02*
Y2279D01*
X1992Y1850D02*
X2188D01*
X2090Y1752D02*
Y1948D01*
X1146Y1650D02*
X1934D01*
X1540Y1256D02*
Y2044D01*
X22365Y19270D02*
X22515D01*
X22440Y19195D02*
Y19345D01*
X22365Y13270D02*
X22515D01*
X22440Y13195D02*
Y13345D01*
X22365Y8770D02*
X22515D01*
X22440Y8695D02*
Y8845D01*
X22365Y7270D02*
X22515D01*
X22440Y7195D02*
Y7345D01*
X22365Y5770D02*
X22515D01*
X22440Y5695D02*
Y5845D01*
X22365Y2770D02*
X22515D01*
X22440Y2695D02*
Y2845D01*
X20865Y19270D02*
X21015D01*
X20940Y19195D02*
Y19345D01*
X20865Y7270D02*
X21015D01*
X20940Y7195D02*
Y7345D01*
X20865Y1270D02*
X21015D01*
X20940Y1195D02*
Y1345D01*
X19365Y5770D02*
X19515D01*
X19440Y5695D02*
Y5845D01*
X19365Y2770D02*
X19515D01*
X19440Y2695D02*
Y2845D01*
X17865Y20770D02*
X18015D01*
X17940Y20695D02*
Y20845D01*
X17865Y11770D02*
X18015D01*
X17940Y11695D02*
Y11845D01*
X17865Y8770D02*
X18015D01*
X17940Y8695D02*
Y8845D01*
X17865Y5770D02*
X18015D01*
X17940Y5695D02*
Y5845D01*
X16365Y20770D02*
X16515D01*
X16440Y20695D02*
Y20845D01*
X16365Y11770D02*
X16515D01*
X16440Y11695D02*
Y11845D01*
X16365Y10270D02*
X16515D01*
X16440Y10195D02*
Y10345D01*
X16365Y8770D02*
X16515D01*
X16440Y8695D02*
Y8845D01*
X16365Y7270D02*
X16515D01*
X16440Y7195D02*
Y7345D01*
X16365Y5770D02*
X16515D01*
X16440Y5695D02*
Y5845D01*
X16365Y2770D02*
X16515D01*
X16440Y2695D02*
Y2845D01*
X14865Y20770D02*
X15015D01*
X14940Y20695D02*
Y20845D01*
X14865Y10270D02*
X15015D01*
X14940Y10195D02*
Y10345D01*
X14865Y7270D02*
X15015D01*
X14940Y7195D02*
Y7345D01*
X14865Y2770D02*
X15015D01*
X14940Y2695D02*
Y2845D01*
X13365Y10270D02*
X13515D01*
X13440Y10195D02*
Y10345D01*
X13365Y7270D02*
X13515D01*
X13440Y7195D02*
Y7345D01*
X13365Y5770D02*
X13515D01*
X13440Y5695D02*
Y5845D01*
X13365Y2770D02*
X13515D01*
X13440Y2695D02*
Y2845D01*
X11865Y11770D02*
X12015D01*
X11940Y11695D02*
Y11845D01*
X11865Y8770D02*
X12015D01*
X11940Y8695D02*
Y8845D01*
X11865Y4270D02*
X12015D01*
X11940Y4195D02*
Y4345D01*
X10365Y17770D02*
X10515D01*
X10440Y17695D02*
Y17845D01*
X10365Y16270D02*
X10515D01*
X10440Y16195D02*
Y16345D01*
X10365Y14770D02*
X10515D01*
X10440Y14695D02*
Y14845D01*
X10365Y8770D02*
X10515D01*
X10440Y8695D02*
Y8845D01*
X10365Y1270D02*
X10515D01*
X10440Y1195D02*
Y1345D01*
X8865Y14770D02*
X9015D01*
X8940Y14695D02*
Y14845D01*
X8865Y1270D02*
X9015D01*
X8940Y1195D02*
Y1345D01*
X7365Y17770D02*
X7515D01*
X7440Y17695D02*
Y17845D01*
X7365Y16270D02*
X7515D01*
X7440Y16195D02*
Y16345D01*
X7365Y5770D02*
X7515D01*
X7440Y5695D02*
Y5845D01*
X7365Y1270D02*
X7515D01*
X7440Y1195D02*
Y1345D01*
X5865Y16270D02*
X6015D01*
X5940Y16195D02*
Y16345D01*
X5865Y10270D02*
X6015D01*
X5940Y10195D02*
Y10345D01*
X5865Y8770D02*
X6015D01*
X5940Y8695D02*
Y8845D01*
X5865Y1270D02*
X6015D01*
X5940Y1195D02*
Y1345D01*
X4365Y16270D02*
X4515D01*
X4440Y16195D02*
Y16345D01*
X4365Y10270D02*
X4515D01*
X4440Y10195D02*
Y10345D01*
X4365Y8770D02*
X4515D01*
X4440Y8695D02*
Y8845D01*
X4365Y4270D02*
X4515D01*
X4440Y4195D02*
Y4345D01*
X4365Y1270D02*
X4515D01*
X4440Y1195D02*
Y1345D01*
X2865Y16270D02*
X3015D01*
X2940Y16195D02*
Y16345D01*
X2865Y4270D02*
X3015D01*
X2940Y4195D02*
Y4345D01*
X2865Y1270D02*
X3015D01*
X2940Y1195D02*
Y1345D01*
X1365Y16270D02*
X1515D01*
X1440Y16195D02*
Y16345D01*
X1765Y18000D02*
X1915D01*
X1840Y17925D02*
Y18075D01*
X1515Y18000D02*
X1665D01*
X1590Y17925D02*
Y18075D01*
X1265Y18000D02*
X1415D01*
X1340Y17925D02*
Y18075D01*
X1015Y18000D02*
X1165D01*
X1090Y17925D02*
Y18075D01*
X765Y18000D02*
X915D01*
X840Y17925D02*
Y18075D01*
X515Y18000D02*
X665D01*
X590Y17925D02*
Y18075D01*
X265Y18000D02*
X415D01*
X340Y17925D02*
Y18075D01*
X6765Y19500D02*
X6915D01*
X6840Y19425D02*
Y19575D01*
X6765Y19250D02*
X6915D01*
X6840Y19175D02*
Y19325D01*
X6515Y19500D02*
X6665D01*
X6590Y19425D02*
Y19575D01*
X6515Y19250D02*
X6665D01*
X6590Y19175D02*
Y19325D01*
X6265Y19500D02*
X6415D01*
X6340Y19425D02*
Y19575D01*
X6265Y19250D02*
X6415D01*
X6340Y19175D02*
Y19325D01*
X6015Y19500D02*
X6165D01*
X6090Y19425D02*
Y19575D01*
X6015Y19250D02*
X6165D01*
X6090Y19175D02*
Y19325D01*
X6995Y12160D02*
X7145D01*
X7070Y12085D02*
Y12235D01*
X14825Y20118D02*
X14903D01*
X14864Y20078D02*
Y20157D01*
X15337Y20118D02*
X15415D01*
X15376Y20078D02*
Y20157D01*
X14825Y19606D02*
X14903D01*
X14864Y19567D02*
Y19645D01*
X15337Y19606D02*
X15415D01*
X15376Y19567D02*
Y19645D01*
X14825Y19094D02*
X14903D01*
X14864Y19055D02*
Y19133D01*
X15337Y19094D02*
X15415D01*
X15376Y19055D02*
Y19133D01*
X14825Y18582D02*
X14903D01*
X14864Y18543D02*
Y18622D01*
X15337Y18582D02*
X15415D01*
X15376Y18543D02*
Y18622D01*
X19975Y17980D02*
X20125D01*
X20050Y17905D02*
Y18055D01*
X8925Y11960D02*
X9075D01*
X9000Y11885D02*
Y12035D01*
X8925Y8460D02*
X9075D01*
X9000Y8385D02*
Y8535D01*
X15145Y6230D02*
X15295D01*
X15220Y6155D02*
Y6305D01*
X14375Y6880D02*
X14525D01*
X14450Y6805D02*
Y6955D01*
X5525Y6090D02*
X5675D01*
X5600Y6015D02*
Y6165D01*
X5215Y11210D02*
X5365D01*
X5290Y11135D02*
Y11285D01*
M02*
