G04*
G04 #@! TF.GenerationSoftware,Altium Limited,Altium Designer,20.2.6 (244)*
G04*
G04 Layer_Color=65535*
%FSLAX24Y24*%
%MOIN*%
G70*
G04*
G04 #@! TF.SameCoordinates,01985295-A94F-4E40-9557-9D24556334AB*
G04*
G04*
G04 #@! TF.FilePolarity,Positive*
G04*
G01*
G75*
%ADD10C,0.0050*%
%ADD11C,0.0079*%
%ADD12C,0.0098*%
%ADD13C,0.0039*%
%ADD14C,0.0250*%
%ADD15C,0.0040*%
%ADD16C,0.0100*%
%ADD17C,0.0059*%
%ADD18C,0.0070*%
%ADD19C,0.0118*%
%ADD20C,0.0080*%
%ADD21R,0.0740X0.0299*%
%ADD22R,0.0740X0.0299*%
%ADD23R,0.1000X0.0500*%
%ADD24R,0.0398X0.0394*%
G36*
X28244Y21229D02*
X28257D01*
Y21222D01*
Y21216D01*
Y21209D01*
Y21203D01*
Y21197D01*
Y21190D01*
Y21184D01*
Y21177D01*
Y21171D01*
Y21164D01*
Y21158D01*
Y21151D01*
Y21145D01*
Y21138D01*
Y21132D01*
Y21125D01*
Y21119D01*
Y21112D01*
Y21106D01*
Y21099D01*
Y21093D01*
Y21086D01*
Y21080D01*
Y21074D01*
Y21067D01*
Y21061D01*
Y21054D01*
Y21048D01*
Y21041D01*
Y21035D01*
Y21028D01*
Y21022D01*
Y21015D01*
Y21009D01*
Y21002D01*
Y20996D01*
Y20989D01*
Y20983D01*
Y20976D01*
Y20970D01*
Y20964D01*
Y20957D01*
Y20951D01*
Y20944D01*
Y20938D01*
Y20931D01*
Y20925D01*
Y20918D01*
Y20912D01*
Y20905D01*
X28250D01*
Y20899D01*
X28192D01*
Y20905D01*
Y20912D01*
Y20918D01*
Y20925D01*
Y20931D01*
Y20938D01*
Y20944D01*
Y20951D01*
Y20957D01*
Y20964D01*
Y20970D01*
Y20976D01*
Y20983D01*
Y20989D01*
Y20996D01*
Y21002D01*
Y21009D01*
Y21015D01*
Y21022D01*
Y21028D01*
Y21035D01*
Y21041D01*
X28063D01*
Y21035D01*
Y21028D01*
Y21022D01*
Y21015D01*
Y21009D01*
Y21002D01*
Y20996D01*
Y20989D01*
Y20983D01*
Y20976D01*
Y20970D01*
Y20964D01*
Y20957D01*
Y20951D01*
Y20944D01*
Y20938D01*
Y20931D01*
Y20925D01*
Y20918D01*
Y20912D01*
Y20905D01*
X28056D01*
Y20899D01*
X27998D01*
Y20905D01*
Y20912D01*
Y20918D01*
Y20925D01*
Y20931D01*
Y20938D01*
Y20944D01*
Y20951D01*
Y20957D01*
Y20964D01*
Y20970D01*
Y20976D01*
Y20983D01*
Y20989D01*
Y20996D01*
Y21002D01*
Y21009D01*
Y21015D01*
Y21022D01*
Y21028D01*
Y21035D01*
Y21041D01*
Y21048D01*
Y21054D01*
Y21061D01*
Y21067D01*
Y21074D01*
Y21080D01*
Y21086D01*
Y21093D01*
Y21099D01*
Y21106D01*
Y21112D01*
Y21119D01*
Y21125D01*
Y21132D01*
Y21138D01*
Y21145D01*
Y21151D01*
Y21158D01*
Y21164D01*
Y21171D01*
Y21177D01*
Y21184D01*
Y21190D01*
Y21197D01*
Y21203D01*
Y21209D01*
Y21216D01*
Y21222D01*
Y21229D01*
X28011D01*
Y21235D01*
X28050D01*
Y21229D01*
X28063D01*
Y21222D01*
Y21216D01*
Y21209D01*
Y21203D01*
Y21197D01*
Y21190D01*
Y21184D01*
Y21177D01*
Y21171D01*
Y21164D01*
Y21158D01*
Y21151D01*
Y21145D01*
Y21138D01*
Y21132D01*
Y21125D01*
Y21119D01*
Y21112D01*
Y21106D01*
Y21099D01*
X28186D01*
Y21106D01*
X28192D01*
Y21112D01*
Y21119D01*
Y21125D01*
Y21132D01*
Y21138D01*
Y21145D01*
Y21151D01*
Y21158D01*
Y21164D01*
Y21171D01*
Y21177D01*
Y21184D01*
Y21190D01*
Y21197D01*
Y21203D01*
Y21209D01*
Y21216D01*
Y21222D01*
Y21229D01*
X28205D01*
Y21235D01*
X28244D01*
Y21229D01*
D02*
G37*
G36*
X25597D02*
X25610D01*
Y21222D01*
Y21216D01*
Y21209D01*
Y21203D01*
Y21197D01*
Y21190D01*
Y21184D01*
Y21177D01*
Y21171D01*
Y21164D01*
Y21158D01*
Y21151D01*
Y21145D01*
Y21138D01*
Y21132D01*
Y21125D01*
Y21119D01*
Y21112D01*
Y21106D01*
Y21099D01*
Y21093D01*
Y21086D01*
Y21080D01*
Y21074D01*
Y21067D01*
Y21061D01*
Y21054D01*
Y21048D01*
Y21041D01*
Y21035D01*
Y21028D01*
Y21022D01*
Y21015D01*
Y21009D01*
Y21002D01*
Y20996D01*
Y20989D01*
Y20983D01*
Y20976D01*
Y20970D01*
Y20964D01*
Y20957D01*
Y20951D01*
Y20944D01*
Y20938D01*
Y20931D01*
Y20925D01*
Y20918D01*
Y20912D01*
Y20905D01*
Y20899D01*
X25545D01*
Y20905D01*
Y20912D01*
Y20918D01*
Y20925D01*
Y20931D01*
Y20938D01*
Y20944D01*
Y20951D01*
Y20957D01*
Y20964D01*
Y20970D01*
Y20976D01*
Y20983D01*
Y20989D01*
Y20996D01*
Y21002D01*
Y21009D01*
Y21015D01*
Y21022D01*
Y21028D01*
Y21035D01*
Y21041D01*
X25416D01*
Y21035D01*
Y21028D01*
Y21022D01*
Y21015D01*
Y21009D01*
Y21002D01*
Y20996D01*
Y20989D01*
Y20983D01*
Y20976D01*
Y20970D01*
Y20964D01*
Y20957D01*
Y20951D01*
Y20944D01*
Y20938D01*
Y20931D01*
Y20925D01*
Y20918D01*
Y20912D01*
Y20905D01*
Y20899D01*
X25351D01*
Y20905D01*
Y20912D01*
Y20918D01*
Y20925D01*
Y20931D01*
Y20938D01*
Y20944D01*
Y20951D01*
Y20957D01*
Y20964D01*
Y20970D01*
Y20976D01*
Y20983D01*
Y20989D01*
Y20996D01*
Y21002D01*
Y21009D01*
Y21015D01*
Y21022D01*
Y21028D01*
Y21035D01*
Y21041D01*
Y21048D01*
Y21054D01*
Y21061D01*
Y21067D01*
Y21074D01*
Y21080D01*
Y21086D01*
Y21093D01*
Y21099D01*
Y21106D01*
Y21112D01*
Y21119D01*
Y21125D01*
Y21132D01*
Y21138D01*
Y21145D01*
Y21151D01*
Y21158D01*
Y21164D01*
Y21171D01*
Y21177D01*
Y21184D01*
Y21190D01*
Y21197D01*
Y21203D01*
Y21209D01*
Y21216D01*
Y21222D01*
Y21229D01*
X25364D01*
Y21235D01*
X25403D01*
Y21229D01*
X25416D01*
Y21222D01*
Y21216D01*
Y21209D01*
Y21203D01*
Y21197D01*
Y21190D01*
Y21184D01*
Y21177D01*
Y21171D01*
Y21164D01*
Y21158D01*
Y21151D01*
Y21145D01*
Y21138D01*
Y21132D01*
Y21125D01*
Y21119D01*
Y21112D01*
Y21106D01*
Y21099D01*
X25545D01*
Y21106D01*
Y21112D01*
Y21119D01*
Y21125D01*
Y21132D01*
Y21138D01*
Y21145D01*
Y21151D01*
Y21158D01*
Y21164D01*
Y21171D01*
Y21177D01*
Y21184D01*
Y21190D01*
Y21197D01*
Y21203D01*
Y21209D01*
Y21216D01*
Y21222D01*
Y21229D01*
X25558D01*
Y21235D01*
X25597D01*
Y21229D01*
D02*
G37*
G36*
X26704D02*
X26717D01*
Y21222D01*
Y21216D01*
Y21209D01*
Y21203D01*
X26710D01*
Y21197D01*
X26704D01*
Y21190D01*
X26697D01*
Y21184D01*
Y21177D01*
X26691D01*
Y21171D01*
X26684D01*
Y21164D01*
X26678D01*
Y21158D01*
Y21151D01*
X26671D01*
Y21145D01*
X26665D01*
Y21138D01*
X26658D01*
Y21132D01*
X26652D01*
Y21125D01*
Y21119D01*
X26646D01*
Y21112D01*
X26639D01*
Y21106D01*
X26633D01*
Y21099D01*
Y21093D01*
X26626D01*
Y21086D01*
X26620D01*
Y21080D01*
Y21074D01*
Y21067D01*
X26626D01*
Y21061D01*
X26633D01*
Y21054D01*
Y21048D01*
X26639D01*
Y21041D01*
X26646D01*
Y21035D01*
Y21028D01*
X26652D01*
Y21022D01*
X26658D01*
Y21015D01*
Y21009D01*
X26665D01*
Y21002D01*
X26671D01*
Y20996D01*
Y20989D01*
X26678D01*
Y20983D01*
X26684D01*
Y20976D01*
Y20970D01*
X26691D01*
Y20964D01*
X26697D01*
Y20957D01*
Y20951D01*
X26704D01*
Y20944D01*
X26710D01*
Y20938D01*
Y20931D01*
X26717D01*
Y20925D01*
X26723D01*
Y20918D01*
Y20912D01*
Y20905D01*
Y20899D01*
X26658D01*
Y20905D01*
X26652D01*
Y20912D01*
X26646D01*
Y20918D01*
X26639D01*
Y20925D01*
Y20931D01*
X26633D01*
Y20938D01*
Y20944D01*
X26626D01*
Y20951D01*
X26620D01*
Y20957D01*
Y20964D01*
X26613D01*
Y20970D01*
X26607D01*
Y20976D01*
Y20983D01*
X26600D01*
Y20989D01*
X26594D01*
Y20996D01*
Y21002D01*
X26587D01*
Y21009D01*
X26581D01*
Y21015D01*
Y21022D01*
X26574D01*
Y21028D01*
Y21035D01*
X26568D01*
Y21041D01*
X26561D01*
Y21048D01*
Y21054D01*
X26555D01*
Y21061D01*
X26548D01*
Y21054D01*
Y21048D01*
Y21041D01*
Y21035D01*
Y21028D01*
Y21022D01*
Y21015D01*
Y21009D01*
Y21002D01*
Y20996D01*
Y20989D01*
Y20983D01*
Y20976D01*
Y20970D01*
Y20964D01*
Y20957D01*
Y20951D01*
Y20944D01*
Y20938D01*
Y20931D01*
Y20925D01*
Y20918D01*
Y20912D01*
Y20905D01*
X26542D01*
Y20899D01*
X26484D01*
Y20905D01*
Y20912D01*
Y20918D01*
Y20925D01*
Y20931D01*
Y20938D01*
Y20944D01*
Y20951D01*
Y20957D01*
Y20964D01*
Y20970D01*
Y20976D01*
Y20983D01*
Y20989D01*
Y20996D01*
Y21002D01*
Y21009D01*
Y21015D01*
Y21022D01*
Y21028D01*
Y21035D01*
Y21041D01*
Y21048D01*
Y21054D01*
Y21061D01*
Y21067D01*
Y21074D01*
Y21080D01*
Y21086D01*
Y21093D01*
Y21099D01*
Y21106D01*
Y21112D01*
Y21119D01*
Y21125D01*
Y21132D01*
Y21138D01*
Y21145D01*
Y21151D01*
Y21158D01*
Y21164D01*
Y21171D01*
Y21177D01*
Y21184D01*
Y21190D01*
Y21197D01*
Y21203D01*
Y21209D01*
Y21216D01*
Y21222D01*
Y21229D01*
X26497D01*
Y21235D01*
X26535D01*
Y21229D01*
X26548D01*
Y21222D01*
Y21216D01*
Y21209D01*
Y21203D01*
Y21197D01*
Y21190D01*
Y21184D01*
Y21177D01*
Y21171D01*
Y21164D01*
Y21158D01*
Y21151D01*
Y21145D01*
Y21138D01*
Y21132D01*
Y21125D01*
Y21119D01*
Y21112D01*
Y21106D01*
Y21099D01*
Y21093D01*
Y21086D01*
X26555D01*
Y21093D01*
X26561D01*
Y21099D01*
Y21106D01*
X26568D01*
Y21112D01*
X26574D01*
Y21119D01*
Y21125D01*
X26581D01*
Y21132D01*
X26587D01*
Y21138D01*
X26594D01*
Y21145D01*
Y21151D01*
X26600D01*
Y21158D01*
X26607D01*
Y21164D01*
Y21171D01*
X26613D01*
Y21177D01*
X26620D01*
Y21184D01*
Y21190D01*
X26626D01*
Y21197D01*
X26633D01*
Y21203D01*
X26639D01*
Y21209D01*
Y21216D01*
X26646D01*
Y21222D01*
X26652D01*
Y21229D01*
X26665D01*
Y21235D01*
X26704D01*
Y21229D01*
D02*
G37*
G36*
X24497Y21604D02*
X24504D01*
Y21598D01*
X24510D01*
Y21591D01*
X24516D01*
Y21585D01*
X24523D01*
Y21578D01*
X24529D01*
Y21572D01*
X24536D01*
Y21565D01*
X24542D01*
Y21559D01*
X24549D01*
Y21552D01*
X24555D01*
Y21546D01*
X24562D01*
Y21539D01*
X24568D01*
Y21533D01*
X24575D01*
Y21527D01*
X24581D01*
Y21520D01*
X24588D01*
Y21514D01*
X24594D01*
Y21507D01*
X24601D01*
Y21501D01*
X24607D01*
Y21494D01*
X24614D01*
Y21488D01*
X24620D01*
Y21481D01*
X24626D01*
Y21475D01*
X24633D01*
Y21468D01*
X24639D01*
Y21462D01*
X24646D01*
Y21455D01*
Y21449D01*
Y21442D01*
Y21436D01*
Y21429D01*
Y21423D01*
Y21417D01*
Y21410D01*
Y21404D01*
Y21397D01*
Y21391D01*
Y21384D01*
Y21378D01*
Y21371D01*
Y21365D01*
Y21358D01*
Y21352D01*
Y21345D01*
Y21339D01*
Y21332D01*
Y21326D01*
Y21319D01*
Y21313D01*
Y21307D01*
Y21300D01*
Y21294D01*
Y21287D01*
Y21281D01*
Y21274D01*
Y21268D01*
Y21261D01*
Y21255D01*
Y21248D01*
Y21242D01*
Y21235D01*
Y21229D01*
Y21222D01*
Y21216D01*
Y21209D01*
Y21203D01*
Y21197D01*
Y21190D01*
Y21184D01*
Y21177D01*
Y21171D01*
Y21164D01*
Y21158D01*
Y21151D01*
Y21145D01*
Y21138D01*
Y21132D01*
Y21125D01*
Y21119D01*
Y21112D01*
Y21106D01*
Y21099D01*
Y21093D01*
Y21086D01*
Y21080D01*
Y21074D01*
Y21067D01*
Y21061D01*
Y21054D01*
Y21048D01*
Y21041D01*
Y21035D01*
Y21028D01*
Y21022D01*
Y21015D01*
Y21009D01*
X24322D01*
Y21015D01*
Y21022D01*
Y21028D01*
Y21035D01*
Y21041D01*
Y21048D01*
Y21054D01*
Y21061D01*
Y21067D01*
Y21074D01*
Y21080D01*
Y21086D01*
Y21093D01*
Y21099D01*
Y21106D01*
Y21112D01*
Y21119D01*
Y21125D01*
Y21132D01*
Y21138D01*
Y21145D01*
Y21151D01*
Y21158D01*
Y21164D01*
Y21171D01*
Y21177D01*
Y21184D01*
Y21190D01*
Y21197D01*
Y21203D01*
Y21209D01*
Y21216D01*
Y21222D01*
Y21229D01*
Y21235D01*
Y21242D01*
Y21248D01*
Y21255D01*
Y21261D01*
Y21268D01*
Y21274D01*
Y21281D01*
Y21287D01*
Y21294D01*
Y21300D01*
Y21307D01*
Y21313D01*
Y21319D01*
Y21326D01*
Y21332D01*
Y21339D01*
Y21345D01*
Y21352D01*
Y21358D01*
Y21365D01*
Y21371D01*
Y21378D01*
Y21384D01*
Y21391D01*
Y21397D01*
Y21404D01*
Y21410D01*
Y21417D01*
Y21423D01*
Y21429D01*
Y21436D01*
Y21442D01*
Y21449D01*
X24329D01*
Y21455D01*
X24335D01*
Y21462D01*
X24342D01*
Y21468D01*
X24348D01*
Y21475D01*
X24355D01*
Y21481D01*
X24361D01*
Y21488D01*
X24368D01*
Y21494D01*
X24374D01*
Y21501D01*
X24381D01*
Y21507D01*
X24387D01*
Y21514D01*
X24393D01*
Y21520D01*
X24400D01*
Y21527D01*
X24406D01*
Y21533D01*
X24413D01*
Y21539D01*
X24419D01*
Y21546D01*
X24426D01*
Y21552D01*
X24432D01*
Y21559D01*
X24439D01*
Y21565D01*
X24445D01*
Y21572D01*
X24452D01*
Y21578D01*
X24458D01*
Y21585D01*
X24465D01*
Y21591D01*
X24471D01*
Y21598D01*
X24478D01*
Y21604D01*
X24484D01*
Y21611D01*
X24497D01*
Y21604D01*
D02*
G37*
G36*
X28910Y21229D02*
X28930D01*
Y21222D01*
Y21216D01*
Y21209D01*
Y21203D01*
Y21197D01*
Y21190D01*
Y21184D01*
Y21177D01*
Y21171D01*
Y21164D01*
Y21158D01*
Y21151D01*
Y21145D01*
Y21138D01*
Y21132D01*
Y21125D01*
Y21119D01*
Y21112D01*
Y21106D01*
Y21099D01*
Y21093D01*
Y21086D01*
Y21080D01*
Y21074D01*
Y21067D01*
Y21061D01*
Y21054D01*
Y21048D01*
Y21041D01*
Y21035D01*
Y21028D01*
Y21022D01*
Y21015D01*
Y21009D01*
Y21002D01*
Y20996D01*
Y20989D01*
Y20983D01*
Y20976D01*
Y20970D01*
Y20964D01*
Y20957D01*
Y20951D01*
Y20944D01*
Y20938D01*
Y20931D01*
Y20925D01*
Y20918D01*
Y20912D01*
X28923D01*
Y20905D01*
X28917D01*
Y20899D01*
X28852D01*
Y20905D01*
X28846D01*
Y20912D01*
X28839D01*
Y20918D01*
X28833D01*
Y20925D01*
Y20931D01*
X28826D01*
Y20938D01*
Y20944D01*
X28820D01*
Y20951D01*
Y20957D01*
X28813D01*
Y20964D01*
Y20970D01*
X28807D01*
Y20976D01*
Y20983D01*
X28800D01*
Y20989D01*
X28794D01*
Y20996D01*
Y21002D01*
X28788D01*
Y21009D01*
Y21015D01*
X28781D01*
Y21022D01*
Y21028D01*
X28775D01*
Y21035D01*
Y21041D01*
X28768D01*
Y21048D01*
Y21054D01*
X28762D01*
Y21061D01*
Y21067D01*
X28755D01*
Y21074D01*
X28749D01*
Y21080D01*
Y21086D01*
X28742D01*
Y21093D01*
Y21099D01*
X28736D01*
Y21106D01*
Y21112D01*
X28729D01*
Y21119D01*
Y21125D01*
X28723D01*
Y21132D01*
Y21138D01*
Y21145D01*
X28716D01*
Y21151D01*
X28710D01*
Y21145D01*
Y21138D01*
Y21132D01*
Y21125D01*
Y21119D01*
X28716D01*
Y21112D01*
Y21106D01*
Y21099D01*
Y21093D01*
Y21086D01*
Y21080D01*
Y21074D01*
Y21067D01*
Y21061D01*
Y21054D01*
Y21048D01*
Y21041D01*
Y21035D01*
Y21028D01*
Y21022D01*
Y21015D01*
Y21009D01*
Y21002D01*
Y20996D01*
Y20989D01*
Y20983D01*
Y20976D01*
Y20970D01*
Y20964D01*
Y20957D01*
Y20951D01*
Y20944D01*
Y20938D01*
Y20931D01*
Y20925D01*
Y20918D01*
Y20912D01*
Y20905D01*
X28710D01*
Y20899D01*
X28658D01*
Y20905D01*
X28652D01*
Y20912D01*
Y20918D01*
Y20925D01*
Y20931D01*
Y20938D01*
Y20944D01*
Y20951D01*
Y20957D01*
Y20964D01*
Y20970D01*
Y20976D01*
Y20983D01*
Y20989D01*
Y20996D01*
Y21002D01*
Y21009D01*
Y21015D01*
Y21022D01*
Y21028D01*
Y21035D01*
Y21041D01*
Y21048D01*
Y21054D01*
Y21061D01*
Y21067D01*
Y21074D01*
Y21080D01*
Y21086D01*
Y21093D01*
Y21099D01*
Y21106D01*
Y21112D01*
Y21119D01*
Y21125D01*
Y21132D01*
Y21138D01*
Y21145D01*
Y21151D01*
Y21158D01*
Y21164D01*
Y21171D01*
Y21177D01*
Y21184D01*
Y21190D01*
Y21197D01*
Y21203D01*
Y21209D01*
Y21216D01*
X28658D01*
Y21222D01*
Y21229D01*
X28742D01*
Y21222D01*
X28749D01*
Y21216D01*
X28755D01*
Y21209D01*
Y21203D01*
X28762D01*
Y21197D01*
Y21190D01*
X28768D01*
Y21184D01*
Y21177D01*
X28775D01*
Y21171D01*
X28781D01*
Y21164D01*
Y21158D01*
X28788D01*
Y21151D01*
Y21145D01*
X28794D01*
Y21138D01*
Y21132D01*
X28800D01*
Y21125D01*
Y21119D01*
X28807D01*
Y21112D01*
Y21106D01*
X28813D01*
Y21099D01*
Y21093D01*
X28820D01*
Y21086D01*
X28826D01*
Y21080D01*
Y21074D01*
X28833D01*
Y21067D01*
Y21061D01*
X28839D01*
Y21054D01*
Y21048D01*
X28846D01*
Y21041D01*
Y21035D01*
X28852D01*
Y21028D01*
Y21022D01*
X28859D01*
Y21015D01*
Y21009D01*
X28865D01*
Y21002D01*
Y20996D01*
X28872D01*
Y21002D01*
Y21009D01*
Y21015D01*
Y21022D01*
Y21028D01*
Y21035D01*
Y21041D01*
Y21048D01*
Y21054D01*
Y21061D01*
Y21067D01*
Y21074D01*
Y21080D01*
Y21086D01*
Y21093D01*
Y21099D01*
Y21106D01*
Y21112D01*
Y21119D01*
Y21125D01*
Y21132D01*
Y21138D01*
Y21145D01*
Y21151D01*
Y21158D01*
Y21164D01*
Y21171D01*
Y21177D01*
Y21184D01*
Y21190D01*
Y21197D01*
Y21203D01*
Y21209D01*
Y21216D01*
Y21222D01*
Y21229D01*
X28891D01*
Y21235D01*
X28910D01*
Y21229D01*
D02*
G37*
G36*
X27901D02*
X27920D01*
Y21222D01*
Y21216D01*
Y21209D01*
Y21203D01*
Y21197D01*
Y21190D01*
Y21184D01*
Y21177D01*
Y21171D01*
Y21164D01*
Y21158D01*
Y21151D01*
Y21145D01*
Y21138D01*
Y21132D01*
Y21125D01*
Y21119D01*
Y21112D01*
Y21106D01*
Y21099D01*
Y21093D01*
Y21086D01*
Y21080D01*
Y21074D01*
Y21067D01*
Y21061D01*
Y21054D01*
Y21048D01*
Y21041D01*
Y21035D01*
Y21028D01*
Y21022D01*
Y21015D01*
Y21009D01*
Y21002D01*
Y20996D01*
Y20989D01*
Y20983D01*
Y20976D01*
Y20970D01*
Y20964D01*
Y20957D01*
Y20951D01*
Y20944D01*
Y20938D01*
Y20931D01*
Y20925D01*
Y20918D01*
Y20912D01*
X27914D01*
Y20905D01*
X27907D01*
Y20899D01*
X27843D01*
Y20905D01*
X27836D01*
Y20912D01*
X27830D01*
Y20918D01*
X27823D01*
Y20925D01*
Y20931D01*
X27817D01*
Y20938D01*
Y20944D01*
X27810D01*
Y20951D01*
Y20957D01*
X27804D01*
Y20964D01*
Y20970D01*
X27797D01*
Y20976D01*
Y20983D01*
X27791D01*
Y20989D01*
X27784D01*
Y20996D01*
Y21002D01*
X27778D01*
Y21009D01*
Y21015D01*
X27772D01*
Y21022D01*
Y21028D01*
X27765D01*
Y21035D01*
Y21041D01*
X27759D01*
Y21048D01*
Y21054D01*
X27752D01*
Y21061D01*
Y21067D01*
X27746D01*
Y21074D01*
X27739D01*
Y21080D01*
Y21086D01*
X27733D01*
Y21093D01*
Y21099D01*
X27726D01*
Y21106D01*
Y21112D01*
X27720D01*
Y21119D01*
Y21125D01*
X27713D01*
Y21132D01*
Y21138D01*
Y21145D01*
X27707D01*
Y21151D01*
X27700D01*
Y21145D01*
Y21138D01*
Y21132D01*
Y21125D01*
Y21119D01*
X27707D01*
Y21112D01*
Y21106D01*
Y21099D01*
Y21093D01*
Y21086D01*
Y21080D01*
Y21074D01*
Y21067D01*
Y21061D01*
Y21054D01*
Y21048D01*
Y21041D01*
Y21035D01*
Y21028D01*
Y21022D01*
Y21015D01*
Y21009D01*
Y21002D01*
Y20996D01*
Y20989D01*
Y20983D01*
Y20976D01*
Y20970D01*
Y20964D01*
Y20957D01*
Y20951D01*
Y20944D01*
Y20938D01*
Y20931D01*
Y20925D01*
Y20918D01*
Y20912D01*
Y20905D01*
X27700D01*
Y20899D01*
X27649D01*
Y20905D01*
X27642D01*
Y20912D01*
Y20918D01*
Y20925D01*
Y20931D01*
Y20938D01*
Y20944D01*
Y20951D01*
Y20957D01*
Y20964D01*
Y20970D01*
Y20976D01*
Y20983D01*
Y20989D01*
Y20996D01*
Y21002D01*
Y21009D01*
Y21015D01*
Y21022D01*
Y21028D01*
Y21035D01*
Y21041D01*
Y21048D01*
Y21054D01*
Y21061D01*
Y21067D01*
Y21074D01*
Y21080D01*
Y21086D01*
Y21093D01*
Y21099D01*
Y21106D01*
Y21112D01*
Y21119D01*
Y21125D01*
Y21132D01*
Y21138D01*
Y21145D01*
Y21151D01*
Y21158D01*
Y21164D01*
Y21171D01*
Y21177D01*
Y21184D01*
Y21190D01*
Y21197D01*
Y21203D01*
Y21209D01*
Y21216D01*
X27649D01*
Y21222D01*
Y21229D01*
X27733D01*
Y21222D01*
X27739D01*
Y21216D01*
X27746D01*
Y21209D01*
Y21203D01*
X27752D01*
Y21197D01*
Y21190D01*
X27759D01*
Y21184D01*
Y21177D01*
X27765D01*
Y21171D01*
X27772D01*
Y21164D01*
Y21158D01*
X27778D01*
Y21151D01*
Y21145D01*
X27784D01*
Y21138D01*
Y21132D01*
X27791D01*
Y21125D01*
Y21119D01*
X27797D01*
Y21112D01*
Y21106D01*
X27804D01*
Y21099D01*
Y21093D01*
X27810D01*
Y21086D01*
X27817D01*
Y21080D01*
Y21074D01*
X27823D01*
Y21067D01*
Y21061D01*
X27830D01*
Y21054D01*
Y21048D01*
X27836D01*
Y21041D01*
Y21035D01*
X27843D01*
Y21028D01*
Y21022D01*
X27849D01*
Y21015D01*
Y21009D01*
X27856D01*
Y21002D01*
Y20996D01*
X27862D01*
Y21002D01*
Y21009D01*
Y21015D01*
Y21022D01*
Y21028D01*
Y21035D01*
Y21041D01*
Y21048D01*
Y21054D01*
Y21061D01*
Y21067D01*
Y21074D01*
Y21080D01*
Y21086D01*
Y21093D01*
Y21099D01*
Y21106D01*
Y21112D01*
Y21119D01*
Y21125D01*
Y21132D01*
Y21138D01*
Y21145D01*
Y21151D01*
Y21158D01*
Y21164D01*
Y21171D01*
Y21177D01*
Y21184D01*
Y21190D01*
Y21197D01*
Y21203D01*
Y21209D01*
Y21216D01*
Y21222D01*
Y21229D01*
X27882D01*
Y21235D01*
X27901D01*
Y21229D01*
D02*
G37*
G36*
X27429D02*
X27448D01*
Y21222D01*
Y21216D01*
Y21209D01*
Y21203D01*
Y21197D01*
Y21190D01*
Y21184D01*
Y21177D01*
Y21171D01*
Y21164D01*
Y21158D01*
Y21151D01*
Y21145D01*
Y21138D01*
Y21132D01*
Y21125D01*
Y21119D01*
Y21112D01*
Y21106D01*
Y21099D01*
Y21093D01*
Y21086D01*
Y21080D01*
Y21074D01*
Y21067D01*
Y21061D01*
Y21054D01*
Y21048D01*
Y21041D01*
Y21035D01*
Y21028D01*
Y21022D01*
Y21015D01*
Y21009D01*
Y21002D01*
Y20996D01*
Y20989D01*
Y20983D01*
Y20976D01*
Y20970D01*
Y20964D01*
Y20957D01*
Y20951D01*
Y20944D01*
Y20938D01*
Y20931D01*
Y20925D01*
Y20918D01*
Y20912D01*
Y20905D01*
X27441D01*
Y20899D01*
X27377D01*
Y20905D01*
X27364D01*
Y20912D01*
X27357D01*
Y20918D01*
Y20925D01*
X27351D01*
Y20931D01*
Y20938D01*
X27344D01*
Y20944D01*
X27338D01*
Y20951D01*
Y20957D01*
X27331D01*
Y20964D01*
Y20970D01*
X27325D01*
Y20976D01*
Y20983D01*
X27319D01*
Y20989D01*
Y20996D01*
X27312D01*
Y21002D01*
Y21009D01*
X27306D01*
Y21015D01*
Y21022D01*
X27299D01*
Y21028D01*
Y21035D01*
X27293D01*
Y21041D01*
X27286D01*
Y21048D01*
Y21054D01*
X27280D01*
Y21061D01*
Y21067D01*
X27273D01*
Y21074D01*
Y21080D01*
X27267D01*
Y21086D01*
Y21093D01*
X27260D01*
Y21099D01*
Y21106D01*
X27254D01*
Y21112D01*
Y21119D01*
X27247D01*
Y21125D01*
Y21132D01*
X27241D01*
Y21138D01*
Y21145D01*
X27234D01*
Y21138D01*
Y21132D01*
Y21125D01*
Y21119D01*
Y21112D01*
Y21106D01*
Y21099D01*
Y21093D01*
Y21086D01*
Y21080D01*
Y21074D01*
Y21067D01*
Y21061D01*
Y21054D01*
Y21048D01*
Y21041D01*
Y21035D01*
Y21028D01*
Y21022D01*
Y21015D01*
Y21009D01*
Y21002D01*
Y20996D01*
Y20989D01*
Y20983D01*
Y20976D01*
Y20970D01*
Y20964D01*
Y20957D01*
Y20951D01*
Y20944D01*
Y20938D01*
Y20931D01*
Y20925D01*
Y20918D01*
Y20912D01*
Y20905D01*
X27228D01*
Y20899D01*
X27176D01*
Y20905D01*
Y20912D01*
Y20918D01*
Y20925D01*
Y20931D01*
Y20938D01*
Y20944D01*
Y20951D01*
Y20957D01*
Y20964D01*
Y20970D01*
Y20976D01*
Y20983D01*
Y20989D01*
Y20996D01*
Y21002D01*
Y21009D01*
Y21015D01*
Y21022D01*
Y21028D01*
Y21035D01*
Y21041D01*
Y21048D01*
Y21054D01*
Y21061D01*
Y21067D01*
Y21074D01*
Y21080D01*
Y21086D01*
Y21093D01*
Y21099D01*
Y21106D01*
Y21112D01*
Y21119D01*
Y21125D01*
Y21132D01*
Y21138D01*
Y21145D01*
Y21151D01*
Y21158D01*
Y21164D01*
Y21171D01*
Y21177D01*
Y21184D01*
Y21190D01*
Y21197D01*
Y21203D01*
Y21209D01*
Y21216D01*
Y21222D01*
Y21229D01*
X27260D01*
Y21222D01*
X27267D01*
Y21216D01*
X27273D01*
Y21209D01*
X27280D01*
Y21203D01*
Y21197D01*
X27286D01*
Y21190D01*
Y21184D01*
X27293D01*
Y21177D01*
Y21171D01*
X27299D01*
Y21164D01*
Y21158D01*
X27306D01*
Y21151D01*
Y21145D01*
X27312D01*
Y21138D01*
Y21132D01*
X27319D01*
Y21125D01*
X27325D01*
Y21119D01*
Y21112D01*
X27331D01*
Y21106D01*
Y21099D01*
X27338D01*
Y21093D01*
Y21086D01*
X27344D01*
Y21080D01*
Y21074D01*
X27351D01*
Y21067D01*
Y21061D01*
X27357D01*
Y21054D01*
Y21048D01*
X27364D01*
Y21041D01*
Y21035D01*
X27370D01*
Y21028D01*
Y21022D01*
X27377D01*
Y21015D01*
Y21009D01*
X27383D01*
Y21002D01*
Y20996D01*
X27390D01*
Y21002D01*
Y21009D01*
Y21015D01*
Y21022D01*
Y21028D01*
Y21035D01*
Y21041D01*
Y21048D01*
Y21054D01*
Y21061D01*
Y21067D01*
Y21074D01*
Y21080D01*
Y21086D01*
Y21093D01*
Y21099D01*
Y21106D01*
Y21112D01*
Y21119D01*
Y21125D01*
Y21132D01*
Y21138D01*
Y21145D01*
Y21151D01*
Y21158D01*
Y21164D01*
Y21171D01*
Y21177D01*
Y21184D01*
Y21190D01*
Y21197D01*
Y21203D01*
Y21209D01*
Y21216D01*
Y21222D01*
Y21229D01*
X27409D01*
Y21235D01*
X27429D01*
Y21229D01*
D02*
G37*
G36*
X28483D02*
X28496D01*
Y21222D01*
X28503D01*
Y21216D01*
Y21209D01*
Y21203D01*
X28509D01*
Y21197D01*
Y21190D01*
Y21184D01*
X28516D01*
Y21177D01*
Y21171D01*
Y21164D01*
X28522D01*
Y21158D01*
Y21151D01*
X28529D01*
Y21145D01*
Y21138D01*
Y21132D01*
X28535D01*
Y21125D01*
Y21119D01*
Y21112D01*
X28542D01*
Y21106D01*
Y21099D01*
Y21093D01*
X28548D01*
Y21086D01*
Y21080D01*
Y21074D01*
X28555D01*
Y21067D01*
Y21061D01*
Y21054D01*
X28561D01*
Y21048D01*
Y21041D01*
X28567D01*
Y21035D01*
Y21028D01*
Y21022D01*
X28574D01*
Y21015D01*
Y21009D01*
Y21002D01*
X28580D01*
Y20996D01*
Y20989D01*
Y20983D01*
X28587D01*
Y20976D01*
Y20970D01*
Y20964D01*
X28593D01*
Y20957D01*
Y20951D01*
Y20944D01*
X28600D01*
Y20938D01*
Y20931D01*
X28606D01*
Y20925D01*
Y20918D01*
Y20912D01*
Y20905D01*
Y20899D01*
X28542D01*
Y20905D01*
X28535D01*
Y20912D01*
Y20918D01*
X28529D01*
Y20925D01*
Y20931D01*
Y20938D01*
X28522D01*
Y20944D01*
Y20951D01*
Y20957D01*
X28516D01*
Y20964D01*
Y20970D01*
Y20976D01*
X28386D01*
Y20970D01*
Y20964D01*
X28380D01*
Y20957D01*
Y20951D01*
Y20944D01*
X28373D01*
Y20938D01*
Y20931D01*
Y20925D01*
X28367D01*
Y20918D01*
Y20912D01*
Y20905D01*
X28360D01*
Y20899D01*
X28302D01*
Y20905D01*
Y20912D01*
Y20918D01*
Y20925D01*
Y20931D01*
X28309D01*
Y20938D01*
Y20944D01*
Y20951D01*
X28315D01*
Y20957D01*
Y20964D01*
Y20970D01*
X28322D01*
Y20976D01*
Y20983D01*
Y20989D01*
X28328D01*
Y20996D01*
Y21002D01*
X28335D01*
Y21009D01*
Y21015D01*
Y21022D01*
X28341D01*
Y21028D01*
Y21035D01*
Y21041D01*
X28347D01*
Y21048D01*
Y21054D01*
Y21061D01*
X28354D01*
Y21067D01*
Y21074D01*
Y21080D01*
X28360D01*
Y21086D01*
Y21093D01*
Y21099D01*
X28367D01*
Y21106D01*
Y21112D01*
X28373D01*
Y21119D01*
Y21125D01*
Y21132D01*
X28380D01*
Y21138D01*
Y21145D01*
Y21151D01*
X28386D01*
Y21158D01*
Y21164D01*
Y21171D01*
X28393D01*
Y21177D01*
Y21184D01*
Y21190D01*
X28399D01*
Y21197D01*
Y21203D01*
Y21209D01*
X28406D01*
Y21216D01*
Y21222D01*
X28412D01*
Y21229D01*
X28425D01*
Y21235D01*
X28483D01*
Y21229D01*
D02*
G37*
G36*
X27111Y21222D02*
Y21216D01*
Y21209D01*
Y21203D01*
Y21197D01*
Y21190D01*
Y21184D01*
X27105D01*
Y21177D01*
X26982D01*
Y21171D01*
Y21164D01*
Y21158D01*
Y21151D01*
Y21145D01*
Y21138D01*
Y21132D01*
Y21125D01*
Y21119D01*
Y21112D01*
Y21106D01*
Y21099D01*
X27086D01*
Y21093D01*
X27092D01*
Y21086D01*
Y21080D01*
Y21074D01*
Y21067D01*
Y21061D01*
Y21054D01*
Y21048D01*
X26982D01*
Y21041D01*
Y21035D01*
Y21028D01*
Y21022D01*
Y21015D01*
Y21009D01*
Y21002D01*
Y20996D01*
Y20989D01*
Y20983D01*
Y20976D01*
Y20970D01*
Y20964D01*
Y20957D01*
Y20951D01*
X27111D01*
Y20944D01*
Y20938D01*
Y20931D01*
Y20925D01*
Y20918D01*
Y20912D01*
Y20905D01*
Y20899D01*
X26924D01*
Y20905D01*
X26917D01*
Y20912D01*
Y20918D01*
Y20925D01*
Y20931D01*
Y20938D01*
Y20944D01*
Y20951D01*
Y20957D01*
Y20964D01*
Y20970D01*
Y20976D01*
Y20983D01*
Y20989D01*
Y20996D01*
Y21002D01*
Y21009D01*
Y21015D01*
Y21022D01*
Y21028D01*
Y21035D01*
Y21041D01*
Y21048D01*
Y21054D01*
Y21061D01*
Y21067D01*
Y21074D01*
Y21080D01*
Y21086D01*
Y21093D01*
Y21099D01*
Y21106D01*
Y21112D01*
Y21119D01*
Y21125D01*
Y21132D01*
Y21138D01*
Y21145D01*
Y21151D01*
Y21158D01*
Y21164D01*
Y21171D01*
Y21177D01*
Y21184D01*
Y21190D01*
Y21197D01*
Y21203D01*
Y21209D01*
Y21216D01*
Y21222D01*
Y21229D01*
X27111D01*
Y21222D01*
D02*
G37*
G36*
X26827Y21229D02*
X26840D01*
Y21222D01*
Y21216D01*
Y21209D01*
Y21203D01*
Y21197D01*
Y21190D01*
Y21184D01*
Y21177D01*
Y21171D01*
Y21164D01*
Y21158D01*
Y21151D01*
Y21145D01*
Y21138D01*
Y21132D01*
Y21125D01*
Y21119D01*
Y21112D01*
Y21106D01*
Y21099D01*
Y21093D01*
Y21086D01*
Y21080D01*
Y21074D01*
Y21067D01*
Y21061D01*
Y21054D01*
Y21048D01*
Y21041D01*
Y21035D01*
Y21028D01*
Y21022D01*
Y21015D01*
Y21009D01*
Y21002D01*
Y20996D01*
Y20989D01*
Y20983D01*
Y20976D01*
Y20970D01*
Y20964D01*
Y20957D01*
Y20951D01*
Y20944D01*
Y20938D01*
Y20931D01*
Y20925D01*
Y20918D01*
Y20912D01*
Y20905D01*
X26833D01*
Y20899D01*
X26775D01*
Y20905D01*
Y20912D01*
Y20918D01*
Y20925D01*
Y20931D01*
Y20938D01*
Y20944D01*
Y20951D01*
Y20957D01*
Y20964D01*
Y20970D01*
Y20976D01*
Y20983D01*
Y20989D01*
Y20996D01*
Y21002D01*
Y21009D01*
Y21015D01*
Y21022D01*
Y21028D01*
Y21035D01*
Y21041D01*
Y21048D01*
Y21054D01*
Y21061D01*
Y21067D01*
Y21074D01*
Y21080D01*
Y21086D01*
Y21093D01*
Y21099D01*
Y21106D01*
Y21112D01*
Y21119D01*
Y21125D01*
Y21132D01*
Y21138D01*
Y21145D01*
Y21151D01*
Y21158D01*
Y21164D01*
Y21171D01*
Y21177D01*
Y21184D01*
Y21190D01*
Y21197D01*
Y21203D01*
Y21209D01*
Y21216D01*
Y21222D01*
Y21229D01*
X26788D01*
Y21235D01*
X26827D01*
Y21229D01*
D02*
G37*
G36*
X26193D02*
X26205D01*
Y21222D01*
Y21216D01*
X26212D01*
Y21209D01*
Y21203D01*
Y21197D01*
X26218D01*
Y21190D01*
Y21184D01*
X26225D01*
Y21177D01*
Y21171D01*
Y21164D01*
X26231D01*
Y21158D01*
Y21151D01*
Y21145D01*
X26238D01*
Y21138D01*
Y21132D01*
Y21125D01*
X26244D01*
Y21119D01*
Y21112D01*
Y21106D01*
X26251D01*
Y21099D01*
Y21093D01*
Y21086D01*
X26257D01*
Y21080D01*
Y21074D01*
X26264D01*
Y21067D01*
Y21061D01*
Y21054D01*
X26270D01*
Y21048D01*
Y21041D01*
Y21035D01*
X26277D01*
Y21028D01*
Y21022D01*
Y21015D01*
X26283D01*
Y21009D01*
Y21002D01*
Y20996D01*
X26290D01*
Y20989D01*
Y20983D01*
Y20976D01*
X26296D01*
Y20970D01*
Y20964D01*
X26303D01*
Y20957D01*
Y20951D01*
Y20944D01*
X26309D01*
Y20938D01*
Y20931D01*
Y20925D01*
X26315D01*
Y20918D01*
Y20912D01*
Y20905D01*
Y20899D01*
X26251D01*
Y20905D01*
X26244D01*
Y20912D01*
Y20918D01*
X26238D01*
Y20925D01*
Y20931D01*
Y20938D01*
X26231D01*
Y20944D01*
Y20951D01*
Y20957D01*
X26225D01*
Y20964D01*
Y20970D01*
X26218D01*
Y20976D01*
X26095D01*
Y20970D01*
Y20964D01*
X26089D01*
Y20957D01*
Y20951D01*
Y20944D01*
X26082D01*
Y20938D01*
Y20931D01*
Y20925D01*
X26076D01*
Y20918D01*
Y20912D01*
Y20905D01*
X26070D01*
Y20899D01*
X26011D01*
Y20905D01*
X26005D01*
Y20912D01*
Y20918D01*
X26011D01*
Y20925D01*
Y20931D01*
Y20938D01*
X26018D01*
Y20944D01*
Y20951D01*
Y20957D01*
X26024D01*
Y20964D01*
Y20970D01*
X26031D01*
Y20976D01*
Y20983D01*
Y20989D01*
X26037D01*
Y20996D01*
Y21002D01*
Y21009D01*
X26044D01*
Y21015D01*
Y21022D01*
Y21028D01*
X26050D01*
Y21035D01*
Y21041D01*
Y21048D01*
X26057D01*
Y21054D01*
Y21061D01*
Y21067D01*
X26063D01*
Y21074D01*
Y21080D01*
X26070D01*
Y21086D01*
Y21093D01*
Y21099D01*
X26076D01*
Y21106D01*
Y21112D01*
Y21119D01*
X26082D01*
Y21125D01*
Y21132D01*
Y21138D01*
X26089D01*
Y21145D01*
Y21151D01*
Y21158D01*
X26095D01*
Y21164D01*
Y21171D01*
Y21177D01*
X26102D01*
Y21184D01*
Y21190D01*
Y21197D01*
X26108D01*
Y21203D01*
Y21209D01*
X26115D01*
Y21216D01*
Y21222D01*
Y21229D01*
X26128D01*
Y21235D01*
X26193D01*
Y21229D01*
D02*
G37*
G36*
X25882D02*
X25901D01*
Y21222D01*
X25914D01*
Y21216D01*
X25927D01*
Y21209D01*
X25940D01*
Y21203D01*
X25947D01*
Y21197D01*
X25953D01*
Y21190D01*
Y21184D01*
X25960D01*
Y21177D01*
X25966D01*
Y21171D01*
Y21164D01*
X25972D01*
Y21158D01*
Y21151D01*
Y21145D01*
X25979D01*
Y21138D01*
Y21132D01*
Y21125D01*
Y21119D01*
X25985D01*
Y21112D01*
Y21106D01*
Y21099D01*
Y21093D01*
Y21086D01*
Y21080D01*
Y21074D01*
Y21067D01*
Y21061D01*
Y21054D01*
Y21048D01*
Y21041D01*
Y21035D01*
Y21028D01*
Y21022D01*
X25979D01*
Y21015D01*
Y21009D01*
Y21002D01*
Y20996D01*
X25972D01*
Y20989D01*
Y20983D01*
Y20976D01*
X25966D01*
Y20970D01*
Y20964D01*
X25960D01*
Y20957D01*
X25953D01*
Y20951D01*
Y20944D01*
X25947D01*
Y20938D01*
X25940D01*
Y20931D01*
X25934D01*
Y20925D01*
X25927D01*
Y20918D01*
X25914D01*
Y20912D01*
X25901D01*
Y20905D01*
X25888D01*
Y20899D01*
X25856D01*
Y20892D01*
X25791D01*
Y20899D01*
X25759D01*
Y20905D01*
X25746D01*
Y20912D01*
X25733D01*
Y20918D01*
X25720D01*
Y20925D01*
X25714D01*
Y20931D01*
X25707D01*
Y20938D01*
X25701D01*
Y20944D01*
X25694D01*
Y20951D01*
Y20957D01*
X25688D01*
Y20964D01*
Y20970D01*
X25681D01*
Y20976D01*
Y20983D01*
Y20989D01*
X25675D01*
Y20996D01*
Y21002D01*
Y21009D01*
Y21015D01*
X25668D01*
Y21022D01*
Y21028D01*
Y21035D01*
Y21041D01*
Y21048D01*
Y21054D01*
Y21061D01*
Y21067D01*
Y21074D01*
Y21080D01*
Y21086D01*
Y21093D01*
Y21099D01*
Y21106D01*
X25675D01*
Y21112D01*
Y21119D01*
Y21125D01*
Y21132D01*
X25681D01*
Y21138D01*
Y21145D01*
Y21151D01*
X25688D01*
Y21158D01*
Y21164D01*
X25694D01*
Y21171D01*
Y21177D01*
X25701D01*
Y21184D01*
X25707D01*
Y21190D01*
X25714D01*
Y21197D01*
X25720D01*
Y21203D01*
X25727D01*
Y21209D01*
X25733D01*
Y21216D01*
X25746D01*
Y21222D01*
X25759D01*
Y21229D01*
X25778D01*
Y21235D01*
X25882D01*
Y21229D01*
D02*
G37*
G36*
X25468Y20821D02*
X25487D01*
Y20815D01*
X25500D01*
Y20808D01*
Y20802D01*
Y20795D01*
Y20789D01*
Y20782D01*
Y20776D01*
Y20769D01*
X25494D01*
Y20776D01*
X25487D01*
Y20782D01*
X25474D01*
Y20789D01*
X25429D01*
Y20782D01*
X25422D01*
Y20776D01*
X25416D01*
Y20769D01*
X25409D01*
Y20763D01*
X25403D01*
Y20756D01*
Y20750D01*
Y20744D01*
X25397D01*
Y20737D01*
Y20731D01*
Y20724D01*
Y20718D01*
Y20711D01*
Y20705D01*
Y20698D01*
Y20692D01*
Y20685D01*
X25403D01*
Y20679D01*
Y20672D01*
Y20666D01*
X25409D01*
Y20659D01*
X25416D01*
Y20653D01*
X25422D01*
Y20646D01*
X25435D01*
Y20640D01*
X25468D01*
Y20646D01*
X25481D01*
Y20653D01*
X25494D01*
Y20659D01*
X25500D01*
Y20653D01*
X25507D01*
Y20646D01*
Y20640D01*
Y20634D01*
Y20627D01*
X25500D01*
Y20621D01*
X25494D01*
Y20614D01*
X25481D01*
Y20608D01*
X25409D01*
Y20614D01*
X25397D01*
Y20621D01*
X25384D01*
Y20627D01*
X25377D01*
Y20634D01*
X25371D01*
Y20640D01*
Y20646D01*
X25364D01*
Y20653D01*
Y20659D01*
X25358D01*
Y20666D01*
Y20672D01*
Y20679D01*
Y20685D01*
X25351D01*
Y20692D01*
Y20698D01*
Y20705D01*
Y20711D01*
Y20718D01*
Y20724D01*
Y20731D01*
Y20737D01*
X25358D01*
Y20744D01*
Y20750D01*
Y20756D01*
Y20763D01*
X25364D01*
Y20769D01*
Y20776D01*
Y20782D01*
X25371D01*
Y20789D01*
X25377D01*
Y20795D01*
Y20802D01*
X25384D01*
Y20808D01*
X25397D01*
Y20815D01*
X25409D01*
Y20821D01*
X25429D01*
Y20828D01*
X25468D01*
Y20821D01*
D02*
G37*
G36*
X26743Y20815D02*
Y20808D01*
X26736D01*
Y20802D01*
Y20795D01*
X26730D01*
Y20789D01*
Y20782D01*
X26723D01*
Y20776D01*
Y20769D01*
X26717D01*
Y20763D01*
Y20756D01*
X26710D01*
Y20750D01*
Y20744D01*
X26704D01*
Y20737D01*
Y20731D01*
Y20724D01*
X26697D01*
Y20718D01*
Y20711D01*
X26691D01*
Y20705D01*
Y20698D01*
X26684D01*
Y20692D01*
Y20685D01*
Y20679D01*
Y20672D01*
Y20666D01*
Y20659D01*
Y20653D01*
Y20646D01*
Y20640D01*
Y20634D01*
Y20627D01*
Y20621D01*
Y20614D01*
X26678D01*
Y20608D01*
X26646D01*
Y20614D01*
X26639D01*
Y20621D01*
Y20627D01*
Y20634D01*
Y20640D01*
Y20646D01*
Y20653D01*
Y20659D01*
Y20666D01*
Y20672D01*
Y20679D01*
Y20685D01*
Y20692D01*
Y20698D01*
X26633D01*
Y20705D01*
Y20711D01*
Y20718D01*
X26626D01*
Y20724D01*
Y20731D01*
X26620D01*
Y20737D01*
Y20744D01*
X26613D01*
Y20750D01*
Y20756D01*
X26607D01*
Y20763D01*
Y20769D01*
X26600D01*
Y20776D01*
Y20782D01*
X26594D01*
Y20789D01*
Y20795D01*
X26587D01*
Y20802D01*
Y20808D01*
X26581D01*
Y20815D01*
Y20821D01*
X26626D01*
Y20815D01*
Y20808D01*
X26633D01*
Y20802D01*
Y20795D01*
X26639D01*
Y20789D01*
Y20782D01*
X26646D01*
Y20776D01*
Y20769D01*
Y20763D01*
X26652D01*
Y20756D01*
Y20750D01*
X26658D01*
Y20744D01*
Y20737D01*
Y20731D01*
X26665D01*
Y20737D01*
Y20744D01*
X26671D01*
Y20750D01*
Y20756D01*
Y20763D01*
X26678D01*
Y20769D01*
Y20776D01*
X26684D01*
Y20782D01*
Y20789D01*
X26691D01*
Y20795D01*
Y20802D01*
Y20808D01*
X26697D01*
Y20815D01*
Y20821D01*
X26743D01*
Y20815D01*
D02*
G37*
G36*
X26555D02*
Y20808D01*
Y20802D01*
Y20795D01*
Y20789D01*
Y20782D01*
Y20776D01*
Y20769D01*
Y20763D01*
Y20756D01*
Y20750D01*
Y20744D01*
Y20737D01*
Y20731D01*
Y20724D01*
Y20718D01*
Y20711D01*
Y20705D01*
Y20698D01*
Y20692D01*
Y20685D01*
Y20679D01*
Y20672D01*
Y20666D01*
Y20659D01*
Y20653D01*
Y20646D01*
Y20640D01*
Y20634D01*
Y20627D01*
Y20621D01*
Y20614D01*
X26548D01*
Y20608D01*
X26510D01*
Y20614D01*
X26497D01*
Y20621D01*
Y20627D01*
X26490D01*
Y20634D01*
Y20640D01*
X26484D01*
Y20646D01*
Y20653D01*
X26477D01*
Y20659D01*
Y20666D01*
X26471D01*
Y20672D01*
Y20679D01*
X26464D01*
Y20685D01*
Y20692D01*
X26458D01*
Y20698D01*
Y20705D01*
X26451D01*
Y20711D01*
Y20718D01*
X26445D01*
Y20724D01*
Y20731D01*
X26438D01*
Y20737D01*
Y20744D01*
X26432D01*
Y20750D01*
Y20756D01*
X26425D01*
Y20763D01*
X26419D01*
Y20756D01*
Y20750D01*
Y20744D01*
Y20737D01*
Y20731D01*
Y20724D01*
Y20718D01*
Y20711D01*
Y20705D01*
Y20698D01*
Y20692D01*
Y20685D01*
Y20679D01*
Y20672D01*
Y20666D01*
Y20659D01*
Y20653D01*
Y20646D01*
Y20640D01*
Y20634D01*
Y20627D01*
Y20621D01*
Y20614D01*
Y20608D01*
X26387D01*
Y20614D01*
Y20621D01*
Y20627D01*
Y20634D01*
Y20640D01*
Y20646D01*
Y20653D01*
Y20659D01*
Y20666D01*
Y20672D01*
Y20679D01*
Y20685D01*
Y20692D01*
Y20698D01*
Y20705D01*
Y20711D01*
Y20718D01*
Y20724D01*
Y20731D01*
Y20737D01*
Y20744D01*
Y20750D01*
Y20756D01*
Y20763D01*
Y20769D01*
Y20776D01*
Y20782D01*
Y20789D01*
Y20795D01*
Y20802D01*
Y20808D01*
Y20815D01*
Y20821D01*
X26438D01*
Y20815D01*
X26445D01*
Y20808D01*
X26451D01*
Y20802D01*
Y20795D01*
X26458D01*
Y20789D01*
Y20782D01*
X26464D01*
Y20776D01*
Y20769D01*
X26471D01*
Y20763D01*
Y20756D01*
X26477D01*
Y20750D01*
Y20744D01*
X26484D01*
Y20737D01*
Y20731D01*
X26490D01*
Y20724D01*
Y20718D01*
X26497D01*
Y20711D01*
Y20705D01*
X26503D01*
Y20698D01*
Y20692D01*
X26510D01*
Y20685D01*
Y20679D01*
X26516D01*
Y20685D01*
Y20692D01*
Y20698D01*
Y20705D01*
Y20711D01*
Y20718D01*
Y20724D01*
Y20731D01*
Y20737D01*
Y20744D01*
Y20750D01*
Y20756D01*
Y20763D01*
Y20769D01*
Y20776D01*
Y20782D01*
Y20789D01*
Y20795D01*
Y20802D01*
Y20808D01*
Y20815D01*
Y20821D01*
X26555D01*
Y20815D01*
D02*
G37*
G36*
X27299D02*
X27306D01*
Y20808D01*
Y20802D01*
Y20795D01*
Y20789D01*
Y20782D01*
Y20776D01*
Y20769D01*
Y20763D01*
Y20756D01*
Y20750D01*
Y20744D01*
Y20737D01*
Y20731D01*
Y20724D01*
Y20718D01*
Y20711D01*
Y20705D01*
Y20698D01*
Y20692D01*
Y20685D01*
Y20679D01*
Y20672D01*
Y20666D01*
Y20659D01*
Y20653D01*
Y20646D01*
Y20640D01*
Y20634D01*
Y20627D01*
Y20621D01*
Y20614D01*
Y20608D01*
X27267D01*
Y20614D01*
Y20621D01*
Y20627D01*
Y20634D01*
Y20640D01*
Y20646D01*
Y20653D01*
Y20659D01*
Y20666D01*
Y20672D01*
Y20679D01*
Y20685D01*
Y20692D01*
Y20698D01*
Y20705D01*
Y20711D01*
Y20718D01*
Y20724D01*
Y20731D01*
Y20737D01*
Y20744D01*
Y20750D01*
Y20756D01*
Y20763D01*
Y20769D01*
Y20776D01*
Y20782D01*
X27260D01*
Y20776D01*
Y20769D01*
Y20763D01*
X27254D01*
Y20756D01*
Y20750D01*
Y20744D01*
X27247D01*
Y20737D01*
Y20731D01*
Y20724D01*
X27241D01*
Y20718D01*
Y20711D01*
Y20705D01*
X27234D01*
Y20698D01*
Y20692D01*
Y20685D01*
X27228D01*
Y20679D01*
Y20672D01*
Y20666D01*
X27221D01*
Y20659D01*
Y20653D01*
X27215D01*
Y20646D01*
Y20640D01*
Y20634D01*
X27209D01*
Y20627D01*
Y20621D01*
Y20614D01*
X27202D01*
Y20608D01*
X27163D01*
Y20614D01*
Y20621D01*
X27157D01*
Y20627D01*
Y20634D01*
Y20640D01*
Y20646D01*
X27150D01*
Y20653D01*
Y20659D01*
Y20666D01*
X27144D01*
Y20672D01*
Y20679D01*
Y20685D01*
X27137D01*
Y20692D01*
Y20698D01*
Y20705D01*
X27131D01*
Y20711D01*
Y20718D01*
Y20724D01*
X27124D01*
Y20731D01*
Y20737D01*
Y20744D01*
X27118D01*
Y20750D01*
Y20756D01*
Y20763D01*
X27111D01*
Y20769D01*
Y20776D01*
Y20782D01*
X27105D01*
Y20776D01*
Y20769D01*
Y20763D01*
Y20756D01*
Y20750D01*
Y20744D01*
Y20737D01*
Y20731D01*
Y20724D01*
Y20718D01*
Y20711D01*
Y20705D01*
Y20698D01*
Y20692D01*
Y20685D01*
Y20679D01*
Y20672D01*
Y20666D01*
Y20659D01*
Y20653D01*
Y20646D01*
Y20640D01*
Y20634D01*
Y20627D01*
Y20621D01*
Y20614D01*
Y20608D01*
X27066D01*
Y20614D01*
Y20621D01*
Y20627D01*
Y20634D01*
Y20640D01*
Y20646D01*
Y20653D01*
Y20659D01*
Y20666D01*
Y20672D01*
Y20679D01*
Y20685D01*
Y20692D01*
Y20698D01*
Y20705D01*
Y20711D01*
Y20718D01*
Y20724D01*
Y20731D01*
Y20737D01*
Y20744D01*
Y20750D01*
Y20756D01*
Y20763D01*
Y20769D01*
Y20776D01*
Y20782D01*
Y20789D01*
Y20795D01*
Y20802D01*
Y20808D01*
Y20815D01*
X27073D01*
Y20821D01*
X27131D01*
Y20815D01*
X27137D01*
Y20808D01*
Y20802D01*
X27144D01*
Y20795D01*
Y20789D01*
Y20782D01*
X27150D01*
Y20776D01*
Y20769D01*
Y20763D01*
X27157D01*
Y20756D01*
Y20750D01*
Y20744D01*
X27163D01*
Y20737D01*
Y20731D01*
Y20724D01*
X27170D01*
Y20718D01*
Y20711D01*
Y20705D01*
X27176D01*
Y20698D01*
Y20692D01*
Y20685D01*
X27183D01*
Y20679D01*
Y20672D01*
X27189D01*
Y20679D01*
Y20685D01*
X27196D01*
Y20692D01*
Y20698D01*
Y20705D01*
X27202D01*
Y20711D01*
Y20718D01*
Y20724D01*
X27209D01*
Y20731D01*
Y20737D01*
Y20744D01*
X27215D01*
Y20750D01*
Y20756D01*
X27221D01*
Y20763D01*
Y20769D01*
Y20776D01*
X27228D01*
Y20782D01*
Y20789D01*
Y20795D01*
X27234D01*
Y20802D01*
Y20808D01*
X27241D01*
Y20815D01*
Y20821D01*
X27299D01*
Y20815D01*
D02*
G37*
G36*
X25985D02*
X25992D01*
Y20808D01*
Y20802D01*
Y20795D01*
Y20789D01*
Y20782D01*
Y20776D01*
Y20769D01*
Y20763D01*
Y20756D01*
Y20750D01*
Y20744D01*
Y20737D01*
Y20731D01*
Y20724D01*
Y20718D01*
Y20711D01*
Y20705D01*
Y20698D01*
Y20692D01*
Y20685D01*
Y20679D01*
Y20672D01*
Y20666D01*
Y20659D01*
Y20653D01*
Y20646D01*
Y20640D01*
Y20634D01*
Y20627D01*
Y20621D01*
Y20614D01*
Y20608D01*
X25953D01*
Y20614D01*
Y20621D01*
Y20627D01*
Y20634D01*
Y20640D01*
Y20646D01*
Y20653D01*
Y20659D01*
Y20666D01*
Y20672D01*
Y20679D01*
Y20685D01*
Y20692D01*
Y20698D01*
Y20705D01*
Y20711D01*
Y20718D01*
Y20724D01*
Y20731D01*
Y20737D01*
Y20744D01*
Y20750D01*
Y20756D01*
Y20763D01*
Y20769D01*
Y20776D01*
Y20782D01*
X25947D01*
Y20776D01*
Y20769D01*
Y20763D01*
X25940D01*
Y20756D01*
Y20750D01*
Y20744D01*
X25934D01*
Y20737D01*
Y20731D01*
Y20724D01*
X25927D01*
Y20718D01*
Y20711D01*
Y20705D01*
X25921D01*
Y20698D01*
Y20692D01*
Y20685D01*
X25914D01*
Y20679D01*
Y20672D01*
Y20666D01*
X25908D01*
Y20659D01*
Y20653D01*
X25901D01*
Y20646D01*
Y20640D01*
Y20634D01*
X25895D01*
Y20627D01*
Y20621D01*
Y20614D01*
X25888D01*
Y20608D01*
X25850D01*
Y20614D01*
Y20621D01*
X25843D01*
Y20627D01*
Y20634D01*
Y20640D01*
Y20646D01*
X25837D01*
Y20653D01*
Y20659D01*
Y20666D01*
X25830D01*
Y20672D01*
Y20679D01*
Y20685D01*
X25824D01*
Y20692D01*
Y20698D01*
Y20705D01*
X25817D01*
Y20711D01*
Y20718D01*
Y20724D01*
X25811D01*
Y20731D01*
Y20737D01*
Y20744D01*
X25804D01*
Y20750D01*
Y20756D01*
Y20763D01*
X25798D01*
Y20769D01*
Y20776D01*
Y20782D01*
X25791D01*
Y20776D01*
Y20769D01*
Y20763D01*
Y20756D01*
Y20750D01*
Y20744D01*
Y20737D01*
Y20731D01*
Y20724D01*
Y20718D01*
Y20711D01*
Y20705D01*
Y20698D01*
Y20692D01*
Y20685D01*
Y20679D01*
Y20672D01*
Y20666D01*
Y20659D01*
Y20653D01*
Y20646D01*
Y20640D01*
Y20634D01*
Y20627D01*
Y20621D01*
Y20614D01*
Y20608D01*
X25752D01*
Y20614D01*
Y20621D01*
Y20627D01*
Y20634D01*
Y20640D01*
Y20646D01*
Y20653D01*
Y20659D01*
Y20666D01*
Y20672D01*
Y20679D01*
Y20685D01*
Y20692D01*
Y20698D01*
Y20705D01*
Y20711D01*
Y20718D01*
Y20724D01*
Y20731D01*
Y20737D01*
Y20744D01*
Y20750D01*
Y20756D01*
Y20763D01*
Y20769D01*
Y20776D01*
Y20782D01*
Y20789D01*
Y20795D01*
Y20802D01*
Y20808D01*
Y20815D01*
X25759D01*
Y20821D01*
X25817D01*
Y20815D01*
X25824D01*
Y20808D01*
Y20802D01*
X25830D01*
Y20795D01*
Y20789D01*
Y20782D01*
X25837D01*
Y20776D01*
Y20769D01*
Y20763D01*
X25843D01*
Y20756D01*
Y20750D01*
Y20744D01*
X25850D01*
Y20737D01*
Y20731D01*
Y20724D01*
X25856D01*
Y20718D01*
Y20711D01*
Y20705D01*
X25862D01*
Y20698D01*
Y20692D01*
Y20685D01*
X25869D01*
Y20679D01*
Y20672D01*
X25875D01*
Y20679D01*
Y20685D01*
X25882D01*
Y20692D01*
Y20698D01*
Y20705D01*
X25888D01*
Y20711D01*
Y20718D01*
Y20724D01*
X25895D01*
Y20731D01*
Y20737D01*
Y20744D01*
X25901D01*
Y20750D01*
Y20756D01*
X25908D01*
Y20763D01*
Y20769D01*
Y20776D01*
X25914D01*
Y20782D01*
Y20789D01*
Y20795D01*
X25921D01*
Y20802D01*
Y20808D01*
X25927D01*
Y20815D01*
Y20821D01*
X25985D01*
Y20815D01*
D02*
G37*
G36*
X27862D02*
X27882D01*
Y20808D01*
X27894D01*
Y20802D01*
X27901D01*
Y20795D01*
X27907D01*
Y20789D01*
X27914D01*
Y20782D01*
Y20776D01*
X27920D01*
Y20769D01*
Y20763D01*
Y20756D01*
X27927D01*
Y20750D01*
Y20744D01*
Y20737D01*
Y20731D01*
Y20724D01*
Y20718D01*
Y20711D01*
Y20705D01*
Y20698D01*
Y20692D01*
Y20685D01*
Y20679D01*
Y20672D01*
X27920D01*
Y20666D01*
Y20659D01*
X27914D01*
Y20653D01*
Y20646D01*
X27907D01*
Y20640D01*
X27901D01*
Y20634D01*
X27894D01*
Y20627D01*
X27888D01*
Y20621D01*
X27875D01*
Y20614D01*
X27856D01*
Y20608D01*
X27765D01*
Y20614D01*
X27759D01*
Y20621D01*
Y20627D01*
Y20634D01*
Y20640D01*
Y20646D01*
Y20653D01*
Y20659D01*
Y20666D01*
Y20672D01*
Y20679D01*
Y20685D01*
Y20692D01*
Y20698D01*
Y20705D01*
Y20711D01*
Y20718D01*
Y20724D01*
Y20731D01*
Y20737D01*
Y20744D01*
Y20750D01*
Y20756D01*
Y20763D01*
Y20769D01*
Y20776D01*
Y20782D01*
Y20789D01*
Y20795D01*
Y20802D01*
Y20808D01*
Y20815D01*
Y20821D01*
X27862D01*
Y20815D01*
D02*
G37*
G36*
X27720D02*
Y20808D01*
Y20802D01*
Y20795D01*
Y20789D01*
X27642D01*
Y20782D01*
Y20776D01*
Y20769D01*
Y20763D01*
Y20756D01*
Y20750D01*
Y20744D01*
Y20737D01*
X27707D01*
Y20731D01*
Y20724D01*
Y20718D01*
Y20711D01*
Y20705D01*
X27642D01*
Y20698D01*
Y20692D01*
Y20685D01*
Y20679D01*
Y20672D01*
Y20666D01*
Y20659D01*
Y20653D01*
Y20646D01*
Y20640D01*
X27720D01*
Y20634D01*
Y20627D01*
Y20621D01*
Y20614D01*
Y20608D01*
X27603D01*
Y20614D01*
X27597D01*
Y20621D01*
Y20627D01*
Y20634D01*
Y20640D01*
Y20646D01*
Y20653D01*
Y20659D01*
Y20666D01*
Y20672D01*
Y20679D01*
Y20685D01*
Y20692D01*
Y20698D01*
Y20705D01*
Y20711D01*
Y20718D01*
Y20724D01*
Y20731D01*
Y20737D01*
Y20744D01*
Y20750D01*
Y20756D01*
Y20763D01*
Y20769D01*
Y20776D01*
Y20782D01*
Y20789D01*
Y20795D01*
Y20802D01*
Y20808D01*
Y20815D01*
X27603D01*
Y20821D01*
X27720D01*
Y20815D01*
D02*
G37*
G36*
X27571D02*
Y20808D01*
Y20802D01*
Y20795D01*
Y20789D01*
X27519D01*
Y20782D01*
Y20776D01*
Y20769D01*
Y20763D01*
Y20756D01*
Y20750D01*
Y20744D01*
Y20737D01*
Y20731D01*
Y20724D01*
Y20718D01*
Y20711D01*
Y20705D01*
Y20698D01*
Y20692D01*
Y20685D01*
Y20679D01*
Y20672D01*
Y20666D01*
Y20659D01*
Y20653D01*
Y20646D01*
Y20640D01*
Y20634D01*
Y20627D01*
Y20621D01*
Y20614D01*
X27513D01*
Y20608D01*
X27480D01*
Y20614D01*
X27474D01*
Y20621D01*
Y20627D01*
Y20634D01*
Y20640D01*
Y20646D01*
Y20653D01*
Y20659D01*
Y20666D01*
Y20672D01*
Y20679D01*
Y20685D01*
Y20692D01*
Y20698D01*
Y20705D01*
Y20711D01*
Y20718D01*
Y20724D01*
Y20731D01*
Y20737D01*
Y20744D01*
Y20750D01*
Y20756D01*
Y20763D01*
Y20769D01*
Y20776D01*
Y20782D01*
Y20789D01*
X27422D01*
Y20795D01*
X27416D01*
Y20802D01*
Y20808D01*
Y20815D01*
X27422D01*
Y20821D01*
X27571D01*
Y20815D01*
D02*
G37*
G36*
X27390D02*
Y20808D01*
Y20802D01*
Y20795D01*
Y20789D01*
Y20782D01*
Y20776D01*
Y20769D01*
Y20763D01*
Y20756D01*
Y20750D01*
Y20744D01*
Y20737D01*
Y20731D01*
Y20724D01*
Y20718D01*
Y20711D01*
Y20705D01*
Y20698D01*
Y20692D01*
Y20685D01*
Y20679D01*
Y20672D01*
Y20666D01*
Y20659D01*
Y20653D01*
Y20646D01*
Y20640D01*
Y20634D01*
Y20627D01*
Y20621D01*
Y20614D01*
Y20608D01*
X27351D01*
Y20614D01*
Y20621D01*
Y20627D01*
Y20634D01*
Y20640D01*
Y20646D01*
Y20653D01*
Y20659D01*
Y20666D01*
Y20672D01*
Y20679D01*
Y20685D01*
Y20692D01*
Y20698D01*
Y20705D01*
Y20711D01*
Y20718D01*
Y20724D01*
Y20731D01*
Y20737D01*
Y20744D01*
Y20750D01*
Y20756D01*
Y20763D01*
Y20769D01*
Y20776D01*
Y20782D01*
Y20789D01*
Y20795D01*
Y20802D01*
Y20808D01*
Y20815D01*
Y20821D01*
X27390D01*
Y20815D01*
D02*
G37*
G36*
X27021D02*
Y20808D01*
Y20802D01*
Y20795D01*
Y20789D01*
Y20782D01*
Y20776D01*
Y20769D01*
Y20763D01*
Y20756D01*
Y20750D01*
Y20744D01*
Y20737D01*
Y20731D01*
Y20724D01*
Y20718D01*
Y20711D01*
Y20705D01*
Y20698D01*
Y20692D01*
Y20685D01*
Y20679D01*
Y20672D01*
Y20666D01*
Y20659D01*
Y20653D01*
Y20646D01*
Y20640D01*
Y20634D01*
Y20627D01*
Y20621D01*
Y20614D01*
Y20608D01*
X26982D01*
Y20614D01*
Y20621D01*
Y20627D01*
Y20634D01*
Y20640D01*
Y20646D01*
Y20653D01*
Y20659D01*
Y20666D01*
Y20672D01*
Y20679D01*
Y20685D01*
Y20692D01*
Y20698D01*
Y20705D01*
Y20711D01*
Y20718D01*
Y20724D01*
Y20731D01*
Y20737D01*
Y20744D01*
Y20750D01*
Y20756D01*
Y20763D01*
Y20769D01*
Y20776D01*
Y20782D01*
Y20789D01*
Y20795D01*
Y20802D01*
Y20808D01*
Y20815D01*
Y20821D01*
X27021D01*
Y20815D01*
D02*
G37*
G36*
X26885D02*
Y20808D01*
Y20802D01*
Y20795D01*
Y20789D01*
Y20782D01*
Y20776D01*
Y20769D01*
Y20763D01*
Y20756D01*
Y20750D01*
Y20744D01*
Y20737D01*
Y20731D01*
Y20724D01*
Y20718D01*
Y20711D01*
Y20705D01*
Y20698D01*
Y20692D01*
Y20685D01*
Y20679D01*
Y20672D01*
Y20666D01*
Y20659D01*
Y20653D01*
Y20646D01*
Y20640D01*
X26956D01*
Y20634D01*
Y20627D01*
Y20621D01*
Y20614D01*
Y20608D01*
X26846D01*
Y20614D01*
Y20621D01*
Y20627D01*
Y20634D01*
Y20640D01*
Y20646D01*
Y20653D01*
Y20659D01*
Y20666D01*
Y20672D01*
Y20679D01*
Y20685D01*
Y20692D01*
Y20698D01*
Y20705D01*
Y20711D01*
Y20718D01*
Y20724D01*
Y20731D01*
Y20737D01*
Y20744D01*
Y20750D01*
Y20756D01*
Y20763D01*
Y20769D01*
Y20776D01*
Y20782D01*
Y20789D01*
Y20795D01*
Y20802D01*
Y20808D01*
Y20815D01*
Y20821D01*
X26885D01*
Y20815D01*
D02*
G37*
G36*
X26290D02*
X26296D01*
Y20808D01*
Y20802D01*
Y20795D01*
X26303D01*
Y20789D01*
Y20782D01*
Y20776D01*
X26309D01*
Y20769D01*
Y20763D01*
Y20756D01*
X26315D01*
Y20750D01*
Y20744D01*
Y20737D01*
X26322D01*
Y20731D01*
Y20724D01*
Y20718D01*
X26328D01*
Y20711D01*
Y20705D01*
Y20698D01*
X26335D01*
Y20692D01*
Y20685D01*
Y20679D01*
X26341D01*
Y20672D01*
Y20666D01*
Y20659D01*
X26348D01*
Y20653D01*
Y20646D01*
Y20640D01*
X26354D01*
Y20634D01*
Y20627D01*
Y20621D01*
Y20614D01*
Y20608D01*
X26315D01*
Y20614D01*
Y20621D01*
X26309D01*
Y20627D01*
Y20634D01*
Y20640D01*
X26303D01*
Y20646D01*
Y20653D01*
X26296D01*
Y20659D01*
X26225D01*
Y20653D01*
X26218D01*
Y20646D01*
Y20640D01*
Y20634D01*
X26212D01*
Y20627D01*
Y20621D01*
Y20614D01*
X26205D01*
Y20608D01*
X26173D01*
Y20614D01*
Y20621D01*
Y20627D01*
Y20634D01*
Y20640D01*
X26180D01*
Y20646D01*
Y20653D01*
Y20659D01*
X26186D01*
Y20666D01*
Y20672D01*
Y20679D01*
X26193D01*
Y20685D01*
Y20692D01*
Y20698D01*
X26199D01*
Y20705D01*
Y20711D01*
Y20718D01*
X26205D01*
Y20724D01*
Y20731D01*
Y20737D01*
X26212D01*
Y20744D01*
Y20750D01*
Y20756D01*
X26218D01*
Y20763D01*
Y20769D01*
Y20776D01*
X26225D01*
Y20782D01*
Y20789D01*
Y20795D01*
X26231D01*
Y20802D01*
Y20808D01*
Y20815D01*
X26238D01*
Y20821D01*
X26290D01*
Y20815D01*
D02*
G37*
G36*
X26134D02*
X26147D01*
Y20808D01*
X26160D01*
Y20802D01*
X26167D01*
Y20795D01*
Y20789D01*
X26173D01*
Y20782D01*
Y20776D01*
Y20769D01*
X26180D01*
Y20763D01*
Y20756D01*
Y20750D01*
Y20744D01*
X26173D01*
Y20737D01*
Y20731D01*
Y20724D01*
X26167D01*
Y20718D01*
Y20711D01*
X26160D01*
Y20705D01*
X26154D01*
Y20698D01*
X26147D01*
Y20692D01*
X26134D01*
Y20685D01*
X26082D01*
Y20679D01*
X26076D01*
Y20672D01*
Y20666D01*
Y20659D01*
Y20653D01*
Y20646D01*
Y20640D01*
Y20634D01*
Y20627D01*
Y20621D01*
Y20614D01*
Y20608D01*
X26037D01*
Y20614D01*
Y20621D01*
Y20627D01*
Y20634D01*
Y20640D01*
Y20646D01*
Y20653D01*
Y20659D01*
Y20666D01*
Y20672D01*
Y20679D01*
Y20685D01*
Y20692D01*
Y20698D01*
Y20705D01*
Y20711D01*
Y20718D01*
Y20724D01*
Y20731D01*
Y20737D01*
Y20744D01*
Y20750D01*
Y20756D01*
Y20763D01*
Y20769D01*
Y20776D01*
Y20782D01*
Y20789D01*
Y20795D01*
Y20802D01*
Y20808D01*
Y20815D01*
Y20821D01*
X26134D01*
Y20815D01*
D02*
G37*
G36*
X25649Y20821D02*
X25668D01*
Y20815D01*
X25681D01*
Y20808D01*
X25688D01*
Y20802D01*
X25694D01*
Y20795D01*
X25701D01*
Y20789D01*
Y20782D01*
X25707D01*
Y20776D01*
Y20769D01*
X25714D01*
Y20763D01*
Y20756D01*
Y20750D01*
Y20744D01*
Y20737D01*
Y20731D01*
Y20724D01*
Y20718D01*
Y20711D01*
Y20705D01*
Y20698D01*
Y20692D01*
Y20685D01*
Y20679D01*
Y20672D01*
X25707D01*
Y20666D01*
Y20659D01*
Y20653D01*
X25701D01*
Y20646D01*
Y20640D01*
X25694D01*
Y20634D01*
X25688D01*
Y20627D01*
X25681D01*
Y20621D01*
X25675D01*
Y20614D01*
X25662D01*
Y20608D01*
X25578D01*
Y20614D01*
X25565D01*
Y20621D01*
X25552D01*
Y20627D01*
X25545D01*
Y20634D01*
X25539D01*
Y20640D01*
Y20646D01*
X25532D01*
Y20653D01*
Y20659D01*
Y20666D01*
X25526D01*
Y20672D01*
Y20679D01*
Y20685D01*
Y20692D01*
Y20698D01*
Y20705D01*
Y20711D01*
Y20718D01*
Y20724D01*
Y20731D01*
Y20737D01*
Y20744D01*
Y20750D01*
Y20756D01*
Y20763D01*
X25532D01*
Y20769D01*
Y20776D01*
X25539D01*
Y20782D01*
Y20789D01*
X25545D01*
Y20795D01*
X25552D01*
Y20802D01*
X25558D01*
Y20808D01*
X25565D01*
Y20815D01*
X25578D01*
Y20821D01*
X25597D01*
Y20828D01*
X25649D01*
Y20821D01*
D02*
G37*
G36*
X24238Y21352D02*
Y21345D01*
Y21339D01*
Y21332D01*
Y21326D01*
Y21319D01*
Y21313D01*
Y21307D01*
Y21300D01*
Y21294D01*
Y21287D01*
Y21281D01*
Y21274D01*
Y21268D01*
Y21261D01*
Y21255D01*
Y21248D01*
Y21242D01*
Y21235D01*
Y21229D01*
Y21222D01*
Y21216D01*
Y21209D01*
Y21203D01*
Y21197D01*
Y21190D01*
Y21184D01*
Y21177D01*
Y21171D01*
Y21164D01*
Y21158D01*
Y21151D01*
Y21145D01*
Y21138D01*
Y21132D01*
Y21125D01*
Y21119D01*
Y21112D01*
Y21106D01*
Y21099D01*
Y21093D01*
Y21086D01*
Y21080D01*
Y21074D01*
Y21067D01*
Y21061D01*
Y21054D01*
Y21048D01*
Y21041D01*
Y21035D01*
Y21028D01*
Y21022D01*
Y21015D01*
Y21009D01*
Y21002D01*
Y20996D01*
Y20989D01*
Y20983D01*
Y20976D01*
Y20970D01*
Y20964D01*
Y20957D01*
Y20951D01*
Y20944D01*
Y20938D01*
Y20931D01*
Y20925D01*
Y20918D01*
Y20912D01*
Y20905D01*
Y20899D01*
Y20892D01*
Y20886D01*
Y20879D01*
Y20873D01*
Y20866D01*
Y20860D01*
Y20854D01*
Y20847D01*
Y20841D01*
Y20834D01*
Y20828D01*
Y20821D01*
Y20815D01*
Y20808D01*
Y20802D01*
Y20795D01*
Y20789D01*
Y20782D01*
Y20776D01*
Y20769D01*
Y20763D01*
Y20756D01*
Y20750D01*
Y20744D01*
Y20737D01*
Y20731D01*
Y20724D01*
Y20718D01*
Y20711D01*
Y20705D01*
Y20698D01*
Y20692D01*
Y20685D01*
Y20679D01*
Y20672D01*
Y20666D01*
Y20659D01*
Y20653D01*
Y20646D01*
Y20640D01*
Y20634D01*
Y20627D01*
Y20621D01*
Y20614D01*
Y20608D01*
Y20601D01*
Y20595D01*
Y20588D01*
Y20582D01*
Y20575D01*
Y20569D01*
Y20562D01*
Y20556D01*
Y20549D01*
Y20543D01*
Y20536D01*
Y20530D01*
Y20523D01*
Y20517D01*
Y20511D01*
Y20504D01*
Y20498D01*
Y20491D01*
Y20485D01*
Y20478D01*
Y20472D01*
Y20465D01*
Y20459D01*
Y20452D01*
Y20446D01*
Y20439D01*
Y20433D01*
Y20426D01*
Y20420D01*
X24232D01*
Y20426D01*
X24225D01*
Y20433D01*
X24219D01*
Y20439D01*
X24212D01*
Y20446D01*
X24206D01*
Y20452D01*
X24199D01*
Y20459D01*
X24193D01*
Y20465D01*
X24186D01*
Y20472D01*
X24180D01*
Y20478D01*
X24173D01*
Y20485D01*
X24167D01*
Y20491D01*
X24161D01*
Y20498D01*
X24154D01*
Y20504D01*
X24148D01*
Y20511D01*
X24141D01*
Y20517D01*
X24135D01*
Y20523D01*
X24128D01*
Y20530D01*
X24122D01*
Y20536D01*
X24115D01*
Y20543D01*
X24109D01*
Y20549D01*
X24102D01*
Y20556D01*
X24096D01*
Y20562D01*
X24089D01*
Y20569D01*
X24083D01*
Y20575D01*
X24076D01*
Y20582D01*
X24070D01*
Y20588D01*
X24063D01*
Y20595D01*
X24057D01*
Y20601D01*
X24051D01*
Y20608D01*
X24044D01*
Y20614D01*
X24038D01*
Y20621D01*
X24031D01*
Y20627D01*
X24025D01*
Y20634D01*
X24018D01*
Y20640D01*
X24012D01*
Y20646D01*
X24005D01*
Y20653D01*
X23999D01*
Y20659D01*
X23992D01*
Y20666D01*
X23986D01*
Y20672D01*
X23979D01*
Y20679D01*
X23973D01*
Y20685D01*
X23966D01*
Y20692D01*
X23960D01*
Y20698D01*
X23953D01*
Y20705D01*
X23947D01*
Y20711D01*
X23940D01*
Y20718D01*
X23934D01*
Y20724D01*
X23928D01*
Y20731D01*
X23921D01*
Y20737D01*
X23915D01*
Y20744D01*
X23908D01*
Y20750D01*
X23902D01*
Y20756D01*
X23895D01*
Y20763D01*
X23889D01*
Y20769D01*
X23882D01*
Y20776D01*
X23876D01*
Y20782D01*
X23869D01*
Y20789D01*
X23863D01*
Y20795D01*
X23856D01*
Y20802D01*
X23850D01*
Y20808D01*
X23843D01*
Y20815D01*
X23837D01*
Y20821D01*
X23830D01*
Y20828D01*
X23824D01*
Y20834D01*
X23818D01*
Y20841D01*
X23811D01*
Y20847D01*
X23805D01*
Y20854D01*
X23798D01*
Y20860D01*
X23792D01*
Y20866D01*
X23785D01*
Y20873D01*
X23779D01*
Y20879D01*
X23772D01*
Y20886D01*
X23766D01*
Y20892D01*
X23772D01*
Y20899D01*
X23779D01*
Y20905D01*
X23785D01*
Y20912D01*
X23792D01*
Y20918D01*
X23798D01*
Y20925D01*
X23805D01*
Y20931D01*
X23811D01*
Y20938D01*
X23818D01*
Y20944D01*
X23824D01*
Y20951D01*
X23830D01*
Y20957D01*
X23837D01*
Y20964D01*
X23843D01*
Y20970D01*
X23850D01*
Y20976D01*
X23856D01*
Y20983D01*
X23863D01*
Y20989D01*
X23869D01*
Y20996D01*
X23876D01*
Y21002D01*
X23882D01*
Y21009D01*
X23889D01*
Y21015D01*
X23895D01*
Y21022D01*
X23902D01*
Y21028D01*
X23908D01*
Y21035D01*
X23915D01*
Y21041D01*
X23921D01*
Y21048D01*
X23928D01*
Y21054D01*
X23934D01*
Y21061D01*
X23940D01*
Y21067D01*
X23947D01*
Y21074D01*
X23953D01*
Y21080D01*
X23960D01*
Y21086D01*
X23966D01*
Y21093D01*
X23973D01*
Y21099D01*
X23979D01*
Y21106D01*
X23986D01*
Y21112D01*
X23992D01*
Y21119D01*
X23999D01*
Y21125D01*
X24005D01*
Y21132D01*
X24012D01*
Y21138D01*
X24018D01*
Y21145D01*
X24025D01*
Y21151D01*
X24031D01*
Y21158D01*
X24038D01*
Y21164D01*
X24044D01*
Y21171D01*
X24051D01*
Y21177D01*
X24057D01*
Y21184D01*
X24063D01*
Y21190D01*
X24070D01*
Y21197D01*
X24076D01*
Y21203D01*
X24083D01*
Y21209D01*
X24089D01*
Y21216D01*
X24096D01*
Y21222D01*
X24102D01*
Y21229D01*
X24109D01*
Y21235D01*
X24115D01*
Y21242D01*
X24122D01*
Y21248D01*
X24128D01*
Y21255D01*
X24135D01*
Y21261D01*
X24141D01*
Y21268D01*
X24148D01*
Y21274D01*
X24154D01*
Y21281D01*
X24161D01*
Y21287D01*
X24167D01*
Y21294D01*
X24173D01*
Y21300D01*
X24180D01*
Y21307D01*
X24186D01*
Y21313D01*
X24193D01*
Y21319D01*
X24199D01*
Y21326D01*
X24206D01*
Y21332D01*
X24212D01*
Y21339D01*
X24219D01*
Y21345D01*
X24225D01*
Y21352D01*
X24232D01*
Y21358D01*
X24238D01*
Y21352D01*
D02*
G37*
G36*
X24736Y21365D02*
X24743D01*
Y21358D01*
X24749D01*
Y21352D01*
X24756D01*
Y21345D01*
X24762D01*
Y21339D01*
X24769D01*
Y21332D01*
X24775D01*
Y21326D01*
X24782D01*
Y21319D01*
X24788D01*
Y21313D01*
X24795D01*
Y21307D01*
X24801D01*
Y21300D01*
X24808D01*
Y21294D01*
X24814D01*
Y21287D01*
X24821D01*
Y21281D01*
X24827D01*
Y21274D01*
X24834D01*
Y21268D01*
X24840D01*
Y21261D01*
X24846D01*
Y21255D01*
X24853D01*
Y21248D01*
X24859D01*
Y21242D01*
X24866D01*
Y21235D01*
X24872D01*
Y21229D01*
X24879D01*
Y21222D01*
X24885D01*
Y21216D01*
X24892D01*
Y21209D01*
X24898D01*
Y21203D01*
X24905D01*
Y21197D01*
X24911D01*
Y21190D01*
X24918D01*
Y21184D01*
X24924D01*
Y21177D01*
X24931D01*
Y21171D01*
X24937D01*
Y21164D01*
X24944D01*
Y21158D01*
X24950D01*
Y21151D01*
X24957D01*
Y21145D01*
X24963D01*
Y21138D01*
X24969D01*
Y21132D01*
X24976D01*
Y21125D01*
X24982D01*
Y21119D01*
X24989D01*
Y21112D01*
X24995D01*
Y21106D01*
X25002D01*
Y21099D01*
X25008D01*
Y21093D01*
X25015D01*
Y21086D01*
X25021D01*
Y21080D01*
X25028D01*
Y21074D01*
X25034D01*
Y21067D01*
X25041D01*
Y21061D01*
X25047D01*
Y21054D01*
X25054D01*
Y21048D01*
X25060D01*
Y21041D01*
X25067D01*
Y21035D01*
X25073D01*
Y21028D01*
X25079D01*
Y21022D01*
X25086D01*
Y21015D01*
X25092D01*
Y21009D01*
X25099D01*
Y21002D01*
X25105D01*
Y20996D01*
X25112D01*
Y20989D01*
X25118D01*
Y20983D01*
X25125D01*
Y20976D01*
X25131D01*
Y20970D01*
X25138D01*
Y20964D01*
X25144D01*
Y20957D01*
X25151D01*
Y20951D01*
X25157D01*
Y20944D01*
X25164D01*
Y20938D01*
X25170D01*
Y20931D01*
X25177D01*
Y20925D01*
X25183D01*
Y20918D01*
X25189D01*
Y20912D01*
X25196D01*
Y20905D01*
X25202D01*
Y20899D01*
X25209D01*
Y20892D01*
X25215D01*
Y20886D01*
X25209D01*
Y20879D01*
X25202D01*
Y20873D01*
X25196D01*
Y20866D01*
X25189D01*
Y20860D01*
X25183D01*
Y20854D01*
X25177D01*
Y20847D01*
X25170D01*
Y20841D01*
X25164D01*
Y20834D01*
X25157D01*
Y20828D01*
X25151D01*
Y20821D01*
X25144D01*
Y20815D01*
X25138D01*
Y20808D01*
X25131D01*
Y20802D01*
X25125D01*
Y20795D01*
X25118D01*
Y20789D01*
X25112D01*
Y20782D01*
X25105D01*
Y20776D01*
X25099D01*
Y20769D01*
X25092D01*
Y20763D01*
X25086D01*
Y20756D01*
X25079D01*
Y20750D01*
X25073D01*
Y20744D01*
X25067D01*
Y20737D01*
X25060D01*
Y20731D01*
X25054D01*
Y20724D01*
X25047D01*
Y20718D01*
X25041D01*
Y20711D01*
X25034D01*
Y20705D01*
X25028D01*
Y20698D01*
X25021D01*
Y20692D01*
X25015D01*
Y20685D01*
X25008D01*
Y20679D01*
X25002D01*
Y20672D01*
X24995D01*
Y20666D01*
X24989D01*
Y20659D01*
X24982D01*
Y20653D01*
X24976D01*
Y20646D01*
X24969D01*
Y20640D01*
X24963D01*
Y20634D01*
X24957D01*
Y20627D01*
X24950D01*
Y20621D01*
X24944D01*
Y20614D01*
X24937D01*
Y20608D01*
X24931D01*
Y20601D01*
X24924D01*
Y20595D01*
X24918D01*
Y20588D01*
X24911D01*
Y20582D01*
X24905D01*
Y20575D01*
X24898D01*
Y20569D01*
X24892D01*
Y20562D01*
X24885D01*
Y20556D01*
X24879D01*
Y20549D01*
X24872D01*
Y20543D01*
X24866D01*
Y20536D01*
X24859D01*
Y20530D01*
X24853D01*
Y20523D01*
X24846D01*
Y20517D01*
X24840D01*
Y20511D01*
X24834D01*
Y20504D01*
X24827D01*
Y20498D01*
X24821D01*
Y20491D01*
X24814D01*
Y20485D01*
X24808D01*
Y20478D01*
X24801D01*
Y20472D01*
X24795D01*
Y20465D01*
X24788D01*
Y20459D01*
X24782D01*
Y20452D01*
X24775D01*
Y20446D01*
X24769D01*
Y20439D01*
X24762D01*
Y20433D01*
X24756D01*
Y20426D01*
X24749D01*
Y20420D01*
X24743D01*
Y20413D01*
X24736D01*
Y20407D01*
X24730D01*
Y20413D01*
Y20420D01*
Y20426D01*
Y20433D01*
Y20439D01*
Y20446D01*
Y20452D01*
Y20459D01*
Y20465D01*
Y20472D01*
Y20478D01*
Y20485D01*
Y20491D01*
Y20498D01*
Y20504D01*
Y20511D01*
Y20517D01*
Y20523D01*
Y20530D01*
Y20536D01*
Y20543D01*
Y20549D01*
Y20556D01*
Y20562D01*
Y20569D01*
Y20575D01*
Y20582D01*
Y20588D01*
Y20595D01*
Y20601D01*
Y20608D01*
Y20614D01*
Y20621D01*
Y20627D01*
Y20634D01*
Y20640D01*
Y20646D01*
Y20653D01*
Y20659D01*
Y20666D01*
Y20672D01*
Y20679D01*
Y20685D01*
Y20692D01*
Y20698D01*
Y20705D01*
Y20711D01*
Y20718D01*
Y20724D01*
Y20731D01*
Y20737D01*
Y20744D01*
Y20750D01*
Y20756D01*
Y20763D01*
Y20769D01*
Y20776D01*
Y20782D01*
Y20789D01*
Y20795D01*
Y20802D01*
Y20808D01*
Y20815D01*
Y20821D01*
Y20828D01*
Y20834D01*
Y20841D01*
Y20847D01*
Y20854D01*
Y20860D01*
Y20866D01*
Y20873D01*
Y20879D01*
Y20886D01*
Y20892D01*
Y20899D01*
Y20905D01*
Y20912D01*
Y20918D01*
Y20925D01*
Y20931D01*
Y20938D01*
Y20944D01*
Y20951D01*
Y20957D01*
Y20964D01*
Y20970D01*
Y20976D01*
Y20983D01*
Y20989D01*
Y20996D01*
Y21002D01*
Y21009D01*
Y21015D01*
Y21022D01*
Y21028D01*
Y21035D01*
Y21041D01*
Y21048D01*
Y21054D01*
Y21061D01*
Y21067D01*
Y21074D01*
Y21080D01*
Y21086D01*
Y21093D01*
Y21099D01*
Y21106D01*
Y21112D01*
Y21119D01*
Y21125D01*
Y21132D01*
Y21138D01*
Y21145D01*
Y21151D01*
Y21158D01*
Y21164D01*
Y21171D01*
Y21177D01*
Y21184D01*
Y21190D01*
Y21197D01*
Y21203D01*
Y21209D01*
Y21216D01*
Y21222D01*
Y21229D01*
Y21235D01*
Y21242D01*
Y21248D01*
Y21255D01*
Y21261D01*
Y21268D01*
Y21274D01*
Y21281D01*
Y21287D01*
Y21294D01*
Y21300D01*
Y21307D01*
Y21313D01*
Y21319D01*
Y21326D01*
Y21332D01*
Y21339D01*
Y21345D01*
Y21352D01*
Y21358D01*
Y21365D01*
Y21371D01*
X24736D01*
Y21365D01*
D02*
G37*
G36*
X24646Y20834D02*
Y20828D01*
Y20821D01*
Y20815D01*
Y20808D01*
Y20802D01*
Y20795D01*
Y20789D01*
Y20782D01*
Y20776D01*
Y20769D01*
Y20763D01*
Y20756D01*
Y20750D01*
Y20744D01*
Y20737D01*
Y20731D01*
Y20724D01*
Y20718D01*
Y20711D01*
Y20705D01*
Y20698D01*
Y20692D01*
Y20685D01*
Y20679D01*
Y20672D01*
Y20666D01*
Y20659D01*
Y20653D01*
Y20646D01*
Y20640D01*
Y20634D01*
Y20627D01*
Y20621D01*
Y20614D01*
Y20608D01*
Y20601D01*
Y20595D01*
Y20588D01*
Y20582D01*
Y20575D01*
Y20569D01*
Y20562D01*
Y20556D01*
Y20549D01*
Y20543D01*
Y20536D01*
Y20530D01*
Y20523D01*
Y20517D01*
Y20511D01*
Y20504D01*
Y20498D01*
Y20491D01*
Y20485D01*
Y20478D01*
Y20472D01*
Y20465D01*
Y20459D01*
Y20452D01*
Y20446D01*
Y20439D01*
Y20433D01*
Y20426D01*
Y20420D01*
Y20413D01*
Y20407D01*
Y20401D01*
Y20394D01*
Y20388D01*
Y20381D01*
Y20375D01*
Y20368D01*
Y20362D01*
Y20355D01*
Y20349D01*
Y20342D01*
X24322D01*
Y20349D01*
Y20355D01*
Y20362D01*
Y20368D01*
Y20375D01*
Y20381D01*
Y20388D01*
Y20394D01*
Y20401D01*
Y20407D01*
Y20413D01*
Y20420D01*
Y20426D01*
Y20433D01*
Y20439D01*
Y20446D01*
Y20452D01*
Y20459D01*
Y20465D01*
Y20472D01*
Y20478D01*
Y20485D01*
Y20491D01*
Y20498D01*
Y20504D01*
Y20511D01*
Y20517D01*
Y20523D01*
Y20530D01*
Y20536D01*
Y20543D01*
Y20549D01*
Y20556D01*
Y20562D01*
Y20569D01*
Y20575D01*
Y20582D01*
Y20588D01*
Y20595D01*
Y20601D01*
Y20608D01*
Y20614D01*
Y20621D01*
Y20627D01*
Y20634D01*
Y20640D01*
Y20646D01*
Y20653D01*
Y20659D01*
Y20666D01*
Y20672D01*
Y20679D01*
Y20685D01*
Y20692D01*
Y20698D01*
Y20705D01*
Y20711D01*
Y20718D01*
Y20724D01*
Y20731D01*
Y20737D01*
Y20744D01*
Y20750D01*
Y20756D01*
Y20763D01*
Y20769D01*
Y20776D01*
Y20782D01*
Y20789D01*
Y20795D01*
Y20802D01*
Y20808D01*
Y20815D01*
Y20821D01*
Y20828D01*
Y20834D01*
Y20841D01*
X24646D01*
Y20834D01*
D02*
G37*
%LPC*%
G36*
X28451Y21164D02*
X28445D01*
Y21158D01*
Y21151D01*
Y21145D01*
X28438D01*
Y21138D01*
Y21132D01*
Y21125D01*
X28432D01*
Y21119D01*
Y21112D01*
Y21106D01*
X28425D01*
Y21099D01*
Y21093D01*
Y21086D01*
X28419D01*
Y21080D01*
Y21074D01*
Y21067D01*
X28412D01*
Y21061D01*
Y21054D01*
Y21048D01*
X28406D01*
Y21041D01*
Y21035D01*
Y21028D01*
X28496D01*
Y21035D01*
Y21041D01*
X28490D01*
Y21048D01*
Y21054D01*
Y21061D01*
X28483D01*
Y21067D01*
Y21074D01*
Y21080D01*
X28477D01*
Y21086D01*
Y21093D01*
Y21099D01*
X28470D01*
Y21106D01*
Y21112D01*
Y21119D01*
X28464D01*
Y21125D01*
Y21132D01*
Y21138D01*
X28457D01*
Y21145D01*
Y21151D01*
Y21158D01*
X28451D01*
Y21164D01*
D02*
G37*
G36*
X26160D02*
X26154D01*
Y21158D01*
Y21151D01*
X26147D01*
Y21145D01*
Y21138D01*
Y21132D01*
X26141D01*
Y21125D01*
Y21119D01*
Y21112D01*
X26134D01*
Y21106D01*
Y21099D01*
Y21093D01*
X26128D01*
Y21086D01*
Y21080D01*
Y21074D01*
X26121D01*
Y21067D01*
Y21061D01*
Y21054D01*
X26115D01*
Y21048D01*
Y21041D01*
Y21035D01*
X26108D01*
Y21028D01*
X26205D01*
Y21035D01*
X26199D01*
Y21041D01*
Y21048D01*
Y21054D01*
X26193D01*
Y21061D01*
Y21067D01*
Y21074D01*
X26186D01*
Y21080D01*
Y21086D01*
Y21093D01*
X26180D01*
Y21099D01*
Y21106D01*
Y21112D01*
X26173D01*
Y21119D01*
Y21125D01*
Y21132D01*
X26167D01*
Y21138D01*
Y21145D01*
Y21151D01*
X26160D01*
Y21158D01*
Y21164D01*
D02*
G37*
G36*
X25856Y21184D02*
X25804D01*
Y21177D01*
X25785D01*
Y21171D01*
X25778D01*
Y21164D01*
X25765D01*
Y21158D01*
Y21151D01*
X25759D01*
Y21145D01*
X25752D01*
Y21138D01*
Y21132D01*
X25746D01*
Y21125D01*
Y21119D01*
Y21112D01*
Y21106D01*
X25740D01*
Y21099D01*
Y21093D01*
Y21086D01*
Y21080D01*
Y21074D01*
Y21067D01*
Y21061D01*
Y21054D01*
Y21048D01*
Y21041D01*
Y21035D01*
Y21028D01*
Y21022D01*
X25746D01*
Y21015D01*
Y21009D01*
Y21002D01*
Y20996D01*
X25752D01*
Y20989D01*
Y20983D01*
X25759D01*
Y20976D01*
X25765D01*
Y20970D01*
X25772D01*
Y20964D01*
X25778D01*
Y20957D01*
X25791D01*
Y20951D01*
X25862D01*
Y20957D01*
X25875D01*
Y20964D01*
X25882D01*
Y20970D01*
X25888D01*
Y20976D01*
X25895D01*
Y20983D01*
X25901D01*
Y20989D01*
Y20996D01*
X25908D01*
Y21002D01*
Y21009D01*
Y21015D01*
Y21022D01*
X25914D01*
Y21028D01*
Y21035D01*
Y21041D01*
Y21048D01*
Y21054D01*
Y21061D01*
Y21067D01*
Y21074D01*
Y21080D01*
Y21086D01*
Y21093D01*
Y21099D01*
Y21106D01*
Y21112D01*
X25908D01*
Y21119D01*
Y21125D01*
Y21132D01*
Y21138D01*
X25901D01*
Y21145D01*
Y21151D01*
X25895D01*
Y21158D01*
X25888D01*
Y21164D01*
X25882D01*
Y21171D01*
X25869D01*
Y21177D01*
X25856D01*
Y21184D01*
D02*
G37*
G36*
X27849Y20789D02*
X27797D01*
Y20782D01*
Y20776D01*
Y20769D01*
Y20763D01*
Y20756D01*
Y20750D01*
Y20744D01*
Y20737D01*
Y20731D01*
Y20724D01*
Y20718D01*
Y20711D01*
Y20705D01*
Y20698D01*
Y20692D01*
Y20685D01*
Y20679D01*
Y20672D01*
Y20666D01*
Y20659D01*
Y20653D01*
Y20646D01*
X27804D01*
Y20640D01*
X27843D01*
Y20646D01*
X27856D01*
Y20653D01*
X27869D01*
Y20659D01*
X27875D01*
Y20666D01*
Y20672D01*
X27882D01*
Y20679D01*
Y20685D01*
Y20692D01*
X27888D01*
Y20698D01*
Y20705D01*
Y20711D01*
Y20718D01*
Y20724D01*
Y20731D01*
Y20737D01*
X27882D01*
Y20744D01*
Y20750D01*
Y20756D01*
X27875D01*
Y20763D01*
Y20769D01*
X27869D01*
Y20776D01*
X27862D01*
Y20782D01*
X27849D01*
Y20789D01*
D02*
G37*
G36*
X26264Y20776D02*
X26257D01*
Y20769D01*
Y20763D01*
X26251D01*
Y20756D01*
Y20750D01*
Y20744D01*
X26244D01*
Y20737D01*
Y20731D01*
Y20724D01*
Y20718D01*
X26238D01*
Y20711D01*
Y20705D01*
Y20698D01*
X26231D01*
Y20692D01*
X26290D01*
Y20698D01*
Y20705D01*
X26283D01*
Y20711D01*
Y20718D01*
Y20724D01*
X26277D01*
Y20731D01*
Y20737D01*
Y20744D01*
X26270D01*
Y20750D01*
Y20756D01*
Y20763D01*
Y20769D01*
X26264D01*
Y20776D01*
D02*
G37*
G36*
X26121Y20789D02*
X26076D01*
Y20782D01*
Y20776D01*
Y20769D01*
Y20763D01*
Y20756D01*
Y20750D01*
Y20744D01*
Y20737D01*
Y20731D01*
Y20724D01*
Y20718D01*
X26121D01*
Y20724D01*
X26128D01*
Y20731D01*
Y20737D01*
X26134D01*
Y20744D01*
Y20750D01*
Y20756D01*
Y20763D01*
Y20769D01*
X26128D01*
Y20776D01*
Y20782D01*
X26121D01*
Y20789D01*
D02*
G37*
G36*
X25649D02*
X25597D01*
Y20782D01*
X25584D01*
Y20776D01*
X25578D01*
Y20769D01*
Y20763D01*
X25571D01*
Y20756D01*
Y20750D01*
Y20744D01*
X25565D01*
Y20737D01*
Y20731D01*
Y20724D01*
Y20718D01*
Y20711D01*
Y20705D01*
Y20698D01*
Y20692D01*
Y20685D01*
X25571D01*
Y20679D01*
Y20672D01*
Y20666D01*
X25578D01*
Y20659D01*
Y20653D01*
X25584D01*
Y20646D01*
X25597D01*
Y20640D01*
X25642D01*
Y20646D01*
X25649D01*
Y20653D01*
X25655D01*
Y20659D01*
X25662D01*
Y20666D01*
X25668D01*
Y20672D01*
Y20679D01*
Y20685D01*
X25675D01*
Y20692D01*
Y20698D01*
Y20705D01*
Y20711D01*
Y20718D01*
Y20724D01*
Y20731D01*
Y20737D01*
Y20744D01*
X25668D01*
Y20750D01*
Y20756D01*
Y20763D01*
X25662D01*
Y20769D01*
Y20776D01*
X25655D01*
Y20782D01*
X25649D01*
Y20789D01*
D02*
G37*
%LPD*%
D10*
X17501Y10791D02*
G03*
X17433Y11388I858J400D01*
G01*
X16152Y10792D02*
Y10988D01*
X16073Y10890D02*
X16231D01*
X33306Y19664D02*
X35196D01*
Y18207D02*
Y19664D01*
Y7853D02*
Y9310D01*
X33739Y7853D02*
X35196D01*
X23384D02*
X24841D01*
X23384D02*
Y9310D01*
Y18207D02*
Y19664D01*
X24841D01*
D11*
X33306Y20294D02*
G03*
X33306Y20294I-39J0D01*
G01*
X14652Y11313D02*
X16156D01*
X14652Y12147D02*
X16156D01*
X14652Y11313D02*
Y12147D01*
X16156Y11313D02*
Y12147D01*
X14652Y14557D02*
X16156D01*
X14652Y13723D02*
X16156D01*
Y14557D01*
X14652Y13723D02*
Y14557D01*
X22250Y19970D02*
Y21970D01*
X9250Y19970D02*
Y21970D01*
Y19970D02*
X22250D01*
X9250Y21970D02*
X22250D01*
X17700Y6420D02*
X24000D01*
Y120D02*
Y613D01*
X17700Y120D02*
X24000D01*
X17700D02*
Y613D01*
X24000Y6321D02*
Y6420D01*
X17700Y6321D02*
Y6420D01*
X21134Y15150D02*
X21252D01*
X21527D02*
X21606D01*
X21252Y14953D02*
Y15307D01*
Y14953D02*
X21527Y15150D01*
X21252Y15307D02*
X21527Y15150D01*
Y14953D02*
Y15347D01*
X22124Y11729D02*
X22479Y11374D01*
X19801Y11729D02*
X22124D01*
X22479Y10862D02*
Y11374D01*
Y9406D02*
Y9918D01*
X22124Y9051D02*
X22479Y9406D01*
X19801Y9051D02*
X22124D01*
X19801Y10862D02*
Y11729D01*
Y9051D02*
Y9918D01*
X12830Y12760D02*
X13530D01*
X12830Y11380D02*
X13530D01*
Y12231D02*
Y12760D01*
Y11380D02*
Y11926D01*
X12830Y11380D02*
Y11926D01*
Y12231D02*
Y12760D01*
X700Y9060D02*
X910D01*
X700D02*
Y11160D01*
X1390Y9970D02*
Y10250D01*
X820Y9970D02*
Y10250D01*
X700Y11160D02*
X1500D01*
Y9060D02*
Y11160D01*
X910Y9060D02*
X1500D01*
X25840Y6500D02*
Y6550D01*
Y5713D02*
Y5811D01*
Y4926D02*
Y5024D01*
Y4138D02*
Y4237D01*
Y3351D02*
Y3449D01*
Y2563D02*
Y2662D01*
Y1776D02*
Y1874D01*
Y989D02*
Y1087D01*
Y250D02*
Y300D01*
Y250D02*
X32140D01*
Y6500D02*
Y6550D01*
Y5713D02*
Y5811D01*
Y4926D02*
Y5024D01*
Y4138D02*
Y4237D01*
Y3351D02*
Y3449D01*
Y2563D02*
Y2662D01*
Y1776D02*
Y1874D01*
Y989D02*
Y1087D01*
Y250D02*
Y300D01*
X25840Y6550D02*
X32140D01*
X12090Y16441D02*
Y16969D01*
Y16441D02*
X12800D01*
Y16969D01*
Y17274D02*
Y17819D01*
X12090Y17274D02*
Y17819D01*
X12800D01*
X11993Y16138D02*
X12827D01*
X11993Y14634D02*
X12827D01*
X11993D02*
Y15032D01*
X12827Y14634D02*
Y15032D01*
Y15740D02*
Y16138D01*
X11993Y15740D02*
Y16138D01*
X14443Y17426D02*
X15277D01*
X14443Y15922D02*
X15277D01*
X14443D02*
Y17426D01*
X15277Y15922D02*
Y17426D01*
X11201Y16840D02*
X11729D01*
Y17550D01*
X11201D02*
X11729D01*
X10351D02*
X10896D01*
X10351Y16840D02*
X10896D01*
X10351D02*
Y17550D01*
X8708Y17110D02*
X9973D01*
Y12910D02*
Y17110D01*
X8708Y12910D02*
X9973D01*
X3801Y11946D02*
Y12698D01*
Y14961D02*
Y15414D01*
X179Y11946D02*
X3801D01*
X179D02*
Y15414D01*
X3801D01*
Y13162D02*
Y13898D01*
X9380Y2325D02*
Y4425D01*
X7570D02*
X7870D01*
X9090D02*
X9380D01*
X9120Y2325D02*
X9380D01*
X7570Y2335D02*
Y4425D01*
Y2335D02*
X7840D01*
X6751Y777D02*
Y1247D01*
Y777D02*
X8671D01*
Y1557D01*
X7571Y1427D02*
X7851D01*
X7571Y897D02*
X7851D01*
X6751Y1557D02*
X8671D01*
X6751Y1247D02*
Y1557D01*
X4202Y723D02*
Y1557D01*
X5706Y723D02*
Y1557D01*
X4202Y723D02*
X5706D01*
X4202Y1557D02*
X5706D01*
D12*
X24659Y970D02*
G03*
X24659Y970I-49J0D01*
G01*
X25063Y6156D02*
G03*
X25063Y6156I-49J0D01*
G01*
X11771Y13048D02*
G03*
X11771Y13048I-49J0D01*
G01*
X7013Y3012D02*
G03*
X7013Y3012I-49J0D01*
G01*
X15745Y1990D02*
G03*
X15745Y1990I-49J0D01*
G01*
X33709Y1944D02*
G03*
X33709Y1944I-49J0D01*
G01*
X25255Y6960D02*
G03*
X25255Y6960I-49J0D01*
G01*
X7995Y9980D02*
Y10970D01*
X12945D01*
Y9980D02*
Y10970D01*
Y6120D02*
Y7050D01*
X7995Y6120D02*
X12945D01*
X7995D02*
Y7040D01*
D13*
X14949Y1990D02*
G03*
X14949Y1990I-118J0D01*
G01*
X33778Y2809D02*
G03*
X33778Y2809I-118J0D01*
G01*
X24459Y6960D02*
G03*
X24459Y6960I-118J0D01*
G01*
X14830Y1892D02*
Y2088D01*
X14732Y1990D02*
X14928D01*
X33562Y2810D02*
X33758D01*
X33660Y2712D02*
Y2908D01*
X24340Y6862D02*
Y7058D01*
X24242Y6960D02*
X24438D01*
D14*
X17026Y3848D02*
Y6100D01*
X14074Y3848D02*
X17026D01*
X14074D02*
Y6100D01*
X17026D01*
X17035Y6726D02*
Y9892D01*
X13886Y6726D02*
Y9892D01*
Y6726D02*
X17035D01*
X13886D02*
X13901Y6742D01*
X13886Y9892D02*
X17035D01*
D15*
X16600Y950D02*
Y1030D01*
X16920Y950D02*
Y1030D01*
X16990Y450D02*
Y1520D01*
X16530Y450D02*
X16990D01*
X16530D02*
Y1520D01*
X16990D01*
X16020Y950D02*
Y1030D01*
X16340Y950D02*
Y1030D01*
X16410Y450D02*
Y1520D01*
X15950Y450D02*
X16410D01*
X15950D02*
Y1520D01*
X16410D01*
X16450Y2160D02*
X16530D01*
X16450Y1840D02*
X16530D01*
X15950Y1770D02*
X17020D01*
X15950D02*
Y2230D01*
X17020D01*
Y1770D02*
Y2230D01*
X15005Y12230D02*
Y12280D01*
Y12230D02*
X15905D01*
Y12280D01*
X15005Y12880D02*
Y12930D01*
X15905D01*
Y12880D02*
Y12930D01*
Y13600D02*
Y13650D01*
X15005D02*
X15905D01*
X15005Y13600D02*
Y13650D01*
X15905Y12950D02*
Y13000D01*
X15005Y12950D02*
X15905D01*
X15005D02*
Y13000D01*
X21140Y8270D02*
X21190D01*
X21140Y7370D02*
Y8270D01*
Y7370D02*
X21190D01*
X21790Y8270D02*
X21840D01*
Y7370D02*
Y8270D01*
X21790Y7370D02*
X21840D01*
X21360Y14720D02*
X21440D01*
X21360Y14400D02*
X21440D01*
X20860Y14330D02*
X21930D01*
X20860D02*
Y14790D01*
X21930D01*
Y14330D02*
Y14790D01*
X33960Y7220D02*
Y7270D01*
X33060D02*
X33960D01*
X33060Y7220D02*
Y7270D01*
X33960Y6570D02*
Y6620D01*
X33060Y6570D02*
X33960D01*
X33060D02*
Y6620D01*
X34015Y4040D02*
X34095D01*
X34015Y3720D02*
X34095D01*
X33515Y3650D02*
X34585D01*
X33515D02*
Y4110D01*
X34585D01*
Y3650D02*
Y4110D01*
X34015Y4580D02*
X34095D01*
X34015Y4260D02*
X34095D01*
X33515Y4190D02*
X34585D01*
X33515D02*
Y4650D01*
X34585D01*
Y4190D02*
Y4650D01*
D16*
X12500Y12750D02*
X12650D01*
X12530Y11370D02*
X12650D01*
Y11371D02*
Y12749D01*
X12550Y11371D02*
Y12749D01*
X12460Y11371D02*
Y12749D01*
X8220D02*
X12530D01*
X8220Y11371D02*
Y12749D01*
Y11371D02*
X12530D01*
X10020Y11560D02*
X10670D01*
X10020D02*
Y12580D01*
X10670D01*
Y11560D02*
Y12580D01*
X22660Y14280D02*
X22890D01*
X22680Y13100D02*
X22890D01*
Y13099D02*
Y14281D01*
X22800Y13099D02*
Y14281D01*
X22710Y13099D02*
Y14281D01*
X20090D02*
X22710D01*
X20090Y13099D02*
Y14281D01*
Y13099D02*
X22710D01*
X22660Y13000D02*
X22890D01*
X22680Y11820D02*
X22890D01*
Y11819D02*
Y13001D01*
X22800Y11819D02*
Y13001D01*
X22710Y11819D02*
Y13001D01*
X20090D02*
X22710D01*
X20090Y11819D02*
Y13001D01*
Y11819D02*
X22710D01*
X12930Y17190D02*
Y17340D01*
X14310Y17220D02*
Y17340D01*
X12931D02*
X14309D01*
X12931Y17240D02*
X14309D01*
X12931Y17150D02*
X14309D01*
X12931Y12910D02*
Y17220D01*
Y12910D02*
X14309D01*
Y17220D01*
X14120Y14710D02*
Y15360D01*
X13100Y14710D02*
X14120D01*
X13100D02*
Y15360D01*
X14120D01*
X13290Y5409D02*
X13768Y4931D01*
X12220Y5409D02*
X13290D01*
X9712Y4931D02*
X10190Y5409D01*
X9712Y876D02*
Y4931D01*
X12220Y876D02*
X13768D01*
Y4931D01*
X9712Y876D02*
X11260D01*
X10190Y5409D02*
X11260D01*
X215Y2569D02*
X7302D01*
X215Y7293D02*
X7302D01*
Y2569D02*
Y7293D01*
X215Y2569D02*
Y7293D01*
X2119Y11080D02*
X2597Y11558D01*
X2119Y10010D02*
Y11080D01*
Y7980D02*
X2597Y7502D01*
X6652D01*
Y10010D02*
Y11558D01*
X2597D02*
X6652D01*
Y7502D02*
Y9050D01*
X2119Y7980D02*
Y9050D01*
X32470Y20480D02*
Y20930D01*
Y21490D02*
Y21940D01*
X30250D02*
X32470D01*
X30250Y20480D02*
X32470D01*
X30860Y20960D02*
X31860D01*
X30860D02*
Y21460D01*
X31860D01*
Y20960D02*
Y21460D01*
X30250Y20480D02*
Y20930D01*
Y21490D02*
Y21940D01*
X35310Y5230D02*
X35260Y5180D01*
Y5080D01*
X35310Y5030D01*
X35510D01*
X35560Y5080D01*
Y5180D01*
X35510Y5230D01*
X35410D01*
Y5130D01*
X35560Y5330D02*
X35360D01*
X35260Y5430D01*
X35360Y5530D01*
X35560D01*
X35410D01*
Y5330D01*
X35260Y5630D02*
Y5830D01*
Y5730D01*
X35560D01*
X35260Y6130D02*
Y5930D01*
X35560D01*
Y6130D01*
X35410Y5930D02*
Y6030D01*
X35260Y6230D02*
X35560D01*
X35460Y6330D01*
X35560Y6430D01*
X35260D01*
X35560Y6530D02*
X35360D01*
X35260Y6629D01*
X35360Y6729D01*
X35560D01*
X35410D01*
Y6530D01*
X35260Y6829D02*
X35310D01*
X35410Y6929D01*
X35310Y7029D01*
X35260D01*
X35410Y6929D02*
X35560D01*
X4260Y12470D02*
X4210Y12420D01*
Y12320D01*
X4260Y12270D01*
X4460D01*
X4510Y12320D01*
Y12420D01*
X4460Y12470D01*
X4360D01*
Y12370D01*
X4510Y12570D02*
X4210D01*
X4510Y12770D01*
X4210D01*
Y12870D02*
X4510D01*
Y13020D01*
X4460Y13070D01*
X4260D01*
X4210Y13020D01*
Y12870D01*
X4360Y13880D02*
Y14080D01*
X4260Y13980D02*
X4460D01*
X4510Y14380D02*
Y14180D01*
X4310Y14380D01*
X4260D01*
X4210Y14330D01*
Y14230D01*
X4260Y14180D01*
X4510Y14630D02*
X4210D01*
X4360Y14480D01*
Y14680D01*
X4210Y14780D02*
X4410D01*
X4510Y14880D01*
X4410Y14980D01*
X4210D01*
X11040Y5970D02*
Y5570D01*
X11240Y5770D02*
X10840D01*
X1460Y8850D02*
X1860D01*
X1660Y9050D02*
Y8650D01*
X14190Y3580D02*
X13990D01*
Y3430D01*
X14090D01*
X13990D01*
Y3280D01*
X14290D02*
Y3480D01*
X14390Y3580D01*
X14490Y3480D01*
Y3280D01*
Y3430D01*
X14290D01*
X14590Y3280D02*
Y3580D01*
X14790Y3280D01*
Y3580D01*
X17360Y7090D02*
Y6790D01*
Y6940D01*
X17560D01*
Y7090D01*
Y6790D01*
X17660D02*
X17760D01*
X17710D01*
Y7090D01*
X17660Y7040D01*
X15990Y2350D02*
Y2650D01*
X16140D01*
X16190Y2600D01*
Y2500D01*
X16140Y2450D01*
X15990D01*
X16090D02*
X16190Y2350D01*
X16290Y2600D02*
X16340Y2650D01*
X16440D01*
X16490Y2600D01*
Y2550D01*
X16440Y2500D01*
X16390D01*
X16440D01*
X16490Y2450D01*
Y2400D01*
X16440Y2350D01*
X16340D01*
X16290Y2400D01*
X16590Y2600D02*
X16640Y2650D01*
X16740D01*
X16790Y2600D01*
Y2550D01*
X16740Y2500D01*
X16790Y2450D01*
Y2400D01*
X16740Y2350D01*
X16640D01*
X16590Y2400D01*
Y2450D01*
X16640Y2500D01*
X16590Y2550D01*
Y2600D01*
X16640Y2500D02*
X16740D01*
X15500Y1260D02*
X15800D01*
Y1110D01*
X15750Y1060D01*
X15650D01*
X15600Y1110D01*
Y1260D01*
Y1160D02*
X15500Y1060D01*
X15750Y960D02*
X15800Y910D01*
Y810D01*
X15750Y760D01*
X15700D01*
X15650Y810D01*
Y860D01*
Y810D01*
X15600Y760D01*
X15550D01*
X15500Y810D01*
Y910D01*
X15550Y960D01*
X15800Y660D02*
Y460D01*
X15750D01*
X15550Y660D01*
X15500D01*
X14960Y1260D02*
X15260D01*
Y1110D01*
X15210Y1060D01*
X15110D01*
X15060Y1110D01*
Y1260D01*
Y1160D02*
X14960Y1060D01*
X15210Y960D02*
X15260Y910D01*
Y810D01*
X15210Y760D01*
X15160D01*
X15110Y810D01*
Y860D01*
Y810D01*
X15060Y760D01*
X15010D01*
X14960Y810D01*
Y910D01*
X15010Y960D01*
X15260Y460D02*
X15210Y560D01*
X15110Y660D01*
X15010D01*
X14960Y610D01*
Y510D01*
X15010Y460D01*
X15060D01*
X15110Y510D01*
Y660D01*
X16320Y14270D02*
Y14570D01*
X16470D01*
X16520Y14520D01*
Y14420D01*
X16470Y14370D01*
X16320D01*
X16420D02*
X16520Y14270D01*
X16620Y14520D02*
X16670Y14570D01*
X16770D01*
X16820Y14520D01*
Y14470D01*
X16770Y14420D01*
X16720D01*
X16770D01*
X16820Y14370D01*
Y14320D01*
X16770Y14270D01*
X16670D01*
X16620Y14320D01*
X17120Y14570D02*
X16920D01*
Y14420D01*
X17020Y14470D01*
X17070D01*
X17120Y14420D01*
Y14320D01*
X17070Y14270D01*
X16970D01*
X16920Y14320D01*
X16300Y13660D02*
Y13360D01*
X16500D01*
X16800Y13660D02*
X16700Y13610D01*
X16600Y13510D01*
Y13410D01*
X16650Y13360D01*
X16750D01*
X16800Y13410D01*
Y13460D01*
X16750Y13510D01*
X16600D01*
X16300Y12910D02*
Y12610D01*
X16500D01*
X16600Y12860D02*
X16650Y12910D01*
X16750D01*
X16800Y12860D01*
Y12810D01*
X16750Y12760D01*
X16700D01*
X16750D01*
X16800Y12710D01*
Y12660D01*
X16750Y12610D01*
X16650D01*
X16600Y12660D01*
X16340Y11800D02*
Y12100D01*
X16490D01*
X16540Y12050D01*
Y11950D01*
X16490Y11900D01*
X16340D01*
X16440D02*
X16540Y11800D01*
X16640Y12050D02*
X16690Y12100D01*
X16790D01*
X16840Y12050D01*
Y12000D01*
X16790Y11950D01*
X16740D01*
X16790D01*
X16840Y11900D01*
Y11850D01*
X16790Y11800D01*
X16690D01*
X16640Y11850D01*
X17090Y11800D02*
Y12100D01*
X16940Y11950D01*
X17140D01*
X9370Y19690D02*
Y19390D01*
X9520D01*
X9570Y19440D01*
Y19540D01*
X9520Y19590D01*
X9370D01*
X9670Y19690D02*
X9770D01*
X9720D01*
Y19390D01*
X9670Y19440D01*
X17530Y10020D02*
Y9720D01*
X17680D01*
X17730Y9770D01*
Y9820D01*
X17680Y9870D01*
X17530D01*
X17680D01*
X17730Y9920D01*
Y9970D01*
X17680Y10020D01*
X17530D01*
X17830Y9720D02*
Y9920D01*
X17930Y10020D01*
X18030Y9920D01*
Y9720D01*
Y9870D01*
X17830D01*
X18130Y10020D02*
X18330D01*
X18230D01*
Y9720D01*
X18430D02*
X18530D01*
X18480D01*
Y10020D01*
X18430Y9970D01*
X29670Y20730D02*
X29620Y20780D01*
X29520D01*
X29470Y20730D01*
Y20680D01*
X29520Y20630D01*
X29620D01*
X29670Y20580D01*
Y20530D01*
X29620Y20480D01*
X29520D01*
X29470Y20530D01*
X29770Y20780D02*
Y20480D01*
X29870Y20580D01*
X29970Y20480D01*
Y20780D01*
X19430Y15250D02*
Y14950D01*
X19580D01*
X19630Y15000D01*
Y15200D01*
X19580Y15250D01*
X19430D01*
X19930D02*
X19830Y15200D01*
X19730Y15100D01*
Y15000D01*
X19780Y14950D01*
X19880D01*
X19930Y15000D01*
Y15050D01*
X19880Y15100D01*
X19730D01*
X5330Y17300D02*
X5580D01*
X5630Y17350D01*
Y17450D01*
X5580Y17500D01*
X5330D01*
Y17600D02*
Y17800D01*
X5380D01*
X5580Y17600D01*
X5630D01*
X200Y7780D02*
Y7530D01*
X250Y7480D01*
X350D01*
X400Y7530D01*
Y7780D01*
X700D02*
X600Y7730D01*
X500Y7630D01*
Y7530D01*
X550Y7480D01*
X650D01*
X700Y7530D01*
Y7580D01*
X650Y7630D01*
X500D01*
X10350Y17720D02*
Y18020D01*
X10500D01*
X10550Y17970D01*
Y17870D01*
X10500Y17820D01*
X10350D01*
X10450D02*
X10550Y17720D01*
X10650Y17970D02*
X10700Y18020D01*
X10800D01*
X10850Y17970D01*
Y17920D01*
X10800Y17870D01*
X10750D01*
X10800D01*
X10850Y17820D01*
Y17770D01*
X10800Y17720D01*
X10700D01*
X10650Y17770D01*
X10950Y17970D02*
X11000Y18020D01*
X11100D01*
X11150Y17970D01*
Y17920D01*
X11100Y17870D01*
X11050D01*
X11100D01*
X11150Y17820D01*
Y17770D01*
X11100Y17720D01*
X11000D01*
X10950Y17770D01*
X4210Y1700D02*
Y2000D01*
X4360D01*
X4410Y1950D01*
Y1850D01*
X4360Y1800D01*
X4210D01*
X4310D02*
X4410Y1700D01*
X4510Y1950D02*
X4560Y2000D01*
X4660D01*
X4710Y1950D01*
Y1900D01*
X4660Y1850D01*
X4610D01*
X4660D01*
X4710Y1800D01*
Y1750D01*
X4660Y1700D01*
X4560D01*
X4510Y1750D01*
X5010Y1700D02*
X4810D01*
X5010Y1900D01*
Y1950D01*
X4960Y2000D01*
X4860D01*
X4810Y1950D01*
X12770Y17970D02*
X12470D01*
Y18120D01*
X12520Y18170D01*
X12620D01*
X12670Y18120D01*
Y17970D01*
Y18070D02*
X12770Y18170D01*
X12520Y18270D02*
X12470Y18320D01*
Y18420D01*
X12520Y18470D01*
X12570D01*
X12620Y18420D01*
Y18370D01*
Y18420D01*
X12670Y18470D01*
X12720D01*
X12770Y18420D01*
Y18320D01*
X12720Y18270D01*
X12770Y18570D02*
Y18670D01*
Y18620D01*
X12470D01*
X12520Y18570D01*
X6770Y1720D02*
Y2020D01*
X6920D01*
X6970Y1970D01*
Y1870D01*
X6920Y1820D01*
X6770D01*
X6870D02*
X6970Y1720D01*
X7070Y1970D02*
X7120Y2020D01*
X7220D01*
X7270Y1970D01*
Y1920D01*
X7220Y1870D01*
X7170D01*
X7220D01*
X7270Y1820D01*
Y1770D01*
X7220Y1720D01*
X7120D01*
X7070Y1770D01*
X7370Y1970D02*
X7420Y2020D01*
X7520D01*
X7570Y1970D01*
Y1770D01*
X7520Y1720D01*
X7420D01*
X7370Y1770D01*
Y1970D01*
X3290Y15590D02*
Y15890D01*
X3440D01*
X3490Y15840D01*
Y15740D01*
X3440Y15690D01*
X3290D01*
X3790Y15590D02*
X3590D01*
X3790Y15790D01*
Y15840D01*
X3740Y15890D01*
X3640D01*
X3590Y15840D01*
X14740Y17890D02*
Y17590D01*
X14940D01*
X15240Y17890D02*
X15040D01*
Y17740D01*
X15140Y17790D01*
X15190D01*
X15240Y17740D01*
Y17640D01*
X15190Y17590D01*
X15090D01*
X15040Y17640D01*
X7310Y10070D02*
Y9770D01*
X7510D01*
X7760D02*
Y10070D01*
X7610Y9920D01*
X7810D01*
X7560Y4650D02*
X7860D01*
Y4800D01*
X7810Y4850D01*
X7610D01*
X7560Y4800D01*
Y4650D01*
X7860Y5150D02*
Y4950D01*
X7660Y5150D01*
X7610D01*
X7560Y5100D01*
Y5000D01*
X7610Y4950D01*
X13620Y17840D02*
X13570Y17890D01*
X13470D01*
X13420Y17840D01*
Y17640D01*
X13470Y17590D01*
X13570D01*
X13620Y17640D01*
X13920Y17590D02*
X13720D01*
X13920Y17790D01*
Y17840D01*
X13870Y17890D01*
X13770D01*
X13720Y17840D01*
X14220Y17590D02*
X14020D01*
X14220Y17790D01*
Y17840D01*
X14170Y17890D01*
X14070D01*
X14020Y17840D01*
X12530Y13970D02*
X12480Y13920D01*
Y13820D01*
X12530Y13770D01*
X12730D01*
X12780Y13820D01*
Y13920D01*
X12730Y13970D01*
X12780Y14270D02*
Y14070D01*
X12580Y14270D01*
X12530D01*
X12480Y14220D01*
Y14120D01*
X12530Y14070D01*
X12780Y14370D02*
Y14470D01*
Y14420D01*
X12480D01*
X12530Y14370D01*
X12140Y13190D02*
X12090Y13240D01*
X11990D01*
X11940Y13190D01*
Y12990D01*
X11990Y12940D01*
X12090D01*
X12140Y12990D01*
X12440Y12940D02*
X12240D01*
X12440Y13140D01*
Y13190D01*
X12390Y13240D01*
X12290D01*
X12240Y13190D01*
X12540D02*
X12590Y13240D01*
X12690D01*
X12740Y13190D01*
Y12990D01*
X12690Y12940D01*
X12590D01*
X12540Y12990D01*
Y13190D01*
X13240Y10665D02*
X13190Y10615D01*
Y10515D01*
X13240Y10465D01*
X13440D01*
X13490Y10515D01*
Y10615D01*
X13440Y10665D01*
X13490Y10765D02*
Y10865D01*
Y10815D01*
X13190D01*
X13240Y10765D01*
X13440Y11015D02*
X13490Y11065D01*
Y11165D01*
X13440Y11215D01*
X13240D01*
X13190Y11165D01*
Y11065D01*
X13240Y11015D01*
X13290D01*
X13340Y11065D01*
Y11215D01*
X13245Y5910D02*
X13195Y5960D01*
X13095D01*
X13045Y5910D01*
Y5710D01*
X13095Y5660D01*
X13195D01*
X13245Y5710D01*
X13345Y5660D02*
X13445D01*
X13395D01*
Y5960D01*
X13345Y5910D01*
X13595D02*
X13645Y5960D01*
X13745D01*
X13795Y5910D01*
Y5860D01*
X13745Y5810D01*
X13795Y5760D01*
Y5710D01*
X13745Y5660D01*
X13645D01*
X13595Y5710D01*
Y5760D01*
X13645Y5810D01*
X13595Y5860D01*
Y5910D01*
X13645Y5810D02*
X13745D01*
X6055Y12040D02*
X6005Y12090D01*
X5905D01*
X5855Y12040D01*
Y11840D01*
X5905Y11790D01*
X6005D01*
X6055Y11840D01*
X6155Y11790D02*
X6255D01*
X6205D01*
Y12090D01*
X6155Y12040D01*
X6405Y12090D02*
X6605D01*
Y12040D01*
X6405Y11840D01*
Y11790D01*
X915Y11580D02*
X865Y11630D01*
X765D01*
X715Y11580D01*
Y11380D01*
X765Y11330D01*
X865D01*
X915Y11380D01*
X1015Y11330D02*
X1115D01*
X1065D01*
Y11630D01*
X1015Y11580D01*
X1465Y11630D02*
X1365Y11580D01*
X1265Y11480D01*
Y11380D01*
X1315Y11330D01*
X1415D01*
X1465Y11380D01*
Y11430D01*
X1415Y11480D01*
X1265D01*
X22630Y6890D02*
Y6640D01*
X22680Y6590D01*
X22780D01*
X22830Y6640D01*
Y6890D01*
X23130Y6590D02*
X22930D01*
X23130Y6790D01*
Y6840D01*
X23080Y6890D01*
X22980D01*
X22930Y6840D01*
X32630Y20600D02*
Y20350D01*
X32680Y20300D01*
X32780D01*
X32830Y20350D01*
Y20600D01*
X32930Y20300D02*
X33030D01*
X32980D01*
Y20600D01*
X32930Y20550D01*
X31390Y6700D02*
Y7000D01*
X31490Y6900D01*
X31590Y7000D01*
Y6700D01*
X31690Y7000D02*
Y6700D01*
X31840D01*
X31890Y6750D01*
Y6950D01*
X31840Y7000D01*
X31690D01*
X31990Y6700D02*
X32090D01*
X32040D01*
Y7000D01*
X31990Y6950D01*
X34350Y7230D02*
Y6930D01*
X34550D01*
X34850D02*
X34650D01*
X34850Y7130D01*
Y7180D01*
X34800Y7230D01*
X34700D01*
X34650Y7180D01*
X22010Y8380D02*
Y8080D01*
X22210D01*
X22310D02*
X22410D01*
X22360D01*
Y8380D01*
X22310Y8330D01*
X34926Y4580D02*
X34876Y4630D01*
X34776D01*
X34726Y4580D01*
Y4380D01*
X34776Y4330D01*
X34876D01*
X34926Y4380D01*
X35026Y4330D02*
X35126D01*
X35076D01*
Y4630D01*
X35026Y4580D01*
X35275Y4330D02*
X35375D01*
X35325D01*
Y4630D01*
X35275Y4580D01*
X34926Y4020D02*
X34876Y4070D01*
X34776D01*
X34726Y4020D01*
Y3820D01*
X34776Y3770D01*
X34876D01*
X34926Y3820D01*
X35026Y3770D02*
X35126D01*
X35076D01*
Y4070D01*
X35026Y4020D01*
X35275D02*
X35325Y4070D01*
X35425D01*
X35475Y4020D01*
Y3820D01*
X35425Y3770D01*
X35325D01*
X35275Y3820D01*
Y4020D01*
X19610Y14715D02*
X19560Y14765D01*
X19460D01*
X19410Y14715D01*
Y14515D01*
X19460Y14465D01*
X19560D01*
X19610Y14515D01*
X19710Y14715D02*
X19760Y14765D01*
X19860D01*
X19910Y14715D01*
Y14665D01*
X19860Y14615D01*
X19910Y14565D01*
Y14515D01*
X19860Y14465D01*
X19760D01*
X19710Y14515D01*
Y14565D01*
X19760Y14615D01*
X19710Y14665D01*
Y14715D01*
X19760Y14615D02*
X19860D01*
X19980Y8790D02*
X19930Y8840D01*
X19830D01*
X19780Y8790D01*
Y8590D01*
X19830Y8540D01*
X19930D01*
X19980Y8590D01*
X20080Y8840D02*
X20280D01*
Y8790D01*
X20080Y8590D01*
Y8540D01*
X19600Y14230D02*
X19550Y14280D01*
X19450D01*
X19400Y14230D01*
Y14030D01*
X19450Y13980D01*
X19550D01*
X19600Y14030D01*
X19900Y14280D02*
X19800Y14230D01*
X19700Y14130D01*
Y14030D01*
X19750Y13980D01*
X19850D01*
X19900Y14030D01*
Y14080D01*
X19850Y14130D01*
X19700D01*
X19600Y12910D02*
X19550Y12960D01*
X19450D01*
X19400Y12910D01*
Y12710D01*
X19450Y12660D01*
X19550D01*
X19600Y12710D01*
X19900Y12960D02*
X19700D01*
Y12810D01*
X19800Y12860D01*
X19850D01*
X19900Y12810D01*
Y12710D01*
X19850Y12660D01*
X19750D01*
X19700Y12710D01*
D17*
X20464Y15416D02*
Y15511D01*
X22270D01*
X22320D01*
Y15250D02*
Y15511D01*
X22270Y15250D02*
X22320D01*
X22270D02*
Y15511D01*
Y14789D02*
Y15050D01*
X22320D01*
Y14789D02*
Y15050D01*
X22270Y14789D02*
X22320D01*
X20464D02*
X22270D01*
X20464D02*
Y14884D01*
D18*
X13451Y11982D02*
Y12162D01*
X12911Y11982D02*
Y12162D01*
X12176Y17038D02*
Y17218D01*
X12716Y17038D02*
Y17218D01*
X10952Y16926D02*
X11132D01*
X10952Y17466D02*
X11132D01*
D19*
X4704Y2843D02*
X4707Y2840D01*
X4704Y2843D02*
Y6370D01*
X3790Y2840D02*
X4707D01*
X3770Y6920D02*
X4690D01*
Y2870D02*
Y6920D01*
D20*
X9020Y21360D02*
X9120D01*
X9070D01*
Y21660D01*
X9020Y21610D01*
X9110Y20300D02*
X8910D01*
X9110Y20500D01*
Y20550D01*
X9060Y20600D01*
X8960D01*
X8910Y20550D01*
X22630Y21300D02*
X22430D01*
X22630Y21500D01*
Y21550D01*
X22580Y21600D01*
X22480D01*
X22430Y21550D01*
X22930Y21600D02*
X22730D01*
Y21450D01*
X22830Y21500D01*
X22880D01*
X22930Y21450D01*
Y21350D01*
X22880Y21300D01*
X22780D01*
X22730Y21350D01*
X22640Y20290D02*
X22440D01*
X22640Y20490D01*
Y20540D01*
X22590Y20590D01*
X22490D01*
X22440Y20540D01*
X22940Y20590D02*
X22840Y20540D01*
X22740Y20440D01*
Y20340D01*
X22790Y20290D01*
X22890D01*
X22940Y20340D01*
Y20390D01*
X22890Y20440D01*
X22740D01*
X6026Y2933D02*
X6007Y2970D01*
X5951Y3026D01*
X6344D01*
D21*
X5064Y3573D02*
D03*
Y6250D02*
D03*
D22*
X5064Y4242D02*
D03*
Y4911D02*
D03*
Y5580D02*
D03*
D23*
X31360Y21210D02*
D03*
D24*
X7769Y3966D02*
D03*
X9191D02*
D03*
M02*
