G04*
G04 #@! TF.GenerationSoftware,Altium Limited,Altium Designer,20.2.6 (244)*
G04*
G04 Layer_Color=255*
%FSLAX24Y24*%
%MOIN*%
G70*
G04*
G04 #@! TF.SameCoordinates,01985295-A94F-4E40-9557-9D24556334AB*
G04*
G04*
G04 #@! TF.FilePolarity,Positive*
G04*
G01*
G75*
%ADD25R,0.0807X0.0354*%
%ADD26R,0.0512X0.0591*%
%ADD27R,0.0374X0.0394*%
%ADD28R,0.0394X0.0374*%
%ADD29R,0.0500X0.0550*%
%ADD30O,0.0236X0.0709*%
%ADD31O,0.0709X0.0236*%
G04:AMPARAMS|DCode=32|XSize=98.4mil|YSize=39.4mil|CornerRadius=19.7mil|HoleSize=0mil|Usage=FLASHONLY|Rotation=0.000|XOffset=0mil|YOffset=0mil|HoleType=Round|Shape=RoundedRectangle|*
%AMROUNDEDRECTD32*
21,1,0.0984,0.0000,0,0,0.0*
21,1,0.0591,0.0394,0,0,0.0*
1,1,0.0394,0.0295,0.0000*
1,1,0.0394,-0.0295,0.0000*
1,1,0.0394,-0.0295,0.0000*
1,1,0.0394,0.0295,0.0000*
%
%ADD32ROUNDEDRECTD32*%
%ADD33R,0.1575X0.1102*%
%ADD34R,0.1772X0.2165*%
%ADD35R,0.0550X0.0500*%
%ADD36R,0.0354X0.0374*%
%ADD37R,0.0984X0.0984*%
%ADD38R,0.1378X0.0630*%
%ADD39R,0.0551X0.0472*%
%ADD40R,0.0669X0.0669*%
%ADD41R,0.1378X0.0394*%
%ADD42R,0.0591X0.0512*%
%ADD43R,0.1102X0.1575*%
%ADD44R,0.0472X0.0551*%
%ADD45R,0.1590X0.0410*%
%ADD46R,0.3270X0.4230*%
%ADD47R,0.0709X0.1575*%
G04:AMPARAMS|DCode=48|XSize=39.4mil|YSize=133.9mil|CornerRadius=9.8mil|HoleSize=0mil|Usage=FLASHONLY|Rotation=90.000|XOffset=0mil|YOffset=0mil|HoleType=Round|Shape=RoundedRectangle|*
%AMROUNDEDRECTD48*
21,1,0.0394,0.1142,0,0,90.0*
21,1,0.0197,0.1339,0,0,90.0*
1,1,0.0197,0.0571,0.0098*
1,1,0.0197,0.0571,-0.0098*
1,1,0.0197,-0.0571,-0.0098*
1,1,0.0197,-0.0571,0.0098*
%
%ADD48ROUNDEDRECTD48*%
%ADD49R,0.3346X0.4528*%
%ADD50R,0.1575X0.0709*%
%ADD51R,0.0787X0.0551*%
%ADD52R,0.0906X0.0984*%
%ADD53R,0.0591X0.0630*%
%ADD54R,0.0394X0.0197*%
%ADD55R,0.0591X0.0236*%
%ADD56R,0.0217X0.0197*%
%ADD57R,0.0197X0.0394*%
%ADD58R,0.0236X0.0591*%
%ADD59R,0.0197X0.0217*%
%ADD104R,0.0630X0.0630*%
%ADD105C,0.0630*%
%ADD106C,0.0984*%
%ADD107C,0.1772*%
%ADD108R,0.0591X0.0591*%
%ADD109C,0.0591*%
%ADD110O,0.1100X0.0827*%
%ADD111R,0.1100X0.0827*%
D25*
X16890Y11481D02*
D03*
Y10890D02*
D03*
D26*
X15778Y11730D02*
D03*
X15030D02*
D03*
Y14140D02*
D03*
X15778D02*
D03*
X5328Y1140D02*
D03*
X4580D02*
D03*
D27*
X16760Y695D02*
D03*
Y1285D02*
D03*
X16180Y695D02*
D03*
Y1285D02*
D03*
D28*
X16195Y2000D02*
D03*
X16785D02*
D03*
X21105Y14560D02*
D03*
X21695D02*
D03*
X33760Y3880D02*
D03*
X34351D02*
D03*
X33760Y4420D02*
D03*
X34351D02*
D03*
D29*
X15905Y12580D02*
D03*
X15005D02*
D03*
Y13300D02*
D03*
X15905D02*
D03*
X33060Y6920D02*
D03*
X33960D02*
D03*
D30*
X33030Y19703D02*
D03*
X32636D02*
D03*
X32243D02*
D03*
X31849D02*
D03*
X31455D02*
D03*
X31062D02*
D03*
X30668D02*
D03*
X30274D02*
D03*
X29881D02*
D03*
X29487D02*
D03*
X29093D02*
D03*
X28699D02*
D03*
X28306D02*
D03*
X27912D02*
D03*
X27518D02*
D03*
X27125D02*
D03*
X26731D02*
D03*
X26337D02*
D03*
X25944D02*
D03*
X25550D02*
D03*
Y7813D02*
D03*
X25944D02*
D03*
X26337D02*
D03*
X26731D02*
D03*
X27125D02*
D03*
X27518D02*
D03*
X27912D02*
D03*
X28306D02*
D03*
X28699D02*
D03*
X29093D02*
D03*
X29487D02*
D03*
X29881D02*
D03*
X30274D02*
D03*
X30668D02*
D03*
X31062D02*
D03*
X31455D02*
D03*
X31849D02*
D03*
X32243D02*
D03*
X32636D02*
D03*
X33030D02*
D03*
X25156Y19703D02*
D03*
Y7813D02*
D03*
X33424D02*
D03*
D31*
X23345Y17499D02*
D03*
Y17105D02*
D03*
Y16711D02*
D03*
Y16317D02*
D03*
Y15924D02*
D03*
Y15530D02*
D03*
Y15136D02*
D03*
Y14743D02*
D03*
Y14349D02*
D03*
Y13955D02*
D03*
Y13562D02*
D03*
Y13168D02*
D03*
Y12774D02*
D03*
Y12380D02*
D03*
Y11987D02*
D03*
Y11593D02*
D03*
Y11199D02*
D03*
Y10806D02*
D03*
Y10412D02*
D03*
Y10018D02*
D03*
X35235D02*
D03*
Y10412D02*
D03*
Y10806D02*
D03*
Y11199D02*
D03*
Y11593D02*
D03*
Y11987D02*
D03*
Y12380D02*
D03*
Y12774D02*
D03*
Y13168D02*
D03*
Y13562D02*
D03*
Y13955D02*
D03*
Y14349D02*
D03*
Y14743D02*
D03*
Y15136D02*
D03*
Y15530D02*
D03*
Y15924D02*
D03*
Y16317D02*
D03*
Y16711D02*
D03*
Y17105D02*
D03*
Y17499D02*
D03*
X23345Y9624D02*
D03*
Y17892D02*
D03*
X35235D02*
D03*
Y9624D02*
D03*
D32*
X23901Y967D02*
D03*
Y1967D02*
D03*
Y2967D02*
D03*
Y3967D02*
D03*
Y4967D02*
D03*
Y5967D02*
D03*
X17799D02*
D03*
Y4967D02*
D03*
Y3967D02*
D03*
Y2967D02*
D03*
Y1967D02*
D03*
Y967D02*
D03*
D33*
X9100Y12060D02*
D03*
X11580D02*
D03*
D34*
X12675Y8520D02*
D03*
X8345D02*
D03*
D35*
X21490Y7370D02*
D03*
Y8270D02*
D03*
D36*
X21990Y15150D02*
D03*
X20750D02*
D03*
D37*
X20672Y13690D02*
D03*
X22128D02*
D03*
X20672Y12410D02*
D03*
X22128D02*
D03*
X16240Y8120D02*
D03*
D38*
X22203Y10390D02*
D03*
X20077D02*
D03*
D39*
X13181Y11698D02*
D03*
Y12446D02*
D03*
X12446Y16754D02*
D03*
Y17502D02*
D03*
D40*
X1100Y9461D02*
D03*
Y10760D02*
D03*
D41*
X32041Y6156D02*
D03*
Y5368D02*
D03*
Y4581D02*
D03*
Y3794D02*
D03*
Y3006D02*
D03*
Y2219D02*
D03*
Y1432D02*
D03*
Y644D02*
D03*
X25939D02*
D03*
Y1432D02*
D03*
Y2219D02*
D03*
Y3006D02*
D03*
Y3794D02*
D03*
Y4581D02*
D03*
Y5368D02*
D03*
Y6156D02*
D03*
D42*
X12410Y15012D02*
D03*
Y15760D02*
D03*
X14860Y16300D02*
D03*
Y17048D02*
D03*
D43*
X13620Y13790D02*
D03*
Y16270D02*
D03*
D44*
X11416Y17196D02*
D03*
X10668D02*
D03*
D45*
X11040Y13670D02*
D03*
Y14340D02*
D03*
Y15010D02*
D03*
Y15680D02*
D03*
Y16350D02*
D03*
D46*
X6925Y15010D02*
D03*
D47*
X11740Y4970D02*
D03*
Y1348D02*
D03*
D48*
X6364Y3573D02*
D03*
Y6250D02*
D03*
Y4911D02*
D03*
Y5580D02*
D03*
Y4242D02*
D03*
D49*
X2010Y4960D02*
D03*
D50*
X2558Y9530D02*
D03*
X6180D02*
D03*
D51*
X32620Y21210D02*
D03*
X30100D02*
D03*
D52*
X8480Y2514D02*
D03*
Y4236D02*
D03*
D53*
X8301Y1167D02*
D03*
X7120D02*
D03*
D54*
X15283Y1990D02*
D03*
X24793Y6960D02*
D03*
D55*
X14830Y1596D02*
D03*
Y2384D02*
D03*
X24340Y6566D02*
D03*
Y7354D02*
D03*
D56*
X14426Y1990D02*
D03*
X23936Y6960D02*
D03*
D57*
X33660Y2357D02*
D03*
D58*
X33266Y2810D02*
D03*
X34054D02*
D03*
D59*
X33660Y3214D02*
D03*
D104*
X16050Y5210D02*
D03*
D105*
X15050D02*
D03*
D106*
X14681Y8120D02*
D03*
D107*
X34729Y20902D02*
D03*
X1219Y1042D02*
D03*
Y20902D02*
D03*
X34729Y1042D02*
D03*
D108*
X9750Y21470D02*
D03*
D109*
Y20470D02*
D03*
X10750Y21470D02*
D03*
Y20470D02*
D03*
X11750Y21470D02*
D03*
Y20470D02*
D03*
X12750Y21470D02*
D03*
Y20470D02*
D03*
X13750Y21470D02*
D03*
Y20470D02*
D03*
X14750Y21470D02*
D03*
Y20470D02*
D03*
X15750Y21470D02*
D03*
Y20470D02*
D03*
X16750Y21470D02*
D03*
Y20470D02*
D03*
X17750Y21470D02*
D03*
Y20470D02*
D03*
X18750Y21470D02*
D03*
Y20470D02*
D03*
X19750Y21470D02*
D03*
Y20470D02*
D03*
X20750Y21470D02*
D03*
Y20470D02*
D03*
X21750Y21470D02*
D03*
Y20470D02*
D03*
D110*
X3329Y12930D02*
D03*
D111*
Y14430D02*
D03*
M02*
