G04*
G04 #@! TF.GenerationSoftware,Altium Limited,Altium Designer,20.2.6 (244)*
G04*
G04 Layer_Color=32768*
%FSLAX24Y24*%
%MOIN*%
G70*
G04*
G04 #@! TF.SameCoordinates,01985295-A94F-4E40-9557-9D24556334AB*
G04*
G04*
G04 #@! TF.FilePolarity,Positive*
G04*
G01*
G75*
%ADD10C,0.0050*%
%ADD11C,0.0079*%
%ADD12C,0.0098*%
%ADD13C,0.0039*%
%ADD17C,0.0059*%
%ADD167R,0.1098X0.0238*%
D10*
X1713Y15740D02*
Y17607D01*
X367D02*
X1713D01*
X367Y15740D02*
Y17607D01*
Y15740D02*
X1713D01*
D11*
X22207Y318D02*
Y1617D01*
X20199Y318D02*
X22207D01*
X20199D02*
Y1617D01*
X22207D01*
X33490Y16124D02*
X34790D01*
Y14116D02*
Y16124D01*
X33490Y14116D02*
X34790D01*
X33490D02*
Y16124D01*
X34549Y17984D02*
Y18496D01*
Y17984D02*
X35691D01*
Y18496D01*
X34549D02*
X35691D01*
X29955Y17302D02*
Y17932D01*
Y17302D02*
X31097D01*
Y17932D01*
X29955D02*
X31097D01*
X32531Y17305D02*
Y17935D01*
X31389D02*
X32531D01*
X31389Y17305D02*
Y17935D01*
Y17305D02*
X32531D01*
X32060Y14380D02*
Y15994D01*
X30446Y14380D02*
X32060D01*
X30446D02*
Y15994D01*
X32060D01*
X33289Y11754D02*
Y12266D01*
Y11754D02*
X34431D01*
Y12266D01*
X33289D02*
X34431D01*
X23093Y7991D02*
X24235D01*
X23093Y7480D02*
X24235D01*
X23093D02*
Y7991D01*
X24235Y7480D02*
Y7991D01*
X19748Y4543D02*
Y5685D01*
X19236Y4543D02*
Y5685D01*
X19748D01*
X19236Y4543D02*
X19748D01*
X21942Y2220D02*
Y3834D01*
X20328D02*
X21942D01*
X20328Y2220D02*
Y3834D01*
Y2220D02*
X21942D01*
X13660Y3860D02*
Y5850D01*
X14720D01*
Y3860D02*
Y5850D01*
X13660Y3860D02*
X14720D01*
X14190Y4750D02*
Y5010D01*
X14060Y4880D02*
X14320D01*
D12*
X4270Y14803D02*
Y18053D01*
X6820Y14803D02*
Y18053D01*
X4270Y14803D02*
X6820D01*
X4270Y18053D02*
X6820D01*
X5270Y16403D02*
X5770D01*
X5520Y16153D02*
Y16653D01*
D13*
X23295Y5973D02*
X23925D01*
X23295Y6287D02*
X23925D01*
X23295Y5973D02*
Y6287D01*
X23925Y5973D02*
Y6287D01*
X23295Y6513D02*
X23925D01*
X23295Y6827D02*
X23925D01*
X23295Y6513D02*
Y6827D01*
X23925Y6513D02*
Y6827D01*
X31873Y13005D02*
X32187D01*
X31873Y13635D02*
X32187D01*
Y13005D02*
Y13635D01*
X31873Y13005D02*
Y13635D01*
X24567Y12825D02*
Y13455D01*
X24253Y12825D02*
Y13455D01*
Y12825D02*
X24567D01*
X24253Y13455D02*
X24567D01*
X25372Y12845D02*
Y13475D01*
X25058Y12845D02*
Y13475D01*
Y12845D02*
X25372D01*
X25058Y13475D02*
X25372D01*
X26192Y12845D02*
Y13475D01*
X25878Y12845D02*
Y13475D01*
Y12845D02*
X26192D01*
X25878Y13475D02*
X26192D01*
X27757Y14145D02*
Y14775D01*
X27443Y14145D02*
Y14775D01*
Y14145D02*
X27757D01*
X27443Y14775D02*
X27757D01*
X27030Y13926D02*
Y14714D01*
X26538Y13926D02*
Y14714D01*
X27030D01*
X26538Y13926D02*
X27030D01*
X25888Y13985D02*
X26202D01*
X25888Y14615D02*
X26202D01*
Y13985D02*
Y14615D01*
X25888Y13985D02*
Y14615D01*
X25063Y13985D02*
X25377D01*
X25063Y14615D02*
X25377D01*
Y13985D02*
Y14615D01*
X25063Y13985D02*
Y14615D01*
X24243Y13965D02*
X24557D01*
X24243Y14595D02*
X24557D01*
Y13965D02*
Y14595D01*
X24243Y13965D02*
Y14595D01*
X24138Y15730D02*
Y21930D01*
X29188D01*
X24138Y15730D02*
X28738D01*
X29188D02*
Y21930D01*
X28738Y15730D02*
X29188D01*
X30460Y20803D02*
Y21117D01*
X31090Y20803D02*
Y21117D01*
X30460Y20803D02*
X31090D01*
X30460Y21117D02*
X31090D01*
X30455Y21323D02*
Y21637D01*
X31085Y21323D02*
Y21637D01*
X30455Y21323D02*
X31085D01*
X30455Y21637D02*
X31085D01*
X31804Y21673D02*
X32336D01*
X31804Y20807D02*
X32336D01*
Y21673D01*
X31804Y20807D02*
Y21673D01*
X33655Y13453D02*
Y13767D01*
X34285Y13453D02*
Y13767D01*
X33655Y13453D02*
X34285D01*
X33655Y13767D02*
X34285D01*
X34625Y16463D02*
Y16777D01*
X33995Y16463D02*
Y16777D01*
X34625D01*
X33995Y16463D02*
X34625D01*
Y17013D02*
Y17327D01*
X33995Y17013D02*
Y17327D01*
X34625D01*
X33995Y17013D02*
X34625D01*
X33993Y18485D02*
X34307D01*
X33993Y19115D02*
X34307D01*
Y18485D02*
Y19115D01*
X33993Y18485D02*
Y19115D01*
X34785Y18923D02*
Y19237D01*
X35415Y18923D02*
Y19237D01*
X34785Y18923D02*
X35415D01*
X34785Y19237D02*
X35415D01*
X30343Y12975D02*
X30657D01*
X30343Y13605D02*
X30657D01*
Y12975D02*
Y13605D01*
X30343Y12975D02*
Y13605D01*
X31033Y13005D02*
X31347D01*
X31033Y13635D02*
X31347D01*
Y13005D02*
Y13635D01*
X31033Y13005D02*
Y13635D01*
X30873Y11174D02*
Y11706D01*
X30007Y11174D02*
Y11706D01*
Y11174D02*
X30873D01*
X30007Y11706D02*
X30873D01*
X30265Y12193D02*
Y12507D01*
X29635Y12193D02*
Y12507D01*
X30265D01*
X29635Y12193D02*
X30265D01*
X29823Y12975D02*
Y13605D01*
X30137Y12975D02*
Y13605D01*
X29823D02*
X30137D01*
X29823Y12975D02*
X30137D01*
X29223D02*
X29537D01*
X29223Y13605D02*
X29537D01*
Y12975D02*
Y13605D01*
X29223Y12975D02*
Y13605D01*
X33645Y12943D02*
Y13257D01*
X34275Y12943D02*
Y13257D01*
X33645Y12943D02*
X34275D01*
X33645Y13257D02*
X34275D01*
X32463Y11975D02*
X32777D01*
X32463Y12605D02*
X32777D01*
Y11975D02*
Y12605D01*
X32463Y11975D02*
Y12605D01*
X29483Y11015D02*
X29797D01*
X29483Y11645D02*
X29797D01*
Y11015D02*
Y11645D01*
X29483Y11015D02*
Y11645D01*
X30813Y8534D02*
Y9066D01*
X29947Y8534D02*
Y9066D01*
Y8534D02*
X30813D01*
X29947Y9066D02*
X30813D01*
X29433Y8605D02*
X29747D01*
X29433Y9235D02*
X29747D01*
Y8605D02*
Y9235D01*
X29433Y8605D02*
Y9235D01*
X28743Y8635D02*
X29057D01*
X28743Y9265D02*
X29057D01*
Y8635D02*
Y9265D01*
X28743Y8635D02*
Y9265D01*
X28243Y8625D02*
X28557D01*
X28243Y9255D02*
X28557D01*
Y8625D02*
Y9255D01*
X28243Y8625D02*
Y9255D01*
X22555Y8543D02*
Y8857D01*
X21925Y8543D02*
Y8857D01*
X22555D01*
X21925Y8543D02*
X22555D01*
X20825D02*
Y8857D01*
X21455Y8543D02*
Y8857D01*
X20825Y8543D02*
X21455D01*
X20825Y8857D02*
X21455D01*
X19425Y6363D02*
Y6677D01*
X20055Y6363D02*
Y6677D01*
X19425Y6363D02*
X20055D01*
X19425Y6677D02*
X20055D01*
X19425Y5823D02*
Y6137D01*
X20055Y5823D02*
Y6137D01*
X19425Y5823D02*
X20055D01*
X19425Y6137D02*
X20055D01*
X21833Y4445D02*
Y5075D01*
X22147Y4445D02*
Y5075D01*
X21833D02*
X22147D01*
X21833Y4445D02*
X22147D01*
X22647D02*
Y5075D01*
X22333Y4445D02*
Y5075D01*
Y4445D02*
X22647D01*
X22333Y5075D02*
X22647D01*
X18805Y3883D02*
Y4197D01*
X19435Y3883D02*
Y4197D01*
X18805Y3883D02*
X19435D01*
X18805Y4197D02*
X19435D01*
X18805Y3013D02*
Y3327D01*
X19435Y3013D02*
Y3327D01*
X18805Y3013D02*
X19435D01*
X18805Y3327D02*
X19435D01*
X18805Y2093D02*
Y2407D01*
X19435Y2093D02*
Y2407D01*
X18805Y2093D02*
X19435D01*
X18805Y2407D02*
X19435D01*
X22897Y615D02*
Y1245D01*
X22583Y615D02*
Y1245D01*
Y615D02*
X22897D01*
X22583Y1245D02*
X22897D01*
X23113Y615D02*
X23427D01*
X23113Y1245D02*
X23427D01*
Y615D02*
Y1245D01*
X23113Y615D02*
Y1245D01*
X19747Y565D02*
Y1195D01*
X19433Y565D02*
Y1195D01*
Y565D02*
X19747D01*
X19433Y1195D02*
X19747D01*
X16013Y5805D02*
Y6435D01*
X16327Y5805D02*
Y6435D01*
X16013D02*
X16327D01*
X16013Y5805D02*
X16327D01*
X15777Y5815D02*
Y6445D01*
X15463Y5815D02*
Y6445D01*
Y5815D02*
X15777D01*
X15463Y6445D02*
X15777D01*
X8049Y16244D02*
Y18016D01*
X6951Y16244D02*
Y18016D01*
Y16244D02*
X8049D01*
X6951Y18016D02*
X8049D01*
D17*
X8818Y14066D02*
Y15286D01*
Y14066D02*
X9842D01*
Y15286D01*
X8818D02*
X9842D01*
X9330Y14516D02*
Y14816D01*
X9180Y14666D02*
X9480D01*
X7178Y14084D02*
Y15304D01*
Y14084D02*
X8202D01*
Y15304D01*
X7178D02*
X8202D01*
X7690Y14534D02*
Y14834D01*
X7540Y14684D02*
X7840D01*
D167*
X7500Y17897D02*
D03*
M02*
