G04*
G04 #@! TF.GenerationSoftware,Altium Limited,Altium Designer,20.2.6 (244)*
G04*
G04 Layer_Color=16711935*
%FSLAX24Y24*%
%MOIN*%
G70*
G04*
G04 #@! TF.SameCoordinates,01985295-A94F-4E40-9557-9D24556334AB*
G04*
G04*
G04 #@! TF.FilePolarity,Positive*
G04*
G01*
G75*
%ADD11C,0.0079*%
G36*
X29230Y3326D02*
X29198D01*
Y3537D01*
X29125Y3326D01*
X29095D01*
X29022Y3540D01*
Y3326D01*
X28990D01*
Y3578D01*
X29040D01*
X29100Y3399D01*
Y3399D01*
X29100Y3398D01*
X29100Y3397D01*
X29101Y3395D01*
X29102Y3391D01*
X29104Y3385D01*
X29106Y3379D01*
X29108Y3373D01*
X29110Y3367D01*
X29112Y3362D01*
X29112Y3363D01*
X29112Y3364D01*
X29113Y3368D01*
X29115Y3372D01*
X29117Y3378D01*
X29119Y3385D01*
X29122Y3393D01*
X29125Y3402D01*
X29185Y3578D01*
X29230D01*
Y3326D01*
D02*
G37*
G36*
X29642D02*
X29611D01*
Y3523D01*
X29611Y3522D01*
X29609Y3521D01*
X29607Y3519D01*
X29603Y3516D01*
X29599Y3513D01*
X29594Y3509D01*
X29588Y3505D01*
X29582Y3501D01*
X29581D01*
X29581Y3501D01*
X29579Y3500D01*
X29575Y3498D01*
X29571Y3496D01*
X29566Y3493D01*
X29560Y3490D01*
X29555Y3488D01*
X29549Y3486D01*
Y3516D01*
X29550D01*
X29551Y3516D01*
X29552Y3517D01*
X29554Y3518D01*
X29556Y3519D01*
X29559Y3520D01*
X29565Y3524D01*
X29572Y3528D01*
X29579Y3533D01*
X29587Y3539D01*
X29595Y3545D01*
X29595Y3545D01*
X29595Y3546D01*
X29596Y3547D01*
X29598Y3548D01*
X29601Y3552D01*
X29606Y3556D01*
X29610Y3561D01*
X29615Y3567D01*
X29619Y3573D01*
X29622Y3579D01*
X29642D01*
Y3326D01*
D02*
G37*
G36*
X29388Y3577D02*
X29395Y3577D01*
X29402Y3576D01*
X29410Y3575D01*
X29416Y3574D01*
X29416D01*
X29417Y3574D01*
X29418D01*
X29420Y3573D01*
X29424Y3572D01*
X29429Y3570D01*
X29434Y3568D01*
X29441Y3564D01*
X29447Y3561D01*
X29453Y3556D01*
X29453Y3556D01*
X29453Y3555D01*
X29454Y3554D01*
X29456Y3553D01*
X29460Y3549D01*
X29464Y3544D01*
X29469Y3538D01*
X29474Y3531D01*
X29478Y3522D01*
X29482Y3513D01*
Y3513D01*
X29483Y3512D01*
X29484Y3510D01*
X29484Y3508D01*
X29485Y3506D01*
X29486Y3503D01*
X29486Y3500D01*
X29488Y3496D01*
X29489Y3492D01*
X29489Y3487D01*
X29491Y3477D01*
X29492Y3465D01*
X29493Y3453D01*
Y3453D01*
Y3452D01*
Y3450D01*
Y3448D01*
X29492Y3446D01*
Y3443D01*
X29492Y3436D01*
X29491Y3428D01*
X29490Y3419D01*
X29488Y3411D01*
X29486Y3402D01*
Y3402D01*
X29485Y3401D01*
X29485Y3400D01*
X29485Y3398D01*
X29483Y3394D01*
X29481Y3389D01*
X29479Y3383D01*
X29476Y3378D01*
X29472Y3371D01*
X29469Y3366D01*
X29468Y3365D01*
X29467Y3363D01*
X29465Y3360D01*
X29462Y3357D01*
X29458Y3354D01*
X29454Y3350D01*
X29450Y3346D01*
X29446Y3343D01*
X29445Y3342D01*
X29444Y3341D01*
X29441Y3340D01*
X29437Y3338D01*
X29433Y3336D01*
X29428Y3334D01*
X29422Y3332D01*
X29416Y3330D01*
X29415D01*
X29414Y3330D01*
X29413Y3329D01*
X29409Y3329D01*
X29404Y3328D01*
X29398Y3327D01*
X29391Y3327D01*
X29383Y3326D01*
X29375Y3326D01*
X29284D01*
Y3578D01*
X29381D01*
X29388Y3577D01*
D02*
G37*
G36*
X8408Y15416D02*
X8409Y15415D01*
X8411Y15414D01*
X8413Y15412D01*
X8415Y15410D01*
X8418Y15407D01*
X8422Y15404D01*
X8426Y15401D01*
X8431Y15398D01*
X8436Y15394D01*
X8442Y15390D01*
X8447Y15386D01*
X8454Y15381D01*
X8461Y15377D01*
X8468Y15373D01*
X8476Y15368D01*
X8476Y15368D01*
X8478Y15367D01*
X8480Y15366D01*
X8483Y15364D01*
X8487Y15362D01*
X8492Y15360D01*
X8497Y15358D01*
X8503Y15355D01*
X8509Y15352D01*
X8516Y15349D01*
X8523Y15346D01*
X8531Y15343D01*
X8546Y15337D01*
X8563Y15332D01*
X8563D01*
X8565Y15331D01*
X8566Y15331D01*
X8569Y15330D01*
X8571Y15330D01*
X8575Y15329D01*
X8579Y15328D01*
X8583Y15327D01*
X8589Y15326D01*
X8594Y15325D01*
X8606Y15323D01*
X8618Y15321D01*
X8632Y15320D01*
Y15288D01*
X8632D01*
X8631D01*
X8629D01*
X8627Y15289D01*
X8624D01*
X8621Y15289D01*
X8617Y15290D01*
X8612Y15290D01*
X8607Y15291D01*
X8602Y15291D01*
X8596Y15292D01*
X8590Y15294D01*
X8583Y15295D01*
X8576Y15296D01*
X8561Y15300D01*
X8561D01*
X8559Y15300D01*
X8557Y15301D01*
X8554Y15302D01*
X8550Y15303D01*
X8546Y15304D01*
X8541Y15306D01*
X8535Y15308D01*
X8529Y15310D01*
X8523Y15312D01*
X8509Y15318D01*
X8494Y15324D01*
X8480Y15332D01*
X8479Y15332D01*
X8478Y15333D01*
X8476Y15334D01*
X8473Y15335D01*
X8470Y15337D01*
X8466Y15340D01*
X8462Y15342D01*
X8457Y15345D01*
X8446Y15352D01*
X8435Y15359D01*
X8424Y15368D01*
X8413Y15377D01*
Y15253D01*
X8384D01*
Y15416D01*
X8408D01*
X8408Y15416D01*
D02*
G37*
G36*
X8535Y15208D02*
X8539D01*
X8543Y15207D01*
X8548Y15207D01*
X8558Y15206D01*
X8568Y15204D01*
X8578Y15202D01*
X8582Y15201D01*
X8587Y15199D01*
X8587D01*
X8588Y15199D01*
X8589Y15198D01*
X8590Y15197D01*
X8594Y15195D01*
X8599Y15192D01*
X8605Y15188D01*
X8611Y15183D01*
X8617Y15176D01*
X8623Y15168D01*
Y15168D01*
X8624Y15167D01*
X8624Y15166D01*
X8625Y15164D01*
X8626Y15162D01*
X8627Y15159D01*
X8628Y15156D01*
X8630Y15152D01*
X8631Y15148D01*
X8632Y15144D01*
X8633Y15139D01*
X8634Y15134D01*
X8635Y15128D01*
X8636Y15122D01*
X8637Y15109D01*
Y15106D01*
X8636Y15104D01*
Y15101D01*
X8636Y15097D01*
X8636Y15093D01*
X8635Y15089D01*
X8634Y15080D01*
X8632Y15070D01*
X8629Y15061D01*
X8625Y15051D01*
Y15051D01*
X8624Y15050D01*
X8623Y15049D01*
X8622Y15048D01*
X8619Y15044D01*
X8615Y15039D01*
X8610Y15034D01*
X8605Y15029D01*
X8597Y15023D01*
X8589Y15019D01*
X8589D01*
X8588Y15019D01*
X8587Y15019D01*
X8585Y15018D01*
X8583Y15017D01*
X8580Y15017D01*
X8577Y15015D01*
X8573Y15015D01*
X8568Y15014D01*
X8563Y15013D01*
X8558Y15012D01*
X8553Y15011D01*
X8547Y15011D01*
X8540Y15010D01*
X8533Y15010D01*
X8526D01*
X8380D01*
Y15043D01*
X8526D01*
X8526D01*
X8527D01*
X8529D01*
X8531D01*
X8534Y15044D01*
X8537D01*
X8544Y15044D01*
X8552Y15045D01*
X8560Y15046D01*
X8568Y15047D01*
X8571Y15048D01*
X8574Y15049D01*
X8575Y15050D01*
X8577Y15050D01*
X8579Y15052D01*
X8583Y15054D01*
X8587Y15057D01*
X8591Y15061D01*
X8595Y15065D01*
X8598Y15070D01*
X8598Y15071D01*
X8599Y15073D01*
X8601Y15076D01*
X8602Y15080D01*
X8604Y15085D01*
X8605Y15092D01*
X8606Y15099D01*
X8606Y15106D01*
Y15110D01*
X8606Y15112D01*
Y15116D01*
X8606Y15119D01*
X8604Y15127D01*
X8602Y15136D01*
X8599Y15144D01*
X8595Y15152D01*
X8593Y15156D01*
X8590Y15159D01*
X8590Y15159D01*
X8589Y15160D01*
X8588Y15160D01*
X8587Y15161D01*
X8585Y15163D01*
X8582Y15164D01*
X8579Y15165D01*
X8576Y15167D01*
X8572Y15168D01*
X8567Y15169D01*
X8562Y15171D01*
X8556Y15172D01*
X8549Y15173D01*
X8542Y15174D01*
X8534Y15175D01*
X8526D01*
X8380D01*
Y15208D01*
X8526D01*
X8526D01*
X8528D01*
X8530D01*
X8532D01*
X8535Y15208D01*
D02*
G37*
%LPC*%
G36*
X29376Y3548D02*
X29318D01*
Y3356D01*
X29378D01*
X29380Y3356D01*
X29386Y3356D01*
X29392Y3357D01*
X29398Y3358D01*
X29405Y3359D01*
X29410Y3360D01*
X29411Y3360D01*
X29413Y3361D01*
X29416Y3362D01*
X29419Y3363D01*
X29422Y3366D01*
X29426Y3368D01*
X29430Y3370D01*
X29433Y3373D01*
X29434Y3374D01*
X29435Y3375D01*
X29437Y3378D01*
X29440Y3382D01*
X29443Y3386D01*
X29446Y3392D01*
X29449Y3398D01*
X29452Y3405D01*
Y3405D01*
X29452Y3406D01*
X29452Y3407D01*
X29453Y3409D01*
X29453Y3410D01*
X29454Y3413D01*
X29454Y3415D01*
X29455Y3418D01*
X29456Y3426D01*
X29457Y3434D01*
X29458Y3443D01*
X29458Y3454D01*
Y3454D01*
Y3455D01*
Y3457D01*
X29458Y3460D01*
Y3463D01*
X29458Y3467D01*
X29457Y3471D01*
X29457Y3476D01*
X29455Y3486D01*
X29453Y3496D01*
X29450Y3505D01*
X29448Y3510D01*
X29445Y3514D01*
Y3514D01*
X29445Y3515D01*
X29444Y3516D01*
X29443Y3518D01*
X29440Y3521D01*
X29437Y3526D01*
X29432Y3530D01*
X29426Y3535D01*
X29420Y3539D01*
X29414Y3542D01*
X29413Y3543D01*
X29411Y3543D01*
X29408Y3544D01*
X29403Y3545D01*
X29397Y3546D01*
X29390Y3547D01*
X29386Y3548D01*
X29381D01*
X29376Y3548D01*
D02*
G37*
%LPD*%
D11*
X25210Y211D02*
Y6589D01*
Y211D02*
X32770D01*
Y6589D01*
X25210D02*
X32770D01*
X5251Y12856D02*
Y17164D01*
X11874D01*
Y12856D02*
Y17164D01*
X5251Y12856D02*
X11874D01*
M02*
