M48
;Layer_Color=9474304
;FILE_FORMAT=2:4
INCH,TZ
;TYPE=PLATED
T1F00S00C0.0150
T2F00S00C0.0315
T3F00S00C0.0354
T4F00S00C0.0551
T5F00S00C0.0591
T6F00S00C0.0984
%
T01
X230Y2180
X1730
X3230
Y680
X9230Y2180
X13730
Y680
X15230
Y3680
X16960Y3015
X19400Y3510
X19790Y2270
X21230Y680
X22730Y2930
X22850Y3710
X23100
X22600
Y3960
X22350
Y3710
X22100Y3960
X23263Y2507
X24820Y2210
X27920Y3010
X27400Y3750
X27230Y680
X28730
X30230
X34730Y3680
Y5180
Y6680
X34000Y6350
X33230Y5180
X34730Y8180
X33230Y9680
Y11180
X34650Y12390
X34749Y13168
X33090Y14280
X33660Y14950
X33530Y16340
X33230Y17180
X35430Y19530
X31600Y18610
X30870Y18580
X29740Y18360
X30152Y16634
X28730Y17180
Y15680
Y14180
X26415Y13739
X26490Y12880
X26470Y12580
X27230Y12680
X25580Y13490
X24770Y13970
X25550Y16370
X27350Y16460
X27600
X27850
X27230Y17180
X24230
Y18680
X22730
X21230
Y17180
Y15680
X19829Y15381
X19890Y16980
X19730Y18680
X17580Y14150
X21420Y9220
X20840Y8260
X22560Y8360
X25630Y9300
X28390Y10560
X30620Y10290
X31730Y9680
Y11180
X31590Y13360
X32375Y13435
X32330Y16490
X30360Y6910
X29475Y7035
X28730Y6680
Y5180
X30230
X30821Y4581
X26870Y5380
X25030Y4630
X24560Y6060
X22995Y4455
X20720Y5330
X16730Y5180
X16690Y6480
X15230Y6680
Y9680
X16730
X13730Y12680
Y18680
X10730
X2100Y14460
Y14210
X1850
Y14460
X1600
Y14210
X1730Y12680
X2550Y10380
X2600Y8460
X2350
X2100
X1850
X1600
X1350
X1100
X850
X600
X350
X600Y12460
X850
X1100
X1350
Y12710
X1100
X850
X600
X230Y12680
X600Y14210
X850
X1100
X1350
Y14460
X1100
X850
X600
X22730Y20180
X24230
X33230
X33130Y21150
T02
X15050Y5210
X16050
T03
X9750Y20470
Y21470
X10750
Y20470
X11750
Y21470
X12750
Y20470
X13750
Y21470
X14750
Y20470
X15750
Y21470
X16750
Y20470
X17750
Y21470
X18750
Y20470
X19750
Y21470
X20750
Y20470
X21750
Y21470
T04
X3329Y12930
Y14430
T05
X14681Y8120
X16240
T06
X1219Y1042
X34729
X1219Y20902
X34729
M30
