G04*
G04 #@! TF.GenerationSoftware,Altium Limited,Altium Designer,20.2.6 (244)*
G04*
G04 Layer_Color=8388736*
%FSLAX24Y24*%
%MOIN*%
G70*
G04*
G04 #@! TF.SameCoordinates,01985295-A94F-4E40-9557-9D24556334AB*
G04*
G04*
G04 #@! TF.FilePolarity,Negative*
G04*
G01*
G75*
%ADD16C,0.0100*%
%ADD41R,0.1378X0.0394*%
%ADD45R,0.1590X0.0410*%
%ADD46R,0.3270X0.4230*%
G04:AMPARAMS|DCode=48|XSize=39.4mil|YSize=133.9mil|CornerRadius=9.8mil|HoleSize=0mil|Usage=FLASHONLY|Rotation=90.000|XOffset=0mil|YOffset=0mil|HoleType=Round|Shape=RoundedRectangle|*
%AMROUNDEDRECTD48*
21,1,0.0394,0.1142,0,0,90.0*
21,1,0.0197,0.1339,0,0,90.0*
1,1,0.0197,0.0571,0.0098*
1,1,0.0197,0.0571,-0.0098*
1,1,0.0197,-0.0571,-0.0098*
1,1,0.0197,-0.0571,0.0098*
%
%ADD48ROUNDEDRECTD48*%
%ADD49R,0.3346X0.4528*%
%ADD60R,0.0887X0.0434*%
%ADD61R,0.0592X0.0671*%
%ADD62R,0.0434X0.0454*%
%ADD63R,0.0454X0.0434*%
%ADD64R,0.0580X0.0630*%
%ADD65O,0.0316X0.0789*%
%ADD66O,0.0789X0.0316*%
G04:AMPARAMS|DCode=67|XSize=106.4mil|YSize=47.4mil|CornerRadius=23.7mil|HoleSize=0mil|Usage=FLASHONLY|Rotation=0.000|XOffset=0mil|YOffset=0mil|HoleType=Round|Shape=RoundedRectangle|*
%AMROUNDEDRECTD67*
21,1,0.1064,0.0000,0,0,0.0*
21,1,0.0591,0.0474,0,0,0.0*
1,1,0.0474,0.0295,0.0000*
1,1,0.0474,-0.0295,0.0000*
1,1,0.0474,-0.0295,0.0000*
1,1,0.0474,0.0295,0.0000*
%
%ADD67ROUNDEDRECTD67*%
%ADD68R,0.1655X0.1182*%
%ADD69R,0.1852X0.2245*%
%ADD70R,0.0630X0.0580*%
%ADD71R,0.0434X0.0454*%
%ADD72R,0.1064X0.1064*%
%ADD73R,0.1458X0.0710*%
%ADD74R,0.0631X0.0552*%
%ADD75R,0.0749X0.0749*%
%ADD76R,0.0671X0.0592*%
%ADD77R,0.1182X0.1655*%
%ADD78R,0.0552X0.0631*%
%ADD79R,0.0789X0.1655*%
G04:AMPARAMS|DCode=80|XSize=47.4mil|YSize=141.9mil|CornerRadius=13.8mil|HoleSize=0mil|Usage=FLASHONLY|Rotation=90.000|XOffset=0mil|YOffset=0mil|HoleType=Round|Shape=RoundedRectangle|*
%AMROUNDEDRECTD80*
21,1,0.0474,0.1142,0,0,90.0*
21,1,0.0197,0.1419,0,0,90.0*
1,1,0.0277,0.0571,0.0098*
1,1,0.0277,0.0571,-0.0098*
1,1,0.0277,-0.0571,-0.0098*
1,1,0.0277,-0.0571,0.0098*
%
%ADD80ROUNDEDRECTD80*%
%ADD81R,0.3426X0.4608*%
%ADD82R,0.1655X0.0789*%
%ADD83R,0.0867X0.0631*%
%ADD84R,0.0986X0.1064*%
%ADD85R,0.0671X0.0710*%
%ADD86R,0.0474X0.0277*%
%ADD87R,0.0671X0.0316*%
%ADD88R,0.0297X0.0277*%
%ADD89R,0.0277X0.0474*%
%ADD90R,0.0316X0.0671*%
%ADD91R,0.0277X0.0297*%
%ADD92R,0.0710X0.0710*%
%ADD93C,0.0710*%
%ADD94C,0.1064*%
%ADD95C,0.1852*%
%ADD96R,0.0671X0.0671*%
%ADD97C,0.0671*%
%ADD98O,0.1180X0.0907*%
%ADD99R,0.1180X0.0907*%
D16*
X663Y2807D02*
G03*
X788Y2713I124J36D01*
G01*
X663Y2807D02*
G03*
X788Y2713I124J36D01*
G01*
Y7139D02*
G03*
X663Y7045I0J-129D01*
G01*
X788Y7139D02*
G03*
X663Y7045I0J-129D01*
G01*
X492Y3426D02*
G03*
X497Y3390I129J0D01*
G01*
X492Y3426D02*
G03*
X497Y3390I129J0D01*
G01*
Y6461D02*
G03*
X492Y6426I124J-35D01*
G01*
X497Y6461D02*
G03*
X492Y6426I124J-35D01*
G01*
X3512Y2713D02*
X3514Y2715D01*
Y6911D02*
Y7161D01*
X714Y7111D02*
X764Y7161D01*
X788Y2713D02*
X1288D01*
X3512D01*
X764Y7161D02*
X3514D01*
Y2715D02*
Y6911D01*
X492Y3426D02*
Y6426D01*
D41*
X32041Y6156D02*
D03*
Y5368D02*
D03*
Y4581D02*
D03*
Y3794D02*
D03*
Y3006D02*
D03*
Y2219D02*
D03*
Y1432D02*
D03*
Y644D02*
D03*
X25939D02*
D03*
Y1432D02*
D03*
Y2219D02*
D03*
Y3006D02*
D03*
Y3794D02*
D03*
Y4581D02*
D03*
Y5368D02*
D03*
Y6156D02*
D03*
D45*
X11040Y13670D02*
D03*
Y14340D02*
D03*
Y15010D02*
D03*
Y15680D02*
D03*
Y16350D02*
D03*
D46*
X6925Y15010D02*
D03*
D48*
X6364Y4911D02*
D03*
D49*
X2040Y4940D02*
D03*
D60*
X16890Y11481D02*
D03*
Y10890D02*
D03*
D61*
X15778Y11730D02*
D03*
X15030D02*
D03*
Y14140D02*
D03*
X15778D02*
D03*
X5328Y1140D02*
D03*
X4580D02*
D03*
D62*
X16760Y695D02*
D03*
Y1285D02*
D03*
X16180Y695D02*
D03*
Y1285D02*
D03*
D63*
X16195Y2000D02*
D03*
X16785D02*
D03*
X21105Y14560D02*
D03*
X21695D02*
D03*
X33760Y3880D02*
D03*
X34351D02*
D03*
X33760Y4420D02*
D03*
X34351D02*
D03*
D64*
X15905Y12580D02*
D03*
X15005D02*
D03*
Y13300D02*
D03*
X15905D02*
D03*
X33060Y6920D02*
D03*
X33960D02*
D03*
D65*
X33030Y19703D02*
D03*
X32636D02*
D03*
X32243D02*
D03*
X31849D02*
D03*
X31455D02*
D03*
X31062D02*
D03*
X30668D02*
D03*
X30274D02*
D03*
X29881D02*
D03*
X29487D02*
D03*
X29093D02*
D03*
X28699D02*
D03*
X28306D02*
D03*
X27912D02*
D03*
X27518D02*
D03*
X27125D02*
D03*
X26731D02*
D03*
X26337D02*
D03*
X25944D02*
D03*
X25550D02*
D03*
Y7813D02*
D03*
X25944D02*
D03*
X26337D02*
D03*
X26731D02*
D03*
X27125D02*
D03*
X27518D02*
D03*
X27912D02*
D03*
X28306D02*
D03*
X28699D02*
D03*
X29093D02*
D03*
X29487D02*
D03*
X29881D02*
D03*
X30274D02*
D03*
X30668D02*
D03*
X31062D02*
D03*
X31455D02*
D03*
X31849D02*
D03*
X32243D02*
D03*
X32636D02*
D03*
X33030D02*
D03*
X25156Y19703D02*
D03*
Y7813D02*
D03*
X33424D02*
D03*
D66*
X23345Y17499D02*
D03*
Y17105D02*
D03*
Y16711D02*
D03*
Y16317D02*
D03*
Y15924D02*
D03*
Y15530D02*
D03*
Y15136D02*
D03*
Y14743D02*
D03*
Y14349D02*
D03*
Y13955D02*
D03*
Y13562D02*
D03*
Y13168D02*
D03*
Y12774D02*
D03*
Y12380D02*
D03*
Y11987D02*
D03*
Y11593D02*
D03*
Y11199D02*
D03*
Y10806D02*
D03*
Y10412D02*
D03*
Y10018D02*
D03*
X35235D02*
D03*
Y10412D02*
D03*
Y10806D02*
D03*
Y11199D02*
D03*
Y11593D02*
D03*
Y11987D02*
D03*
Y12380D02*
D03*
Y12774D02*
D03*
Y13168D02*
D03*
Y13562D02*
D03*
Y13955D02*
D03*
Y14349D02*
D03*
Y14743D02*
D03*
Y15136D02*
D03*
Y15530D02*
D03*
Y15924D02*
D03*
Y16317D02*
D03*
Y16711D02*
D03*
Y17105D02*
D03*
Y17499D02*
D03*
X23345Y9624D02*
D03*
Y17892D02*
D03*
X35235D02*
D03*
Y9624D02*
D03*
D67*
X23901Y967D02*
D03*
Y1967D02*
D03*
Y2967D02*
D03*
Y3967D02*
D03*
Y4967D02*
D03*
Y5967D02*
D03*
X17799D02*
D03*
Y4967D02*
D03*
Y3967D02*
D03*
Y2967D02*
D03*
Y1967D02*
D03*
Y967D02*
D03*
D68*
X9100Y12060D02*
D03*
X11580D02*
D03*
D69*
X12675Y8520D02*
D03*
X8345D02*
D03*
D70*
X21490Y7370D02*
D03*
Y8270D02*
D03*
D71*
X21990Y15150D02*
D03*
X20750D02*
D03*
D72*
X20672Y13690D02*
D03*
X22128D02*
D03*
X20672Y12410D02*
D03*
X22128D02*
D03*
X16240Y8120D02*
D03*
D73*
X22203Y10390D02*
D03*
X20077D02*
D03*
D74*
X13181Y11698D02*
D03*
Y12446D02*
D03*
X12446Y16754D02*
D03*
Y17502D02*
D03*
D75*
X1100Y9461D02*
D03*
Y10760D02*
D03*
D76*
X12410Y15012D02*
D03*
Y15760D02*
D03*
X14860Y16300D02*
D03*
Y17048D02*
D03*
D77*
X13620Y13790D02*
D03*
Y16270D02*
D03*
D78*
X11416Y17196D02*
D03*
X10668D02*
D03*
D79*
X11740Y4970D02*
D03*
Y1348D02*
D03*
D80*
X6364Y3573D02*
D03*
Y6250D02*
D03*
Y5580D02*
D03*
Y4242D02*
D03*
D81*
X2010Y4960D02*
D03*
D82*
X2558Y9530D02*
D03*
X6180D02*
D03*
D83*
X32620Y21210D02*
D03*
X30100D02*
D03*
D84*
X8480Y2514D02*
D03*
Y4236D02*
D03*
D85*
X8301Y1167D02*
D03*
X7120D02*
D03*
D86*
X15283Y1990D02*
D03*
X24793Y6960D02*
D03*
D87*
X14830Y1596D02*
D03*
Y2384D02*
D03*
X24340Y6566D02*
D03*
Y7354D02*
D03*
D88*
X14426Y1990D02*
D03*
X23936Y6960D02*
D03*
D89*
X33660Y2357D02*
D03*
D90*
X33266Y2810D02*
D03*
X34054D02*
D03*
D91*
X33660Y3214D02*
D03*
D92*
X16050Y5210D02*
D03*
D93*
X15050D02*
D03*
D94*
X14681Y8120D02*
D03*
D95*
X34729Y20902D02*
D03*
X1219Y1042D02*
D03*
Y20902D02*
D03*
X34729Y1042D02*
D03*
D96*
X9750Y21470D02*
D03*
D97*
Y20470D02*
D03*
X10750Y21470D02*
D03*
Y20470D02*
D03*
X11750Y21470D02*
D03*
Y20470D02*
D03*
X12750Y21470D02*
D03*
Y20470D02*
D03*
X13750Y21470D02*
D03*
Y20470D02*
D03*
X14750Y21470D02*
D03*
Y20470D02*
D03*
X15750Y21470D02*
D03*
Y20470D02*
D03*
X16750Y21470D02*
D03*
Y20470D02*
D03*
X17750Y21470D02*
D03*
Y20470D02*
D03*
X18750Y21470D02*
D03*
Y20470D02*
D03*
X19750Y21470D02*
D03*
Y20470D02*
D03*
X20750Y21470D02*
D03*
Y20470D02*
D03*
X21750Y21470D02*
D03*
Y20470D02*
D03*
D98*
X3329Y12930D02*
D03*
D99*
Y14430D02*
D03*
M02*
