G04*
G04 #@! TF.GenerationSoftware,Altium Limited,Altium Designer,20.2.6 (244)*
G04*
G04 Layer_Color=32896*
%FSLAX24Y24*%
%MOIN*%
G70*
G04*
G04 #@! TF.SameCoordinates,01985295-A94F-4E40-9557-9D24556334AB*
G04*
G04*
G04 #@! TF.FilePolarity,Positive*
G04*
G01*
G75*
%ADD10C,0.0050*%
%ADD11C,0.0079*%
%ADD12C,0.0098*%
%ADD15C,0.0040*%
%ADD16C,0.0100*%
%ADD163R,0.1310X0.0120*%
%ADD164R,0.2550X0.0240*%
D10*
X322Y15827D02*
Y17520D01*
X1759Y15776D02*
Y17571D01*
D11*
X22207Y879D02*
Y1056D01*
X20917Y318D02*
X21488D01*
X20199Y879D02*
Y1056D01*
X20917Y1617D02*
X21488D01*
X34051Y16124D02*
X34229D01*
X34790Y14835D02*
Y15405D01*
X34051Y14116D02*
X34229D01*
X33490Y14835D02*
Y15405D01*
X26666Y14714D02*
X26902D01*
X26666Y13926D02*
X26902D01*
Y14714D01*
X26666Y13926D02*
Y14714D01*
X28888Y15780D02*
Y21730D01*
X24438Y15780D02*
Y21730D01*
Y15780D02*
X28888D01*
X24438Y21730D02*
X28888D01*
X32336Y21496D02*
Y21673D01*
X32021D02*
X32336D01*
Y20807D02*
Y20984D01*
X32021Y20807D02*
X32336D01*
X34549Y17984D02*
Y18229D01*
X35375Y17984D02*
X35691D01*
X34549D02*
X34865D01*
X35691D02*
Y18229D01*
X31195Y17066D02*
Y18168D01*
X29857Y17066D02*
Y18168D01*
X31291Y17069D02*
Y18171D01*
X32629Y17069D02*
Y18171D01*
X32060Y15874D02*
Y15994D01*
Y14380D02*
Y14500D01*
X30446Y14380D02*
X30566D01*
X31940D02*
X32060D01*
X30446Y15874D02*
Y15994D01*
Y14380D02*
Y14500D01*
Y15994D02*
X30566D01*
X31940D02*
X32060D01*
X30696Y11174D02*
X30873D01*
Y11489D01*
X30007Y11174D02*
X30184D01*
X30007D02*
Y11489D01*
X33289Y11754D02*
Y11999D01*
X34115Y11754D02*
X34431D01*
X33289D02*
X33605D01*
X34431D02*
Y11999D01*
X30636Y8534D02*
X30813D01*
Y8849D01*
X29947Y8534D02*
X30124D01*
X29947D02*
Y8849D01*
X23559Y7991D02*
X23769D01*
X23093Y7480D02*
X23395D01*
X23093D02*
Y7607D01*
X24235Y7480D02*
Y7607D01*
X23933Y7480D02*
X24235D01*
X19748Y5009D02*
Y5219D01*
X19236Y5383D02*
Y5685D01*
X19363D01*
X19236Y4543D02*
X19363D01*
X19236D02*
Y4845D01*
X21942Y2220D02*
Y2340D01*
Y3714D02*
Y3834D01*
X20328D02*
X20448D01*
X21822D02*
X21942D01*
X20328Y2220D02*
Y2340D01*
Y3714D02*
Y3834D01*
Y2220D02*
X20448D01*
X21822D02*
X21942D01*
X13550Y5850D02*
X13730D01*
X13550Y3860D02*
Y5850D01*
Y3860D02*
X13740D01*
X14630D02*
X14840D01*
Y5850D01*
X14630D02*
X14840D01*
X8676Y15104D02*
Y15659D01*
X9984Y15104D02*
Y15659D01*
X8676D02*
X9984D01*
X8676Y13683D02*
X9984D01*
Y14238D01*
X8676Y13683D02*
Y14238D01*
X7036Y15122D02*
Y15677D01*
X8344Y15122D02*
Y15677D01*
X7036D02*
X8344D01*
X7036Y13701D02*
X8344D01*
Y14256D01*
X7036Y13701D02*
Y14256D01*
X7943Y16244D02*
X8051D01*
X7943Y18016D02*
X8051D01*
X6949Y16244D02*
X7057D01*
X6949Y18016D02*
X7057D01*
X8051Y16244D02*
Y18016D01*
X6949Y16244D02*
Y18016D01*
D12*
X22059Y33D02*
G03*
X22059Y33I-49J0D01*
G01*
X35124Y15927D02*
G03*
X35124Y15927I-49J0D01*
G01*
X27207Y14871D02*
G03*
X27207Y14871I-49J0D01*
G01*
X31716Y20669D02*
G03*
X31716Y20669I-49J0D01*
G01*
X30201Y18563D02*
G03*
X30201Y18563I-49J0D01*
G01*
X32383Y16674D02*
G03*
X32383Y16674I-49J0D01*
G01*
X32513Y15679D02*
G03*
X32513Y15679I-49J0D01*
G01*
X29918Y11844D02*
G03*
X29918Y11844I-49J0D01*
G01*
X29858Y9204D02*
G03*
X29858Y9204I-49J0D01*
G01*
X21677Y1816D02*
G03*
X21677Y1816I-49J0D01*
G01*
X7549Y18311D02*
G03*
X7549Y18311I-49J0D01*
G01*
X4270Y14803D02*
Y18053D01*
X6820Y14803D02*
Y18053D01*
X6510Y14803D02*
X6820D01*
X6490Y18053D02*
X6820D01*
X4270Y14803D02*
X4590D01*
X4270Y18053D02*
X4580D01*
D15*
X23570Y5970D02*
X23650D01*
X23570Y6290D02*
X23650D01*
X23070Y6360D02*
X24140D01*
X23070Y5900D02*
Y6360D01*
Y5900D02*
X24140D01*
Y6360D01*
X23570Y6510D02*
X23650D01*
X23570Y6830D02*
X23650D01*
X23070Y6900D02*
X24140D01*
X23070Y6440D02*
Y6900D01*
Y6440D02*
X24140D01*
Y6900D01*
X31800Y12790D02*
X32260D01*
X31800D02*
Y13860D01*
X32260D01*
Y12790D02*
Y13860D01*
X32190Y13280D02*
Y13360D01*
X31870Y13280D02*
Y13360D01*
X24570Y13100D02*
Y13180D01*
X24250Y13100D02*
Y13180D01*
X24180Y12600D02*
Y13670D01*
Y12600D02*
X24640D01*
Y13670D01*
X24180D02*
X24640D01*
X25375Y13120D02*
Y13200D01*
X25055Y13120D02*
Y13200D01*
X24985Y12620D02*
Y13690D01*
Y12620D02*
X25445D01*
Y13690D01*
X24985D02*
X25445D01*
X26195Y13120D02*
Y13200D01*
X25875Y13120D02*
Y13200D01*
X25805Y12620D02*
Y13690D01*
Y12620D02*
X26265D01*
Y13690D01*
X25805D02*
X26265D01*
X27760Y14420D02*
Y14500D01*
X27440Y14420D02*
Y14500D01*
X27370Y13920D02*
Y14990D01*
Y13920D02*
X27830D01*
Y14990D01*
X27370D02*
X27830D01*
X25815Y13770D02*
X26275D01*
X25815D02*
Y14840D01*
X26275D01*
Y13770D02*
Y14840D01*
X26205Y14260D02*
Y14340D01*
X25885Y14260D02*
Y14340D01*
X24990Y13770D02*
X25450D01*
X24990D02*
Y14840D01*
X25450D01*
Y13770D02*
Y14840D01*
X25380Y14260D02*
Y14340D01*
X25060Y14260D02*
Y14340D01*
X24170Y13750D02*
X24630D01*
X24170D02*
Y14820D01*
X24630D01*
Y13750D02*
Y14820D01*
X24560Y14240D02*
Y14320D01*
X24240Y14240D02*
Y14320D01*
X30245Y20730D02*
Y21190D01*
X31315D01*
Y20730D02*
Y21190D01*
X30245Y20730D02*
X31315D01*
X30735Y20800D02*
X30815D01*
X30735Y21120D02*
X30815D01*
X30240Y21250D02*
Y21710D01*
X31310D01*
Y21250D02*
Y21710D01*
X30240Y21250D02*
X31310D01*
X30730Y21320D02*
X30810D01*
X30730Y21640D02*
X30810D01*
X33440Y13380D02*
Y13840D01*
X34510D01*
Y13380D02*
Y13840D01*
X33440Y13380D02*
X34510D01*
X33930Y13450D02*
X34010D01*
X33930Y13770D02*
X34010D01*
X34840Y16390D02*
Y16850D01*
X33770Y16390D02*
X34840D01*
X33770D02*
Y16850D01*
X34840D01*
X34270Y16780D02*
X34350D01*
X34270Y16460D02*
X34350D01*
X34840Y16940D02*
Y17400D01*
X33770Y16940D02*
X34840D01*
X33770D02*
Y17400D01*
X34840D01*
X34270Y17330D02*
X34350D01*
X34270Y17010D02*
X34350D01*
X33920Y18270D02*
X34380D01*
X33920D02*
Y19340D01*
X34380D01*
Y18270D02*
Y19340D01*
X34310Y18760D02*
Y18840D01*
X33990Y18760D02*
Y18840D01*
X34570Y18850D02*
Y19310D01*
X35640D01*
Y18850D02*
Y19310D01*
X34570Y18850D02*
X35640D01*
X35060Y18920D02*
X35140D01*
X35060Y19240D02*
X35140D01*
X30270Y12760D02*
X30730D01*
X30270D02*
Y13830D01*
X30730D01*
Y12760D02*
Y13830D01*
X30660Y13250D02*
Y13330D01*
X30340Y13250D02*
Y13330D01*
X30960Y12790D02*
X31420D01*
X30960D02*
Y13860D01*
X31420D01*
Y12790D02*
Y13860D01*
X31350Y13280D02*
Y13360D01*
X31030Y13280D02*
Y13360D01*
X30480Y12120D02*
Y12580D01*
X29410Y12120D02*
X30480D01*
X29410D02*
Y12580D01*
X30480D01*
X29910Y12510D02*
X29990D01*
X29910Y12190D02*
X29990D01*
X29820Y13250D02*
Y13330D01*
X30140Y13250D02*
Y13330D01*
X30210Y12760D02*
Y13830D01*
X29750D02*
X30210D01*
X29750Y12760D02*
Y13830D01*
Y12760D02*
X30210D01*
X29150D02*
X29610D01*
X29150D02*
Y13830D01*
X29610D01*
Y12760D02*
Y13830D01*
X29540Y13250D02*
Y13330D01*
X29220Y13250D02*
Y13330D01*
X33430Y12870D02*
Y13330D01*
X34500D01*
Y12870D02*
Y13330D01*
X33430Y12870D02*
X34500D01*
X33920Y12940D02*
X34000D01*
X33920Y13260D02*
X34000D01*
X32390Y11760D02*
X32850D01*
X32390D02*
Y12830D01*
X32850D01*
Y11760D02*
Y12830D01*
X32780Y12250D02*
Y12330D01*
X32460Y12250D02*
Y12330D01*
X29410Y10800D02*
X29870D01*
X29410D02*
Y11870D01*
X29870D01*
Y10800D02*
Y11870D01*
X29800Y11290D02*
Y11370D01*
X29480Y11290D02*
Y11370D01*
X29360Y8390D02*
X29820D01*
X29360D02*
Y9460D01*
X29820D01*
Y8390D02*
Y9460D01*
X29750Y8880D02*
Y8960D01*
X29430Y8880D02*
Y8960D01*
X28670Y8420D02*
X29130D01*
X28670D02*
Y9490D01*
X29130D01*
Y8420D02*
Y9490D01*
X29060Y8910D02*
Y8990D01*
X28740Y8910D02*
Y8990D01*
X28170Y8410D02*
X28630D01*
X28170D02*
Y9480D01*
X28630D01*
Y8410D02*
Y9480D01*
X28560Y8900D02*
Y8980D01*
X28240Y8900D02*
Y8980D01*
X22770Y8470D02*
Y8930D01*
X21700Y8470D02*
X22770D01*
X21700D02*
Y8930D01*
X22770D01*
X22200Y8860D02*
X22280D01*
X22200Y8540D02*
X22280D01*
X20610Y8470D02*
Y8930D01*
X21680D01*
Y8470D02*
Y8930D01*
X20610Y8470D02*
X21680D01*
X21100Y8540D02*
X21180D01*
X21100Y8860D02*
X21180D01*
X19210Y6290D02*
Y6750D01*
X20280D01*
Y6290D02*
Y6750D01*
X19210Y6290D02*
X20280D01*
X19700Y6360D02*
X19780D01*
X19700Y6680D02*
X19780D01*
X19210Y5750D02*
Y6210D01*
X20280D01*
Y5750D02*
Y6210D01*
X19210Y5750D02*
X20280D01*
X19700Y5820D02*
X19780D01*
X19700Y6140D02*
X19780D01*
X21830Y4720D02*
Y4800D01*
X22150Y4720D02*
Y4800D01*
X22220Y4230D02*
Y5300D01*
X21760D02*
X22220D01*
X21760Y4230D02*
Y5300D01*
Y4230D02*
X22220D01*
X22650Y4720D02*
Y4800D01*
X22330Y4720D02*
Y4800D01*
X22260Y4220D02*
Y5290D01*
Y4220D02*
X22720D01*
Y5290D01*
X22260D02*
X22720D01*
X18590Y3810D02*
Y4270D01*
X19660D01*
Y3810D02*
Y4270D01*
X18590Y3810D02*
X19660D01*
X19080Y3880D02*
X19160D01*
X19080Y4200D02*
X19160D01*
X18590Y2940D02*
Y3400D01*
X19660D01*
Y2940D02*
Y3400D01*
X18590Y2940D02*
X19660D01*
X19080Y3010D02*
X19160D01*
X19080Y3330D02*
X19160D01*
X18590Y2020D02*
Y2480D01*
X19660D01*
Y2020D02*
Y2480D01*
X18590Y2020D02*
X19660D01*
X19080Y2090D02*
X19160D01*
X19080Y2410D02*
X19160D01*
X22900Y890D02*
Y970D01*
X22580Y890D02*
Y970D01*
X22510Y390D02*
Y1460D01*
Y390D02*
X22970D01*
Y1460D01*
X22510D02*
X22970D01*
X23040Y400D02*
X23500D01*
X23040D02*
Y1470D01*
X23500D01*
Y400D02*
Y1470D01*
X23430Y890D02*
Y970D01*
X23110Y890D02*
Y970D01*
X19750Y840D02*
Y920D01*
X19430Y840D02*
Y920D01*
X19360Y340D02*
Y1410D01*
Y340D02*
X19820D01*
Y1410D01*
X19360D02*
X19820D01*
X16010Y6080D02*
Y6160D01*
X16330Y6080D02*
Y6160D01*
X16400Y5590D02*
Y6660D01*
X15940D02*
X16400D01*
X15940Y5590D02*
Y6660D01*
Y5590D02*
X16400D01*
X15780Y6090D02*
Y6170D01*
X15460Y6090D02*
Y6170D01*
X15390Y5590D02*
Y6660D01*
Y5590D02*
X15850D01*
Y6660D01*
X15390D02*
X15850D01*
D16*
X9170Y16701D02*
Y18051D01*
X8300Y16031D02*
X9170D01*
X8300D02*
Y18051D01*
X9170Y16031D02*
Y16701D01*
X8320Y18051D02*
X9170D01*
X32950Y16190D02*
X33000D01*
X33100Y16090D01*
X33000Y15990D01*
X32950D01*
X33100Y16090D02*
X33250D01*
Y15690D02*
Y15890D01*
X33050Y15690D01*
X33000D01*
X32950Y15740D01*
Y15840D01*
X33000Y15890D01*
X19880Y1860D02*
Y1810D01*
X19780Y1710D01*
X19680Y1810D01*
Y1860D01*
X19780Y1710D02*
Y1560D01*
X19580D02*
X19480D01*
X19530D01*
Y1860D01*
X19580Y1810D01*
X31135Y18920D02*
Y18670D01*
X31085Y18620D01*
X30985D01*
X30935Y18670D01*
Y18920D01*
X30835Y18620D02*
X30735D01*
X30785D01*
Y18920D01*
X30835Y18870D01*
X30585D02*
X30535Y18920D01*
X30435D01*
X30385Y18870D01*
Y18670D01*
X30435Y18620D01*
X30535D01*
X30585Y18670D01*
Y18870D01*
X32610Y18860D02*
Y18610D01*
X32560Y18560D01*
X32460D01*
X32410Y18610D01*
Y18860D01*
X32310Y18610D02*
X32260Y18560D01*
X32160D01*
X32110Y18610D01*
Y18810D01*
X32160Y18860D01*
X32260D01*
X32310Y18810D01*
Y18760D01*
X32260Y18710D01*
X32110D01*
X27220Y13730D02*
Y13480D01*
X27170Y13430D01*
X27070D01*
X27020Y13480D01*
Y13730D01*
X26920Y13680D02*
X26870Y13730D01*
X26770D01*
X26720Y13680D01*
Y13630D01*
X26770Y13580D01*
X26720Y13530D01*
Y13480D01*
X26770Y13430D01*
X26870D01*
X26920Y13480D01*
Y13530D01*
X26870Y13580D01*
X26920Y13630D01*
Y13680D01*
X26870Y13580D02*
X26770D01*
X29820Y14580D02*
X29770Y14630D01*
Y14730D01*
X29820Y14780D01*
X30020D01*
X30070Y14730D01*
Y14630D01*
X30020Y14580D01*
X30070Y14280D02*
Y14480D01*
X29870Y14280D01*
X29820D01*
X29770Y14330D01*
Y14430D01*
X29820Y14480D01*
Y14180D02*
X29770Y14130D01*
Y14030D01*
X29820Y13980D01*
X29870D01*
X29920Y14030D01*
X29970Y13980D01*
X30020D01*
X30070Y14030D01*
Y14130D01*
X30020Y14180D01*
X29970D01*
X29920Y14130D01*
X29870Y14180D01*
X29820D01*
X29920Y14130D02*
Y14030D01*
X23980Y12830D02*
X24030Y12780D01*
Y12680D01*
X23980Y12630D01*
X23780D01*
X23730Y12680D01*
Y12780D01*
X23780Y12830D01*
X23730Y13130D02*
Y12930D01*
X23930Y13130D01*
X23980D01*
X24030Y13080D01*
Y12980D01*
X23980Y12930D01*
X24030Y13230D02*
Y13430D01*
X23980D01*
X23780Y13230D01*
X23730D01*
X23490Y12830D02*
X23540Y12780D01*
Y12680D01*
X23490Y12630D01*
X23290D01*
X23240Y12680D01*
Y12780D01*
X23290Y12830D01*
X23240Y13130D02*
Y12930D01*
X23440Y13130D01*
X23490D01*
X23540Y13080D01*
Y12980D01*
X23490Y12930D01*
X23540Y13430D02*
X23490Y13330D01*
X23390Y13230D01*
X23290D01*
X23240Y13280D01*
Y13380D01*
X23290Y13430D01*
X23340D01*
X23390Y13380D01*
Y13230D01*
X22990Y12830D02*
X23040Y12780D01*
Y12680D01*
X22990Y12630D01*
X22790D01*
X22740Y12680D01*
Y12780D01*
X22790Y12830D01*
X22740Y13130D02*
Y12930D01*
X22940Y13130D01*
X22990D01*
X23040Y13080D01*
Y12980D01*
X22990Y12930D01*
X23040Y13430D02*
Y13230D01*
X22890D01*
X22940Y13330D01*
Y13380D01*
X22890Y13430D01*
X22790D01*
X22740Y13380D01*
Y13280D01*
X22790Y13230D01*
X550Y18260D02*
X750D01*
Y18110D01*
X650D01*
X750D01*
Y17960D01*
X450D02*
X350D01*
X400D01*
Y18260D01*
X450Y18210D01*
X7200Y18580D02*
Y18280D01*
X7050D01*
X7000Y18330D01*
Y18530D01*
X7050Y18580D01*
X7200D01*
X6700D02*
X6900D01*
Y18430D01*
X6800Y18480D01*
X6750D01*
X6700Y18430D01*
Y18330D01*
X6750Y18280D01*
X6850D01*
X6900Y18330D01*
X8820Y18580D02*
Y18280D01*
X8670D01*
X8620Y18330D01*
Y18530D01*
X8670Y18580D01*
X8820D01*
X8370Y18280D02*
Y18580D01*
X8520Y18430D01*
X8320D01*
X4670Y18620D02*
Y18320D01*
X4520D01*
X4470Y18370D01*
Y18570D01*
X4520Y18620D01*
X4670D01*
X4370Y18570D02*
X4320Y18620D01*
X4220D01*
X4170Y18570D01*
Y18520D01*
X4220Y18470D01*
X4270D01*
X4220D01*
X4170Y18420D01*
Y18370D01*
X4220Y18320D01*
X4320D01*
X4370Y18370D01*
X9720Y13440D02*
X9770Y13490D01*
X9870D01*
X9920Y13440D01*
Y13240D01*
X9870Y13190D01*
X9770D01*
X9720Y13240D01*
X9420Y13190D02*
X9620D01*
X9420Y13390D01*
Y13440D01*
X9470Y13490D01*
X9570D01*
X9620Y13440D01*
X9170Y13190D02*
Y13490D01*
X9320Y13340D01*
X9120D01*
X8090Y13430D02*
X8140Y13480D01*
X8240D01*
X8290Y13430D01*
Y13230D01*
X8240Y13180D01*
X8140D01*
X8090Y13230D01*
X7790Y13180D02*
X7990D01*
X7790Y13380D01*
Y13430D01*
X7840Y13480D01*
X7940D01*
X7990Y13430D01*
X7690D02*
X7640Y13480D01*
X7540D01*
X7490Y13430D01*
Y13380D01*
X7540Y13330D01*
X7590D01*
X7540D01*
X7490Y13280D01*
Y13230D01*
X7540Y13180D01*
X7640D01*
X7690Y13230D01*
X30900Y16640D02*
Y16390D01*
X30850Y16340D01*
X30750D01*
X30700Y16390D01*
Y16640D01*
X30400D02*
X30600D01*
Y16490D01*
X30500Y16540D01*
X30450D01*
X30400Y16490D01*
Y16390D01*
X30450Y16340D01*
X30550D01*
X30600Y16390D01*
X20280Y4390D02*
Y4140D01*
X20230Y4090D01*
X20130D01*
X20080Y4140D01*
Y4390D01*
X19830Y4090D02*
Y4390D01*
X19980Y4240D01*
X19780D01*
X24240Y20520D02*
Y20270D01*
X24190Y20220D01*
X24090D01*
X24040Y20270D01*
Y20520D01*
X23940Y20470D02*
X23890Y20520D01*
X23790D01*
X23740Y20470D01*
Y20420D01*
X23790Y20370D01*
X23840D01*
X23790D01*
X23740Y20320D01*
Y20270D01*
X23790Y20220D01*
X23890D01*
X23940Y20270D01*
X18450Y3960D02*
Y4260D01*
X18300D01*
X18250Y4210D01*
Y4110D01*
X18300Y4060D01*
X18450D01*
X18350D02*
X18250Y3960D01*
X17950D02*
X18150D01*
X17950Y4160D01*
Y4210D01*
X18000Y4260D01*
X18100D01*
X18150Y4210D01*
X17850D02*
X17800Y4260D01*
X17700D01*
X17650Y4210D01*
Y4160D01*
X17700Y4110D01*
X17650Y4060D01*
Y4010D01*
X17700Y3960D01*
X17800D01*
X17850Y4010D01*
Y4060D01*
X17800Y4110D01*
X17850Y4160D01*
Y4210D01*
X17800Y4110D02*
X17700D01*
X31280Y12650D02*
X30980D01*
Y12500D01*
X31030Y12450D01*
X31130D01*
X31180Y12500D01*
Y12650D01*
Y12550D02*
X31280Y12450D01*
Y12150D02*
Y12350D01*
X31080Y12150D01*
X31030D01*
X30980Y12200D01*
Y12300D01*
X31030Y12350D01*
X30980Y12050D02*
Y11850D01*
X31030D01*
X31230Y12050D01*
X31280D01*
X32130Y12670D02*
X31830D01*
Y12520D01*
X31880Y12470D01*
X31980D01*
X32030Y12520D01*
Y12670D01*
Y12570D02*
X32130Y12470D01*
Y12170D02*
Y12370D01*
X31930Y12170D01*
X31880D01*
X31830Y12220D01*
Y12320D01*
X31880Y12370D01*
X31830Y11870D02*
X31880Y11970D01*
X31980Y12070D01*
X32080D01*
X32130Y12020D01*
Y11920D01*
X32080Y11870D01*
X32030D01*
X31980Y11920D01*
Y12070D01*
X18410Y3030D02*
Y3330D01*
X18260D01*
X18210Y3280D01*
Y3180D01*
X18260Y3130D01*
X18410D01*
X18310D02*
X18210Y3030D01*
X17910D02*
X18110D01*
X17910Y3230D01*
Y3280D01*
X17960Y3330D01*
X18060D01*
X18110Y3280D01*
X17610Y3330D02*
X17810D01*
Y3180D01*
X17710Y3230D01*
X17660D01*
X17610Y3180D01*
Y3080D01*
X17660Y3030D01*
X17760D01*
X17810Y3080D01*
X18420Y2090D02*
Y2390D01*
X18270D01*
X18220Y2340D01*
Y2240D01*
X18270Y2190D01*
X18420D01*
X18320D02*
X18220Y2090D01*
X17920D02*
X18120D01*
X17920Y2290D01*
Y2340D01*
X17970Y2390D01*
X18070D01*
X18120Y2340D01*
X17670Y2090D02*
Y2390D01*
X17820Y2240D01*
X17620D01*
X35770Y16960D02*
Y17260D01*
X35620D01*
X35570Y17210D01*
Y17110D01*
X35620Y17060D01*
X35770D01*
X35670D02*
X35570Y16960D01*
X35270D02*
X35470D01*
X35270Y17160D01*
Y17210D01*
X35320Y17260D01*
X35420D01*
X35470Y17210D01*
X35170D02*
X35120Y17260D01*
X35020D01*
X34970Y17210D01*
Y17160D01*
X35020Y17110D01*
X35070D01*
X35020D01*
X34970Y17060D01*
Y17010D01*
X35020Y16960D01*
X35120D01*
X35170Y17010D01*
X23180Y1590D02*
X23480D01*
Y1740D01*
X23430Y1790D01*
X23330D01*
X23280Y1740D01*
Y1590D01*
Y1690D02*
X23180Y1790D01*
Y2090D02*
Y1890D01*
X23380Y2090D01*
X23430D01*
X23480Y2040D01*
Y1940D01*
X23430Y1890D01*
X23180Y2390D02*
Y2190D01*
X23380Y2390D01*
X23430D01*
X23480Y2340D01*
Y2240D01*
X23430Y2190D01*
X29050Y8270D02*
X28750D01*
Y8120D01*
X28800Y8070D01*
X28900D01*
X28950Y8120D01*
Y8270D01*
Y8170D02*
X29050Y8070D01*
Y7770D02*
Y7970D01*
X28850Y7770D01*
X28800D01*
X28750Y7820D01*
Y7920D01*
X28800Y7970D01*
X29050Y7670D02*
Y7570D01*
Y7620D01*
X28750D01*
X28800Y7670D01*
X33800Y19310D02*
X33500D01*
Y19160D01*
X33550Y19110D01*
X33650D01*
X33700Y19160D01*
Y19310D01*
Y19210D02*
X33800Y19110D01*
Y18810D02*
Y19010D01*
X33600Y18810D01*
X33550D01*
X33500Y18860D01*
Y18960D01*
X33550Y19010D01*
Y18710D02*
X33500Y18660D01*
Y18560D01*
X33550Y18510D01*
X33750D01*
X33800Y18560D01*
Y18660D01*
X33750Y18710D01*
X33550D01*
X35615Y19440D02*
Y19740D01*
X35465D01*
X35415Y19690D01*
Y19590D01*
X35465Y19540D01*
X35615D01*
X35515D02*
X35415Y19440D01*
X35315D02*
X35215D01*
X35265D01*
Y19740D01*
X35315Y19690D01*
X35065Y19490D02*
X35015Y19440D01*
X34915D01*
X34865Y19490D01*
Y19690D01*
X34915Y19740D01*
X35015D01*
X35065Y19690D01*
Y19640D01*
X35015Y19590D01*
X34865D01*
X29680Y8255D02*
X29380D01*
Y8105D01*
X29430Y8055D01*
X29530D01*
X29580Y8105D01*
Y8255D01*
Y8155D02*
X29680Y8055D01*
Y7955D02*
Y7855D01*
Y7905D01*
X29380D01*
X29430Y7955D01*
Y7705D02*
X29380Y7655D01*
Y7555D01*
X29430Y7505D01*
X29480D01*
X29530Y7555D01*
X29580Y7505D01*
X29630D01*
X29680Y7555D01*
Y7655D01*
X29630Y7705D01*
X29580D01*
X29530Y7655D01*
X29480Y7705D01*
X29430D01*
X29530Y7655D02*
Y7555D01*
X30995Y20250D02*
Y20550D01*
X30845D01*
X30795Y20500D01*
Y20400D01*
X30845Y20350D01*
X30995D01*
X30895D02*
X30795Y20250D01*
X30695D02*
X30595D01*
X30645D01*
Y20550D01*
X30695Y20500D01*
X30445Y20550D02*
X30245D01*
Y20500D01*
X30445Y20300D01*
Y20250D01*
X30995Y19780D02*
Y20080D01*
X30845D01*
X30795Y20030D01*
Y19930D01*
X30845Y19880D01*
X30995D01*
X30895D02*
X30795Y19780D01*
X30695D02*
X30595D01*
X30645D01*
Y20080D01*
X30695Y20030D01*
X30245Y20080D02*
X30345Y20030D01*
X30445Y19930D01*
Y19830D01*
X30395Y19780D01*
X30295D01*
X30245Y19830D01*
Y19880D01*
X30295Y19930D01*
X30445D01*
X28500Y8285D02*
X28200D01*
Y8135D01*
X28250Y8085D01*
X28350D01*
X28400Y8135D01*
Y8285D01*
Y8185D02*
X28500Y8085D01*
Y7985D02*
Y7885D01*
Y7935D01*
X28200D01*
X28250Y7985D01*
X28200Y7535D02*
Y7735D01*
X28350D01*
X28300Y7635D01*
Y7585D01*
X28350Y7535D01*
X28450D01*
X28500Y7585D01*
Y7685D01*
X28450Y7735D01*
X32710Y11635D02*
X32410D01*
Y11485D01*
X32460Y11435D01*
X32560D01*
X32610Y11485D01*
Y11635D01*
Y11535D02*
X32710Y11435D01*
Y11335D02*
Y11235D01*
Y11285D01*
X32410D01*
X32460Y11335D01*
X32710Y10935D02*
X32410D01*
X32560Y11085D01*
Y10885D01*
X35385Y13010D02*
Y13310D01*
X35235D01*
X35185Y13260D01*
Y13160D01*
X35235Y13110D01*
X35385D01*
X35285D02*
X35185Y13010D01*
X35085D02*
X34985D01*
X35035D01*
Y13310D01*
X35085Y13260D01*
X34835D02*
X34785Y13310D01*
X34685D01*
X34635Y13260D01*
Y13210D01*
X34685Y13160D01*
X34735D01*
X34685D01*
X34635Y13110D01*
Y13060D01*
X34685Y13010D01*
X34785D01*
X34835Y13060D01*
X29255Y12240D02*
Y12540D01*
X29105D01*
X29055Y12490D01*
Y12390D01*
X29105Y12340D01*
X29255D01*
X29155D02*
X29055Y12240D01*
X28955D02*
X28855D01*
X28905D01*
Y12540D01*
X28955Y12490D01*
X28505Y12240D02*
X28705D01*
X28505Y12440D01*
Y12490D01*
X28555Y12540D01*
X28655D01*
X28705Y12490D01*
X29720Y10665D02*
X29420D01*
Y10515D01*
X29470Y10465D01*
X29570D01*
X29620Y10515D01*
Y10665D01*
Y10565D02*
X29720Y10465D01*
Y10365D02*
Y10265D01*
Y10315D01*
X29420D01*
X29470Y10365D01*
X29720Y10115D02*
Y10015D01*
Y10065D01*
X29420D01*
X29470Y10115D01*
X19055Y6410D02*
Y6710D01*
X18905D01*
X18855Y6660D01*
Y6560D01*
X18905Y6510D01*
X19055D01*
X18955D02*
X18855Y6410D01*
X18755D02*
X18655D01*
X18705D01*
Y6710D01*
X18755Y6660D01*
X18505D02*
X18455Y6710D01*
X18355D01*
X18305Y6660D01*
Y6460D01*
X18355Y6410D01*
X18455D01*
X18505Y6460D01*
Y6660D01*
X29480Y14470D02*
X29180D01*
Y14320D01*
X29230Y14270D01*
X29330D01*
X29380Y14320D01*
Y14470D01*
Y14370D02*
X29480Y14270D01*
X29430Y14170D02*
X29480Y14120D01*
Y14020D01*
X29430Y13970D01*
X29230D01*
X29180Y14020D01*
Y14120D01*
X29230Y14170D01*
X29280D01*
X29330Y14120D01*
Y13970D01*
X22780Y14270D02*
X23080D01*
Y14420D01*
X23030Y14470D01*
X22930D01*
X22880Y14420D01*
Y14270D01*
Y14370D02*
X22780Y14470D01*
X23030Y14570D02*
X23080Y14620D01*
Y14720D01*
X23030Y14770D01*
X22980D01*
X22930Y14720D01*
X22880Y14770D01*
X22830D01*
X22780Y14720D01*
Y14620D01*
X22830Y14570D01*
X22880D01*
X22930Y14620D01*
X22980Y14570D01*
X23030D01*
X22930Y14620D02*
Y14720D01*
X23250Y14270D02*
X23550D01*
Y14420D01*
X23500Y14470D01*
X23400D01*
X23350Y14420D01*
Y14270D01*
Y14370D02*
X23250Y14470D01*
X23550Y14570D02*
Y14770D01*
X23500D01*
X23300Y14570D01*
X23250D01*
X24770Y6560D02*
Y6860D01*
X24620D01*
X24570Y6810D01*
Y6710D01*
X24620Y6660D01*
X24770D01*
X24670D02*
X24570Y6560D01*
X24270Y6860D02*
X24370Y6810D01*
X24470Y6710D01*
Y6610D01*
X24420Y6560D01*
X24320D01*
X24270Y6610D01*
Y6660D01*
X24320Y6710D01*
X24470D01*
X23730Y14280D02*
X24030D01*
Y14430D01*
X23980Y14480D01*
X23880D01*
X23830Y14430D01*
Y14280D01*
Y14380D02*
X23730Y14480D01*
X24030Y14780D02*
Y14580D01*
X23880D01*
X23930Y14680D01*
Y14730D01*
X23880Y14780D01*
X23780D01*
X23730Y14730D01*
Y14630D01*
X23780Y14580D01*
X19060Y5880D02*
Y6180D01*
X18910D01*
X18860Y6130D01*
Y6030D01*
X18910Y5980D01*
X19060D01*
X18960D02*
X18860Y5880D01*
X18610D02*
Y6180D01*
X18760Y6030D01*
X18560D01*
X24770Y6030D02*
Y6330D01*
X24620D01*
X24570Y6280D01*
Y6180D01*
X24620Y6130D01*
X24770D01*
X24670D02*
X24570Y6030D01*
X24470Y6280D02*
X24420Y6330D01*
X24320D01*
X24270Y6280D01*
Y6230D01*
X24320Y6180D01*
X24370D01*
X24320D01*
X24270Y6130D01*
Y6080D01*
X24320Y6030D01*
X24420D01*
X24470Y6080D01*
X23405Y8610D02*
Y8910D01*
X23255D01*
X23205Y8860D01*
Y8760D01*
X23255Y8710D01*
X23405D01*
X23305D02*
X23205Y8610D01*
X22905D02*
X23105D01*
X22905Y8810D01*
Y8860D01*
X22955Y8910D01*
X23055D01*
X23105Y8860D01*
X20450Y8610D02*
Y8910D01*
X20300D01*
X20250Y8860D01*
Y8760D01*
X20300Y8710D01*
X20450D01*
X20350D02*
X20250Y8610D01*
X20150D02*
X20050D01*
X20100D01*
Y8910D01*
X20150Y8860D01*
X34170Y17830D02*
Y18030D01*
X34220Y18080D01*
X34320D01*
X34370Y18030D01*
Y17830D01*
X34320Y17780D01*
X34220D01*
X34270Y17880D02*
X34170Y17780D01*
X34220D02*
X34170Y17830D01*
X34070Y18080D02*
X33870D01*
Y18030D01*
X34070Y17830D01*
Y17780D01*
X30150Y7930D02*
X29950D01*
X29900Y7980D01*
Y8080D01*
X29950Y8130D01*
X30150D01*
X30200Y8080D01*
Y7980D01*
X30100Y8030D02*
X30200Y7930D01*
Y7980D02*
X30150Y7930D01*
X29900Y7630D02*
X29950Y7730D01*
X30050Y7830D01*
X30150D01*
X30200Y7780D01*
Y7680D01*
X30150Y7630D01*
X30100D01*
X30050Y7680D01*
Y7830D01*
X32810Y21540D02*
Y21740D01*
X32860Y21790D01*
X32960D01*
X33010Y21740D01*
Y21540D01*
X32960Y21490D01*
X32860D01*
X32910Y21590D02*
X32810Y21490D01*
X32860D02*
X32810Y21540D01*
X32510Y21790D02*
X32710D01*
Y21640D01*
X32610Y21690D01*
X32560D01*
X32510Y21640D01*
Y21540D01*
X32560Y21490D01*
X32660D01*
X32710Y21540D01*
X34830Y12240D02*
Y12440D01*
X34880Y12490D01*
X34980D01*
X35030Y12440D01*
Y12240D01*
X34980Y12190D01*
X34880D01*
X34930Y12290D02*
X34830Y12190D01*
X34880D02*
X34830Y12240D01*
X34580Y12190D02*
Y12490D01*
X34730Y12340D01*
X34530D01*
X30810Y10510D02*
X30610D01*
X30560Y10560D01*
Y10660D01*
X30610Y10710D01*
X30810D01*
X30860Y10660D01*
Y10560D01*
X30760Y10610D02*
X30860Y10510D01*
Y10560D02*
X30810Y10510D01*
X30610Y10410D02*
X30560Y10360D01*
Y10260D01*
X30610Y10210D01*
X30660D01*
X30710Y10260D01*
Y10310D01*
Y10260D01*
X30760Y10210D01*
X30810D01*
X30860Y10260D01*
Y10360D01*
X30810Y10410D01*
X18810Y5420D02*
Y5620D01*
X18860Y5670D01*
X18960D01*
X19010Y5620D01*
Y5420D01*
X18960Y5370D01*
X18860D01*
X18910Y5470D02*
X18810Y5370D01*
X18860D02*
X18810Y5420D01*
X18510Y5370D02*
X18710D01*
X18510Y5570D01*
Y5620D01*
X18560Y5670D01*
X18660D01*
X18710Y5620D01*
X23940Y8884D02*
X24140D01*
X24190Y8834D01*
Y8734D01*
X24140Y8684D01*
X23940D01*
X23890Y8734D01*
Y8834D01*
X23990Y8784D02*
X23890Y8884D01*
Y8834D02*
X23940Y8884D01*
X23890Y8984D02*
Y9084D01*
Y9034D01*
X24190D01*
X24140Y8984D01*
X13410Y5840D02*
Y5540D01*
X13260D01*
X13210Y5590D01*
Y5790D01*
X13260Y5840D01*
X13410D01*
X13110Y5540D02*
X13010D01*
X13060D01*
Y5840D01*
X13110Y5790D01*
X35195Y13760D02*
X35245Y13810D01*
X35345D01*
X35395Y13760D01*
Y13560D01*
X35345Y13510D01*
X35245D01*
X35195Y13560D01*
X35095Y13510D02*
X34995D01*
X35045D01*
Y13810D01*
X35095Y13760D01*
X34645Y13810D02*
X34845D01*
Y13660D01*
X34745Y13710D01*
X34695D01*
X34645Y13660D01*
Y13560D01*
X34695Y13510D01*
X34795D01*
X34845Y13560D01*
X18960Y1185D02*
X18910Y1235D01*
Y1335D01*
X18960Y1385D01*
X19160D01*
X19210Y1335D01*
Y1235D01*
X19160Y1185D01*
X19210Y1085D02*
Y985D01*
Y1035D01*
X18910D01*
X18960Y1085D01*
X19210Y685D02*
X18910D01*
X19060Y835D01*
Y635D01*
X35515Y16660D02*
X35565Y16710D01*
X35665D01*
X35715Y16660D01*
Y16460D01*
X35665Y16410D01*
X35565D01*
X35515Y16460D01*
X35415Y16410D02*
X35315D01*
X35365D01*
Y16710D01*
X35415Y16660D01*
X35165D02*
X35115Y16710D01*
X35015D01*
X34965Y16660D01*
Y16610D01*
X35015Y16560D01*
X35065D01*
X35015D01*
X34965Y16510D01*
Y16460D01*
X35015Y16410D01*
X35115D01*
X35165Y16460D01*
X22890Y1795D02*
X22940Y1745D01*
Y1645D01*
X22890Y1595D01*
X22690D01*
X22640Y1645D01*
Y1745D01*
X22690Y1795D01*
X22640Y1895D02*
Y1995D01*
Y1945D01*
X22940D01*
X22890Y1895D01*
X22640Y2345D02*
Y2145D01*
X22840Y2345D01*
X22890D01*
X22940Y2295D01*
Y2195D01*
X22890Y2145D01*
X28220Y14690D02*
X28270Y14640D01*
Y14540D01*
X28220Y14490D01*
X28020D01*
X27970Y14540D01*
Y14640D01*
X28020Y14690D01*
Y14790D02*
X27970Y14840D01*
Y14940D01*
X28020Y14990D01*
X28220D01*
X28270Y14940D01*
Y14840D01*
X28220Y14790D01*
X28170D01*
X28120Y14840D01*
Y14990D01*
X21940Y5730D02*
X21890Y5780D01*
Y5880D01*
X21940Y5930D01*
X22140D01*
X22190Y5880D01*
Y5780D01*
X22140Y5730D01*
X22190Y5480D02*
X21890D01*
X22040Y5630D01*
Y5430D01*
X22460Y5730D02*
X22410Y5780D01*
Y5880D01*
X22460Y5930D01*
X22660D01*
X22710Y5880D01*
Y5780D01*
X22660Y5730D01*
X22460Y5630D02*
X22410Y5580D01*
Y5480D01*
X22460Y5430D01*
X22510D01*
X22560Y5480D01*
Y5530D01*
Y5480D01*
X22610Y5430D01*
X22660D01*
X22710Y5480D01*
Y5580D01*
X22660Y5630D01*
X15650Y7000D02*
X15700Y6950D01*
Y6850D01*
X15650Y6800D01*
X15450D01*
X15400Y6850D01*
Y6950D01*
X15450Y7000D01*
X15400Y7300D02*
Y7100D01*
X15600Y7300D01*
X15650D01*
X15700Y7250D01*
Y7150D01*
X15650Y7100D01*
X16240Y7010D02*
X16290Y6960D01*
Y6860D01*
X16240Y6810D01*
X16040D01*
X15990Y6860D01*
Y6960D01*
X16040Y7010D01*
X15990Y7110D02*
Y7210D01*
Y7160D01*
X16290D01*
X16240Y7110D01*
D163*
X14205Y5050D02*
D03*
D164*
X5545Y15738D02*
D03*
M02*
