G04*
G04 #@! TF.GenerationSoftware,Altium Limited,Altium Designer,20.2.6 (244)*
G04*
G04 Layer_Color=16711935*
%FSLAX24Y24*%
%MOIN*%
G70*
G04*
G04 #@! TF.SameCoordinates,01985295-A94F-4E40-9557-9D24556334AB*
G04*
G04*
G04 #@! TF.FilePolarity,Negative*
G04*
G01*
G75*
%ADD37R,0.0984X0.0984*%
%ADD62R,0.0434X0.0454*%
%ADD63R,0.0454X0.0434*%
%ADD72R,0.1064X0.1064*%
%ADD92R,0.0710X0.0710*%
%ADD93C,0.0710*%
%ADD94C,0.1064*%
%ADD95C,0.1852*%
%ADD96R,0.0671X0.0671*%
%ADD97C,0.0671*%
%ADD98O,0.1180X0.0907*%
%ADD99R,0.1180X0.0907*%
%ADD114R,0.0709X0.0472*%
%ADD115R,0.0472X0.0709*%
%ADD121R,0.0215X0.0417*%
G04:AMPARAMS|DCode=122|XSize=41.7mil|YSize=21.5mil|CornerRadius=10.8mil|HoleSize=0mil|Usage=FLASHONLY|Rotation=270.000|XOffset=0mil|YOffset=0mil|HoleType=Round|Shape=RoundedRectangle|*
%AMROUNDEDRECTD122*
21,1,0.0417,0.0000,0,0,270.0*
21,1,0.0202,0.0215,0,0,270.0*
1,1,0.0215,0.0000,-0.0101*
1,1,0.0215,0.0000,0.0101*
1,1,0.0215,0.0000,0.0101*
1,1,0.0215,0.0000,-0.0101*
%
%ADD122ROUNDEDRECTD122*%
%ADD123R,0.0224X0.0593*%
G04:AMPARAMS|DCode=124|XSize=59.3mil|YSize=22.4mil|CornerRadius=11.2mil|HoleSize=0mil|Usage=FLASHONLY|Rotation=270.000|XOffset=0mil|YOffset=0mil|HoleType=Round|Shape=RoundedRectangle|*
%AMROUNDEDRECTD124*
21,1,0.0593,0.0000,0,0,270.0*
21,1,0.0368,0.0224,0,0,270.0*
1,1,0.0224,0.0000,-0.0184*
1,1,0.0224,0.0000,0.0184*
1,1,0.0224,0.0000,0.0184*
1,1,0.0224,0.0000,-0.0184*
%
%ADD124ROUNDEDRECTD124*%
%ADD125R,0.0094X0.0354*%
%ADD126R,0.0354X0.0094*%
G04:AMPARAMS|DCode=128|XSize=71.8mil|YSize=24.3mil|CornerRadius=12.2mil|HoleSize=0mil|Usage=FLASHONLY|Rotation=270.000|XOffset=0mil|YOffset=0mil|HoleType=Round|Shape=RoundedRectangle|*
%AMROUNDEDRECTD128*
21,1,0.0718,0.0000,0,0,270.0*
21,1,0.0475,0.0243,0,0,270.0*
1,1,0.0243,0.0000,-0.0237*
1,1,0.0243,0.0000,0.0237*
1,1,0.0243,0.0000,0.0237*
1,1,0.0243,0.0000,-0.0237*
%
%ADD128ROUNDEDRECTD128*%
%ADD129R,0.0243X0.0718*%
G04:AMPARAMS|DCode=130|XSize=71.8mil|YSize=24.3mil|CornerRadius=12.2mil|HoleSize=0mil|Usage=FLASHONLY|Rotation=180.000|XOffset=0mil|YOffset=0mil|HoleType=Round|Shape=RoundedRectangle|*
%AMROUNDEDRECTD130*
21,1,0.0718,0.0000,0,0,180.0*
21,1,0.0475,0.0243,0,0,180.0*
1,1,0.0243,-0.0237,0.0000*
1,1,0.0243,0.0237,0.0000*
1,1,0.0243,0.0237,0.0000*
1,1,0.0243,-0.0237,0.0000*
%
%ADD130ROUNDEDRECTD130*%
%ADD131R,0.0718X0.0243*%
%ADD132R,0.0094X0.0354*%
%ADD133R,0.0354X0.0094*%
%ADD134R,0.0984X0.0984*%
%ADD141R,0.0277X0.0237*%
%ADD142R,0.0395X0.0631*%
%ADD143R,0.0395X0.0671*%
%ADD144R,0.0474X0.1108*%
%ADD145R,0.0454X0.0277*%
%ADD146R,0.0277X0.0454*%
%ADD147R,0.0749X0.1064*%
%ADD148R,0.1143X0.0710*%
%ADD149R,0.0789X0.0611*%
%ADD150R,0.0651X0.0887*%
%ADD151R,0.1379X0.1064*%
G04:AMPARAMS|DCode=152|XSize=60.8mil|YSize=137.5mil|CornerRadius=10.6mil|HoleSize=0mil|Usage=FLASHONLY|Rotation=270.000|XOffset=0mil|YOffset=0mil|HoleType=Round|Shape=RoundedRectangle|*
%AMROUNDEDRECTD152*
21,1,0.0608,0.1163,0,0,270.0*
21,1,0.0396,0.1375,0,0,270.0*
1,1,0.0212,-0.0582,-0.0198*
1,1,0.0212,-0.0582,0.0198*
1,1,0.0212,0.0582,0.0198*
1,1,0.0212,0.0582,-0.0198*
%
%ADD152ROUNDEDRECTD152*%
D37*
X31253Y15187D02*
D03*
D62*
X32030Y13025D02*
D03*
Y13615D02*
D03*
X24410Y12845D02*
D03*
Y13435D02*
D03*
X25215Y12865D02*
D03*
Y13455D02*
D03*
X26035Y12865D02*
D03*
Y13456D02*
D03*
X27600Y14165D02*
D03*
Y14755D02*
D03*
X26045Y14005D02*
D03*
Y14596D02*
D03*
X25220Y14005D02*
D03*
Y14595D02*
D03*
X24400Y13985D02*
D03*
Y14575D02*
D03*
X34150Y18505D02*
D03*
Y19095D02*
D03*
X30500Y12995D02*
D03*
Y13585D02*
D03*
X31190Y13025D02*
D03*
Y13615D02*
D03*
X29980Y13585D02*
D03*
Y12995D02*
D03*
X29380D02*
D03*
Y13585D02*
D03*
X32620Y11995D02*
D03*
Y12585D02*
D03*
X29640Y11035D02*
D03*
Y11625D02*
D03*
X29590Y8625D02*
D03*
Y9215D02*
D03*
X28900Y8655D02*
D03*
Y9245D02*
D03*
X28400Y8645D02*
D03*
Y9235D02*
D03*
X21990Y5055D02*
D03*
Y4465D02*
D03*
X22490D02*
D03*
Y5055D02*
D03*
X22740Y635D02*
D03*
Y1225D02*
D03*
X23270Y635D02*
D03*
Y1225D02*
D03*
X19590Y585D02*
D03*
Y1175D02*
D03*
X16170Y6415D02*
D03*
Y5825D02*
D03*
X15620Y5835D02*
D03*
Y6425D02*
D03*
D63*
X23315Y6130D02*
D03*
X23905D02*
D03*
X23315Y6670D02*
D03*
X23905D02*
D03*
X30479Y20960D02*
D03*
X31070D02*
D03*
X30475Y21480D02*
D03*
X31065D02*
D03*
X33675Y13610D02*
D03*
X34265D02*
D03*
X34605Y16620D02*
D03*
X34015D02*
D03*
X34605Y17170D02*
D03*
X34015D02*
D03*
X34805Y19080D02*
D03*
X35395D02*
D03*
X30245Y12350D02*
D03*
X29655D02*
D03*
X33665Y13100D02*
D03*
X34255D02*
D03*
X22535Y8700D02*
D03*
X21945D02*
D03*
X20845D02*
D03*
X21435D02*
D03*
X19445Y6520D02*
D03*
X20035D02*
D03*
X19445Y5980D02*
D03*
X20035D02*
D03*
X18825Y4040D02*
D03*
X19415D02*
D03*
X18825Y3170D02*
D03*
X19415D02*
D03*
X18825Y2250D02*
D03*
X19415D02*
D03*
D72*
X16240Y8120D02*
D03*
D92*
X16050Y5210D02*
D03*
D93*
X15050D02*
D03*
D94*
X14681Y8120D02*
D03*
D95*
X34729Y20902D02*
D03*
X1219Y1042D02*
D03*
Y20902D02*
D03*
X34729Y1042D02*
D03*
D96*
X9750Y21470D02*
D03*
D97*
Y20470D02*
D03*
X10750Y21470D02*
D03*
Y20470D02*
D03*
X11750Y21470D02*
D03*
Y20470D02*
D03*
X12750Y21470D02*
D03*
Y20470D02*
D03*
X13750Y21470D02*
D03*
Y20470D02*
D03*
X14750Y21470D02*
D03*
Y20470D02*
D03*
X15750Y21470D02*
D03*
Y20470D02*
D03*
X16750Y21470D02*
D03*
Y20470D02*
D03*
X17750Y21470D02*
D03*
Y20470D02*
D03*
X18750Y21470D02*
D03*
Y20470D02*
D03*
X19750Y21470D02*
D03*
Y20470D02*
D03*
X20750Y21470D02*
D03*
Y20470D02*
D03*
X21750Y21470D02*
D03*
Y20470D02*
D03*
D98*
X3329Y12930D02*
D03*
D99*
Y14430D02*
D03*
D114*
X21990Y1440D02*
D03*
X20415D02*
D03*
Y495D02*
D03*
X21990D02*
D03*
D115*
X33668Y15907D02*
D03*
Y14333D02*
D03*
X34612D02*
D03*
Y15907D02*
D03*
D121*
X34760Y18585D02*
D03*
X33500Y12355D02*
D03*
D122*
X35480Y18585D02*
D03*
X35120Y17895D02*
D03*
X34220Y12355D02*
D03*
X33860Y11665D02*
D03*
D123*
X30152Y18050D02*
D03*
X32334Y17187D02*
D03*
D124*
X30526Y18050D02*
D03*
X30900D02*
D03*
Y17183D02*
D03*
X30526D02*
D03*
X30152D02*
D03*
X31960Y17187D02*
D03*
X31586D02*
D03*
Y18053D02*
D03*
X31960D02*
D03*
X32334D02*
D03*
D125*
X31745Y15994D02*
D03*
X31548D02*
D03*
X31351D02*
D03*
X31154D02*
D03*
X30958D02*
D03*
X30761D02*
D03*
Y14380D02*
D03*
X30958D02*
D03*
X31154D02*
D03*
X31351D02*
D03*
X31548D02*
D03*
X31745D02*
D03*
D126*
X30446Y15679D02*
D03*
Y15482D02*
D03*
Y15286D02*
D03*
Y15089D02*
D03*
Y14892D02*
D03*
Y14695D02*
D03*
X32060D02*
D03*
Y14892D02*
D03*
Y15089D02*
D03*
Y15286D02*
D03*
Y15482D02*
D03*
Y15679D02*
D03*
D128*
X23664Y7358D02*
D03*
X24038Y8114D02*
D03*
D129*
X23290D02*
D03*
D130*
X19114Y5114D02*
D03*
X19870Y4740D02*
D03*
D131*
Y5488D02*
D03*
D132*
X21627Y2220D02*
D03*
X21431D02*
D03*
X21234D02*
D03*
X21037D02*
D03*
X20840D02*
D03*
X20643D02*
D03*
Y3834D02*
D03*
X20840D02*
D03*
X21037D02*
D03*
X21234D02*
D03*
X21431D02*
D03*
X21627D02*
D03*
D133*
X20328Y2535D02*
D03*
Y2732D02*
D03*
Y2929D02*
D03*
Y3126D02*
D03*
Y3322D02*
D03*
Y3519D02*
D03*
X21942D02*
D03*
Y3322D02*
D03*
Y3126D02*
D03*
Y2929D02*
D03*
Y2732D02*
D03*
Y2535D02*
D03*
D134*
X21135Y3027D02*
D03*
D141*
X27158Y14576D02*
D03*
Y14320D02*
D03*
Y14064D02*
D03*
X26410D02*
D03*
Y14320D02*
D03*
Y14576D02*
D03*
D142*
X27223Y15396D02*
D03*
X26723D02*
D03*
X25723D02*
D03*
X26223D02*
D03*
X25223D02*
D03*
X27597D02*
D03*
D143*
X24723D02*
D03*
D144*
X24105Y21300D02*
D03*
X29190Y21350D02*
D03*
Y16278D02*
D03*
X24105Y16328D02*
D03*
D145*
X32474Y21240D02*
D03*
X31666Y21496D02*
D03*
Y20984D02*
D03*
D146*
X30440Y11036D02*
D03*
X30696Y11844D02*
D03*
X30184D02*
D03*
X30380Y8396D02*
D03*
X30636Y9204D02*
D03*
X30124D02*
D03*
D147*
X14190Y4080D02*
D03*
Y5680D02*
D03*
D148*
X9330Y15222D02*
D03*
Y14120D02*
D03*
X7690Y15240D02*
D03*
Y14138D02*
D03*
D149*
X8740Y17710D02*
D03*
Y16391D02*
D03*
D150*
X7500Y16569D02*
D03*
Y17691D02*
D03*
D151*
X5520Y15036D02*
D03*
Y17780D02*
D03*
D152*
X1040Y17520D02*
D03*
Y15827D02*
D03*
M02*
